<?xml version="1.0" encoding="UTF-8" standalone="no"?><svg xmlns="http://www.w3.org/2000/svg" xmlns:xlink="http://www.w3.org/1999/xlink" clip-rule="evenodd" stroke-miterlimit="4.00" viewBox="0 0 189 68"><desc>SVG generated by Keynote</desc><defs></defs><g transform="matrix(1.00, 0.00, -0.00, -1.00, 0.0, 68.0)"><path d="M 24.3 66.1 L 165.0 66.1 C 171.6 66.1 174.9 66.1 178.4 65.0 C 182.3 63.6 185.4 60.5 186.8 56.6 C 187.9 53.1 187.9 49.7 187.9 43.1 L 187.9 24.1 C 187.9 17.5 187.9 14.2 186.8 10.6 C 185.4 6.7 182.3 3.7 178.4 2.3 C 174.9 1.1 171.6 1.1 164.9 1.1 L 24.3 1.1 C 17.7 1.1 14.4 1.1 10.8 2.3 C 6.9 3.7 3.9 6.7 2.5 10.6 C 1.3 14.2 1.3 17.5 1.3 24.2 L 1.3 43.2 C 1.3 49.7 1.3 53.1 2.5 56.6 C 3.9 60.5 6.9 63.6 10.8 65.0 C 14.4 66.1 17.7 66.1 24.4 66.1 Z M 24.3 66.1 " fill="#6FBF40"></path><g><clipPath id="clip-29"><path d="M -2.2 1.1 L 191.4 1.1 L 191.4 66.1 L -2.2 66.1 Z M -2.2 1.1 "></path></clipPath><g clip-path="url(#clip-29)"><text xml:space="preserve" font-family="Helvetica-Light" font-size="32.0" fill="#000000" transform="matrix(1.00, 0.00, -0.00, -1.00, 61.0, 22.0)">T</text><text xml:space="preserve" font-family="Helvetica-Light" font-size="32.0" fill="#000000" transform="matrix(1.00, 0.00, -0.00, -1.00, 75.2, 22.0)">a</text><text xml:space="preserve" font-family="Helvetica-Light" font-size="32.0" fill="#000000" transform="matrix(1.00, 0.00, -0.00, -1.00, 93.0, 22.0)">g</text><text xml:space="preserve" font-family="Helvetica-Light" font-size="32.0" fill="#000000" transform="matrix(1.00, 0.00, -0.00, -1.00, 112.6, 22.0)">s</text></g></g></g></svg>