<?xml version="1.0" encoding="UTF-8" standalone="no"?><svg xmlns="http://www.w3.org/2000/svg" xmlns:xlink="http://www.w3.org/1999/xlink" clip-rule="evenodd" stroke-miterlimit="4.00" viewBox="0 0 189 68"><desc>SVG generated by Keynote</desc><defs></defs><g transform="matrix(1.00, 0.00, -0.00, -1.00, 0.0, 68.0)"><path d="M 24.3 66.5 L 165.0 66.5 C 171.6 66.5 174.9 66.5 178.4 65.4 C 182.3 63.9 185.4 60.9 186.8 57.0 C 187.9 53.5 187.9 50.1 187.9 43.4 L 187.9 24.5 C 187.9 17.9 187.9 14.5 186.8 11.0 C 185.4 7.1 182.3 4.1 178.4 2.6 C 174.9 1.5 171.6 1.5 164.9 1.5 L 24.3 1.5 C 17.7 1.5 14.4 1.5 10.8 2.6 C 6.9 4.1 3.9 7.1 2.5 11.0 C 1.3 14.5 1.3 17.9 1.3 24.6 L 1.3 43.5 C 1.3 50.1 1.3 53.5 2.5 57.0 C 3.9 60.9 6.9 63.9 10.8 65.4 C 14.4 66.5 17.7 66.5 24.4 66.5 Z M 24.3 66.5 " fill="#6FBF40"></path><g><clipPath id="clip-23"><path d="M -2.2 1.5 L 191.4 1.5 L 191.4 66.5 L -2.2 66.5 Z M -2.2 1.5 "></path></clipPath><g clip-path="url(#clip-23)"><text xml:space="preserve" font-family="Helvetica-Light" font-size="32.0" fill="#000000" transform="matrix(1.00, 0.00, -0.00, -1.00, 23.0, 22.0)">D</text><text xml:space="preserve" font-family="Helvetica-Light" font-size="32.0" fill="#000000" transform="matrix(1.00, 0.00, -0.00, -1.00, 46.1, 22.0)">i</text><text xml:space="preserve" font-family="Helvetica-Light" font-size="32.0" fill="#000000" transform="matrix(1.00, 0.00, -0.00, -1.00, 53.2, 22.0)">r</text><text xml:space="preserve" font-family="Helvetica-Light" font-size="32.0" fill="#000000" transform="matrix(1.00, 0.00, -0.00, -1.00, 63.3, 22.0)">e</text><text xml:space="preserve" font-family="Helvetica-Light" font-size="32.0" fill="#000000" transform="matrix(1.00, 0.00, -0.00, -1.00, 81.1, 22.0)">c</text><text xml:space="preserve" font-family="Helvetica-Light" font-size="32.0" fill="#000000" transform="matrix(1.00, 0.00, -0.00, -1.00, 98.9, 22.0)">t</text><text xml:space="preserve" font-family="Helvetica-Light" font-size="32.0" fill="#000000" transform="matrix(1.00, 0.00, -0.00, -1.00, 107.8, 22.0)">i</text><text xml:space="preserve" font-family="Helvetica-Light" font-size="32.0" fill="#000000" transform="matrix(1.00, 0.00, -0.00, -1.00, 114.9, 22.0)">o</text><text xml:space="preserve" font-family="Helvetica-Light" font-size="32.0" fill="#000000" transform="matrix(1.00, 0.00, -0.00, -1.00, 132.7, 22.0)">n</text><text xml:space="preserve" font-family="Helvetica-Light" font-size="32.0" fill="#000000" transform="matrix(1.00, 0.00, -0.00, -1.00, 150.5, 22.0)">s</text></g></g></g></svg>