<?xml version="1.0" encoding="UTF-8" standalone="no"?><svg xmlns="http://www.w3.org/2000/svg" xmlns:xlink="http://www.w3.org/1999/xlink" clip-rule="evenodd" stroke-miterlimit="4.00" viewBox="0 0 190 68"><desc>SVG generated by Keynote</desc><defs></defs><g transform="matrix(1.00, 0.00, -0.00, -1.00, 0.0, 68.0)"><path d="M 24.5 66.2 L 165.2 66.2 C 171.8 66.2 175.1 66.2 178.7 65.1 C 182.6 63.6 185.6 60.6 187.0 56.7 C 188.2 53.2 188.2 49.8 188.2 43.1 L 188.2 24.2 C 188.2 17.6 188.2 14.2 187.0 10.7 C 185.6 6.8 182.6 3.8 178.7 2.4 C 175.1 1.2 171.8 1.2 165.1 1.2 L 24.5 1.2 C 17.9 1.2 14.6 1.2 11.1 2.4 C 7.2 3.8 4.1 6.8 2.7 10.7 C 1.6 14.2 1.6 17.6 1.6 24.3 L 1.6 43.3 C 1.6 49.8 1.6 53.2 2.7 56.7 C 4.1 60.6 7.2 63.6 11.1 65.1 C 14.6 66.2 17.9 66.2 24.6 66.2 Z M 24.5 66.2 " fill="#6FBF40"></path><g><clipPath id="clip-31"><path d="M -1.9 1.2 L 191.7 1.2 L 191.7 66.2 L -1.9 66.2 Z M -1.9 1.2 "></path></clipPath><g clip-path="url(#clip-31)"><text xml:space="preserve" font-family="Helvetica-Light" font-size="32.0" fill="#000000" transform="matrix(1.00, 0.00, -0.00, -1.00, 23.0, 22.0)">D</text><text xml:space="preserve" font-family="Helvetica-Light" font-size="32.0" fill="#000000" transform="matrix(1.00, 0.00, -0.00, -1.00, 46.1, 22.0)">i</text><text xml:space="preserve" font-family="Helvetica-Light" font-size="32.0" fill="#000000" transform="matrix(1.00, 0.00, -0.00, -1.00, 53.2, 22.0)">r</text><text xml:space="preserve" font-family="Helvetica-Light" font-size="32.0" fill="#000000" transform="matrix(1.00, 0.00, -0.00, -1.00, 63.3, 22.0)">e</text><text xml:space="preserve" font-family="Helvetica-Light" font-size="32.0" fill="#000000" transform="matrix(1.00, 0.00, -0.00, -1.00, 81.1, 22.0)">c</text><text xml:space="preserve" font-family="Helvetica-Light" font-size="32.0" fill="#000000" transform="matrix(1.00, 0.00, -0.00, -1.00, 98.9, 22.0)">t</text><text xml:space="preserve" font-family="Helvetica-Light" font-size="32.0" fill="#000000" transform="matrix(1.00, 0.00, -0.00, -1.00, 107.8, 22.0)">i</text><text xml:space="preserve" font-family="Helvetica-Light" font-size="32.0" fill="#000000" transform="matrix(1.00, 0.00, -0.00, -1.00, 114.9, 22.0)">o</text><text xml:space="preserve" font-family="Helvetica-Light" font-size="32.0" fill="#000000" transform="matrix(1.00, 0.00, -0.00, -1.00, 132.7, 22.0)">n</text><text xml:space="preserve" font-family="Helvetica-Light" font-size="32.0" fill="#000000" transform="matrix(1.00, 0.00, -0.00, -1.00, 150.5, 22.0)">s</text></g></g></g></svg>