<?xml version="1.0" encoding="UTF-8" standalone="no"?><svg xmlns="http://www.w3.org/2000/svg" xmlns:xlink="http://www.w3.org/1999/xlink" clip-rule="evenodd" stroke-miterlimit="4.00" viewBox="0 0 356 106"><desc>SVG generated by Keynote</desc><defs></defs><g transform="matrix(1.00, 0.00, -0.00, -1.00, 0.0, 106.0)"><path d="M 24.8 104.7 L 330.9 104.7 C 337.7 104.7 341.2 104.7 344.8 103.6 C 348.8 102.1 352.0 99.0 353.4 95.0 C 354.6 91.3 354.6 87.9 354.6 81.0 L 354.6 25.3 C 354.6 18.5 354.6 15.0 353.4 11.4 C 352.0 7.4 348.8 4.2 344.8 2.8 C 341.2 1.6 337.7 1.6 330.8 1.6 L 24.8 1.6 C 18.0 1.6 14.6 1.6 10.9 2.8 C 6.9 4.2 3.8 7.4 2.3 11.4 C 1.2 15.0 1.2 18.5 1.2 25.4 L 1.2 81.1 C 1.2 87.9 1.2 91.3 2.3 95.0 C 3.8 99.0 6.9 102.1 10.9 103.6 C 14.6 104.7 18.0 104.7 24.9 104.7 Z M 24.8 104.7 " fill="#51A7F9"></path><g><clipPath id="clip-32"><path d="M -7.3 1.6 L 363.1 1.6 L 363.1 104.7 L -7.3 104.7 Z M -7.3 1.6 "></path></clipPath><g clip-path="url(#clip-32)"><text xml:space="preserve" font-family="Helvetica-Bold" font-weight="bold" font-size="50.0" fill="#000000" transform="matrix(1.00, 0.00, -0.00, -1.00, 25.0, 34.0)">C</text><text xml:space="preserve" font-family="Helvetica-Bold" font-weight="bold" font-size="50.0" fill="#000000" transform="matrix(1.00, 0.00, -0.00, -1.00, 61.1, 34.0)">o</text><text xml:space="preserve" font-family="Helvetica-Bold" font-weight="bold" font-size="50.0" fill="#000000" transform="matrix(1.00, 0.00, -0.00, -1.00, 91.7, 34.0)">m</text><text xml:space="preserve" font-family="Helvetica-Bold" font-weight="bold" font-size="50.0" fill="#000000" transform="matrix(1.00, 0.00, -0.00, -1.00, 136.1, 34.0)">p</text><text xml:space="preserve" font-family="Helvetica-Bold" font-weight="bold" font-size="50.0" fill="#000000" transform="matrix(1.00, 0.00, -0.00, -1.00, 166.7, 34.0)">o</text><text xml:space="preserve" font-family="Helvetica-Bold" font-weight="bold" font-size="50.0" fill="#000000" transform="matrix(1.00, 0.00, -0.00, -1.00, 197.2, 34.0)">n</text><text xml:space="preserve" font-family="Helvetica-Bold" font-weight="bold" font-size="50.0" fill="#000000" transform="matrix(1.00, 0.00, -0.00, -1.00, 227.7, 34.0)">e</text><text xml:space="preserve" font-family="Helvetica-Bold" font-weight="bold" font-size="50.0" fill="#000000" transform="matrix(1.00, 0.00, -0.00, -1.00, 255.5, 34.0)">n</text><text xml:space="preserve" font-family="Helvetica-Bold" font-weight="bold" font-size="50.0" fill="#000000" transform="matrix(1.00, 0.00, -0.00, -1.00, 286.1, 34.0)">t</text><text xml:space="preserve" font-family="Helvetica-Bold" font-weight="bold" font-size="50.0" fill="#000000" transform="matrix(1.00, 0.00, -0.00, -1.00, 302.7, 34.0)">s</text></g></g></g></svg>