<?xml version="1.0" encoding="UTF-8" standalone="no"?><svg xmlns="http://www.w3.org/2000/svg" xmlns:xlink="http://www.w3.org/1999/xlink" clip-rule="evenodd" stroke-miterlimit="4.00" viewBox="0 0 190 68"><desc>SVG generated by Keynote</desc><defs></defs><g transform="matrix(1.00, 0.00, -0.00, -1.00, 0.0, 68.0)"><path d="M 24.6 66.2 L 165.3 66.2 C 171.8 66.2 175.2 66.2 178.7 65.1 C 182.6 63.6 185.7 60.6 187.1 56.7 C 188.2 53.2 188.2 49.8 188.2 43.1 L 188.2 24.2 C 188.2 17.6 188.2 14.2 187.1 10.7 C 185.7 6.8 182.6 3.8 178.7 2.4 C 175.2 1.2 171.8 1.2 165.2 1.2 L 24.6 1.2 C 18.0 1.2 14.6 1.2 11.1 2.4 C 7.2 3.8 4.2 6.8 2.8 10.7 C 1.6 14.2 1.6 17.6 1.6 24.3 L 1.6 43.3 C 1.6 49.8 1.6 53.2 2.8 56.7 C 4.2 60.6 7.2 63.6 11.1 65.1 C 14.6 66.2 18.0 66.2 24.7 66.2 Z M 24.6 66.2 " fill="#6FBF40"></path><g><clipPath id="clip-133"><path d="M -1.9 1.2 L 191.7 1.2 L 191.7 66.2 L -1.9 66.2 Z M -1.9 1.2 "></path></clipPath><g clip-path="url(#clip-133)"><text xml:space="preserve" font-family="Helvetica-Light" font-size="32.0" fill="#000000" transform="matrix(1.00, 0.00, -0.00, -1.00, 61.0, 22.0)">T</text><text xml:space="preserve" font-family="Helvetica-Light" font-size="32.0" fill="#000000" transform="matrix(1.00, 0.00, -0.00, -1.00, 75.2, 22.0)">a</text><text xml:space="preserve" font-family="Helvetica-Light" font-size="32.0" fill="#000000" transform="matrix(1.00, 0.00, -0.00, -1.00, 93.0, 22.0)">g</text><text xml:space="preserve" font-family="Helvetica-Light" font-size="32.0" fill="#000000" transform="matrix(1.00, 0.00, -0.00, -1.00, 112.6, 22.0)">s</text></g></g></g></svg>