<?xml version="1.0" encoding="UTF-8" standalone="no"?><svg xmlns="http://www.w3.org/2000/svg" xmlns:xlink="http://www.w3.org/1999/xlink" clip-rule="evenodd" stroke-miterlimit="4.00" viewBox="0 0 179 16"><desc>SVG generated by Keynote</desc><defs></defs><g transform="matrix(1.00, 0.00, -0.00, -1.00, 0.0, 16.0)"><text xml:space="preserve" font-family="Courier" font-size="14.0" fill="#000000" transform="matrix(1.00, 0.00, -0.00, -1.00, 0.2, 5.0)">2</text><text xml:space="preserve" font-family="Courier" font-size="14.0" fill="#000000" transform="matrix(1.00, 0.00, -0.00, -1.00, 8.6, 5.0)">9</text><text xml:space="preserve" font-family="Courier" font-size="14.0" fill="#000000" transform="matrix(1.00, 0.00, -0.00, -1.00, 17.0, 5.0)">8</text><text xml:space="preserve" font-family="Courier" font-size="14.0" fill="#000000" transform="matrix(1.00, 0.00, -0.00, -1.00, 25.4, 5.0)"> </text><text xml:space="preserve" font-family="Courier" font-size="14.0" fill="#000000" transform="matrix(1.00, 0.00, -0.00, -1.00, 33.8, 5.0)">m</text><text xml:space="preserve" font-family="Courier" font-size="14.0" fill="#000000" transform="matrix(1.00, 0.00, -0.00, -1.00, 42.2, 5.0)">i</text><text xml:space="preserve" font-family="Courier" font-size="14.0" fill="#000000" transform="matrix(1.00, 0.00, -0.00, -1.00, 50.6, 5.0)">l</text><text xml:space="preserve" font-family="Courier" font-size="14.0" fill="#000000" transform="matrix(1.00, 0.00, -0.00, -1.00, 59.0, 5.0)">l</text><text xml:space="preserve" font-family="Courier" font-size="14.0" fill="#000000" transform="matrix(1.00, 0.00, -0.00, -1.00, 67.4, 5.0)">i</text><text xml:space="preserve" font-family="Courier" font-size="14.0" fill="#000000" transform="matrix(1.00, 0.00, -0.00, -1.00, 75.8, 5.0)">g</text><text xml:space="preserve" font-family="Courier" font-size="14.0" fill="#000000" transform="matrix(1.00, 0.00, -0.00, -1.00, 84.2, 5.0)">r</text><text xml:space="preserve" font-family="Courier" font-size="14.0" fill="#000000" transform="matrix(1.00, 0.00, -0.00, -1.00, 92.6, 5.0)">a</text><text xml:space="preserve" font-family="Courier" font-size="14.0" fill="#000000" transform="matrix(1.00, 0.00, -0.00, -1.00, 101.0, 5.0)">m</text><text xml:space="preserve" font-family="Courier" font-size="14.0" fill="#000000" transform="matrix(1.00, 0.00, -0.00, -1.00, 109.4, 5.0)">s</text><text xml:space="preserve" font-family="Courier" font-size="14.0" fill="#000000" transform="matrix(1.00, 0.00, -0.00, -1.00, 117.8, 5.0)"> </text><text xml:space="preserve" font-family="Courier" font-size="14.0" fill="#000000" transform="matrix(1.00, 0.00, -0.00, -1.00, 126.2, 5.0)">s</text><text xml:space="preserve" font-family="Courier" font-size="14.0" fill="#000000" transform="matrix(1.00, 0.00, -0.00, -1.00, 134.6, 5.0)">o</text><text xml:space="preserve" font-family="Courier" font-size="14.0" fill="#000000" transform="matrix(1.00, 0.00, -0.00, -1.00, 143.1, 5.0)">d</text><text xml:space="preserve" font-family="Courier" font-size="14.0" fill="#000000" transform="matrix(1.00, 0.00, -0.00, -1.00, 151.5, 5.0)">i</text><text xml:space="preserve" font-family="Courier" font-size="14.0" fill="#000000" transform="matrix(1.00, 0.00, -0.00, -1.00, 159.9, 5.0)">u</text><text xml:space="preserve" font-family="Courier" font-size="14.0" fill="#000000" transform="matrix(1.00, 0.00, -0.00, -1.00, 168.3, 5.0)">m</text></g></svg>