<?xml version="1.0" encoding="UTF-8" standalone="no"?><svg xmlns="http://www.w3.org/2000/svg" xmlns:xlink="http://www.w3.org/1999/xlink" clip-rule="evenodd" stroke-miterlimit="4.00" viewBox="0 0 1546 42"><desc>SVG generated by Keynote</desc><defs></defs><g transform="matrix(1.00, 0.00, -0.00, -1.00, 0.0, 42.0)"><text xml:space="preserve" font-family="Courier" font-size="46.0" fill="#000000" transform="matrix(1.00, 0.00, -0.00, -1.00, 1.0, 11.0)">b</text><text xml:space="preserve" font-family="Courier" font-size="46.0" fill="#000000" transform="matrix(1.00, 0.00, -0.00, -1.00, 28.6, 11.0)">l</text><text xml:space="preserve" font-family="Courier" font-size="46.0" fill="#000000" transform="matrix(1.00, 0.00, -0.00, -1.00, 56.2, 11.0)">e</text><text xml:space="preserve" font-family="Courier" font-size="46.0" fill="#000000" transform="matrix(1.00, 0.00, -0.00, -1.00, 83.8, 11.0)">n</text><text xml:space="preserve" font-family="Courier" font-size="46.0" fill="#000000" transform="matrix(1.00, 0.00, -0.00, -1.00, 111.4, 11.0)">d</text><text xml:space="preserve" font-family="Courier" font-size="46.0" fill="#000000" transform="matrix(1.00, 0.00, -0.00, -1.00, 139.0, 11.0)">e</text><text xml:space="preserve" font-family="Courier" font-size="46.0" fill="#000000" transform="matrix(1.00, 0.00, -0.00, -1.00, 166.7, 11.0)">r</text><text xml:space="preserve" font-family="Courier" font-size="46.0" fill="#000000" transform="matrix(1.00, 0.00, -0.00, -1.00, 194.3, 11.0)"> </text><text xml:space="preserve" font-family="Courier" font-size="46.0" fill="#000000" transform="matrix(1.00, 0.00, -0.00, -1.00, 221.9, 11.0)">b</text><text xml:space="preserve" font-family="Courier" font-size="46.0" fill="#000000" transform="matrix(1.00, 0.00, -0.00, -1.00, 249.5, 11.0)">l</text><text xml:space="preserve" font-family="Courier" font-size="46.0" fill="#000000" transform="matrix(1.00, 0.00, -0.00, -1.00, 277.1, 11.0)">e</text><text xml:space="preserve" font-family="Courier" font-size="46.0" fill="#000000" transform="matrix(1.00, 0.00, -0.00, -1.00, 304.7, 11.0)">n</text><text xml:space="preserve" font-family="Courier" font-size="46.0" fill="#000000" transform="matrix(1.00, 0.00, -0.00, -1.00, 332.3, 11.0)">d</text><text xml:space="preserve" font-family="Courier" font-size="46.0" fill="#000000" transform="matrix(1.00, 0.00, -0.00, -1.00, 359.9, 11.0)">,</text><text xml:space="preserve" font-family="Courier" font-size="46.0" fill="#000000" transform="matrix(1.00, 0.00, -0.00, -1.00, 387.5, 11.0)"> </text><text xml:space="preserve" font-family="Courier" font-size="46.0" fill="#000000" transform="matrix(1.00, 0.00, -0.00, -1.00, 415.1, 11.0)">b</text><text xml:space="preserve" font-family="Courier" font-size="46.0" fill="#000000" transform="matrix(1.00, 0.00, -0.00, -1.00, 442.7, 11.0)">l</text><text xml:space="preserve" font-family="Courier" font-size="46.0" fill="#000000" transform="matrix(1.00, 0.00, -0.00, -1.00, 470.4, 11.0)">e</text><text xml:space="preserve" font-family="Courier" font-size="46.0" fill="#000000" transform="matrix(1.00, 0.00, -0.00, -1.00, 498.0, 11.0)">n</text><text xml:space="preserve" font-family="Courier" font-size="46.0" fill="#000000" transform="matrix(1.00, 0.00, -0.00, -1.00, 525.6, 11.0)">d</text><text xml:space="preserve" font-family="Courier" font-size="46.0" fill="#000000" transform="matrix(1.00, 0.00, -0.00, -1.00, 553.2, 11.0)"> </text><text xml:space="preserve" font-family="Courier" font-size="46.0" fill="#000000" transform="matrix(1.00, 0.00, -0.00, -1.00, 580.8, 11.0)">s</text><text xml:space="preserve" font-family="Courier" font-size="46.0" fill="#000000" transform="matrix(1.00, 0.00, -0.00, -1.00, 608.4, 11.0)">p</text><text xml:space="preserve" font-family="Courier" font-size="46.0" fill="#000000" transform="matrix(1.00, 0.00, -0.00, -1.00, 636.0, 11.0)">e</text><text xml:space="preserve" font-family="Courier" font-size="46.0" fill="#000000" transform="matrix(1.00, 0.00, -0.00, -1.00, 663.6, 11.0)">e</text><text xml:space="preserve" font-family="Courier" font-size="46.0" fill="#000000" transform="matrix(1.00, 0.00, -0.00, -1.00, 691.2, 11.0)">d</text><text xml:space="preserve" font-family="Courier" font-size="46.0" fill="#000000" transform="matrix(1.00, 0.00, -0.00, -1.00, 718.8, 11.0)">,</text><text xml:space="preserve" font-family="Courier" font-size="46.0" fill="#000000" transform="matrix(1.00, 0.00, -0.00, -1.00, 746.4, 11.0)"> </text><text xml:space="preserve" font-family="Courier" font-size="46.0" fill="#000000" transform="matrix(1.00, 0.00, -0.00, -1.00, 774.1, 11.0)">b</text><text xml:space="preserve" font-family="Courier" font-size="46.0" fill="#000000" transform="matrix(1.00, 0.00, -0.00, -1.00, 801.7, 11.0)">l</text><text xml:space="preserve" font-family="Courier" font-size="46.0" fill="#000000" transform="matrix(1.00, 0.00, -0.00, -1.00, 829.3, 11.0)">e</text><text xml:space="preserve" font-family="Courier" font-size="46.0" fill="#000000" transform="matrix(1.00, 0.00, -0.00, -1.00, 856.9, 11.0)">n</text><text xml:space="preserve" font-family="Courier" font-size="46.0" fill="#000000" transform="matrix(1.00, 0.00, -0.00, -1.00, 884.5, 11.0)">d</text><text xml:space="preserve" font-family="Courier" font-size="46.0" fill="#000000" transform="matrix(1.00, 0.00, -0.00, -1.00, 912.1, 11.0)">e</text><text xml:space="preserve" font-family="Courier" font-size="46.0" fill="#000000" transform="matrix(1.00, 0.00, -0.00, -1.00, 939.7, 11.0)">r</text><text xml:space="preserve" font-family="Courier" font-size="46.0" fill="#000000" transform="matrix(1.00, 0.00, -0.00, -1.00, 967.3, 11.0)"> </text><text xml:space="preserve" font-family="Courier" font-size="46.0" fill="#000000" transform="matrix(1.00, 0.00, -0.00, -1.00, 994.9, 11.0)">b</text><text xml:space="preserve" font-family="Courier" font-size="46.0" fill="#000000" transform="matrix(1.00, 0.00, -0.00, -1.00, 1022.5, 11.0)">l</text><text xml:space="preserve" font-family="Courier" font-size="46.0" fill="#000000" transform="matrix(1.00, 0.00, -0.00, -1.00, 1050.1, 11.0)">e</text><text xml:space="preserve" font-family="Courier" font-size="46.0" fill="#000000" transform="matrix(1.00, 0.00, -0.00, -1.00, 1077.8, 11.0)">n</text><text xml:space="preserve" font-family="Courier" font-size="46.0" fill="#000000" transform="matrix(1.00, 0.00, -0.00, -1.00, 1105.4, 11.0)">d</text><text xml:space="preserve" font-family="Courier" font-size="46.0" fill="#000000" transform="matrix(1.00, 0.00, -0.00, -1.00, 1133.0, 11.0)"> </text><text xml:space="preserve" font-family="Courier" font-size="46.0" fill="#000000" transform="matrix(1.00, 0.00, -0.00, -1.00, 1160.6, 11.0)">s</text><text xml:space="preserve" font-family="Courier" font-size="46.0" fill="#000000" transform="matrix(1.00, 0.00, -0.00, -1.00, 1188.2, 11.0)">p</text><text xml:space="preserve" font-family="Courier" font-size="46.0" fill="#000000" transform="matrix(1.00, 0.00, -0.00, -1.00, 1215.8, 11.0)">e</text><text xml:space="preserve" font-family="Courier" font-size="46.0" fill="#000000" transform="matrix(1.00, 0.00, -0.00, -1.00, 1243.4, 11.0)">e</text><text xml:space="preserve" font-family="Courier" font-size="46.0" fill="#000000" transform="matrix(1.00, 0.00, -0.00, -1.00, 1271.0, 11.0)">d</text><text xml:space="preserve" font-family="Courier" font-size="46.0" fill="#000000" transform="matrix(1.00, 0.00, -0.00, -1.00, 1298.6, 11.0)">,</text><text xml:space="preserve" font-family="Courier" font-size="46.0" fill="#000000" transform="matrix(1.00, 0.00, -0.00, -1.00, 1326.2, 11.0)"> </text><text xml:space="preserve" font-family="Courier" font-size="46.0" fill="#000000" transform="matrix(1.00, 0.00, -0.00, -1.00, 1353.8, 11.0)">b</text><text xml:space="preserve" font-family="Courier" font-size="46.0" fill="#000000" transform="matrix(1.00, 0.00, -0.00, -1.00, 1381.5, 11.0)">l</text><text xml:space="preserve" font-family="Courier" font-size="46.0" fill="#000000" transform="matrix(1.00, 0.00, -0.00, -1.00, 1409.1, 11.0)">e</text><text xml:space="preserve" font-family="Courier" font-size="46.0" fill="#000000" transform="matrix(1.00, 0.00, -0.00, -1.00, 1436.7, 11.0)">n</text><text xml:space="preserve" font-family="Courier" font-size="46.0" fill="#000000" transform="matrix(1.00, 0.00, -0.00, -1.00, 1464.3, 11.0)">d</text><text xml:space="preserve" font-family="Courier" font-size="46.0" fill="#000000" transform="matrix(1.00, 0.00, -0.00, -1.00, 1491.9, 11.0)">e</text><text xml:space="preserve" font-family="Courier" font-size="46.0" fill="#000000" transform="matrix(1.00, 0.00, -0.00, -1.00, 1519.5, 11.0)">r</text></g></svg>