<?xml version="1.0" encoding="UTF-8" standalone="no"?><svg xmlns="http://www.w3.org/2000/svg" xmlns:xlink="http://www.w3.org/1999/xlink" clip-rule="evenodd" stroke-miterlimit="4.00" viewBox="0 0 1920 1080"><desc>SVG generated by Keynote</desc><defs></defs><g transform="matrix(1.00, 0.00, -0.00, -1.00, 0.0, 1080.0)"><path d="M 0.0 1080.0 L 1920.0 1080.0 L 1920.0 0.0 L 0.0 0.0 Z M 0.0 1080.0 " fill="#DCEEF6"></path><path d="M 1050.3 843.9 L 1063.0 843.9 L 1036.0 843.9 L 1008.9 843.9 L 1021.6 843.9 L 1021.6 657.3 L 1050.3 657.3 Z M 1050.3 843.9 " fill="#A6AAA8"></path><path d="M 983.3 848.9 L 996.0 848.9 L 969.0 848.9 L 941.9 848.9 L 954.6 848.9 L 954.6 662.3 L 983.3 662.3 Z M 983.3 848.9 " fill="#A6AAA8"></path><path d="M 1265.9 657.9 L 1265.9 645.2 L 1322.0 672.2 L 1265.9 699.3 L 1265.9 686.6 L 1039.9 686.6 L 1039.9 657.9 Z M 1265.9 657.9 " fill="#A6AAA8"></path><path d="M 693.0 685.6 L 693.0 698.3 L 636.9 671.2 L 693.0 644.2 L 693.0 656.9 L 983.2 656.9 L 983.2 685.6 Z M 693.0 685.6 " fill="#A6AAA8"></path><image xlink:href="../../232ACC8C-DA5A-443C-9D1D-CCF2A5A78B08/assets/F7C2A6DA6DBD5622FE470D833B3F6C95.png" width="222.00" height="109.00" transform="matrix(1.00, 0.00, -0.00, -1.00, 131.1, 1070.7)" opacity="0.50"></image><path d="M 157.7 1069.7 L 326.9 1069.7 C 333.7 1069.7 337.1 1069.7 340.8 1068.6 C 344.8 1067.1 347.9 1064.0 349.4 1060.0 C 350.6 1056.3 350.6 1052.9 350.6 1046.0 L 350.6 990.3 C 350.6 983.5 350.6 980.0 349.4 976.4 C 347.9 972.4 344.8 969.2 340.8 967.8 C 337.1 966.6 333.7 966.6 326.8 966.6 L 157.7 966.6 C 151.0 966.6 147.5 966.6 143.9 967.8 C 139.9 969.2 136.7 972.4 135.2 976.4 C 134.1 980.0 134.1 983.5 134.1 990.4 L 134.1 1046.1 C 134.1 1052.9 134.1 1056.3 135.2 1060.0 C 136.7 1064.0 139.9 1067.1 143.9 1068.6 C 147.5 1069.7 151.0 1069.7 157.8 1069.7 Z M 157.7 1069.7 " fill="#51A7F9"></path><g><clipPath id="clip-53"><path d="M 125.6 966.6 L 359.1 966.6 L 359.1 1069.7 L 125.6 1069.7 Z M 125.6 966.6 "></path></clipPath><g clip-path="url(#clip-53)"><text xml:space="preserve" font-family="Helvetica-Bold" font-weight="bold" font-size="50.0" fill="#000000" transform="matrix(1.00, 0.00, -0.00, -1.00, 160.0, 999.0)">R</text><text xml:space="preserve" font-family="Helvetica-Bold" font-weight="bold" font-size="50.0" fill="#000000" transform="matrix(1.00, 0.00, -0.00, -1.00, 196.1, 999.0)">e</text><text xml:space="preserve" font-family="Helvetica-Bold" font-weight="bold" font-size="50.0" fill="#000000" transform="matrix(1.00, 0.00, -0.00, -1.00, 223.9, 999.0)">c</text><text xml:space="preserve" font-family="Helvetica-Bold" font-weight="bold" font-size="50.0" fill="#000000" transform="matrix(1.00, 0.00, -0.00, -1.00, 251.8, 999.0)">i</text><text xml:space="preserve" font-family="Helvetica-Bold" font-weight="bold" font-size="50.0" fill="#000000" transform="matrix(1.00, 0.00, -0.00, -1.00, 265.7, 999.0)">p</text><text xml:space="preserve" font-family="Helvetica-Bold" font-weight="bold" font-size="50.0" fill="#000000" transform="matrix(1.00, 0.00, -0.00, -1.00, 296.2, 999.0)">e</text></g></g><image xlink:href="../../63D399A3-35E1-45FF-B287-06BE5905E8D9/assets/012DA33ECD4E2772276F3DCCEB1B19FE.png" width="163.00" height="71.00" transform="matrix(1.00, 0.00, -0.00, -1.00, 524.0, 1051.7)" opacity="0.50"></image><path d="M 549.9 1050.7 L 660.8 1050.7 C 667.4 1050.7 670.7 1050.7 674.2 1049.5 C 678.1 1048.1 681.2 1045.1 682.6 1041.2 C 683.7 1037.6 683.7 1034.3 683.7 1027.6 L 683.7 1008.6 C 683.7 1002.1 683.7 998.7 682.6 995.2 C 681.2 991.3 678.1 988.2 674.2 986.8 C 670.7 985.7 667.4 985.7 660.7 985.7 L 549.9 985.7 C 543.4 985.7 540.0 985.7 536.5 986.8 C 532.6 988.2 529.5 991.3 528.1 995.2 C 527.0 998.7 527.0 1002.1 527.0 1008.7 L 527.0 1027.7 C 527.0 1034.3 527.0 1037.6 528.1 1041.2 C 529.5 1045.1 532.6 1048.1 536.5 1049.5 C 540.0 1050.7 543.4 1050.7 550.0 1050.7 Z M 549.9 1050.7 " fill="#EB5C56"></path><g><clipPath id="clip-54"><path d="M 523.5 985.7 L 687.2 985.7 L 687.2 1050.7 L 523.5 1050.7 Z M 523.5 985.7 "></path></clipPath><g clip-path="url(#clip-54)"><text xml:space="preserve" font-family="Helvetica-Light" font-size="32.0" fill="#000000" transform="matrix(1.00, 0.00, -0.00, -1.00, 559.0, 1006.0)">P</text><text xml:space="preserve" font-family="Helvetica-Light" font-size="32.0" fill="#000000" transform="matrix(1.00, 0.00, -0.00, -1.00, 578.6, 1006.0)">a</text><text xml:space="preserve" font-family="Helvetica-Light" font-size="32.0" fill="#000000" transform="matrix(1.00, 0.00, -0.00, -1.00, 596.3, 1006.0)">r</text><text xml:space="preserve" font-family="Helvetica-Light" font-size="32.0" fill="#000000" transform="matrix(1.00, 0.00, -0.00, -1.00, 607.0, 1006.0)">s</text><text xml:space="preserve" font-family="Helvetica-Light" font-size="32.0" fill="#000000" transform="matrix(1.00, 0.00, -0.00, -1.00, 623.0, 1006.0)">e</text><text xml:space="preserve" font-family="Helvetica-Light" font-size="32.0" fill="#000000" transform="matrix(1.00, 0.00, -0.00, -1.00, 640.8, 1006.0)">r</text></g></g><path d="M 458.9 1003.8 L 458.9 991.1 L 515.0 1018.2 L 458.9 1045.3 L 458.9 1032.6 L 362.6 1032.6 L 362.6 1003.8 Z M 458.9 1003.8 " fill="#A6AAA8"></path><path d="M 792.1 1003.8 L 792.1 991.1 L 848.1 1018.2 L 792.1 1045.3 L 792.1 1032.6 L 695.7 1032.6 L 695.7 1003.8 Z M 792.1 1003.8 " fill="#A6AAA8"></path><image xlink:href="../../63D399A3-35E1-45FF-B287-06BE5905E8D9/assets/5429DA88C4363CC4B41D70FC123B7342.png" width="359.00" height="109.00" transform="matrix(1.00, 0.00, -0.00, -1.00, 861.2, 1070.7)" opacity="0.50"></image><path d="M 887.8 1069.7 L 1193.9 1069.7 C 1200.7 1069.7 1204.2 1069.7 1207.8 1068.6 C 1211.8 1067.1 1215.0 1064.0 1216.4 1060.0 C 1217.6 1056.3 1217.6 1052.9 1217.6 1046.0 L 1217.6 990.3 C 1217.6 983.5 1217.6 980.0 1216.4 976.4 C 1215.0 972.4 1211.8 969.2 1207.8 967.8 C 1204.2 966.6 1200.7 966.6 1193.8 966.6 L 887.8 966.6 C 881.0 966.6 877.6 966.6 873.9 967.8 C 869.9 969.2 866.8 972.4 865.3 976.4 C 864.2 980.0 864.2 983.5 864.2 990.4 L 864.2 1046.1 C 864.2 1052.9 864.2 1056.3 865.3 1060.0 C 866.8 1064.0 869.9 1067.1 873.9 1068.6 C 877.6 1069.7 881.0 1069.7 887.9 1069.7 Z M 887.8 1069.7 " fill="#51A7F9"></path><g><clipPath id="clip-55"><path d="M 855.7 966.6 L 1226.1 966.6 L 1226.1 1069.7 L 855.7 1069.7 Z M 855.7 966.6 "></path></clipPath><g clip-path="url(#clip-55)"><text xml:space="preserve" font-family="Helvetica-Bold" font-weight="bold" font-size="50.0" fill="#000000" transform="matrix(1.00, 0.00, -0.00, -1.00, 888.0, 999.0)">C</text><text xml:space="preserve" font-family="Helvetica-Bold" font-weight="bold" font-size="50.0" fill="#000000" transform="matrix(1.00, 0.00, -0.00, -1.00, 924.1, 999.0)">o</text><text xml:space="preserve" font-family="Helvetica-Bold" font-weight="bold" font-size="50.0" fill="#000000" transform="matrix(1.00, 0.00, -0.00, -1.00, 954.7, 999.0)">m</text><text xml:space="preserve" font-family="Helvetica-Bold" font-weight="bold" font-size="50.0" fill="#000000" transform="matrix(1.00, 0.00, -0.00, -1.00, 999.1, 999.0)">p</text><text xml:space="preserve" font-family="Helvetica-Bold" font-weight="bold" font-size="50.0" fill="#000000" transform="matrix(1.00, 0.00, -0.00, -1.00, 1029.7, 999.0)">o</text><text xml:space="preserve" font-family="Helvetica-Bold" font-weight="bold" font-size="50.0" fill="#000000" transform="matrix(1.00, 0.00, -0.00, -1.00, 1060.2, 999.0)">n</text><text xml:space="preserve" font-family="Helvetica-Bold" font-weight="bold" font-size="50.0" fill="#000000" transform="matrix(1.00, 0.00, -0.00, -1.00, 1090.7, 999.0)">e</text><text xml:space="preserve" font-family="Helvetica-Bold" font-weight="bold" font-size="50.0" fill="#000000" transform="matrix(1.00, 0.00, -0.00, -1.00, 1118.5, 999.0)">n</text><text xml:space="preserve" font-family="Helvetica-Bold" font-weight="bold" font-size="50.0" fill="#000000" transform="matrix(1.00, 0.00, -0.00, -1.00, 1149.1, 999.0)">t</text><text xml:space="preserve" font-family="Helvetica-Bold" font-weight="bold" font-size="50.0" fill="#000000" transform="matrix(1.00, 0.00, -0.00, -1.00, 1165.7, 999.0)">s</text></g></g><image xlink:href="../../63D399A3-35E1-45FF-B287-06BE5905E8D9/assets/748ADB321BC6828EFC4DA7CA3DED09AD.png" width="193.00" height="71.00" transform="matrix(0.00, 1.00, 1.00, -0.00, 935.4, 769.4)" opacity="0.50"></image><path d="M 938.4 797.4 L 938.4 938.1 C 938.4 944.6 938.4 948.0 939.5 951.5 C 940.9 955.4 944.0 958.5 947.8 959.9 C 951.4 961.0 954.7 961.0 961.4 961.0 L 980.4 961.0 C 987.0 961.0 990.3 961.0 993.9 959.9 C 997.7 958.5 1000.8 955.4 1002.2 951.5 C 1003.3 948.0 1003.3 944.6 1003.3 938.0 L 1003.3 797.4 C 1003.3 790.8 1003.3 787.4 1002.2 783.9 C 1000.8 780.0 997.7 777.0 993.9 775.5 C 990.3 774.4 987.0 774.4 980.3 774.4 L 961.3 774.4 C 954.7 774.4 951.4 774.4 947.8 775.5 C 944.0 777.0 940.9 780.0 939.5 783.9 C 938.4 787.4 938.4 790.8 938.4 797.5 Z M 938.4 797.4 " fill="#6FBF40"></path><g><clipPath id="clip-56"><path d="M 938.4 770.9 L 938.4 964.5 L 1003.3 964.5 L 1003.3 770.9 Z M 938.4 770.9 "></path></clipPath><g clip-path="url(#clip-56)"><text xml:space="preserve" font-family="Helvetica-Light" font-size="32.0" fill="#000000" transform="matrix(0.00, 1.00, 1.00, -0.00, 983.0, 787.0)">I</text><text xml:space="preserve" font-family="Helvetica-Light" font-size="32.0" fill="#000000" transform="matrix(0.00, 1.00, 1.00, -0.00, 983.0, 795.9)">n</text><text xml:space="preserve" font-family="Helvetica-Light" font-size="32.0" fill="#000000" transform="matrix(0.00, 1.00, 1.00, -0.00, 983.0, 813.7)">g</text><text xml:space="preserve" font-family="Helvetica-Light" font-size="32.0" fill="#000000" transform="matrix(0.00, 1.00, 1.00, -0.00, 983.0, 833.2)">r</text><text xml:space="preserve" font-family="Helvetica-Light" font-size="32.0" fill="#000000" transform="matrix(0.00, 1.00, 1.00, -0.00, 983.0, 843.3)">e</text><text xml:space="preserve" font-family="Helvetica-Light" font-size="32.0" fill="#000000" transform="matrix(0.00, 1.00, 1.00, -0.00, 983.0, 861.1)">d</text><text xml:space="preserve" font-family="Helvetica-Light" font-size="32.0" fill="#000000" transform="matrix(0.00, 1.00, 1.00, -0.00, 983.0, 880.7)">i</text><text xml:space="preserve" font-family="Helvetica-Light" font-size="32.0" fill="#000000" transform="matrix(0.00, 1.00, 1.00, -0.00, 983.0, 887.8)">e</text><text xml:space="preserve" font-family="Helvetica-Light" font-size="32.0" fill="#000000" transform="matrix(0.00, 1.00, 1.00, -0.00, 983.0, 905.6)">n</text><text xml:space="preserve" font-family="Helvetica-Light" font-size="32.0" fill="#000000" transform="matrix(0.00, 1.00, 1.00, -0.00, 983.0, 923.4)">t</text><text xml:space="preserve" font-family="Helvetica-Light" font-size="32.0" fill="#000000" transform="matrix(0.00, 1.00, 1.00, -0.00, 983.0, 932.2)">s</text></g></g><image xlink:href="../../63D399A3-35E1-45FF-B287-06BE5905E8D9/assets/748ADB321BC6828EFC4DA7CA3DED09AD.png" width="193.00" height="71.00" transform="matrix(0.00, 1.00, 1.00, -0.00, 1005.4, 769.4)" opacity="0.50"></image><path d="M 1008.4 797.4 L 1008.4 938.1 C 1008.4 944.6 1008.4 948.0 1009.5 951.5 C 1010.9 955.4 1014.0 958.5 1017.9 959.9 C 1021.4 961.0 1024.8 961.0 1031.4 961.0 L 1050.4 961.0 C 1057.0 961.0 1060.3 961.0 1063.9 959.9 C 1067.8 958.5 1070.8 955.4 1072.2 951.5 C 1073.3 948.0 1073.3 944.6 1073.3 938.0 L 1073.3 797.4 C 1073.3 790.8 1073.3 787.4 1072.2 783.9 C 1070.8 780.0 1067.8 777.0 1063.9 775.5 C 1060.3 774.4 1057.0 774.4 1050.3 774.4 L 1031.3 774.4 C 1024.8 774.4 1021.4 774.4 1017.9 775.5 C 1014.0 777.0 1010.9 780.0 1009.5 783.9 C 1008.4 787.4 1008.4 790.8 1008.4 797.5 Z M 1008.4 797.4 " fill="#6FBF40"></path><g><clipPath id="clip-57"><path d="M 1008.4 770.9 L 1008.4 964.5 L 1073.3 964.5 L 1073.3 770.9 Z M 1008.4 770.9 "></path></clipPath><g clip-path="url(#clip-57)"><text xml:space="preserve" font-family="Helvetica-Light" font-size="32.0" fill="#000000" transform="matrix(0.00, 1.00, 1.00, -0.00, 1053.0, 796.0)">D</text><text xml:space="preserve" font-family="Helvetica-Light" font-size="32.0" fill="#000000" transform="matrix(0.00, 1.00, 1.00, -0.00, 1053.0, 819.1)">i</text><text xml:space="preserve" font-family="Helvetica-Light" font-size="32.0" fill="#000000" transform="matrix(0.00, 1.00, 1.00, -0.00, 1053.0, 826.2)">r</text><text xml:space="preserve" font-family="Helvetica-Light" font-size="32.0" fill="#000000" transform="matrix(0.00, 1.00, 1.00, -0.00, 1053.0, 836.3)">e</text><text xml:space="preserve" font-family="Helvetica-Light" font-size="32.0" fill="#000000" transform="matrix(0.00, 1.00, 1.00, -0.00, 1053.0, 854.1)">c</text><text xml:space="preserve" font-family="Helvetica-Light" font-size="32.0" fill="#000000" transform="matrix(0.00, 1.00, 1.00, -0.00, 1053.0, 871.9)">t</text><text xml:space="preserve" font-family="Helvetica-Light" font-size="32.0" fill="#000000" transform="matrix(0.00, 1.00, 1.00, -0.00, 1053.0, 880.8)">i</text><text xml:space="preserve" font-family="Helvetica-Light" font-size="32.0" fill="#000000" transform="matrix(0.00, 1.00, 1.00, -0.00, 1053.0, 887.9)">o</text><text xml:space="preserve" font-family="Helvetica-Light" font-size="32.0" fill="#000000" transform="matrix(0.00, 1.00, 1.00, -0.00, 1053.0, 905.7)">n</text><text xml:space="preserve" font-family="Helvetica-Light" font-size="32.0" fill="#000000" transform="matrix(0.00, 1.00, 1.00, -0.00, 1053.0, 923.5)">s</text></g></g><image xlink:href="../../63D399A3-35E1-45FF-B287-06BE5905E8D9/assets/748ADB321BC6828EFC4DA7CA3DED09AD.png" width="193.00" height="71.00" transform="matrix(0.00, 1.00, 1.00, -0.00, 1075.4, 769.4)" opacity="0.50"></image><path d="M 1078.4 797.4 L 1078.4 938.1 C 1078.4 944.6 1078.4 948.0 1079.5 951.5 C 1081.0 955.4 1084.0 958.5 1087.9 959.9 C 1091.4 961.0 1094.8 961.0 1101.4 961.0 L 1120.4 961.0 C 1127.0 961.0 1130.4 961.0 1133.9 959.9 C 1137.8 958.5 1140.8 955.4 1142.2 951.5 C 1143.4 948.0 1143.4 944.6 1143.4 938.0 L 1143.4 797.4 C 1143.4 790.8 1143.4 787.4 1142.2 783.9 C 1140.8 780.0 1137.8 777.0 1133.9 775.5 C 1130.4 774.4 1127.0 774.4 1120.3 774.4 L 1101.3 774.4 C 1094.8 774.4 1091.4 774.4 1087.9 775.5 C 1084.0 777.0 1081.0 780.0 1079.5 783.9 C 1078.4 787.4 1078.4 790.8 1078.4 797.5 Z M 1078.4 797.4 " fill="#6FBF40"></path><g><clipPath id="clip-58"><path d="M 1078.4 770.9 L 1078.4 964.5 L 1143.4 964.5 L 1143.4 770.9 Z M 1078.4 770.9 "></path></clipPath><g clip-path="url(#clip-58)"><text xml:space="preserve" font-family="Helvetica-Light" font-size="32.0" fill="#000000" transform="matrix(0.00, 1.00, 1.00, -0.00, 1123.0, 808.0)">N</text><text xml:space="preserve" font-family="Helvetica-Light" font-size="32.0" fill="#000000" transform="matrix(0.00, 1.00, 1.00, -0.00, 1123.0, 831.1)">u</text><text xml:space="preserve" font-family="Helvetica-Light" font-size="32.0" fill="#000000" transform="matrix(0.00, 1.00, 1.00, -0.00, 1123.0, 848.9)">t</text><text xml:space="preserve" font-family="Helvetica-Light" font-size="32.0" fill="#000000" transform="matrix(0.00, 1.00, 1.00, -0.00, 1123.0, 857.8)">r</text><text xml:space="preserve" font-family="Helvetica-Light" font-size="32.0" fill="#000000" transform="matrix(0.00, 1.00, 1.00, -0.00, 1123.0, 868.4)">i</text><text xml:space="preserve" font-family="Helvetica-Light" font-size="32.0" fill="#000000" transform="matrix(0.00, 1.00, 1.00, -0.00, 1123.0, 875.6)">t</text><text xml:space="preserve" font-family="Helvetica-Light" font-size="32.0" fill="#000000" transform="matrix(0.00, 1.00, 1.00, -0.00, 1123.0, 884.4)">i</text><text xml:space="preserve" font-family="Helvetica-Light" font-size="32.0" fill="#000000" transform="matrix(0.00, 1.00, 1.00, -0.00, 1123.0, 891.6)">o</text><text xml:space="preserve" font-family="Helvetica-Light" font-size="32.0" fill="#000000" transform="matrix(0.00, 1.00, 1.00, -0.00, 1123.0, 909.3)">n</text></g></g><image xlink:href="../../63D399A3-35E1-45FF-B287-06BE5905E8D9/assets/748ADB321BC6828EFC4DA7CA3DED09AD.png" width="193.00" height="71.00" transform="matrix(0.00, 1.00, 1.00, -0.00, 865.4, 769.4)" opacity="0.50"></image><path d="M 868.4 797.4 L 868.4 938.1 C 868.4 944.6 868.4 948.0 869.5 951.5 C 870.9 955.4 873.9 958.5 877.8 959.9 C 881.4 961.0 884.7 961.0 891.4 961.0 L 910.4 961.0 C 917.0 961.0 920.3 961.0 923.8 959.9 C 927.7 958.5 930.8 955.4 932.2 951.5 C 933.3 948.0 933.3 944.6 933.3 938.0 L 933.3 797.4 C 933.3 790.8 933.3 787.4 932.2 783.9 C 930.8 780.0 927.7 777.0 923.8 775.5 C 920.3 774.4 917.0 774.4 910.3 774.4 L 891.3 774.4 C 884.7 774.4 881.4 774.4 877.8 775.5 C 873.9 777.0 870.9 780.0 869.5 783.9 C 868.4 787.4 868.4 790.8 868.4 797.5 Z M 868.4 797.4 " fill="#6FBF40"></path><g><clipPath id="clip-59"><path d="M 868.4 770.9 L 868.4 964.5 L 933.3 964.5 L 933.3 770.9 Z M 868.4 770.9 "></path></clipPath><g clip-path="url(#clip-59)"><text xml:space="preserve" font-family="Helvetica-Light" font-size="32.0" fill="#000000" transform="matrix(0.00, 1.00, 1.00, -0.00, 913.0, 786.0)">D</text><text xml:space="preserve" font-family="Helvetica-Light" font-size="32.0" fill="#000000" transform="matrix(0.00, 1.00, 1.00, -0.00, 913.0, 809.1)">e</text><text xml:space="preserve" font-family="Helvetica-Light" font-size="32.0" fill="#000000" transform="matrix(0.00, 1.00, 1.00, -0.00, 913.0, 826.9)">s</text><text xml:space="preserve" font-family="Helvetica-Light" font-size="32.0" fill="#000000" transform="matrix(0.00, 1.00, 1.00, -0.00, 913.0, 842.9)">c</text><text xml:space="preserve" font-family="Helvetica-Light" font-size="32.0" fill="#000000" transform="matrix(0.00, 1.00, 1.00, -0.00, 913.0, 860.7)">r</text><text xml:space="preserve" font-family="Helvetica-Light" font-size="32.0" fill="#000000" transform="matrix(0.00, 1.00, 1.00, -0.00, 913.0, 871.3)">i</text><text xml:space="preserve" font-family="Helvetica-Light" font-size="32.0" fill="#000000" transform="matrix(0.00, 1.00, 1.00, -0.00, 913.0, 878.4)">p</text><text xml:space="preserve" font-family="Helvetica-Light" font-size="32.0" fill="#000000" transform="matrix(0.00, 1.00, 1.00, -0.00, 913.0, 898.0)">t</text><text xml:space="preserve" font-family="Helvetica-Light" font-size="32.0" fill="#000000" transform="matrix(0.00, 1.00, 1.00, -0.00, 913.0, 906.9)">i</text><text xml:space="preserve" font-family="Helvetica-Light" font-size="32.0" fill="#000000" transform="matrix(0.00, 1.00, 1.00, -0.00, 913.0, 914.0)">o</text><text xml:space="preserve" font-family="Helvetica-Light" font-size="32.0" fill="#000000" transform="matrix(0.00, 1.00, 1.00, -0.00, 913.0, 931.8)">n</text></g></g><image xlink:href="../../63D399A3-35E1-45FF-B287-06BE5905E8D9/assets/748ADB321BC6828EFC4DA7CA3DED09AD.png" width="193.00" height="71.00" transform="matrix(0.00, 1.00, 1.00, -0.00, 1145.4, 769.4)" opacity="0.50"></image><path d="M 1148.4 797.4 L 1148.4 938.1 C 1148.4 944.6 1148.4 948.0 1149.6 951.5 C 1151.0 955.4 1154.0 958.5 1157.9 959.9 C 1161.5 961.0 1164.8 961.0 1171.5 961.0 L 1190.5 961.0 C 1197.0 961.0 1200.4 961.0 1203.9 959.9 C 1207.8 958.5 1210.9 955.4 1212.3 951.5 C 1213.4 948.0 1213.4 944.6 1213.4 938.0 L 1213.4 797.4 C 1213.4 790.8 1213.4 787.4 1212.3 783.9 C 1210.9 780.0 1207.8 777.0 1203.9 775.5 C 1200.4 774.4 1197.0 774.4 1190.4 774.4 L 1171.4 774.4 C 1164.8 774.4 1161.5 774.4 1157.9 775.5 C 1154.0 777.0 1151.0 780.0 1149.6 783.9 C 1148.4 787.4 1148.4 790.8 1148.4 797.5 Z M 1148.4 797.4 " fill="#6FBF40"></path><g><clipPath id="clip-60"><path d="M 1148.4 770.9 L 1148.4 964.5 L 1213.4 964.5 L 1213.4 770.9 Z M 1148.4 770.9 "></path></clipPath><g clip-path="url(#clip-60)"><text xml:space="preserve" font-family="Helvetica-Light" font-size="32.0" fill="#000000" transform="matrix(0.00, 1.00, 1.00, -0.00, 1193.0, 834.0)">T</text><text xml:space="preserve" font-family="Helvetica-Light" font-size="32.0" fill="#000000" transform="matrix(0.00, 1.00, 1.00, -0.00, 1193.0, 848.2)">a</text><text xml:space="preserve" font-family="Helvetica-Light" font-size="32.0" fill="#000000" transform="matrix(0.00, 1.00, 1.00, -0.00, 1193.0, 866.0)">g</text><text xml:space="preserve" font-family="Helvetica-Light" font-size="32.0" fill="#000000" transform="matrix(0.00, 1.00, 1.00, -0.00, 1193.0, 885.6)">s</text></g></g><image xlink:href="../../47A5CE0A-6CF5-4987-A53B-5E7E0B38401C/assets/06F9F7D57A7D3C1BC41A69F02FDCC030.png" width="303.00" height="71.00" transform="matrix(1.00, 0.00, -0.00, -1.00, 1348.8, 704.7)" opacity="0.50"></image><path d="M 1374.7 703.7 L 1625.5 703.7 C 1632.1 703.7 1635.4 703.7 1639.0 702.6 C 1642.9 701.2 1645.9 698.1 1647.3 694.2 C 1648.5 690.7 1648.5 687.4 1648.5 680.7 L 1648.5 661.7 C 1648.5 655.1 1648.5 651.8 1647.3 648.2 C 1645.9 644.4 1642.9 641.3 1639.0 639.9 C 1635.4 638.8 1632.1 638.8 1625.4 638.8 L 1374.7 638.8 C 1368.1 638.8 1364.8 638.8 1361.2 639.9 C 1357.3 641.3 1354.3 644.4 1352.9 648.2 C 1351.8 651.8 1351.8 655.1 1351.8 661.8 L 1351.8 680.8 C 1351.8 687.4 1351.8 690.7 1352.9 694.2 C 1354.3 698.1 1357.3 701.2 1361.2 702.6 C 1364.8 703.7 1368.1 703.7 1374.8 703.7 Z M 1374.7 703.7 " fill="#EB5C56"></path><g><clipPath id="clip-61"><path d="M 1348.2 638.8 L 1652.0 638.8 L 1652.0 703.7 L 1348.2 703.7 Z M 1348.2 638.8 "></path></clipPath><g clip-path="url(#clip-61)"><text xml:space="preserve" font-family="Helvetica-Light" font-size="32.0" fill="#000000" transform="matrix(1.00, 0.00, -0.00, -1.00, 1376.0, 659.0)">T</text><text xml:space="preserve" font-family="Helvetica-Light" font-size="32.0" fill="#000000" transform="matrix(1.00, 0.00, -0.00, -1.00, 1393.8, 659.0)">F</text><text xml:space="preserve" font-family="Helvetica-Light" font-size="32.0" fill="#000000" transform="matrix(1.00, 0.00, -0.00, -1.00, 1411.6, 659.0)">-</text><text xml:space="preserve" font-family="Helvetica-Light" font-size="32.0" fill="#000000" transform="matrix(1.00, 0.00, -0.00, -1.00, 1422.2, 659.0)">I</text><text xml:space="preserve" font-family="Helvetica-Light" font-size="32.0" fill="#000000" transform="matrix(1.00, 0.00, -0.00, -1.00, 1431.1, 659.0)">D</text><text xml:space="preserve" font-family="Helvetica-Light" font-size="32.0" fill="#000000" transform="matrix(1.00, 0.00, -0.00, -1.00, 1454.2, 659.0)">F</text><text xml:space="preserve" font-family="Helvetica-Light" font-size="32.0" fill="#000000" transform="matrix(1.00, 0.00, -0.00, -1.00, 1472.0, 659.0)"> </text><text xml:space="preserve" font-family="Helvetica-Light" font-size="32.0" fill="#000000" transform="matrix(1.00, 0.00, -0.00, -1.00, 1480.9, 659.0)">V</text><text xml:space="preserve" font-family="Helvetica-Light" font-size="32.0" fill="#000000" transform="matrix(1.00, 0.00, -0.00, -1.00, 1498.7, 659.0)">e</text><text xml:space="preserve" font-family="Helvetica-Light" font-size="32.0" fill="#000000" transform="matrix(1.00, 0.00, -0.00, -1.00, 1516.5, 659.0)">c</text><text xml:space="preserve" font-family="Helvetica-Light" font-size="32.0" fill="#000000" transform="matrix(1.00, 0.00, -0.00, -1.00, 1534.3, 659.0)">t</text><text xml:space="preserve" font-family="Helvetica-Light" font-size="32.0" fill="#000000" transform="matrix(1.00, 0.00, -0.00, -1.00, 1543.2, 659.0)">o</text><text xml:space="preserve" font-family="Helvetica-Light" font-size="32.0" fill="#000000" transform="matrix(1.00, 0.00, -0.00, -1.00, 1561.0, 659.0)">r</text><text xml:space="preserve" font-family="Helvetica-Light" font-size="32.0" fill="#000000" transform="matrix(1.00, 0.00, -0.00, -1.00, 1571.6, 659.0)">i</text><text xml:space="preserve" font-family="Helvetica-Light" font-size="32.0" fill="#000000" transform="matrix(1.00, 0.00, -0.00, -1.00, 1578.8, 659.0)">z</text><text xml:space="preserve" font-family="Helvetica-Light" font-size="32.0" fill="#000000" transform="matrix(1.00, 0.00, -0.00, -1.00, 1594.8, 659.0)">e</text><text xml:space="preserve" font-family="Helvetica-Light" font-size="32.0" fill="#000000" transform="matrix(1.00, 0.00, -0.00, -1.00, 1612.5, 659.0)">r</text></g></g><image xlink:href="../../47A5CE0A-6CF5-4987-A53B-5E7E0B38401C/assets/06F9F7D57A7D3C1BC41A69F02FDCC030.png" width="303.00" height="71.00" transform="matrix(1.00, 0.00, -0.00, -1.00, 310.3, 704.7)" opacity="0.50"></image><path d="M 336.2 703.7 L 587.1 703.7 C 593.7 703.7 597.0 703.7 600.5 702.6 C 604.4 701.2 607.5 698.1 608.9 694.2 C 610.0 690.7 610.0 687.4 610.0 680.7 L 610.0 661.7 C 610.0 655.1 610.0 651.8 608.9 648.2 C 607.5 644.4 604.4 641.3 600.5 639.9 C 597.0 638.8 593.7 638.8 587.0 638.8 L 336.2 638.8 C 329.7 638.8 326.3 638.8 322.8 639.9 C 318.9 641.3 315.8 644.4 314.4 648.2 C 313.3 651.8 313.3 655.1 313.3 661.8 L 313.3 680.8 C 313.3 687.4 313.3 690.7 314.4 694.2 C 315.8 698.1 318.9 701.2 322.8 702.6 C 326.3 703.7 329.7 703.7 336.3 703.7 Z M 336.2 703.7 " fill="#EB5C56"></path><g><clipPath id="clip-62"><path d="M 309.8 638.8 L 613.5 638.8 L 613.5 703.7 L 309.8 703.7 Z M 309.8 638.8 "></path></clipPath><g clip-path="url(#clip-62)"><text xml:space="preserve" font-family="Helvetica-Light" font-size="32.0" fill="#000000" transform="matrix(1.00, 0.00, -0.00, -1.00, 343.0, 659.0)">C</text><text xml:space="preserve" font-family="Helvetica-Light" font-size="32.0" fill="#000000" transform="matrix(1.00, 0.00, -0.00, -1.00, 366.1, 659.0)">o</text><text xml:space="preserve" font-family="Helvetica-Light" font-size="32.0" fill="#000000" transform="matrix(1.00, 0.00, -0.00, -1.00, 383.9, 659.0)">u</text><text xml:space="preserve" font-family="Helvetica-Light" font-size="32.0" fill="#000000" transform="matrix(1.00, 0.00, -0.00, -1.00, 401.7, 659.0)">n</text><text xml:space="preserve" font-family="Helvetica-Light" font-size="32.0" fill="#000000" transform="matrix(1.00, 0.00, -0.00, -1.00, 419.5, 659.0)">t</text><text xml:space="preserve" font-family="Helvetica-Light" font-size="32.0" fill="#000000" transform="matrix(1.00, 0.00, -0.00, -1.00, 428.4, 659.0)"> </text><text xml:space="preserve" font-family="Helvetica-Light" font-size="32.0" fill="#000000" transform="matrix(1.00, 0.00, -0.00, -1.00, 437.3, 659.0)">V</text><text xml:space="preserve" font-family="Helvetica-Light" font-size="32.0" fill="#000000" transform="matrix(1.00, 0.00, -0.00, -1.00, 455.1, 659.0)">e</text><text xml:space="preserve" font-family="Helvetica-Light" font-size="32.0" fill="#000000" transform="matrix(1.00, 0.00, -0.00, -1.00, 472.9, 659.0)">c</text><text xml:space="preserve" font-family="Helvetica-Light" font-size="32.0" fill="#000000" transform="matrix(1.00, 0.00, -0.00, -1.00, 490.6, 659.0)">t</text><text xml:space="preserve" font-family="Helvetica-Light" font-size="32.0" fill="#000000" transform="matrix(1.00, 0.00, -0.00, -1.00, 499.5, 659.0)">o</text><text xml:space="preserve" font-family="Helvetica-Light" font-size="32.0" fill="#000000" transform="matrix(1.00, 0.00, -0.00, -1.00, 517.3, 659.0)">r</text><text xml:space="preserve" font-family="Helvetica-Light" font-size="32.0" fill="#000000" transform="matrix(1.00, 0.00, -0.00, -1.00, 528.0, 659.0)">i</text><text xml:space="preserve" font-family="Helvetica-Light" font-size="32.0" fill="#000000" transform="matrix(1.00, 0.00, -0.00, -1.00, 535.1, 659.0)">z</text><text xml:space="preserve" font-family="Helvetica-Light" font-size="32.0" fill="#000000" transform="matrix(1.00, 0.00, -0.00, -1.00, 551.1, 659.0)">e</text><text xml:space="preserve" font-family="Helvetica-Light" font-size="32.0" fill="#000000" transform="matrix(1.00, 0.00, -0.00, -1.00, 568.9, 659.0)">r</text></g></g><image xlink:href="../../47A5CE0A-6CF5-4987-A53B-5E7E0B38401C/assets/07872CBE44E0902D66E647B0AB56D26E.png" width="499.00" height="109.00" transform="matrix(1.00, 0.00, -0.00, -1.00, 212.4, 532.0)" opacity="0.50"></image><path d="M 239.0 531.0 L 684.3 531.0 C 691.1 531.0 694.6 531.0 698.2 529.8 C 702.2 528.4 705.4 525.2 706.8 521.2 C 708.0 517.6 708.0 514.1 708.0 507.2 L 708.0 451.5 C 708.0 444.7 708.0 441.3 706.8 437.6 C 705.4 433.6 702.2 430.5 698.2 429.0 C 694.6 427.9 691.1 427.9 684.2 427.9 L 239.0 427.9 C 232.2 427.9 228.8 427.9 225.1 429.0 C 221.1 430.5 218.0 433.6 216.5 437.6 C 215.4 441.3 215.4 444.7 215.4 451.6 L 215.4 507.4 C 215.4 514.1 215.4 517.6 216.5 521.2 C 218.0 525.2 221.1 528.4 225.1 529.8 C 228.8 531.0 232.2 531.0 239.1 531.0 Z M 239.0 531.0 " fill="#51A7F9"></path><g><clipPath id="clip-63"><path d="M 206.9 427.9 L 716.5 427.9 L 716.5 531.0 L 206.9 531.0 Z M 206.9 427.9 "></path></clipPath><g clip-path="url(#clip-63)"><text xml:space="preserve" font-family="Helvetica-Bold" font-weight="bold" font-size="50.0" fill="#000000" transform="matrix(1.00, 0.00, -0.00, -1.00, 242.0, 461.0)">B</text><text xml:space="preserve" font-family="Helvetica-Bold" font-weight="bold" font-size="50.0" fill="#000000" transform="matrix(1.00, 0.00, -0.00, -1.00, 278.1, 461.0)">a</text><text xml:space="preserve" font-family="Helvetica-Bold" font-weight="bold" font-size="50.0" fill="#000000" transform="matrix(1.00, 0.00, -0.00, -1.00, 305.9, 461.0)">g</text><text xml:space="preserve" font-family="Helvetica-Bold" font-weight="bold" font-size="50.0" fill="#000000" transform="matrix(1.00, 0.00, -0.00, -1.00, 336.5, 461.0)"> </text><text xml:space="preserve" font-family="Helvetica-Bold" font-weight="bold" font-size="50.0" fill="#000000" transform="matrix(1.00, 0.00, -0.00, -1.00, 350.3, 461.0)">o</text><text xml:space="preserve" font-family="Helvetica-Bold" font-weight="bold" font-size="50.0" fill="#000000" transform="matrix(1.00, 0.00, -0.00, -1.00, 380.9, 461.0)">f</text><text xml:space="preserve" font-family="Helvetica-Bold" font-weight="bold" font-size="50.0" fill="#000000" transform="matrix(1.00, 0.00, -0.00, -1.00, 397.5, 461.0)"> </text><text xml:space="preserve" font-family="Helvetica-Bold" font-weight="bold" font-size="50.0" fill="#000000" transform="matrix(1.00, 0.00, -0.00, -1.00, 411.4, 461.0)">I</text><text xml:space="preserve" font-family="Helvetica-Bold" font-weight="bold" font-size="50.0" fill="#000000" transform="matrix(1.00, 0.00, -0.00, -1.00, 425.3, 461.0)">n</text><text xml:space="preserve" font-family="Helvetica-Bold" font-weight="bold" font-size="50.0" fill="#000000" transform="matrix(1.00, 0.00, -0.00, -1.00, 455.8, 461.0)">g</text><text xml:space="preserve" font-family="Helvetica-Bold" font-weight="bold" font-size="50.0" fill="#000000" transform="matrix(1.00, 0.00, -0.00, -1.00, 486.4, 461.0)">r</text><text xml:space="preserve" font-family="Helvetica-Bold" font-weight="bold" font-size="50.0" fill="#000000" transform="matrix(1.00, 0.00, -0.00, -1.00, 505.8, 461.0)">e</text><text xml:space="preserve" font-family="Helvetica-Bold" font-weight="bold" font-size="50.0" fill="#000000" transform="matrix(1.00, 0.00, -0.00, -1.00, 533.6, 461.0)">d</text><text xml:space="preserve" font-family="Helvetica-Bold" font-weight="bold" font-size="50.0" fill="#000000" transform="matrix(1.00, 0.00, -0.00, -1.00, 564.2, 461.0)">i</text><text xml:space="preserve" font-family="Helvetica-Bold" font-weight="bold" font-size="50.0" fill="#000000" transform="matrix(1.00, 0.00, -0.00, -1.00, 578.1, 461.0)">e</text><text xml:space="preserve" font-family="Helvetica-Bold" font-weight="bold" font-size="50.0" fill="#000000" transform="matrix(1.00, 0.00, -0.00, -1.00, 605.9, 461.0)">n</text><text xml:space="preserve" font-family="Helvetica-Bold" font-weight="bold" font-size="50.0" fill="#000000" transform="matrix(1.00, 0.00, -0.00, -1.00, 636.4, 461.0)">t</text><text xml:space="preserve" font-family="Helvetica-Bold" font-weight="bold" font-size="50.0" fill="#000000" transform="matrix(1.00, 0.00, -0.00, -1.00, 653.1, 461.0)">s</text></g></g><image xlink:href="../../47A5CE0A-6CF5-4987-A53B-5E7E0B38401C/assets/07872CBE44E0902D66E647B0AB56D26E.png" width="499.00" height="109.00" transform="matrix(1.00, 0.00, -0.00, -1.00, 1250.8, 567.1)" opacity="0.50"></image><path d="M 1277.4 566.1 L 1722.8 566.1 C 1729.6 566.1 1733.0 566.1 1736.7 564.9 C 1740.7 563.5 1743.8 560.3 1745.3 556.3 C 1746.4 552.7 1746.4 549.2 1746.4 542.3 L 1746.4 486.6 C 1746.4 479.8 1746.4 476.4 1745.3 472.7 C 1743.8 468.7 1740.7 465.6 1736.7 464.1 C 1733.0 463.0 1729.6 463.0 1722.7 463.0 L 1277.4 463.0 C 1270.7 463.0 1267.2 463.0 1263.6 464.1 C 1259.6 465.6 1256.4 468.7 1255.0 472.7 C 1253.8 476.4 1253.8 479.8 1253.8 486.7 L 1253.8 542.5 C 1253.8 549.2 1253.8 552.7 1255.0 556.3 C 1256.4 560.3 1259.6 563.5 1263.6 564.9 C 1267.2 566.1 1270.7 566.1 1277.5 566.1 Z M 1277.4 566.1 " fill="#51A7F9"></path><g><clipPath id="clip-64"><path d="M 1245.3 463.0 L 1754.9 463.0 L 1754.9 566.1 L 1245.3 566.1 Z M 1245.3 463.0 "></path></clipPath><g clip-path="url(#clip-64)"><text xml:space="preserve" font-family="Helvetica-Bold" font-weight="bold" font-size="50.0" fill="#000000" transform="matrix(1.00, 0.00, -0.00, -1.00, 1293.0, 496.0)">B</text><text xml:space="preserve" font-family="Helvetica-Bold" font-weight="bold" font-size="50.0" fill="#000000" transform="matrix(1.00, 0.00, -0.00, -1.00, 1329.1, 496.0)">a</text><text xml:space="preserve" font-family="Helvetica-Bold" font-weight="bold" font-size="50.0" fill="#000000" transform="matrix(1.00, 0.00, -0.00, -1.00, 1356.9, 496.0)">g</text><text xml:space="preserve" font-family="Helvetica-Bold" font-weight="bold" font-size="50.0" fill="#000000" transform="matrix(1.00, 0.00, -0.00, -1.00, 1387.5, 496.0)"> </text><text xml:space="preserve" font-family="Helvetica-Bold" font-weight="bold" font-size="50.0" fill="#000000" transform="matrix(1.00, 0.00, -0.00, -1.00, 1401.3, 496.0)">o</text><text xml:space="preserve" font-family="Helvetica-Bold" font-weight="bold" font-size="50.0" fill="#000000" transform="matrix(1.00, 0.00, -0.00, -1.00, 1431.9, 496.0)">f</text><text xml:space="preserve" font-family="Helvetica-Bold" font-weight="bold" font-size="50.0" fill="#000000" transform="matrix(1.00, 0.00, -0.00, -1.00, 1448.5, 496.0)"> </text><text xml:space="preserve" font-family="Helvetica-Bold" font-weight="bold" font-size="50.0" fill="#000000" transform="matrix(1.00, 0.00, -0.00, -1.00, 1462.4, 496.0)">D</text><text xml:space="preserve" font-family="Helvetica-Bold" font-weight="bold" font-size="50.0" fill="#000000" transform="matrix(1.00, 0.00, -0.00, -1.00, 1498.5, 496.0)">i</text><text xml:space="preserve" font-family="Helvetica-Bold" font-weight="bold" font-size="50.0" fill="#000000" transform="matrix(1.00, 0.00, -0.00, -1.00, 1512.4, 496.0)">r</text><text xml:space="preserve" font-family="Helvetica-Bold" font-weight="bold" font-size="50.0" fill="#000000" transform="matrix(1.00, 0.00, -0.00, -1.00, 1531.9, 496.0)">e</text><text xml:space="preserve" font-family="Helvetica-Bold" font-weight="bold" font-size="50.0" fill="#000000" transform="matrix(1.00, 0.00, -0.00, -1.00, 1559.7, 496.0)">c</text><text xml:space="preserve" font-family="Helvetica-Bold" font-weight="bold" font-size="50.0" fill="#000000" transform="matrix(1.00, 0.00, -0.00, -1.00, 1587.5, 496.0)">t</text><text xml:space="preserve" font-family="Helvetica-Bold" font-weight="bold" font-size="50.0" fill="#000000" transform="matrix(1.00, 0.00, -0.00, -1.00, 1604.2, 496.0)">i</text><text xml:space="preserve" font-family="Helvetica-Bold" font-weight="bold" font-size="50.0" fill="#000000" transform="matrix(1.00, 0.00, -0.00, -1.00, 1618.0, 496.0)">o</text><text xml:space="preserve" font-family="Helvetica-Bold" font-weight="bold" font-size="50.0" fill="#000000" transform="matrix(1.00, 0.00, -0.00, -1.00, 1648.6, 496.0)">n</text><text xml:space="preserve" font-family="Helvetica-Bold" font-weight="bold" font-size="50.0" fill="#000000" transform="matrix(1.00, 0.00, -0.00, -1.00, 1679.1, 496.0)">s</text></g></g><path d="M 447.3 599.0 L 434.6 599.0 L 461.7 542.9 L 488.7 599.0 L 476.0 599.0 L 476.0 626.8 L 447.3 626.8 Z M 447.3 599.0 " fill="#A6AAA8"></path><path d="M 1492.2 602.4 L 1473.0 602.4 L 1500.1 575.4 L 1527.2 602.4 L 1508.0 602.4 L 1508.0 629.5 L 1492.2 629.5 Z M 1492.2 602.4 " fill="#A6AAA8"></path><image xlink:href="../../63D399A3-35E1-45FF-B287-06BE5905E8D9/assets/012DA33ECD4E2772276F3DCCEB1B19FE.png" width="163.00" height="71.00" transform="matrix(1.00, 0.00, -0.00, -1.00, 1418.8, 391.3)" opacity="0.50"></image><path d="M 1444.7 390.3 L 1555.5 390.3 C 1562.1 390.3 1565.5 390.3 1569.0 389.2 C 1572.9 387.8 1575.9 384.7 1577.3 380.8 C 1578.5 377.3 1578.5 374.0 1578.5 367.3 L 1578.5 348.3 C 1578.5 341.7 1578.5 338.4 1577.3 334.8 C 1575.9 330.9 1572.9 327.9 1569.0 326.5 C 1565.5 325.4 1562.1 325.4 1555.4 325.4 L 1444.7 325.4 C 1438.1 325.4 1434.8 325.4 1431.2 326.5 C 1427.3 327.9 1424.3 330.9 1422.9 334.8 C 1421.8 338.4 1421.8 341.7 1421.8 348.4 L 1421.8 367.4 C 1421.8 374.0 1421.8 377.3 1422.9 380.8 C 1424.3 384.7 1427.3 387.8 1431.2 389.2 C 1434.8 390.3 1438.1 390.3 1444.8 390.3 Z M 1444.7 390.3 " fill="#EB5C56"></path><g><clipPath id="clip-65"><path d="M 1418.2 325.4 L 1582.0 325.4 L 1582.0 390.3 L 1418.2 390.3 Z M 1418.2 325.4 "></path></clipPath><g clip-path="url(#clip-65)"><text xml:space="preserve" font-family="Helvetica-Light" font-size="32.0" fill="#000000" transform="matrix(1.00, 0.00, -0.00, -1.00, 1466.0, 346.0)">N</text><text xml:space="preserve" font-family="Helvetica-Light" font-size="32.0" fill="#000000" transform="matrix(1.00, 0.00, -0.00, -1.00, 1489.1, 346.0)">M</text><text xml:space="preserve" font-family="Helvetica-Light" font-size="32.0" fill="#000000" transform="matrix(1.00, 0.00, -0.00, -1.00, 1515.8, 346.0)">F</text></g></g><image xlink:href="../../47A5CE0A-6CF5-4987-A53B-5E7E0B38401C/assets/8502CF23CE8BD2B6E21CEC38E927990E.png" width="387.00" height="109.00" transform="matrix(1.00, 0.00, -0.00, -1.00, 1306.8, 253.7)" opacity="0.50"></image><path d="M 1333.5 252.7 L 1666.7 252.7 C 1673.5 252.7 1677.0 252.7 1680.6 251.5 C 1684.6 250.1 1687.8 246.9 1689.2 242.9 C 1690.4 239.3 1690.4 235.8 1690.4 228.9 L 1690.4 173.2 C 1690.4 166.4 1690.4 163.0 1689.2 159.3 C 1687.8 155.3 1684.6 152.2 1680.6 150.7 C 1677.0 149.6 1673.5 149.6 1666.6 149.6 L 1333.5 149.6 C 1326.7 149.6 1323.3 149.6 1319.6 150.7 C 1315.6 152.2 1312.4 155.3 1311.0 159.3 C 1309.8 163.0 1309.8 166.4 1309.8 173.3 L 1309.8 229.0 C 1309.8 235.8 1309.8 239.3 1311.0 242.9 C 1312.4 246.9 1315.6 250.1 1319.6 251.5 C 1323.3 252.7 1326.7 252.7 1333.6 252.7 Z M 1333.5 252.7 " fill="#51A7F9"></path><g><clipPath id="clip-66"><path d="M 1301.3 149.6 L 1698.9 149.6 L 1698.9 252.7 L 1301.3 252.7 Z M 1301.3 149.6 "></path></clipPath><g clip-path="url(#clip-66)"><text xml:space="preserve" font-family="Helvetica-Bold" font-weight="bold" font-size="50.0" fill="#000000" transform="matrix(1.00, 0.00, -0.00, -1.00, 1339.0, 182.0)">L</text><text xml:space="preserve" font-family="Helvetica-Bold" font-weight="bold" font-size="50.0" fill="#000000" transform="matrix(1.00, 0.00, -0.00, -1.00, 1369.5, 182.0)">a</text><text xml:space="preserve" font-family="Helvetica-Bold" font-weight="bold" font-size="50.0" fill="#000000" transform="matrix(1.00, 0.00, -0.00, -1.00, 1397.3, 182.0)">t</text><text xml:space="preserve" font-family="Helvetica-Bold" font-weight="bold" font-size="50.0" fill="#000000" transform="matrix(1.00, 0.00, -0.00, -1.00, 1414.0, 182.0)">e</text><text xml:space="preserve" font-family="Helvetica-Bold" font-weight="bold" font-size="50.0" fill="#000000" transform="matrix(1.00, 0.00, -0.00, -1.00, 1441.8, 182.0)">n</text><text xml:space="preserve" font-family="Helvetica-Bold" font-weight="bold" font-size="50.0" fill="#000000" transform="matrix(1.00, 0.00, -0.00, -1.00, 1472.3, 182.0)">t</text><text xml:space="preserve" font-family="Helvetica-Bold" font-weight="bold" font-size="50.0" fill="#000000" transform="matrix(1.00, 0.00, -0.00, -1.00, 1489.0, 182.0)"> </text><text xml:space="preserve" font-family="Helvetica-Bold" font-weight="bold" font-size="50.0" fill="#000000" transform="matrix(1.00, 0.00, -0.00, -1.00, 1502.9, 182.0)">T</text><text xml:space="preserve" font-family="Helvetica-Bold" font-weight="bold" font-size="50.0" fill="#000000" transform="matrix(1.00, 0.00, -0.00, -1.00, 1529.7, 182.0)">o</text><text xml:space="preserve" font-family="Helvetica-Bold" font-weight="bold" font-size="50.0" fill="#000000" transform="matrix(1.00, 0.00, -0.00, -1.00, 1560.3, 182.0)">p</text><text xml:space="preserve" font-family="Helvetica-Bold" font-weight="bold" font-size="50.0" fill="#000000" transform="matrix(1.00, 0.00, -0.00, -1.00, 1590.8, 182.0)">i</text><text xml:space="preserve" font-family="Helvetica-Bold" font-weight="bold" font-size="50.0" fill="#000000" transform="matrix(1.00, 0.00, -0.00, -1.00, 1604.7, 182.0)">c</text><text xml:space="preserve" font-family="Helvetica-Bold" font-weight="bold" font-size="50.0" fill="#000000" transform="matrix(1.00, 0.00, -0.00, -1.00, 1632.5, 182.0)">s</text></g></g><path d="M 1492.2 426.6 L 1473.0 426.6 L 1500.1 399.6 L 1527.2 426.6 L 1508.0 426.6 L 1508.0 453.7 L 1492.2 453.7 Z M 1492.2 426.6 " fill="#A6AAA8"></path><path d="M 1492.2 289.0 L 1473.0 289.0 L 1500.1 261.9 L 1527.2 289.0 L 1508.0 289.0 L 1508.0 316.1 L 1492.2 316.1 Z M 1492.2 289.0 " fill="#A6AAA8"></path><path d="M 1098.8 722.8 L 1209.7 722.8 C 1216.2 722.8 1219.6 722.8 1223.1 721.7 C 1227.0 720.3 1230.1 717.2 1231.5 713.3 C 1232.6 709.8 1232.6 706.4 1232.6 699.8 L 1232.6 642.6 C 1232.6 636.0 1232.6 632.7 1231.5 629.2 C 1230.1 625.3 1227.0 622.2 1223.1 620.8 C 1219.6 619.7 1216.2 619.7 1209.6 619.7 L 1098.8 619.7 C 1092.2 619.7 1088.9 619.7 1085.4 620.8 C 1081.5 622.2 1078.4 625.3 1077.0 629.2 C 1075.9 632.7 1075.9 636.0 1075.9 642.7 L 1075.9 699.9 C 1075.9 706.4 1075.9 709.8 1077.0 713.3 C 1078.4 717.2 1081.5 720.3 1085.4 721.7 C 1088.9 722.8 1092.2 722.8 1098.9 722.8 Z M 1098.8 722.8 " fill="#C84D47" fill-opacity="0.43"></path><g><clipPath id="clip-67"><path d="M 1072.3 619.7 L 1236.2 619.7 L 1236.2 722.8 L 1072.3 722.8 Z M 1072.3 619.7 "></path></clipPath><g clip-path="url(#clip-67)"><text xml:space="preserve" font-family="Helvetica-Light" font-size="32.0" fill="#000000" transform="matrix(1.00, 0.00, -0.00, -1.00, 1096.0, 678.0)">b</text><text xml:space="preserve" font-family="Helvetica-Light" font-size="32.0" fill="#000000" transform="matrix(1.00, 0.00, -0.00, -1.00, 1115.6, 678.0)">i</text><text xml:space="preserve" font-family="Helvetica-Light" font-size="32.0" fill="#000000" transform="matrix(1.00, 0.00, -0.00, -1.00, 1122.7, 678.0)">g</text><text xml:space="preserve" font-family="Helvetica-Light" font-size="32.0" fill="#000000" transform="matrix(1.00, 0.00, -0.00, -1.00, 1142.2, 678.0)">r</text><text xml:space="preserve" font-family="Helvetica-Light" font-size="32.0" fill="#000000" transform="matrix(1.00, 0.00, -0.00, -1.00, 1152.9, 678.0)">a</text><text xml:space="preserve" font-family="Helvetica-Light" font-size="32.0" fill="#000000" transform="matrix(1.00, 0.00, -0.00, -1.00, 1170.7, 678.0)">m</text><text xml:space="preserve" font-family="Helvetica-Light" font-size="32.0" fill="#000000" transform="matrix(1.00, 0.00, -0.00, -1.00, 1197.3, 678.0)">s</text><text xml:space="preserve" font-family="Helvetica-Light" font-size="32.0" fill="#000000" transform="matrix(1.00, 0.00, -0.00, -1.00, 1213.3, 678.0)"> </text><text xml:space="preserve" font-family="Helvetica-Light" font-size="32.0" fill="#000000" transform="matrix(1.00, 0.00, -0.00, -1.00, 1096.0, 640.0)">t</text><text xml:space="preserve" font-family="Helvetica-Light" font-size="32.0" fill="#000000" transform="matrix(1.00, 0.00, -0.00, -1.00, 1104.9, 640.0)">r</text><text xml:space="preserve" font-family="Helvetica-Light" font-size="32.0" fill="#000000" transform="matrix(1.00, 0.00, -0.00, -1.00, 1115.6, 640.0)">i</text><text xml:space="preserve" font-family="Helvetica-Light" font-size="32.0" fill="#000000" transform="matrix(1.00, 0.00, -0.00, -1.00, 1122.7, 640.0)">g</text><text xml:space="preserve" font-family="Helvetica-Light" font-size="32.0" fill="#000000" transform="matrix(1.00, 0.00, -0.00, -1.00, 1142.2, 640.0)">r</text><text xml:space="preserve" font-family="Helvetica-Light" font-size="32.0" fill="#000000" transform="matrix(1.00, 0.00, -0.00, -1.00, 1152.9, 640.0)">a</text><text xml:space="preserve" font-family="Helvetica-Light" font-size="32.0" fill="#000000" transform="matrix(1.00, 0.00, -0.00, -1.00, 1170.7, 640.0)">m</text><text xml:space="preserve" font-family="Helvetica-Light" font-size="32.0" fill="#000000" transform="matrix(1.00, 0.00, -0.00, -1.00, 1197.3, 640.0)">s</text></g></g></g></svg>