<?xml version="1.0" encoding="UTF-8" standalone="no"?><svg xmlns="http://www.w3.org/2000/svg" xmlns:xlink="http://www.w3.org/1999/xlink" clip-rule="evenodd" stroke-miterlimit="4.00" viewBox="0 0 1637 262"><desc>SVG generated by Keynote</desc><defs></defs><g transform="matrix(1.00, 0.00, -0.00, -1.00, 0.0, 262.0)"><text xml:space="preserve" font-family="Courier" font-size="46.0" fill="#000000" transform="matrix(1.00, 0.00, -0.00, -1.00, 3.0, 231.0)">b</text><text xml:space="preserve" font-family="Courier" font-size="46.0" fill="#000000" transform="matrix(1.00, 0.00, -0.00, -1.00, 30.6, 231.0)">l</text><text xml:space="preserve" font-family="Courier" font-size="46.0" fill="#000000" transform="matrix(1.00, 0.00, -0.00, -1.00, 58.2, 231.0)">e</text><text xml:space="preserve" font-family="Courier" font-size="46.0" fill="#000000" transform="matrix(1.00, 0.00, -0.00, -1.00, 85.8, 231.0)">n</text><text xml:space="preserve" font-family="Courier" font-size="46.0" fill="#000000" transform="matrix(1.00, 0.00, -0.00, -1.00, 113.4, 231.0)">d</text><text xml:space="preserve" font-family="Courier" font-size="46.0" fill="#000000" transform="matrix(1.00, 0.00, -0.00, -1.00, 141.0, 231.0)">e</text><text xml:space="preserve" font-family="Courier" font-size="46.0" fill="#000000" transform="matrix(1.00, 0.00, -0.00, -1.00, 168.7, 231.0)">r</text><text xml:space="preserve" font-family="Courier" font-size="46.0" fill="#000000" transform="matrix(1.00, 0.00, -0.00, -1.00, 202.5, 231.0)"> </text><text xml:space="preserve" font-family="Courier" font-size="46.0" fill="#000000" transform="matrix(1.00, 0.00, -0.00, -1.00, 236.3, 231.0)">b</text><text xml:space="preserve" font-family="Courier" font-size="46.0" fill="#000000" transform="matrix(1.00, 0.00, -0.00, -1.00, 263.9, 231.0)">l</text><text xml:space="preserve" font-family="Courier" font-size="46.0" fill="#000000" transform="matrix(1.00, 0.00, -0.00, -1.00, 291.5, 231.0)">e</text><text xml:space="preserve" font-family="Courier" font-size="46.0" fill="#000000" transform="matrix(1.00, 0.00, -0.00, -1.00, 319.1, 231.0)">n</text><text xml:space="preserve" font-family="Courier" font-size="46.0" fill="#000000" transform="matrix(1.00, 0.00, -0.00, -1.00, 346.7, 231.0)">d</text><text xml:space="preserve" font-family="Courier" font-size="46.0" fill="#000000" transform="matrix(1.00, 0.00, -0.00, -1.00, 374.3, 231.0)">,</text><text xml:space="preserve" font-family="Courier" font-size="46.0" fill="#000000" transform="matrix(1.00, 0.00, -0.00, -1.00, 408.2, 231.0)"> </text><text xml:space="preserve" font-family="Courier" font-size="46.0" fill="#000000" transform="matrix(1.00, 0.00, -0.00, -1.00, 442.0, 231.0)">b</text><text xml:space="preserve" font-family="Courier" font-size="46.0" fill="#000000" transform="matrix(1.00, 0.00, -0.00, -1.00, 469.6, 231.0)">l</text><text xml:space="preserve" font-family="Courier" font-size="46.0" fill="#000000" transform="matrix(1.00, 0.00, -0.00, -1.00, 497.2, 231.0)">e</text><text xml:space="preserve" font-family="Courier" font-size="46.0" fill="#000000" transform="matrix(1.00, 0.00, -0.00, -1.00, 524.8, 231.0)">n</text><text xml:space="preserve" font-family="Courier" font-size="46.0" fill="#000000" transform="matrix(1.00, 0.00, -0.00, -1.00, 552.4, 231.0)">d</text><text xml:space="preserve" font-family="Courier" font-size="46.0" fill="#000000" transform="matrix(1.00, 0.00, -0.00, -1.00, 586.2, 231.0)"> </text><text xml:space="preserve" font-family="Courier" font-size="46.0" fill="#000000" transform="matrix(1.00, 0.00, -0.00, -1.00, 620.1, 231.0)">s</text><text xml:space="preserve" font-family="Courier" font-size="46.0" fill="#000000" transform="matrix(1.00, 0.00, -0.00, -1.00, 647.7, 231.0)">p</text><text xml:space="preserve" font-family="Courier" font-size="46.0" fill="#000000" transform="matrix(1.00, 0.00, -0.00, -1.00, 675.3, 231.0)">e</text><text xml:space="preserve" font-family="Courier" font-size="46.0" fill="#000000" transform="matrix(1.00, 0.00, -0.00, -1.00, 702.9, 231.0)">e</text><text xml:space="preserve" font-family="Courier" font-size="46.0" fill="#000000" transform="matrix(1.00, 0.00, -0.00, -1.00, 730.5, 231.0)">d</text><text xml:space="preserve" font-family="Courier" font-size="46.0" fill="#000000" transform="matrix(1.00, 0.00, -0.00, -1.00, 758.1, 231.0)">,</text><text xml:space="preserve" font-family="Courier" font-size="46.0" fill="#000000" transform="matrix(1.00, 0.00, -0.00, -1.00, 791.9, 231.0)"> </text><text xml:space="preserve" font-family="Courier" font-size="46.0" fill="#000000" transform="matrix(1.00, 0.00, -0.00, -1.00, 825.7, 231.0)">b</text><text xml:space="preserve" font-family="Courier" font-size="46.0" fill="#000000" transform="matrix(1.00, 0.00, -0.00, -1.00, 853.3, 231.0)">l</text><text xml:space="preserve" font-family="Courier" font-size="46.0" fill="#000000" transform="matrix(1.00, 0.00, -0.00, -1.00, 881.0, 231.0)">e</text><text xml:space="preserve" font-family="Courier" font-size="46.0" fill="#000000" transform="matrix(1.00, 0.00, -0.00, -1.00, 908.6, 231.0)">n</text><text xml:space="preserve" font-family="Courier" font-size="46.0" fill="#000000" transform="matrix(1.00, 0.00, -0.00, -1.00, 936.2, 231.0)">d</text><text xml:space="preserve" font-family="Courier" font-size="46.0" fill="#000000" transform="matrix(1.00, 0.00, -0.00, -1.00, 963.8, 231.0)">e</text><text xml:space="preserve" font-family="Courier" font-size="46.0" fill="#000000" transform="matrix(1.00, 0.00, -0.00, -1.00, 991.4, 231.0)">r</text><text xml:space="preserve" font-family="Courier" font-size="46.0" fill="#000000" transform="matrix(1.00, 0.00, -0.00, -1.00, 1025.2, 231.0)"> </text><text xml:space="preserve" font-family="Courier" font-size="46.0" fill="#000000" transform="matrix(1.00, 0.00, -0.00, -1.00, 1059.0, 231.0)">b</text><text xml:space="preserve" font-family="Courier" font-size="46.0" fill="#000000" transform="matrix(1.00, 0.00, -0.00, -1.00, 1086.6, 231.0)">l</text><text xml:space="preserve" font-family="Courier" font-size="46.0" fill="#000000" transform="matrix(1.00, 0.00, -0.00, -1.00, 1114.2, 231.0)">e</text><text xml:space="preserve" font-family="Courier" font-size="46.0" fill="#000000" transform="matrix(1.00, 0.00, -0.00, -1.00, 1141.9, 231.0)">n</text><text xml:space="preserve" font-family="Courier" font-size="46.0" fill="#000000" transform="matrix(1.00, 0.00, -0.00, -1.00, 1169.5, 231.0)">d</text><text xml:space="preserve" font-family="Courier" font-size="46.0" fill="#000000" transform="matrix(1.00, 0.00, -0.00, -1.00, 1203.3, 231.0)"> </text><text xml:space="preserve" font-family="Courier" font-size="46.0" fill="#000000" transform="matrix(1.00, 0.00, -0.00, -1.00, 1237.1, 231.0)">s</text><text xml:space="preserve" font-family="Courier" font-size="46.0" fill="#000000" transform="matrix(1.00, 0.00, -0.00, -1.00, 1264.7, 231.0)">p</text><text xml:space="preserve" font-family="Courier" font-size="46.0" fill="#000000" transform="matrix(1.00, 0.00, -0.00, -1.00, 1292.3, 231.0)">e</text><text xml:space="preserve" font-family="Courier" font-size="46.0" fill="#000000" transform="matrix(1.00, 0.00, -0.00, -1.00, 1319.9, 231.0)">e</text><text xml:space="preserve" font-family="Courier" font-size="46.0" fill="#000000" transform="matrix(1.00, 0.00, -0.00, -1.00, 1347.5, 231.0)">d</text><text xml:space="preserve" font-family="Courier" font-size="46.0" fill="#000000" transform="matrix(1.00, 0.00, -0.00, -1.00, 1375.1, 231.0)">,</text><text xml:space="preserve" font-family="Courier" font-size="46.0" fill="#000000" transform="matrix(1.00, 0.00, -0.00, -1.00, 1409.0, 231.0)"> </text><text xml:space="preserve" font-family="Courier" font-size="46.0" fill="#000000" transform="matrix(1.00, 0.00, -0.00, -1.00, 1442.8, 231.0)">b</text><text xml:space="preserve" font-family="Courier" font-size="46.0" fill="#000000" transform="matrix(1.00, 0.00, -0.00, -1.00, 1470.4, 231.0)">l</text><text xml:space="preserve" font-family="Courier" font-size="46.0" fill="#000000" transform="matrix(1.00, 0.00, -0.00, -1.00, 1498.0, 231.0)">e</text><text xml:space="preserve" font-family="Courier" font-size="46.0" fill="#000000" transform="matrix(1.00, 0.00, -0.00, -1.00, 1525.6, 231.0)">n</text><text xml:space="preserve" font-family="Courier" font-size="46.0" fill="#000000" transform="matrix(1.00, 0.00, -0.00, -1.00, 1553.2, 231.0)">d</text><text xml:space="preserve" font-family="Courier" font-size="46.0" fill="#000000" transform="matrix(1.00, 0.00, -0.00, -1.00, 1580.8, 231.0)">e</text><text xml:space="preserve" font-family="Courier" font-size="46.0" fill="#000000" transform="matrix(1.00, 0.00, -0.00, -1.00, 1608.4, 231.0)">r</text><text xml:space="preserve" font-family="Courier" font-size="46.0" fill="#000000" transform="matrix(1.00, 0.00, -0.00, -1.00, 1636.0, 231.0)"> </text><text xml:space="preserve" font-family="Courier" font-size="46.0" fill="#000000" transform="matrix(1.00, 0.00, -0.00, -1.00, 3.0, 176.0)">b</text><text xml:space="preserve" font-family="Courier" font-size="46.0" fill="#000000" transform="matrix(1.00, 0.00, -0.00, -1.00, 30.6, 176.0)">l</text><text xml:space="preserve" font-family="Courier" font-size="46.0" fill="#000000" transform="matrix(1.00, 0.00, -0.00, -1.00, 58.2, 176.0)">e</text><text xml:space="preserve" font-family="Courier" font-size="46.0" fill="#000000" transform="matrix(1.00, 0.00, -0.00, -1.00, 85.8, 176.0)">n</text><text xml:space="preserve" font-family="Courier" font-size="46.0" fill="#000000" transform="matrix(1.00, 0.00, -0.00, -1.00, 113.4, 176.0)">d</text><text xml:space="preserve" font-family="Courier" font-size="46.0" fill="#000000" transform="matrix(1.00, 0.00, -0.00, -1.00, 153.2, 176.0)"> </text><text xml:space="preserve" font-family="Courier" font-size="46.0" fill="#000000" transform="matrix(1.00, 0.00, -0.00, -1.00, 192.9, 176.0)">s</text><text xml:space="preserve" font-family="Courier" font-size="46.0" fill="#000000" transform="matrix(1.00, 0.00, -0.00, -1.00, 220.6, 176.0)">m</text><text xml:space="preserve" font-family="Courier" font-size="46.0" fill="#000000" transform="matrix(1.00, 0.00, -0.00, -1.00, 248.2, 176.0)">o</text><text xml:space="preserve" font-family="Courier" font-size="46.0" fill="#000000" transform="matrix(1.00, 0.00, -0.00, -1.00, 275.8, 176.0)">o</text><text xml:space="preserve" font-family="Courier" font-size="46.0" fill="#000000" transform="matrix(1.00, 0.00, -0.00, -1.00, 303.4, 176.0)">t</text><text xml:space="preserve" font-family="Courier" font-size="46.0" fill="#000000" transform="matrix(1.00, 0.00, -0.00, -1.00, 331.0, 176.0)">h</text><text xml:space="preserve" font-family="Courier" font-size="46.0" fill="#000000" transform="matrix(1.00, 0.00, -0.00, -1.00, 358.6, 176.0)">,</text><text xml:space="preserve" font-family="Courier" font-size="46.0" fill="#000000" transform="matrix(1.00, 0.00, -0.00, -1.00, 398.4, 176.0)"> </text><text xml:space="preserve" font-family="Courier" font-size="46.0" fill="#000000" transform="matrix(1.00, 0.00, -0.00, -1.00, 438.1, 176.0)">b</text><text xml:space="preserve" font-family="Courier" font-size="46.0" fill="#000000" transform="matrix(1.00, 0.00, -0.00, -1.00, 465.7, 176.0)">l</text><text xml:space="preserve" font-family="Courier" font-size="46.0" fill="#000000" transform="matrix(1.00, 0.00, -0.00, -1.00, 493.3, 176.0)">e</text><text xml:space="preserve" font-family="Courier" font-size="46.0" fill="#000000" transform="matrix(1.00, 0.00, -0.00, -1.00, 520.9, 176.0)">n</text><text xml:space="preserve" font-family="Courier" font-size="46.0" fill="#000000" transform="matrix(1.00, 0.00, -0.00, -1.00, 548.5, 176.0)">d</text><text xml:space="preserve" font-family="Courier" font-size="46.0" fill="#000000" transform="matrix(1.00, 0.00, -0.00, -1.00, 588.3, 176.0)"> </text><text xml:space="preserve" font-family="Courier" font-size="46.0" fill="#000000" transform="matrix(1.00, 0.00, -0.00, -1.00, 628.0, 176.0)">s</text><text xml:space="preserve" font-family="Courier" font-size="46.0" fill="#000000" transform="matrix(1.00, 0.00, -0.00, -1.00, 655.7, 176.0)">p</text><text xml:space="preserve" font-family="Courier" font-size="46.0" fill="#000000" transform="matrix(1.00, 0.00, -0.00, -1.00, 683.3, 176.0)">e</text><text xml:space="preserve" font-family="Courier" font-size="46.0" fill="#000000" transform="matrix(1.00, 0.00, -0.00, -1.00, 710.9, 176.0)">e</text><text xml:space="preserve" font-family="Courier" font-size="46.0" fill="#000000" transform="matrix(1.00, 0.00, -0.00, -1.00, 738.5, 176.0)">d</text><text xml:space="preserve" font-family="Courier" font-size="46.0" fill="#000000" transform="matrix(1.00, 0.00, -0.00, -1.00, 778.2, 176.0)"> </text><text xml:space="preserve" font-family="Courier" font-size="46.0" fill="#000000" transform="matrix(1.00, 0.00, -0.00, -1.00, 818.0, 176.0)">m</text><text xml:space="preserve" font-family="Courier" font-size="46.0" fill="#000000" transform="matrix(1.00, 0.00, -0.00, -1.00, 845.6, 176.0)">i</text><text xml:space="preserve" font-family="Courier" font-size="46.0" fill="#000000" transform="matrix(1.00, 0.00, -0.00, -1.00, 873.2, 176.0)">n</text><text xml:space="preserve" font-family="Courier" font-size="46.0" fill="#000000" transform="matrix(1.00, 0.00, -0.00, -1.00, 900.8, 176.0)">u</text><text xml:space="preserve" font-family="Courier" font-size="46.0" fill="#000000" transform="matrix(1.00, 0.00, -0.00, -1.00, 928.4, 176.0)">t</text><text xml:space="preserve" font-family="Courier" font-size="46.0" fill="#000000" transform="matrix(1.00, 0.00, -0.00, -1.00, 956.0, 176.0)">e</text><text xml:space="preserve" font-family="Courier" font-size="46.0" fill="#000000" transform="matrix(1.00, 0.00, -0.00, -1.00, 983.6, 176.0)">,</text><text xml:space="preserve" font-family="Courier" font-size="46.0" fill="#000000" transform="matrix(1.00, 0.00, -0.00, -1.00, 1023.4, 176.0)"> </text><text xml:space="preserve" font-family="Courier" font-size="46.0" fill="#000000" transform="matrix(1.00, 0.00, -0.00, -1.00, 1063.1, 176.0)">b</text><text xml:space="preserve" font-family="Courier" font-size="46.0" fill="#000000" transform="matrix(1.00, 0.00, -0.00, -1.00, 1090.8, 176.0)">l</text><text xml:space="preserve" font-family="Courier" font-size="46.0" fill="#000000" transform="matrix(1.00, 0.00, -0.00, -1.00, 1118.4, 176.0)">e</text><text xml:space="preserve" font-family="Courier" font-size="46.0" fill="#000000" transform="matrix(1.00, 0.00, -0.00, -1.00, 1146.0, 176.0)">n</text><text xml:space="preserve" font-family="Courier" font-size="46.0" fill="#000000" transform="matrix(1.00, 0.00, -0.00, -1.00, 1173.6, 176.0)">d</text><text xml:space="preserve" font-family="Courier" font-size="46.0" fill="#000000" transform="matrix(1.00, 0.00, -0.00, -1.00, 1213.3, 176.0)"> </text><text xml:space="preserve" font-family="Courier" font-size="46.0" fill="#000000" transform="matrix(1.00, 0.00, -0.00, -1.00, 1253.1, 176.0)">s</text><text xml:space="preserve" font-family="Courier" font-size="46.0" fill="#000000" transform="matrix(1.00, 0.00, -0.00, -1.00, 1280.7, 176.0)">m</text><text xml:space="preserve" font-family="Courier" font-size="46.0" fill="#000000" transform="matrix(1.00, 0.00, -0.00, -1.00, 1308.3, 176.0)">o</text><text xml:space="preserve" font-family="Courier" font-size="46.0" fill="#000000" transform="matrix(1.00, 0.00, -0.00, -1.00, 1335.9, 176.0)">o</text><text xml:space="preserve" font-family="Courier" font-size="46.0" fill="#000000" transform="matrix(1.00, 0.00, -0.00, -1.00, 1363.5, 176.0)">t</text><text xml:space="preserve" font-family="Courier" font-size="46.0" fill="#000000" transform="matrix(1.00, 0.00, -0.00, -1.00, 1391.1, 176.0)">h</text><text xml:space="preserve" font-family="Courier" font-size="46.0" fill="#000000" transform="matrix(1.00, 0.00, -0.00, -1.00, 1418.7, 176.0)">,</text><text xml:space="preserve" font-family="Courier" font-size="46.0" fill="#000000" transform="matrix(1.00, 0.00, -0.00, -1.00, 1458.5, 176.0)"> </text><text xml:space="preserve" font-family="Courier" font-size="46.0" fill="#000000" transform="matrix(1.00, 0.00, -0.00, -1.00, 1498.3, 176.0)">s</text><text xml:space="preserve" font-family="Courier" font-size="46.0" fill="#000000" transform="matrix(1.00, 0.00, -0.00, -1.00, 1525.9, 176.0)">p</text><text xml:space="preserve" font-family="Courier" font-size="46.0" fill="#000000" transform="matrix(1.00, 0.00, -0.00, -1.00, 1553.5, 176.0)">e</text><text xml:space="preserve" font-family="Courier" font-size="46.0" fill="#000000" transform="matrix(1.00, 0.00, -0.00, -1.00, 1581.1, 176.0)">e</text><text xml:space="preserve" font-family="Courier" font-size="46.0" fill="#000000" transform="matrix(1.00, 0.00, -0.00, -1.00, 1608.7, 176.0)">d</text><text xml:space="preserve" font-family="Courier" font-size="46.0" fill="#000000" transform="matrix(1.00, 0.00, -0.00, -1.00, 1636.3, 176.0)"> </text><text xml:space="preserve" font-family="Courier" font-size="46.0" fill="#000000" transform="matrix(1.00, 0.00, -0.00, -1.00, 3.0, 121.0)">m</text><text xml:space="preserve" font-family="Courier" font-size="46.0" fill="#000000" transform="matrix(1.00, 0.00, -0.00, -1.00, 30.6, 121.0)">i</text><text xml:space="preserve" font-family="Courier" font-size="46.0" fill="#000000" transform="matrix(1.00, 0.00, -0.00, -1.00, 58.2, 121.0)">n</text><text xml:space="preserve" font-family="Courier" font-size="46.0" fill="#000000" transform="matrix(1.00, 0.00, -0.00, -1.00, 85.8, 121.0)">u</text><text xml:space="preserve" font-family="Courier" font-size="46.0" fill="#000000" transform="matrix(1.00, 0.00, -0.00, -1.00, 113.4, 121.0)">t</text><text xml:space="preserve" font-family="Courier" font-size="46.0" fill="#000000" transform="matrix(1.00, 0.00, -0.00, -1.00, 141.0, 121.0)">e</text><text xml:space="preserve" font-family="Courier" font-size="46.0" fill="#000000" transform="matrix(1.00, 0.00, -0.00, -1.00, 168.7, 121.0)">,</text><text xml:space="preserve" font-family="Courier" font-size="46.0" fill="#000000" transform="matrix(1.00, 0.00, -0.00, -1.00, 204.5, 121.0)"> </text><text xml:space="preserve" font-family="Courier" font-size="46.0" fill="#000000" transform="matrix(1.00, 0.00, -0.00, -1.00, 240.2, 121.0)">b</text><text xml:space="preserve" font-family="Courier" font-size="46.0" fill="#000000" transform="matrix(1.00, 0.00, -0.00, -1.00, 267.9, 121.0)">l</text><text xml:space="preserve" font-family="Courier" font-size="46.0" fill="#000000" transform="matrix(1.00, 0.00, -0.00, -1.00, 295.5, 121.0)">e</text><text xml:space="preserve" font-family="Courier" font-size="46.0" fill="#000000" transform="matrix(1.00, 0.00, -0.00, -1.00, 323.1, 121.0)">n</text><text xml:space="preserve" font-family="Courier" font-size="46.0" fill="#000000" transform="matrix(1.00, 0.00, -0.00, -1.00, 350.7, 121.0)">d</text><text xml:space="preserve" font-family="Courier" font-size="46.0" fill="#000000" transform="matrix(1.00, 0.00, -0.00, -1.00, 386.5, 121.0)"> </text><text xml:space="preserve" font-family="Courier" font-size="46.0" fill="#000000" transform="matrix(1.00, 0.00, -0.00, -1.00, 422.3, 121.0)">s</text><text xml:space="preserve" font-family="Courier" font-size="46.0" fill="#000000" transform="matrix(1.00, 0.00, -0.00, -1.00, 449.9, 121.0)">p</text><text xml:space="preserve" font-family="Courier" font-size="46.0" fill="#000000" transform="matrix(1.00, 0.00, -0.00, -1.00, 477.5, 121.0)">e</text><text xml:space="preserve" font-family="Courier" font-size="46.0" fill="#000000" transform="matrix(1.00, 0.00, -0.00, -1.00, 505.1, 121.0)">e</text><text xml:space="preserve" font-family="Courier" font-size="46.0" fill="#000000" transform="matrix(1.00, 0.00, -0.00, -1.00, 532.7, 121.0)">d</text><text xml:space="preserve" font-family="Courier" font-size="46.0" fill="#000000" transform="matrix(1.00, 0.00, -0.00, -1.00, 568.5, 121.0)"> </text><text xml:space="preserve" font-family="Courier" font-size="46.0" fill="#000000" transform="matrix(1.00, 0.00, -0.00, -1.00, 604.3, 121.0)">s</text><text xml:space="preserve" font-family="Courier" font-size="46.0" fill="#000000" transform="matrix(1.00, 0.00, -0.00, -1.00, 631.9, 121.0)">m</text><text xml:space="preserve" font-family="Courier" font-size="46.0" fill="#000000" transform="matrix(1.00, 0.00, -0.00, -1.00, 659.5, 121.0)">o</text><text xml:space="preserve" font-family="Courier" font-size="46.0" fill="#000000" transform="matrix(1.00, 0.00, -0.00, -1.00, 687.1, 121.0)">o</text><text xml:space="preserve" font-family="Courier" font-size="46.0" fill="#000000" transform="matrix(1.00, 0.00, -0.00, -1.00, 714.7, 121.0)">t</text><text xml:space="preserve" font-family="Courier" font-size="46.0" fill="#000000" transform="matrix(1.00, 0.00, -0.00, -1.00, 742.4, 121.0)">h</text><text xml:space="preserve" font-family="Courier" font-size="46.0" fill="#000000" transform="matrix(1.00, 0.00, -0.00, -1.00, 770.0, 121.0)">,</text><text xml:space="preserve" font-family="Courier" font-size="46.0" fill="#000000" transform="matrix(1.00, 0.00, -0.00, -1.00, 805.8, 121.0)"> </text><text xml:space="preserve" font-family="Courier" font-size="46.0" fill="#000000" transform="matrix(1.00, 0.00, -0.00, -1.00, 841.6, 121.0)">s</text><text xml:space="preserve" font-family="Courier" font-size="46.0" fill="#000000" transform="matrix(1.00, 0.00, -0.00, -1.00, 869.2, 121.0)">p</text><text xml:space="preserve" font-family="Courier" font-size="46.0" fill="#000000" transform="matrix(1.00, 0.00, -0.00, -1.00, 896.8, 121.0)">e</text><text xml:space="preserve" font-family="Courier" font-size="46.0" fill="#000000" transform="matrix(1.00, 0.00, -0.00, -1.00, 924.4, 121.0)">e</text><text xml:space="preserve" font-family="Courier" font-size="46.0" fill="#000000" transform="matrix(1.00, 0.00, -0.00, -1.00, 952.0, 121.0)">d</text><text xml:space="preserve" font-family="Courier" font-size="46.0" fill="#000000" transform="matrix(1.00, 0.00, -0.00, -1.00, 987.8, 121.0)"> </text><text xml:space="preserve" font-family="Courier" font-size="46.0" fill="#000000" transform="matrix(1.00, 0.00, -0.00, -1.00, 1023.6, 121.0)">s</text><text xml:space="preserve" font-family="Courier" font-size="46.0" fill="#000000" transform="matrix(1.00, 0.00, -0.00, -1.00, 1051.2, 121.0)">m</text><text xml:space="preserve" font-family="Courier" font-size="46.0" fill="#000000" transform="matrix(1.00, 0.00, -0.00, -1.00, 1078.8, 121.0)">o</text><text xml:space="preserve" font-family="Courier" font-size="46.0" fill="#000000" transform="matrix(1.00, 0.00, -0.00, -1.00, 1106.4, 121.0)">o</text><text xml:space="preserve" font-family="Courier" font-size="46.0" fill="#000000" transform="matrix(1.00, 0.00, -0.00, -1.00, 1134.0, 121.0)">t</text><text xml:space="preserve" font-family="Courier" font-size="46.0" fill="#000000" transform="matrix(1.00, 0.00, -0.00, -1.00, 1161.6, 121.0)">h</text><text xml:space="preserve" font-family="Courier" font-size="46.0" fill="#000000" transform="matrix(1.00, 0.00, -0.00, -1.00, 1189.2, 121.0)">,</text><text xml:space="preserve" font-family="Courier" font-size="46.0" fill="#000000" transform="matrix(1.00, 0.00, -0.00, -1.00, 1225.0, 121.0)"> </text><text xml:space="preserve" font-family="Courier" font-size="46.0" fill="#000000" transform="matrix(1.00, 0.00, -0.00, -1.00, 1260.8, 121.0)">s</text><text xml:space="preserve" font-family="Courier" font-size="46.0" fill="#000000" transform="matrix(1.00, 0.00, -0.00, -1.00, 1288.4, 121.0)">m</text><text xml:space="preserve" font-family="Courier" font-size="46.0" fill="#000000" transform="matrix(1.00, 0.00, -0.00, -1.00, 1316.1, 121.0)">o</text><text xml:space="preserve" font-family="Courier" font-size="46.0" fill="#000000" transform="matrix(1.00, 0.00, -0.00, -1.00, 1343.7, 121.0)">o</text><text xml:space="preserve" font-family="Courier" font-size="46.0" fill="#000000" transform="matrix(1.00, 0.00, -0.00, -1.00, 1371.3, 121.0)">t</text><text xml:space="preserve" font-family="Courier" font-size="46.0" fill="#000000" transform="matrix(1.00, 0.00, -0.00, -1.00, 1398.9, 121.0)">h</text><text xml:space="preserve" font-family="Courier" font-size="46.0" fill="#000000" transform="matrix(1.00, 0.00, -0.00, -1.00, 1434.7, 121.0)"> </text><text xml:space="preserve" font-family="Courier" font-size="46.0" fill="#000000" transform="matrix(1.00, 0.00, -0.00, -1.00, 1470.5, 121.0)">r</text><text xml:space="preserve" font-family="Courier" font-size="46.0" fill="#000000" transform="matrix(1.00, 0.00, -0.00, -1.00, 1498.1, 121.0)">i</text><text xml:space="preserve" font-family="Courier" font-size="46.0" fill="#000000" transform="matrix(1.00, 0.00, -0.00, -1.00, 1525.7, 121.0)">g</text><text xml:space="preserve" font-family="Courier" font-size="46.0" fill="#000000" transform="matrix(1.00, 0.00, -0.00, -1.00, 1553.3, 121.0)">h</text><text xml:space="preserve" font-family="Courier" font-size="46.0" fill="#000000" transform="matrix(1.00, 0.00, -0.00, -1.00, 1580.9, 121.0)">t</text><text xml:space="preserve" font-family="Courier" font-size="46.0" fill="#000000" transform="matrix(1.00, 0.00, -0.00, -1.00, 1608.5, 121.0)">,</text><text xml:space="preserve" font-family="Courier" font-size="46.0" fill="#000000" transform="matrix(1.00, 0.00, -0.00, -1.00, 1636.1, 121.0)"> </text><text xml:space="preserve" font-family="Courier" font-size="46.0" fill="#000000" transform="matrix(1.00, 0.00, -0.00, -1.00, 3.0, 66.0)">s</text><text xml:space="preserve" font-family="Courier" font-size="46.0" fill="#000000" transform="matrix(1.00, 0.00, -0.00, -1.00, 30.6, 66.0)">m</text><text xml:space="preserve" font-family="Courier" font-size="46.0" fill="#000000" transform="matrix(1.00, 0.00, -0.00, -1.00, 58.2, 66.0)">o</text><text xml:space="preserve" font-family="Courier" font-size="46.0" fill="#000000" transform="matrix(1.00, 0.00, -0.00, -1.00, 85.8, 66.0)">o</text><text xml:space="preserve" font-family="Courier" font-size="46.0" fill="#000000" transform="matrix(1.00, 0.00, -0.00, -1.00, 113.4, 66.0)">t</text><text xml:space="preserve" font-family="Courier" font-size="46.0" fill="#000000" transform="matrix(1.00, 0.00, -0.00, -1.00, 141.0, 66.0)">h</text><text xml:space="preserve" font-family="Courier" font-size="46.0" fill="#000000" transform="matrix(1.00, 0.00, -0.00, -1.00, 175.8, 66.0)"> </text><text xml:space="preserve" font-family="Courier" font-size="46.0" fill="#000000" transform="matrix(1.00, 0.00, -0.00, -1.00, 210.6, 66.0)">r</text><text xml:space="preserve" font-family="Courier" font-size="46.0" fill="#000000" transform="matrix(1.00, 0.00, -0.00, -1.00, 238.2, 66.0)">i</text><text xml:space="preserve" font-family="Courier" font-size="46.0" fill="#000000" transform="matrix(1.00, 0.00, -0.00, -1.00, 265.8, 66.0)">g</text><text xml:space="preserve" font-family="Courier" font-size="46.0" fill="#000000" transform="matrix(1.00, 0.00, -0.00, -1.00, 293.4, 66.0)">h</text><text xml:space="preserve" font-family="Courier" font-size="46.0" fill="#000000" transform="matrix(1.00, 0.00, -0.00, -1.00, 321.1, 66.0)">t</text><text xml:space="preserve" font-family="Courier" font-size="46.0" fill="#000000" transform="matrix(1.00, 0.00, -0.00, -1.00, 355.8, 66.0)"> </text><text xml:space="preserve" font-family="Courier" font-size="46.0" fill="#000000" transform="matrix(1.00, 0.00, -0.00, -1.00, 390.6, 66.0)">a</text><text xml:space="preserve" font-family="Courier" font-size="46.0" fill="#000000" transform="matrix(1.00, 0.00, -0.00, -1.00, 418.2, 66.0)">w</text><text xml:space="preserve" font-family="Courier" font-size="46.0" fill="#000000" transform="matrix(1.00, 0.00, -0.00, -1.00, 445.8, 66.0)">a</text><text xml:space="preserve" font-family="Courier" font-size="46.0" fill="#000000" transform="matrix(1.00, 0.00, -0.00, -1.00, 473.4, 66.0)">y</text><text xml:space="preserve" font-family="Courier" font-size="46.0" fill="#000000" transform="matrix(1.00, 0.00, -0.00, -1.00, 501.1, 66.0)">,</text><text xml:space="preserve" font-family="Courier" font-size="46.0" fill="#000000" transform="matrix(1.00, 0.00, -0.00, -1.00, 535.8, 66.0)"> </text><text xml:space="preserve" font-family="Courier" font-size="46.0" fill="#000000" transform="matrix(1.00, 0.00, -0.00, -1.00, 570.6, 66.0)">r</text><text xml:space="preserve" font-family="Courier" font-size="46.0" fill="#000000" transform="matrix(1.00, 0.00, -0.00, -1.00, 598.2, 66.0)">i</text><text xml:space="preserve" font-family="Courier" font-size="46.0" fill="#000000" transform="matrix(1.00, 0.00, -0.00, -1.00, 625.8, 66.0)">g</text><text xml:space="preserve" font-family="Courier" font-size="46.0" fill="#000000" transform="matrix(1.00, 0.00, -0.00, -1.00, 653.5, 66.0)">h</text><text xml:space="preserve" font-family="Courier" font-size="46.0" fill="#000000" transform="matrix(1.00, 0.00, -0.00, -1.00, 681.1, 66.0)">t</text><text xml:space="preserve" font-family="Courier" font-size="46.0" fill="#000000" transform="matrix(1.00, 0.00, -0.00, -1.00, 715.9, 66.0)"> </text><text xml:space="preserve" font-family="Courier" font-size="46.0" fill="#000000" transform="matrix(1.00, 0.00, -0.00, -1.00, 750.6, 66.0)">a</text><text xml:space="preserve" font-family="Courier" font-size="46.0" fill="#000000" transform="matrix(1.00, 0.00, -0.00, -1.00, 778.2, 66.0)">w</text><text xml:space="preserve" font-family="Courier" font-size="46.0" fill="#000000" transform="matrix(1.00, 0.00, -0.00, -1.00, 805.9, 66.0)">a</text><text xml:space="preserve" font-family="Courier" font-size="46.0" fill="#000000" transform="matrix(1.00, 0.00, -0.00, -1.00, 833.5, 66.0)">y</text><text xml:space="preserve" font-family="Courier" font-size="46.0" fill="#000000" transform="matrix(1.00, 0.00, -0.00, -1.00, 861.1, 66.0)">,</text><text xml:space="preserve" font-family="Courier" font-size="46.0" fill="#000000" transform="matrix(1.00, 0.00, -0.00, -1.00, 895.9, 66.0)"> </text><text xml:space="preserve" font-family="Courier" font-size="46.0" fill="#000000" transform="matrix(1.00, 0.00, -0.00, -1.00, 930.6, 66.0)">j</text><text xml:space="preserve" font-family="Courier" font-size="46.0" fill="#000000" transform="matrix(1.00, 0.00, -0.00, -1.00, 958.3, 66.0)">a</text><text xml:space="preserve" font-family="Courier" font-size="46.0" fill="#000000" transform="matrix(1.00, 0.00, -0.00, -1.00, 985.9, 66.0)">r</text><text xml:space="preserve" font-family="Courier" font-size="46.0" fill="#000000" transform="matrix(1.00, 0.00, -0.00, -1.00, 1020.6, 66.0)"> </text><text xml:space="preserve" font-family="Courier" font-size="46.0" fill="#000000" transform="matrix(1.00, 0.00, -0.00, -1.00, 1055.4, 66.0)">b</text><text xml:space="preserve" font-family="Courier" font-size="46.0" fill="#000000" transform="matrix(1.00, 0.00, -0.00, -1.00, 1083.0, 66.0)">l</text><text xml:space="preserve" font-family="Courier" font-size="46.0" fill="#000000" transform="matrix(1.00, 0.00, -0.00, -1.00, 1110.6, 66.0)">e</text><text xml:space="preserve" font-family="Courier" font-size="46.0" fill="#000000" transform="matrix(1.00, 0.00, -0.00, -1.00, 1138.3, 66.0)">n</text><text xml:space="preserve" font-family="Courier" font-size="46.0" fill="#000000" transform="matrix(1.00, 0.00, -0.00, -1.00, 1165.9, 66.0)">d</text><text xml:space="preserve" font-family="Courier" font-size="46.0" fill="#000000" transform="matrix(1.00, 0.00, -0.00, -1.00, 1193.5, 66.0)">e</text><text xml:space="preserve" font-family="Courier" font-size="46.0" fill="#000000" transform="matrix(1.00, 0.00, -0.00, -1.00, 1221.1, 66.0)">r</text><text xml:space="preserve" font-family="Courier" font-size="46.0" fill="#000000" transform="matrix(1.00, 0.00, -0.00, -1.00, 1255.9, 66.0)"> </text><text xml:space="preserve" font-family="Courier" font-size="46.0" fill="#000000" transform="matrix(1.00, 0.00, -0.00, -1.00, 1290.7, 66.0)">b</text><text xml:space="preserve" font-family="Courier" font-size="46.0" fill="#000000" transform="matrix(1.00, 0.00, -0.00, -1.00, 1318.3, 66.0)">l</text><text xml:space="preserve" font-family="Courier" font-size="46.0" fill="#000000" transform="matrix(1.00, 0.00, -0.00, -1.00, 1345.9, 66.0)">e</text><text xml:space="preserve" font-family="Courier" font-size="46.0" fill="#000000" transform="matrix(1.00, 0.00, -0.00, -1.00, 1373.5, 66.0)">n</text><text xml:space="preserve" font-family="Courier" font-size="46.0" fill="#000000" transform="matrix(1.00, 0.00, -0.00, -1.00, 1401.1, 66.0)">d</text><text xml:space="preserve" font-family="Courier" font-size="46.0" fill="#000000" transform="matrix(1.00, 0.00, -0.00, -1.00, 1428.7, 66.0)">,</text><text xml:space="preserve" font-family="Courier" font-size="46.0" fill="#000000" transform="matrix(1.00, 0.00, -0.00, -1.00, 1463.5, 66.0)"> </text><text xml:space="preserve" font-family="Courier" font-size="46.0" fill="#000000" transform="matrix(1.00, 0.00, -0.00, -1.00, 1498.3, 66.0)">s</text><text xml:space="preserve" font-family="Courier" font-size="46.0" fill="#000000" transform="matrix(1.00, 0.00, -0.00, -1.00, 1525.9, 66.0)">p</text><text xml:space="preserve" font-family="Courier" font-size="46.0" fill="#000000" transform="matrix(1.00, 0.00, -0.00, -1.00, 1553.5, 66.0)">e</text><text xml:space="preserve" font-family="Courier" font-size="46.0" fill="#000000" transform="matrix(1.00, 0.00, -0.00, -1.00, 1581.1, 66.0)">e</text><text xml:space="preserve" font-family="Courier" font-size="46.0" fill="#000000" transform="matrix(1.00, 0.00, -0.00, -1.00, 1608.7, 66.0)">d</text><text xml:space="preserve" font-family="Courier" font-size="46.0" fill="#000000" transform="matrix(1.00, 0.00, -0.00, -1.00, 1636.3, 66.0)"> </text><text xml:space="preserve" font-family="Courier" font-size="46.0" fill="#000000" transform="matrix(1.00, 0.00, -0.00, -1.00, 3.0, 11.0)">s</text><text xml:space="preserve" font-family="Courier" font-size="46.0" fill="#000000" transform="matrix(1.00, 0.00, -0.00, -1.00, 30.6, 11.0)">m</text><text xml:space="preserve" font-family="Courier" font-size="46.0" fill="#000000" transform="matrix(1.00, 0.00, -0.00, -1.00, 58.2, 11.0)">o</text><text xml:space="preserve" font-family="Courier" font-size="46.0" fill="#000000" transform="matrix(1.00, 0.00, -0.00, -1.00, 85.8, 11.0)">o</text><text xml:space="preserve" font-family="Courier" font-size="46.0" fill="#000000" transform="matrix(1.00, 0.00, -0.00, -1.00, 113.4, 11.0)">t</text><text xml:space="preserve" font-family="Courier" font-size="46.0" fill="#000000" transform="matrix(1.00, 0.00, -0.00, -1.00, 141.0, 11.0)">h</text><text xml:space="preserve" font-family="Courier" font-size="46.0" fill="#000000" transform="matrix(1.00, 0.00, -0.00, -1.00, 168.7, 11.0)"> </text><text xml:space="preserve" font-family="Courier" font-size="46.0" fill="#000000" transform="matrix(1.00, 0.00, -0.00, -1.00, 196.3, 11.0)">r</text><text xml:space="preserve" font-family="Courier" font-size="46.0" fill="#000000" transform="matrix(1.00, 0.00, -0.00, -1.00, 223.9, 11.0)">i</text><text xml:space="preserve" font-family="Courier" font-size="46.0" fill="#000000" transform="matrix(1.00, 0.00, -0.00, -1.00, 251.5, 11.0)">g</text><text xml:space="preserve" font-family="Courier" font-size="46.0" fill="#000000" transform="matrix(1.00, 0.00, -0.00, -1.00, 279.1, 11.0)">h</text><text xml:space="preserve" font-family="Courier" font-size="46.0" fill="#000000" transform="matrix(1.00, 0.00, -0.00, -1.00, 306.7, 11.0)">t</text><text xml:space="preserve" font-family="Courier" font-size="46.0" fill="#000000" transform="matrix(1.00, 0.00, -0.00, -1.00, 334.3, 11.0)">,</text><text xml:space="preserve" font-family="Courier" font-size="46.0" fill="#000000" transform="matrix(1.00, 0.00, -0.00, -1.00, 361.9, 11.0)"> </text><text xml:space="preserve" font-family="Courier" font-size="46.0" fill="#000000" transform="matrix(1.00, 0.00, -0.00, -1.00, 389.5, 11.0)">m</text><text xml:space="preserve" font-family="Courier" font-size="46.0" fill="#000000" transform="matrix(1.00, 0.00, -0.00, -1.00, 417.1, 11.0)">i</text><text xml:space="preserve" font-family="Courier" font-size="46.0" fill="#000000" transform="matrix(1.00, 0.00, -0.00, -1.00, 444.7, 11.0)">n</text><text xml:space="preserve" font-family="Courier" font-size="46.0" fill="#000000" transform="matrix(1.00, 0.00, -0.00, -1.00, 472.4, 11.0)">u</text><text xml:space="preserve" font-family="Courier" font-size="46.0" fill="#000000" transform="matrix(1.00, 0.00, -0.00, -1.00, 500.0, 11.0)">t</text><text xml:space="preserve" font-family="Courier" font-size="46.0" fill="#000000" transform="matrix(1.00, 0.00, -0.00, -1.00, 527.6, 11.0)">e</text><text xml:space="preserve" font-family="Courier" font-size="46.0" fill="#000000" transform="matrix(1.00, 0.00, -0.00, -1.00, 555.2, 11.0)"> </text><text xml:space="preserve" font-family="Courier" font-size="46.0" fill="#000000" transform="matrix(1.00, 0.00, -0.00, -1.00, 582.8, 11.0)">s</text><text xml:space="preserve" font-family="Courier" font-size="46.0" fill="#000000" transform="matrix(1.00, 0.00, -0.00, -1.00, 610.4, 11.0)">m</text><text xml:space="preserve" font-family="Courier" font-size="46.0" fill="#000000" transform="matrix(1.00, 0.00, -0.00, -1.00, 638.0, 11.0)">o</text><text xml:space="preserve" font-family="Courier" font-size="46.0" fill="#000000" transform="matrix(1.00, 0.00, -0.00, -1.00, 665.6, 11.0)">o</text><text xml:space="preserve" font-family="Courier" font-size="46.0" fill="#000000" transform="matrix(1.00, 0.00, -0.00, -1.00, 693.2, 11.0)">t</text><text xml:space="preserve" font-family="Courier" font-size="46.0" fill="#000000" transform="matrix(1.00, 0.00, -0.00, -1.00, 720.8, 11.0)">h</text></g></svg>