<?xml version="1.0" encoding="UTF-8" standalone="no"?><svg xmlns="http://www.w3.org/2000/svg" xmlns:xlink="http://www.w3.org/1999/xlink" clip-rule="evenodd" stroke-miterlimit="4.00" viewBox="0 0 1920 1080"><desc>SVG generated by Keynote</desc><defs></defs><g transform="matrix(1.00, 0.00, -0.00, -1.00, 0.0, 1080.0)"><path d="M 0.0 1080.0 L 1920.0 1080.0 L 1920.0 0.0 L 0.0 0.0 Z M 0.0 1080.0 " fill="#DCEEF6"></path><text xml:space="preserve" font-family="Courier" font-size="46.0" fill="#000000" transform="matrix(1.00, 0.00, -0.00, -1.00, 144.0, 634.0)">b</text><text xml:space="preserve" font-family="Courier" font-size="46.0" fill="#000000" transform="matrix(1.00, 0.00, -0.00, -1.00, 171.6, 634.0)">l</text><text xml:space="preserve" font-family="Courier" font-size="46.0" fill="#000000" transform="matrix(1.00, 0.00, -0.00, -1.00, 199.2, 634.0)">e</text><text xml:space="preserve" font-family="Courier" font-size="46.0" fill="#000000" transform="matrix(1.00, 0.00, -0.00, -1.00, 226.8, 634.0)">n</text><text xml:space="preserve" font-family="Courier" font-size="46.0" fill="#000000" transform="matrix(1.00, 0.00, -0.00, -1.00, 254.4, 634.0)">d</text><text xml:space="preserve" font-family="Courier" font-size="46.0" fill="#000000" transform="matrix(1.00, 0.00, -0.00, -1.00, 282.0, 634.0)">e</text><text xml:space="preserve" font-family="Courier" font-size="46.0" fill="#000000" transform="matrix(1.00, 0.00, -0.00, -1.00, 309.7, 634.0)">r</text><text xml:space="preserve" font-family="Courier" font-size="46.0" fill="#000000" transform="matrix(1.00, 0.00, -0.00, -1.00, 343.5, 634.0)"> </text><text xml:space="preserve" font-family="Courier" font-size="46.0" fill="#000000" transform="matrix(1.00, 0.00, -0.00, -1.00, 377.3, 634.0)">b</text><text xml:space="preserve" font-family="Courier" font-size="46.0" fill="#000000" transform="matrix(1.00, 0.00, -0.00, -1.00, 404.9, 634.0)">l</text><text xml:space="preserve" font-family="Courier" font-size="46.0" fill="#000000" transform="matrix(1.00, 0.00, -0.00, -1.00, 432.5, 634.0)">e</text><text xml:space="preserve" font-family="Courier" font-size="46.0" fill="#000000" transform="matrix(1.00, 0.00, -0.00, -1.00, 460.1, 634.0)">n</text><text xml:space="preserve" font-family="Courier" font-size="46.0" fill="#000000" transform="matrix(1.00, 0.00, -0.00, -1.00, 487.7, 634.0)">d</text><text xml:space="preserve" font-family="Courier" font-size="46.0" fill="#000000" transform="matrix(1.00, 0.00, -0.00, -1.00, 515.3, 634.0)">,</text><text xml:space="preserve" font-family="Courier" font-size="46.0" fill="#000000" transform="matrix(1.00, 0.00, -0.00, -1.00, 549.2, 634.0)"> </text><text xml:space="preserve" font-family="Courier" font-size="46.0" fill="#000000" transform="matrix(1.00, 0.00, -0.00, -1.00, 583.0, 634.0)">b</text><text xml:space="preserve" font-family="Courier" font-size="46.0" fill="#000000" transform="matrix(1.00, 0.00, -0.00, -1.00, 610.6, 634.0)">l</text><text xml:space="preserve" font-family="Courier" font-size="46.0" fill="#000000" transform="matrix(1.00, 0.00, -0.00, -1.00, 638.2, 634.0)">e</text><text xml:space="preserve" font-family="Courier" font-size="46.0" fill="#000000" transform="matrix(1.00, 0.00, -0.00, -1.00, 665.8, 634.0)">n</text><text xml:space="preserve" font-family="Courier" font-size="46.0" fill="#000000" transform="matrix(1.00, 0.00, -0.00, -1.00, 693.4, 634.0)">d</text><text xml:space="preserve" font-family="Courier" font-size="46.0" fill="#000000" transform="matrix(1.00, 0.00, -0.00, -1.00, 727.2, 634.0)"> </text><text xml:space="preserve" font-family="Courier" font-size="46.0" fill="#000000" transform="matrix(1.00, 0.00, -0.00, -1.00, 761.1, 634.0)">s</text><text xml:space="preserve" font-family="Courier" font-size="46.0" fill="#000000" transform="matrix(1.00, 0.00, -0.00, -1.00, 788.7, 634.0)">p</text><text xml:space="preserve" font-family="Courier" font-size="46.0" fill="#000000" transform="matrix(1.00, 0.00, -0.00, -1.00, 816.3, 634.0)">e</text><text xml:space="preserve" font-family="Courier" font-size="46.0" fill="#000000" transform="matrix(1.00, 0.00, -0.00, -1.00, 843.9, 634.0)">e</text><text xml:space="preserve" font-family="Courier" font-size="46.0" fill="#000000" transform="matrix(1.00, 0.00, -0.00, -1.00, 871.5, 634.0)">d</text><text xml:space="preserve" font-family="Courier" font-size="46.0" fill="#000000" transform="matrix(1.00, 0.00, -0.00, -1.00, 899.1, 634.0)">,</text><text xml:space="preserve" font-family="Courier" font-size="46.0" fill="#000000" transform="matrix(1.00, 0.00, -0.00, -1.00, 932.9, 634.0)"> </text><text xml:space="preserve" font-family="Courier" font-size="46.0" fill="#000000" transform="matrix(1.00, 0.00, -0.00, -1.00, 966.7, 634.0)">b</text><text xml:space="preserve" font-family="Courier" font-size="46.0" fill="#000000" transform="matrix(1.00, 0.00, -0.00, -1.00, 994.3, 634.0)">l</text><text xml:space="preserve" font-family="Courier" font-size="46.0" fill="#000000" transform="matrix(1.00, 0.00, -0.00, -1.00, 1022.0, 634.0)">e</text><text xml:space="preserve" font-family="Courier" font-size="46.0" fill="#000000" transform="matrix(1.00, 0.00, -0.00, -1.00, 1049.6, 634.0)">n</text><text xml:space="preserve" font-family="Courier" font-size="46.0" fill="#000000" transform="matrix(1.00, 0.00, -0.00, -1.00, 1077.2, 634.0)">d</text><text xml:space="preserve" font-family="Courier" font-size="46.0" fill="#000000" transform="matrix(1.00, 0.00, -0.00, -1.00, 1104.8, 634.0)">e</text><text xml:space="preserve" font-family="Courier" font-size="46.0" fill="#000000" transform="matrix(1.00, 0.00, -0.00, -1.00, 1132.4, 634.0)">r</text><text xml:space="preserve" font-family="Courier" font-size="46.0" fill="#000000" transform="matrix(1.00, 0.00, -0.00, -1.00, 1166.2, 634.0)"> </text><text xml:space="preserve" font-family="Courier" font-size="46.0" fill="#000000" transform="matrix(1.00, 0.00, -0.00, -1.00, 1200.0, 634.0)">b</text><text xml:space="preserve" font-family="Courier" font-size="46.0" fill="#000000" transform="matrix(1.00, 0.00, -0.00, -1.00, 1227.6, 634.0)">l</text><text xml:space="preserve" font-family="Courier" font-size="46.0" fill="#000000" transform="matrix(1.00, 0.00, -0.00, -1.00, 1255.2, 634.0)">e</text><text xml:space="preserve" font-family="Courier" font-size="46.0" fill="#000000" transform="matrix(1.00, 0.00, -0.00, -1.00, 1282.9, 634.0)">n</text><text xml:space="preserve" font-family="Courier" font-size="46.0" fill="#000000" transform="matrix(1.00, 0.00, -0.00, -1.00, 1310.5, 634.0)">d</text><text xml:space="preserve" font-family="Courier" font-size="46.0" fill="#000000" transform="matrix(1.00, 0.00, -0.00, -1.00, 1344.3, 634.0)"> </text><text xml:space="preserve" font-family="Courier" font-size="46.0" fill="#000000" transform="matrix(1.00, 0.00, -0.00, -1.00, 1378.1, 634.0)">s</text><text xml:space="preserve" font-family="Courier" font-size="46.0" fill="#000000" transform="matrix(1.00, 0.00, -0.00, -1.00, 1405.7, 634.0)">p</text><text xml:space="preserve" font-family="Courier" font-size="46.0" fill="#000000" transform="matrix(1.00, 0.00, -0.00, -1.00, 1433.3, 634.0)">e</text><text xml:space="preserve" font-family="Courier" font-size="46.0" fill="#000000" transform="matrix(1.00, 0.00, -0.00, -1.00, 1460.9, 634.0)">e</text><text xml:space="preserve" font-family="Courier" font-size="46.0" fill="#000000" transform="matrix(1.00, 0.00, -0.00, -1.00, 1488.5, 634.0)">d</text><text xml:space="preserve" font-family="Courier" font-size="46.0" fill="#000000" transform="matrix(1.00, 0.00, -0.00, -1.00, 1516.1, 634.0)">,</text><text xml:space="preserve" font-family="Courier" font-size="46.0" fill="#000000" transform="matrix(1.00, 0.00, -0.00, -1.00, 1550.0, 634.0)"> </text><text xml:space="preserve" font-family="Courier" font-size="46.0" fill="#000000" transform="matrix(1.00, 0.00, -0.00, -1.00, 1583.8, 634.0)">b</text><text xml:space="preserve" font-family="Courier" font-size="46.0" fill="#000000" transform="matrix(1.00, 0.00, -0.00, -1.00, 1611.4, 634.0)">l</text><text xml:space="preserve" font-family="Courier" font-size="46.0" fill="#000000" transform="matrix(1.00, 0.00, -0.00, -1.00, 1639.0, 634.0)">e</text><text xml:space="preserve" font-family="Courier" font-size="46.0" fill="#000000" transform="matrix(1.00, 0.00, -0.00, -1.00, 1666.6, 634.0)">n</text><text xml:space="preserve" font-family="Courier" font-size="46.0" fill="#000000" transform="matrix(1.00, 0.00, -0.00, -1.00, 1694.2, 634.0)">d</text><text xml:space="preserve" font-family="Courier" font-size="46.0" fill="#000000" transform="matrix(1.00, 0.00, -0.00, -1.00, 1721.8, 634.0)">e</text><text xml:space="preserve" font-family="Courier" font-size="46.0" fill="#000000" transform="matrix(1.00, 0.00, -0.00, -1.00, 1749.4, 634.0)">r</text><text xml:space="preserve" font-family="Courier" font-size="46.0" fill="#000000" transform="matrix(1.00, 0.00, -0.00, -1.00, 1777.0, 634.0)"> </text><text xml:space="preserve" font-family="Courier" font-size="46.0" fill="#000000" transform="matrix(1.00, 0.00, -0.00, -1.00, 144.0, 579.0)">b</text><text xml:space="preserve" font-family="Courier" font-size="46.0" fill="#000000" transform="matrix(1.00, 0.00, -0.00, -1.00, 171.6, 579.0)">l</text><text xml:space="preserve" font-family="Courier" font-size="46.0" fill="#000000" transform="matrix(1.00, 0.00, -0.00, -1.00, 199.2, 579.0)">e</text><text xml:space="preserve" font-family="Courier" font-size="46.0" fill="#000000" transform="matrix(1.00, 0.00, -0.00, -1.00, 226.8, 579.0)">n</text><text xml:space="preserve" font-family="Courier" font-size="46.0" fill="#000000" transform="matrix(1.00, 0.00, -0.00, -1.00, 254.4, 579.0)">d</text><text xml:space="preserve" font-family="Courier" font-size="46.0" fill="#000000" transform="matrix(1.00, 0.00, -0.00, -1.00, 294.2, 579.0)"> </text><text xml:space="preserve" font-family="Courier" font-size="46.0" fill="#000000" transform="matrix(1.00, 0.00, -0.00, -1.00, 333.9, 579.0)">s</text><text xml:space="preserve" font-family="Courier" font-size="46.0" fill="#000000" transform="matrix(1.00, 0.00, -0.00, -1.00, 361.6, 579.0)">m</text><text xml:space="preserve" font-family="Courier" font-size="46.0" fill="#000000" transform="matrix(1.00, 0.00, -0.00, -1.00, 389.2, 579.0)">o</text><text xml:space="preserve" font-family="Courier" font-size="46.0" fill="#000000" transform="matrix(1.00, 0.00, -0.00, -1.00, 416.8, 579.0)">o</text><text xml:space="preserve" font-family="Courier" font-size="46.0" fill="#000000" transform="matrix(1.00, 0.00, -0.00, -1.00, 444.4, 579.0)">t</text><text xml:space="preserve" font-family="Courier" font-size="46.0" fill="#000000" transform="matrix(1.00, 0.00, -0.00, -1.00, 472.0, 579.0)">h</text><text xml:space="preserve" font-family="Courier" font-size="46.0" fill="#000000" transform="matrix(1.00, 0.00, -0.00, -1.00, 499.6, 579.0)">,</text><text xml:space="preserve" font-family="Courier" font-size="46.0" fill="#000000" transform="matrix(1.00, 0.00, -0.00, -1.00, 539.4, 579.0)"> </text><text xml:space="preserve" font-family="Courier" font-size="46.0" fill="#000000" transform="matrix(1.00, 0.00, -0.00, -1.00, 579.1, 579.0)">b</text><text xml:space="preserve" font-family="Courier" font-size="46.0" fill="#000000" transform="matrix(1.00, 0.00, -0.00, -1.00, 606.7, 579.0)">l</text><text xml:space="preserve" font-family="Courier" font-size="46.0" fill="#000000" transform="matrix(1.00, 0.00, -0.00, -1.00, 634.3, 579.0)">e</text><text xml:space="preserve" font-family="Courier" font-size="46.0" fill="#000000" transform="matrix(1.00, 0.00, -0.00, -1.00, 661.9, 579.0)">n</text><text xml:space="preserve" font-family="Courier" font-size="46.0" fill="#000000" transform="matrix(1.00, 0.00, -0.00, -1.00, 689.5, 579.0)">d</text><text xml:space="preserve" font-family="Courier" font-size="46.0" fill="#000000" transform="matrix(1.00, 0.00, -0.00, -1.00, 729.3, 579.0)"> </text><text xml:space="preserve" font-family="Courier" font-size="46.0" fill="#000000" transform="matrix(1.00, 0.00, -0.00, -1.00, 769.0, 579.0)">s</text><text xml:space="preserve" font-family="Courier" font-size="46.0" fill="#000000" transform="matrix(1.00, 0.00, -0.00, -1.00, 796.7, 579.0)">p</text><text xml:space="preserve" font-family="Courier" font-size="46.0" fill="#000000" transform="matrix(1.00, 0.00, -0.00, -1.00, 824.3, 579.0)">e</text><text xml:space="preserve" font-family="Courier" font-size="46.0" fill="#000000" transform="matrix(1.00, 0.00, -0.00, -1.00, 851.9, 579.0)">e</text><text xml:space="preserve" font-family="Courier" font-size="46.0" fill="#000000" transform="matrix(1.00, 0.00, -0.00, -1.00, 879.5, 579.0)">d</text><text xml:space="preserve" font-family="Courier" font-size="46.0" fill="#000000" transform="matrix(1.00, 0.00, -0.00, -1.00, 919.2, 579.0)"> </text><text xml:space="preserve" font-family="Courier" font-size="46.0" fill="#000000" transform="matrix(1.00, 0.00, -0.00, -1.00, 959.0, 579.0)">m</text><text xml:space="preserve" font-family="Courier" font-size="46.0" fill="#000000" transform="matrix(1.00, 0.00, -0.00, -1.00, 986.6, 579.0)">i</text><text xml:space="preserve" font-family="Courier" font-size="46.0" fill="#000000" transform="matrix(1.00, 0.00, -0.00, -1.00, 1014.2, 579.0)">n</text><text xml:space="preserve" font-family="Courier" font-size="46.0" fill="#000000" transform="matrix(1.00, 0.00, -0.00, -1.00, 1041.8, 579.0)">u</text><text xml:space="preserve" font-family="Courier" font-size="46.0" fill="#000000" transform="matrix(1.00, 0.00, -0.00, -1.00, 1069.4, 579.0)">t</text><text xml:space="preserve" font-family="Courier" font-size="46.0" fill="#000000" transform="matrix(1.00, 0.00, -0.00, -1.00, 1097.0, 579.0)">e</text><text xml:space="preserve" font-family="Courier" font-size="46.0" fill="#000000" transform="matrix(1.00, 0.00, -0.00, -1.00, 1124.6, 579.0)">,</text><text xml:space="preserve" font-family="Courier" font-size="46.0" fill="#000000" transform="matrix(1.00, 0.00, -0.00, -1.00, 1164.4, 579.0)"> </text><text xml:space="preserve" font-family="Courier" font-size="46.0" fill="#000000" transform="matrix(1.00, 0.00, -0.00, -1.00, 1204.1, 579.0)">b</text><text xml:space="preserve" font-family="Courier" font-size="46.0" fill="#000000" transform="matrix(1.00, 0.00, -0.00, -1.00, 1231.8, 579.0)">l</text><text xml:space="preserve" font-family="Courier" font-size="46.0" fill="#000000" transform="matrix(1.00, 0.00, -0.00, -1.00, 1259.4, 579.0)">e</text><text xml:space="preserve" font-family="Courier" font-size="46.0" fill="#000000" transform="matrix(1.00, 0.00, -0.00, -1.00, 1287.0, 579.0)">n</text><text xml:space="preserve" font-family="Courier" font-size="46.0" fill="#000000" transform="matrix(1.00, 0.00, -0.00, -1.00, 1314.6, 579.0)">d</text><text xml:space="preserve" font-family="Courier" font-size="46.0" fill="#000000" transform="matrix(1.00, 0.00, -0.00, -1.00, 1354.3, 579.0)"> </text><text xml:space="preserve" font-family="Courier" font-size="46.0" fill="#000000" transform="matrix(1.00, 0.00, -0.00, -1.00, 1394.1, 579.0)">s</text><text xml:space="preserve" font-family="Courier" font-size="46.0" fill="#000000" transform="matrix(1.00, 0.00, -0.00, -1.00, 1421.7, 579.0)">m</text><text xml:space="preserve" font-family="Courier" font-size="46.0" fill="#000000" transform="matrix(1.00, 0.00, -0.00, -1.00, 1449.3, 579.0)">o</text><text xml:space="preserve" font-family="Courier" font-size="46.0" fill="#000000" transform="matrix(1.00, 0.00, -0.00, -1.00, 1476.9, 579.0)">o</text><text xml:space="preserve" font-family="Courier" font-size="46.0" fill="#000000" transform="matrix(1.00, 0.00, -0.00, -1.00, 1504.5, 579.0)">t</text><text xml:space="preserve" font-family="Courier" font-size="46.0" fill="#000000" transform="matrix(1.00, 0.00, -0.00, -1.00, 1532.1, 579.0)">h</text><text xml:space="preserve" font-family="Courier" font-size="46.0" fill="#000000" transform="matrix(1.00, 0.00, -0.00, -1.00, 1559.7, 579.0)">,</text><text xml:space="preserve" font-family="Courier" font-size="46.0" fill="#000000" transform="matrix(1.00, 0.00, -0.00, -1.00, 1599.5, 579.0)"> </text><text xml:space="preserve" font-family="Courier" font-size="46.0" fill="#000000" transform="matrix(1.00, 0.00, -0.00, -1.00, 1639.3, 579.0)">s</text><text xml:space="preserve" font-family="Courier" font-size="46.0" fill="#000000" transform="matrix(1.00, 0.00, -0.00, -1.00, 1666.9, 579.0)">p</text><text xml:space="preserve" font-family="Courier" font-size="46.0" fill="#000000" transform="matrix(1.00, 0.00, -0.00, -1.00, 1694.5, 579.0)">e</text><text xml:space="preserve" font-family="Courier" font-size="46.0" fill="#000000" transform="matrix(1.00, 0.00, -0.00, -1.00, 1722.1, 579.0)">e</text><text xml:space="preserve" font-family="Courier" font-size="46.0" fill="#000000" transform="matrix(1.00, 0.00, -0.00, -1.00, 1749.7, 579.0)">d</text><text xml:space="preserve" font-family="Courier" font-size="46.0" fill="#000000" transform="matrix(1.00, 0.00, -0.00, -1.00, 1777.3, 579.0)"> </text><text xml:space="preserve" font-family="Courier" font-size="46.0" fill="#000000" transform="matrix(1.00, 0.00, -0.00, -1.00, 144.0, 524.0)">m</text><text xml:space="preserve" font-family="Courier" font-size="46.0" fill="#000000" transform="matrix(1.00, 0.00, -0.00, -1.00, 171.6, 524.0)">i</text><text xml:space="preserve" font-family="Courier" font-size="46.0" fill="#000000" transform="matrix(1.00, 0.00, -0.00, -1.00, 199.2, 524.0)">n</text><text xml:space="preserve" font-family="Courier" font-size="46.0" fill="#000000" transform="matrix(1.00, 0.00, -0.00, -1.00, 226.8, 524.0)">u</text><text xml:space="preserve" font-family="Courier" font-size="46.0" fill="#000000" transform="matrix(1.00, 0.00, -0.00, -1.00, 254.4, 524.0)">t</text><text xml:space="preserve" font-family="Courier" font-size="46.0" fill="#000000" transform="matrix(1.00, 0.00, -0.00, -1.00, 282.0, 524.0)">e</text><text xml:space="preserve" font-family="Courier" font-size="46.0" fill="#000000" transform="matrix(1.00, 0.00, -0.00, -1.00, 309.7, 524.0)">,</text><text xml:space="preserve" font-family="Courier" font-size="46.0" fill="#000000" transform="matrix(1.00, 0.00, -0.00, -1.00, 345.5, 524.0)"> </text><text xml:space="preserve" font-family="Courier" font-size="46.0" fill="#000000" transform="matrix(1.00, 0.00, -0.00, -1.00, 381.2, 524.0)">b</text><text xml:space="preserve" font-family="Courier" font-size="46.0" fill="#000000" transform="matrix(1.00, 0.00, -0.00, -1.00, 408.9, 524.0)">l</text><text xml:space="preserve" font-family="Courier" font-size="46.0" fill="#000000" transform="matrix(1.00, 0.00, -0.00, -1.00, 436.5, 524.0)">e</text><text xml:space="preserve" font-family="Courier" font-size="46.0" fill="#000000" transform="matrix(1.00, 0.00, -0.00, -1.00, 464.1, 524.0)">n</text><text xml:space="preserve" font-family="Courier" font-size="46.0" fill="#000000" transform="matrix(1.00, 0.00, -0.00, -1.00, 491.7, 524.0)">d</text><text xml:space="preserve" font-family="Courier" font-size="46.0" fill="#000000" transform="matrix(1.00, 0.00, -0.00, -1.00, 527.5, 524.0)"> </text><text xml:space="preserve" font-family="Courier" font-size="46.0" fill="#000000" transform="matrix(1.00, 0.00, -0.00, -1.00, 563.3, 524.0)">s</text><text xml:space="preserve" font-family="Courier" font-size="46.0" fill="#000000" transform="matrix(1.00, 0.00, -0.00, -1.00, 590.9, 524.0)">p</text><text xml:space="preserve" font-family="Courier" font-size="46.0" fill="#000000" transform="matrix(1.00, 0.00, -0.00, -1.00, 618.5, 524.0)">e</text><text xml:space="preserve" font-family="Courier" font-size="46.0" fill="#000000" transform="matrix(1.00, 0.00, -0.00, -1.00, 646.1, 524.0)">e</text><text xml:space="preserve" font-family="Courier" font-size="46.0" fill="#000000" transform="matrix(1.00, 0.00, -0.00, -1.00, 673.7, 524.0)">d</text><text xml:space="preserve" font-family="Courier" font-size="46.0" fill="#000000" transform="matrix(1.00, 0.00, -0.00, -1.00, 709.5, 524.0)"> </text><text xml:space="preserve" font-family="Courier" font-size="46.0" fill="#000000" transform="matrix(1.00, 0.00, -0.00, -1.00, 745.3, 524.0)">s</text><text xml:space="preserve" font-family="Courier" font-size="46.0" fill="#000000" transform="matrix(1.00, 0.00, -0.00, -1.00, 772.9, 524.0)">m</text><text xml:space="preserve" font-family="Courier" font-size="46.0" fill="#000000" transform="matrix(1.00, 0.00, -0.00, -1.00, 800.5, 524.0)">o</text><text xml:space="preserve" font-family="Courier" font-size="46.0" fill="#000000" transform="matrix(1.00, 0.00, -0.00, -1.00, 828.1, 524.0)">o</text><text xml:space="preserve" font-family="Courier" font-size="46.0" fill="#000000" transform="matrix(1.00, 0.00, -0.00, -1.00, 855.7, 524.0)">t</text><text xml:space="preserve" font-family="Courier" font-size="46.0" fill="#000000" transform="matrix(1.00, 0.00, -0.00, -1.00, 883.4, 524.0)">h</text><text xml:space="preserve" font-family="Courier" font-size="46.0" fill="#000000" transform="matrix(1.00, 0.00, -0.00, -1.00, 911.0, 524.0)">,</text><text xml:space="preserve" font-family="Courier" font-size="46.0" fill="#000000" transform="matrix(1.00, 0.00, -0.00, -1.00, 946.8, 524.0)"> </text><text xml:space="preserve" font-family="Courier" font-size="46.0" fill="#000000" transform="matrix(1.00, 0.00, -0.00, -1.00, 982.6, 524.0)">s</text><text xml:space="preserve" font-family="Courier" font-size="46.0" fill="#000000" transform="matrix(1.00, 0.00, -0.00, -1.00, 1010.2, 524.0)">p</text><text xml:space="preserve" font-family="Courier" font-size="46.0" fill="#000000" transform="matrix(1.00, 0.00, -0.00, -1.00, 1037.8, 524.0)">e</text><text xml:space="preserve" font-family="Courier" font-size="46.0" fill="#000000" transform="matrix(1.00, 0.00, -0.00, -1.00, 1065.4, 524.0)">e</text><text xml:space="preserve" font-family="Courier" font-size="46.0" fill="#000000" transform="matrix(1.00, 0.00, -0.00, -1.00, 1093.0, 524.0)">d</text><text xml:space="preserve" font-family="Courier" font-size="46.0" fill="#000000" transform="matrix(1.00, 0.00, -0.00, -1.00, 1128.8, 524.0)"> </text><text xml:space="preserve" font-family="Courier" font-size="46.0" fill="#000000" transform="matrix(1.00, 0.00, -0.00, -1.00, 1164.6, 524.0)">s</text><text xml:space="preserve" font-family="Courier" font-size="46.0" fill="#000000" transform="matrix(1.00, 0.00, -0.00, -1.00, 1192.2, 524.0)">m</text><text xml:space="preserve" font-family="Courier" font-size="46.0" fill="#000000" transform="matrix(1.00, 0.00, -0.00, -1.00, 1219.8, 524.0)">o</text><text xml:space="preserve" font-family="Courier" font-size="46.0" fill="#000000" transform="matrix(1.00, 0.00, -0.00, -1.00, 1247.4, 524.0)">o</text><text xml:space="preserve" font-family="Courier" font-size="46.0" fill="#000000" transform="matrix(1.00, 0.00, -0.00, -1.00, 1275.0, 524.0)">t</text><text xml:space="preserve" font-family="Courier" font-size="46.0" fill="#000000" transform="matrix(1.00, 0.00, -0.00, -1.00, 1302.6, 524.0)">h</text><text xml:space="preserve" font-family="Courier" font-size="46.0" fill="#000000" transform="matrix(1.00, 0.00, -0.00, -1.00, 1330.2, 524.0)">,</text><text xml:space="preserve" font-family="Courier" font-size="46.0" fill="#000000" transform="matrix(1.00, 0.00, -0.00, -1.00, 1366.0, 524.0)"> </text><text xml:space="preserve" font-family="Courier" font-size="46.0" fill="#000000" transform="matrix(1.00, 0.00, -0.00, -1.00, 1401.8, 524.0)">s</text><text xml:space="preserve" font-family="Courier" font-size="46.0" fill="#000000" transform="matrix(1.00, 0.00, -0.00, -1.00, 1429.4, 524.0)">m</text><text xml:space="preserve" font-family="Courier" font-size="46.0" fill="#000000" transform="matrix(1.00, 0.00, -0.00, -1.00, 1457.1, 524.0)">o</text><text xml:space="preserve" font-family="Courier" font-size="46.0" fill="#000000" transform="matrix(1.00, 0.00, -0.00, -1.00, 1484.7, 524.0)">o</text><text xml:space="preserve" font-family="Courier" font-size="46.0" fill="#000000" transform="matrix(1.00, 0.00, -0.00, -1.00, 1512.3, 524.0)">t</text><text xml:space="preserve" font-family="Courier" font-size="46.0" fill="#000000" transform="matrix(1.00, 0.00, -0.00, -1.00, 1539.9, 524.0)">h</text><text xml:space="preserve" font-family="Courier" font-size="46.0" fill="#000000" transform="matrix(1.00, 0.00, -0.00, -1.00, 1575.7, 524.0)"> </text><text xml:space="preserve" font-family="Courier" font-size="46.0" fill="#000000" transform="matrix(1.00, 0.00, -0.00, -1.00, 1611.5, 524.0)">r</text><text xml:space="preserve" font-family="Courier" font-size="46.0" fill="#000000" transform="matrix(1.00, 0.00, -0.00, -1.00, 1639.1, 524.0)">i</text><text xml:space="preserve" font-family="Courier" font-size="46.0" fill="#000000" transform="matrix(1.00, 0.00, -0.00, -1.00, 1666.7, 524.0)">g</text><text xml:space="preserve" font-family="Courier" font-size="46.0" fill="#000000" transform="matrix(1.00, 0.00, -0.00, -1.00, 1694.3, 524.0)">h</text><text xml:space="preserve" font-family="Courier" font-size="46.0" fill="#000000" transform="matrix(1.00, 0.00, -0.00, -1.00, 1721.9, 524.0)">t</text><text xml:space="preserve" font-family="Courier" font-size="46.0" fill="#000000" transform="matrix(1.00, 0.00, -0.00, -1.00, 1749.5, 524.0)">,</text><text xml:space="preserve" font-family="Courier" font-size="46.0" fill="#000000" transform="matrix(1.00, 0.00, -0.00, -1.00, 1777.1, 524.0)"> </text><text xml:space="preserve" font-family="Courier" font-size="46.0" fill="#000000" transform="matrix(1.00, 0.00, -0.00, -1.00, 144.0, 469.0)">s</text><text xml:space="preserve" font-family="Courier" font-size="46.0" fill="#000000" transform="matrix(1.00, 0.00, -0.00, -1.00, 171.6, 469.0)">m</text><text xml:space="preserve" font-family="Courier" font-size="46.0" fill="#000000" transform="matrix(1.00, 0.00, -0.00, -1.00, 199.2, 469.0)">o</text><text xml:space="preserve" font-family="Courier" font-size="46.0" fill="#000000" transform="matrix(1.00, 0.00, -0.00, -1.00, 226.8, 469.0)">o</text><text xml:space="preserve" font-family="Courier" font-size="46.0" fill="#000000" transform="matrix(1.00, 0.00, -0.00, -1.00, 254.4, 469.0)">t</text><text xml:space="preserve" font-family="Courier" font-size="46.0" fill="#000000" transform="matrix(1.00, 0.00, -0.00, -1.00, 282.0, 469.0)">h</text><text xml:space="preserve" font-family="Courier" font-size="46.0" fill="#000000" transform="matrix(1.00, 0.00, -0.00, -1.00, 316.8, 469.0)"> </text><text xml:space="preserve" font-family="Courier" font-size="46.0" fill="#000000" transform="matrix(1.00, 0.00, -0.00, -1.00, 351.6, 469.0)">r</text><text xml:space="preserve" font-family="Courier" font-size="46.0" fill="#000000" transform="matrix(1.00, 0.00, -0.00, -1.00, 379.2, 469.0)">i</text><text xml:space="preserve" font-family="Courier" font-size="46.0" fill="#000000" transform="matrix(1.00, 0.00, -0.00, -1.00, 406.8, 469.0)">g</text><text xml:space="preserve" font-family="Courier" font-size="46.0" fill="#000000" transform="matrix(1.00, 0.00, -0.00, -1.00, 434.4, 469.0)">h</text><text xml:space="preserve" font-family="Courier" font-size="46.0" fill="#000000" transform="matrix(1.00, 0.00, -0.00, -1.00, 462.1, 469.0)">t</text><text xml:space="preserve" font-family="Courier" font-size="46.0" fill="#000000" transform="matrix(1.00, 0.00, -0.00, -1.00, 496.8, 469.0)"> </text><text xml:space="preserve" font-family="Courier" font-size="46.0" fill="#000000" transform="matrix(1.00, 0.00, -0.00, -1.00, 531.6, 469.0)">a</text><text xml:space="preserve" font-family="Courier" font-size="46.0" fill="#000000" transform="matrix(1.00, 0.00, -0.00, -1.00, 559.2, 469.0)">w</text><text xml:space="preserve" font-family="Courier" font-size="46.0" fill="#000000" transform="matrix(1.00, 0.00, -0.00, -1.00, 586.8, 469.0)">a</text><text xml:space="preserve" font-family="Courier" font-size="46.0" fill="#000000" transform="matrix(1.00, 0.00, -0.00, -1.00, 614.4, 469.0)">y</text><text xml:space="preserve" font-family="Courier" font-size="46.0" fill="#000000" transform="matrix(1.00, 0.00, -0.00, -1.00, 642.1, 469.0)">,</text><text xml:space="preserve" font-family="Courier" font-size="46.0" fill="#000000" transform="matrix(1.00, 0.00, -0.00, -1.00, 676.8, 469.0)"> </text><text xml:space="preserve" font-family="Courier" font-size="46.0" fill="#000000" transform="matrix(1.00, 0.00, -0.00, -1.00, 711.6, 469.0)">r</text><text xml:space="preserve" font-family="Courier" font-size="46.0" fill="#000000" transform="matrix(1.00, 0.00, -0.00, -1.00, 739.2, 469.0)">i</text><text xml:space="preserve" font-family="Courier" font-size="46.0" fill="#000000" transform="matrix(1.00, 0.00, -0.00, -1.00, 766.8, 469.0)">g</text><text xml:space="preserve" font-family="Courier" font-size="46.0" fill="#000000" transform="matrix(1.00, 0.00, -0.00, -1.00, 794.5, 469.0)">h</text><text xml:space="preserve" font-family="Courier" font-size="46.0" fill="#000000" transform="matrix(1.00, 0.00, -0.00, -1.00, 822.1, 469.0)">t</text><text xml:space="preserve" font-family="Courier" font-size="46.0" fill="#000000" transform="matrix(1.00, 0.00, -0.00, -1.00, 856.9, 469.0)"> </text><text xml:space="preserve" font-family="Courier" font-size="46.0" fill="#000000" transform="matrix(1.00, 0.00, -0.00, -1.00, 891.6, 469.0)">a</text><text xml:space="preserve" font-family="Courier" font-size="46.0" fill="#000000" transform="matrix(1.00, 0.00, -0.00, -1.00, 919.2, 469.0)">w</text><text xml:space="preserve" font-family="Courier" font-size="46.0" fill="#000000" transform="matrix(1.00, 0.00, -0.00, -1.00, 946.9, 469.0)">a</text><text xml:space="preserve" font-family="Courier" font-size="46.0" fill="#000000" transform="matrix(1.00, 0.00, -0.00, -1.00, 974.5, 469.0)">y</text><text xml:space="preserve" font-family="Courier" font-size="46.0" fill="#000000" transform="matrix(1.00, 0.00, -0.00, -1.00, 1002.1, 469.0)">,</text><text xml:space="preserve" font-family="Courier" font-size="46.0" fill="#000000" transform="matrix(1.00, 0.00, -0.00, -1.00, 1036.9, 469.0)"> </text><text xml:space="preserve" font-family="Courier" font-size="46.0" fill="#000000" transform="matrix(1.00, 0.00, -0.00, -1.00, 1071.6, 469.0)">j</text><text xml:space="preserve" font-family="Courier" font-size="46.0" fill="#000000" transform="matrix(1.00, 0.00, -0.00, -1.00, 1099.3, 469.0)">a</text><text xml:space="preserve" font-family="Courier" font-size="46.0" fill="#000000" transform="matrix(1.00, 0.00, -0.00, -1.00, 1126.9, 469.0)">r</text><text xml:space="preserve" font-family="Courier" font-size="46.0" fill="#000000" transform="matrix(1.00, 0.00, -0.00, -1.00, 1161.6, 469.0)"> </text><text xml:space="preserve" font-family="Courier" font-size="46.0" fill="#000000" transform="matrix(1.00, 0.00, -0.00, -1.00, 1196.4, 469.0)">b</text><text xml:space="preserve" font-family="Courier" font-size="46.0" fill="#000000" transform="matrix(1.00, 0.00, -0.00, -1.00, 1224.0, 469.0)">l</text><text xml:space="preserve" font-family="Courier" font-size="46.0" fill="#000000" transform="matrix(1.00, 0.00, -0.00, -1.00, 1251.6, 469.0)">e</text><text xml:space="preserve" font-family="Courier" font-size="46.0" fill="#000000" transform="matrix(1.00, 0.00, -0.00, -1.00, 1279.3, 469.0)">n</text><text xml:space="preserve" font-family="Courier" font-size="46.0" fill="#000000" transform="matrix(1.00, 0.00, -0.00, -1.00, 1306.9, 469.0)">d</text><text xml:space="preserve" font-family="Courier" font-size="46.0" fill="#000000" transform="matrix(1.00, 0.00, -0.00, -1.00, 1334.5, 469.0)">e</text><text xml:space="preserve" font-family="Courier" font-size="46.0" fill="#000000" transform="matrix(1.00, 0.00, -0.00, -1.00, 1362.1, 469.0)">r</text><text xml:space="preserve" font-family="Courier" font-size="46.0" fill="#000000" transform="matrix(1.00, 0.00, -0.00, -1.00, 1396.9, 469.0)"> </text><text xml:space="preserve" font-family="Courier" font-size="46.0" fill="#000000" transform="matrix(1.00, 0.00, -0.00, -1.00, 1431.7, 469.0)">b</text><text xml:space="preserve" font-family="Courier" font-size="46.0" fill="#000000" transform="matrix(1.00, 0.00, -0.00, -1.00, 1459.3, 469.0)">l</text><text xml:space="preserve" font-family="Courier" font-size="46.0" fill="#000000" transform="matrix(1.00, 0.00, -0.00, -1.00, 1486.9, 469.0)">e</text><text xml:space="preserve" font-family="Courier" font-size="46.0" fill="#000000" transform="matrix(1.00, 0.00, -0.00, -1.00, 1514.5, 469.0)">n</text><text xml:space="preserve" font-family="Courier" font-size="46.0" fill="#000000" transform="matrix(1.00, 0.00, -0.00, -1.00, 1542.1, 469.0)">d</text><text xml:space="preserve" font-family="Courier" font-size="46.0" fill="#000000" transform="matrix(1.00, 0.00, -0.00, -1.00, 1569.7, 469.0)">,</text><text xml:space="preserve" font-family="Courier" font-size="46.0" fill="#000000" transform="matrix(1.00, 0.00, -0.00, -1.00, 1604.5, 469.0)"> </text><text xml:space="preserve" font-family="Courier" font-size="46.0" fill="#000000" transform="matrix(1.00, 0.00, -0.00, -1.00, 1639.3, 469.0)">s</text><text xml:space="preserve" font-family="Courier" font-size="46.0" fill="#000000" transform="matrix(1.00, 0.00, -0.00, -1.00, 1666.9, 469.0)">p</text><text xml:space="preserve" font-family="Courier" font-size="46.0" fill="#000000" transform="matrix(1.00, 0.00, -0.00, -1.00, 1694.5, 469.0)">e</text><text xml:space="preserve" font-family="Courier" font-size="46.0" fill="#000000" transform="matrix(1.00, 0.00, -0.00, -1.00, 1722.1, 469.0)">e</text><text xml:space="preserve" font-family="Courier" font-size="46.0" fill="#000000" transform="matrix(1.00, 0.00, -0.00, -1.00, 1749.7, 469.0)">d</text><text xml:space="preserve" font-family="Courier" font-size="46.0" fill="#000000" transform="matrix(1.00, 0.00, -0.00, -1.00, 1777.3, 469.0)"> </text><text xml:space="preserve" font-family="Courier" font-size="46.0" fill="#000000" transform="matrix(1.00, 0.00, -0.00, -1.00, 144.0, 414.0)">s</text><text xml:space="preserve" font-family="Courier" font-size="46.0" fill="#000000" transform="matrix(1.00, 0.00, -0.00, -1.00, 171.6, 414.0)">m</text><text xml:space="preserve" font-family="Courier" font-size="46.0" fill="#000000" transform="matrix(1.00, 0.00, -0.00, -1.00, 199.2, 414.0)">o</text><text xml:space="preserve" font-family="Courier" font-size="46.0" fill="#000000" transform="matrix(1.00, 0.00, -0.00, -1.00, 226.8, 414.0)">o</text><text xml:space="preserve" font-family="Courier" font-size="46.0" fill="#000000" transform="matrix(1.00, 0.00, -0.00, -1.00, 254.4, 414.0)">t</text><text xml:space="preserve" font-family="Courier" font-size="46.0" fill="#000000" transform="matrix(1.00, 0.00, -0.00, -1.00, 282.0, 414.0)">h</text><text xml:space="preserve" font-family="Courier" font-size="46.0" fill="#000000" transform="matrix(1.00, 0.00, -0.00, -1.00, 309.7, 414.0)"> </text><text xml:space="preserve" font-family="Courier" font-size="46.0" fill="#000000" transform="matrix(1.00, 0.00, -0.00, -1.00, 337.3, 414.0)">r</text><text xml:space="preserve" font-family="Courier" font-size="46.0" fill="#000000" transform="matrix(1.00, 0.00, -0.00, -1.00, 364.9, 414.0)">i</text><text xml:space="preserve" font-family="Courier" font-size="46.0" fill="#000000" transform="matrix(1.00, 0.00, -0.00, -1.00, 392.5, 414.0)">g</text><text xml:space="preserve" font-family="Courier" font-size="46.0" fill="#000000" transform="matrix(1.00, 0.00, -0.00, -1.00, 420.1, 414.0)">h</text><text xml:space="preserve" font-family="Courier" font-size="46.0" fill="#000000" transform="matrix(1.00, 0.00, -0.00, -1.00, 447.7, 414.0)">t</text><text xml:space="preserve" font-family="Courier" font-size="46.0" fill="#000000" transform="matrix(1.00, 0.00, -0.00, -1.00, 475.3, 414.0)">,</text><text xml:space="preserve" font-family="Courier" font-size="46.0" fill="#000000" transform="matrix(1.00, 0.00, -0.00, -1.00, 502.9, 414.0)"> </text><text xml:space="preserve" font-family="Courier" font-size="46.0" fill="#000000" transform="matrix(1.00, 0.00, -0.00, -1.00, 530.5, 414.0)">m</text><text xml:space="preserve" font-family="Courier" font-size="46.0" fill="#000000" transform="matrix(1.00, 0.00, -0.00, -1.00, 558.1, 414.0)">i</text><text xml:space="preserve" font-family="Courier" font-size="46.0" fill="#000000" transform="matrix(1.00, 0.00, -0.00, -1.00, 585.7, 414.0)">n</text><text xml:space="preserve" font-family="Courier" font-size="46.0" fill="#000000" transform="matrix(1.00, 0.00, -0.00, -1.00, 613.4, 414.0)">u</text><text xml:space="preserve" font-family="Courier" font-size="46.0" fill="#000000" transform="matrix(1.00, 0.00, -0.00, -1.00, 641.0, 414.0)">t</text><text xml:space="preserve" font-family="Courier" font-size="46.0" fill="#000000" transform="matrix(1.00, 0.00, -0.00, -1.00, 668.6, 414.0)">e</text><text xml:space="preserve" font-family="Courier" font-size="46.0" fill="#000000" transform="matrix(1.00, 0.00, -0.00, -1.00, 696.2, 414.0)"> </text><text xml:space="preserve" font-family="Courier" font-size="46.0" fill="#000000" transform="matrix(1.00, 0.00, -0.00, -1.00, 723.8, 414.0)">s</text><text xml:space="preserve" font-family="Courier" font-size="46.0" fill="#000000" transform="matrix(1.00, 0.00, -0.00, -1.00, 751.4, 414.0)">m</text><text xml:space="preserve" font-family="Courier" font-size="46.0" fill="#000000" transform="matrix(1.00, 0.00, -0.00, -1.00, 779.0, 414.0)">o</text><text xml:space="preserve" font-family="Courier" font-size="46.0" fill="#000000" transform="matrix(1.00, 0.00, -0.00, -1.00, 806.6, 414.0)">o</text><text xml:space="preserve" font-family="Courier" font-size="46.0" fill="#000000" transform="matrix(1.00, 0.00, -0.00, -1.00, 834.2, 414.0)">t</text><text xml:space="preserve" font-family="Courier" font-size="46.0" fill="#000000" transform="matrix(1.00, 0.00, -0.00, -1.00, 861.8, 414.0)">h</text><text xml:space="preserve" font-family="Helvetica-Bold" font-weight="bold" font-size="233.0" fill="#000000" transform="matrix(1.00, 0.00, -0.00, -1.00, 352.0, 454.0)">B</text><text xml:space="preserve" font-family="Helvetica-Bold" font-weight="bold" font-size="233.0" fill="#000000" transform="matrix(1.00, 0.00, -0.00, -1.00, 520.3, 454.0)">L</text><text xml:space="preserve" font-family="Helvetica-Bold" font-weight="bold" font-size="233.0" fill="#000000" transform="matrix(1.00, 0.00, -0.00, -1.00, 662.6, 454.0)">E</text><text xml:space="preserve" font-family="Helvetica-Bold" font-weight="bold" font-size="233.0" fill="#000000" transform="matrix(1.00, 0.00, -0.00, -1.00, 818.0, 454.0)">N</text><text xml:space="preserve" font-family="Helvetica-Bold" font-weight="bold" font-size="233.0" fill="#000000" transform="matrix(1.00, 0.00, -0.00, -1.00, 986.3, 454.0)">D</text><text xml:space="preserve" font-family="Helvetica-Bold" font-weight="bold" font-size="233.0" fill="#000000" transform="matrix(1.00, 0.00, -0.00, -1.00, 1154.6, 454.0)">I</text><text xml:space="preserve" font-family="Helvetica-Bold" font-weight="bold" font-size="233.0" fill="#000000" transform="matrix(1.00, 0.00, -0.00, -1.00, 1219.3, 454.0)">N</text><text xml:space="preserve" font-family="Helvetica-Bold" font-weight="bold" font-size="233.0" fill="#000000" transform="matrix(1.00, 0.00, -0.00, -1.00, 1387.6, 454.0)">G</text></g></svg>