<?xml version="1.0" encoding="UTF-8" standalone="no"?><svg xmlns="http://www.w3.org/2000/svg" xmlns:xlink="http://www.w3.org/1999/xlink" clip-rule="evenodd" stroke-miterlimit="4.00" viewBox="0 0 362 116"><desc>SVG generated by Keynote</desc><defs></defs><g transform="matrix(1.00, 0.00, -0.00, -1.00, 0.0, 116.0)"><image xlink:href="../../63D399A3-35E1-45FF-B287-06BE5905E8D9/assets/5429DA88C4363CC4B41D70FC123B7342.png" width="359.00" height="109.00" transform="matrix(1.00, 0.00, -0.00, -1.00, 1.2, 110.7)" opacity="0.50"></image><path d="M 27.8 109.7 L 333.9 109.7 C 340.7 109.7 344.2 109.7 347.8 108.6 C 351.8 107.1 355.0 104.0 356.4 100.0 C 357.6 96.3 357.6 92.9 357.6 86.0 L 357.6 30.3 C 357.6 23.5 357.6 20.0 356.4 16.4 C 355.0 12.4 351.8 9.2 347.8 7.8 C 344.2 6.6 340.7 6.6 333.8 6.6 L 27.8 6.6 C 21.0 6.6 17.6 6.6 13.9 7.8 C 9.9 9.2 6.8 12.4 5.3 16.4 C 4.2 20.0 4.2 23.5 4.2 30.4 L 4.2 86.1 C 4.2 92.9 4.2 96.3 5.3 100.0 C 6.8 104.0 9.9 107.1 13.9 108.6 C 17.6 109.7 21.0 109.7 27.9 109.7 Z M 27.8 109.7 " fill="#51A7F9"></path></g></svg>