<?xml version="1.0" encoding="UTF-8" standalone="no"?><svg xmlns="http://www.w3.org/2000/svg" xmlns:xlink="http://www.w3.org/1999/xlink" clip-rule="evenodd" stroke-miterlimit="4.00" viewBox="0 0 393 25"><desc>SVG generated by Keynote</desc><defs></defs><g transform="matrix(1.00, 0.00, -0.00, -1.00, 0.0, 25.0)"><text xml:space="preserve" font-family="Courier" font-size="23.0" fill="#000000" transform="matrix(1.00, 0.00, -0.00, -1.00, -4.8, 7.0)">'</text><text xml:space="preserve" font-family="Courier" font-size="23.0" fill="#000000" transform="matrix(1.00, 0.00, -0.00, -1.00, 9.0, 7.0)">c</text><text xml:space="preserve" font-family="Courier" font-size="23.0" fill="#000000" transform="matrix(1.00, 0.00, -0.00, -1.00, 22.8, 7.0)">i</text><text xml:space="preserve" font-family="Courier" font-size="23.0" fill="#000000" transform="matrix(1.00, 0.00, -0.00, -1.00, 36.6, 7.0)">l</text><text xml:space="preserve" font-family="Courier" font-size="23.0" fill="#000000" transform="matrix(1.00, 0.00, -0.00, -1.00, 50.4, 7.0)">a</text><text xml:space="preserve" font-family="Courier" font-size="23.0" fill="#000000" transform="matrix(1.00, 0.00, -0.00, -1.00, 64.3, 7.0)">n</text><text xml:space="preserve" font-family="Courier" font-size="23.0" fill="#000000" transform="matrix(1.00, 0.00, -0.00, -1.00, 78.1, 7.0)">t</text><text xml:space="preserve" font-family="Courier" font-size="23.0" fill="#000000" transform="matrix(1.00, 0.00, -0.00, -1.00, 91.9, 7.0)">r</text><text xml:space="preserve" font-family="Courier" font-size="23.0" fill="#000000" transform="matrix(1.00, 0.00, -0.00, -1.00, 105.7, 7.0)">o</text><text xml:space="preserve" font-family="Courier" font-size="23.0" fill="#000000" transform="matrix(1.00, 0.00, -0.00, -1.00, 119.5, 7.0)"> </text><text xml:space="preserve" font-family="Courier" font-size="23.0" fill="#000000" transform="matrix(1.00, 0.00, -0.00, -1.00, 133.3, 7.0)">a</text><text xml:space="preserve" font-family="Courier" font-size="23.0" fill="#000000" transform="matrix(1.00, 0.00, -0.00, -1.00, 147.1, 7.0)">n</text><text xml:space="preserve" font-family="Courier" font-size="23.0" fill="#000000" transform="matrix(1.00, 0.00, -0.00, -1.00, 160.9, 7.0)">d</text><text xml:space="preserve" font-family="Courier" font-size="23.0" fill="#000000" transform="matrix(1.00, 0.00, -0.00, -1.00, 174.7, 7.0)"> </text><text xml:space="preserve" font-family="Courier" font-size="23.0" fill="#000000" transform="matrix(1.00, 0.00, -0.00, -1.00, 188.5, 7.0)">f</text><text xml:space="preserve" font-family="Courier" font-size="23.0" fill="#000000" transform="matrix(1.00, 0.00, -0.00, -1.00, 202.3, 7.0)">r</text><text xml:space="preserve" font-family="Courier" font-size="23.0" fill="#000000" transform="matrix(1.00, 0.00, -0.00, -1.00, 216.1, 7.0)">e</text><text xml:space="preserve" font-family="Courier" font-size="23.0" fill="#000000" transform="matrix(1.00, 0.00, -0.00, -1.00, 229.9, 7.0)">s</text><text xml:space="preserve" font-family="Courier" font-size="23.0" fill="#000000" transform="matrix(1.00, 0.00, -0.00, -1.00, 243.7, 7.0)">h</text><text xml:space="preserve" font-family="Courier" font-size="23.0" fill="#000000" transform="matrix(1.00, 0.00, -0.00, -1.00, 257.5, 7.0)"> </text><text xml:space="preserve" font-family="Courier" font-size="23.0" fill="#000000" transform="matrix(1.00, 0.00, -0.00, -1.00, 271.3, 7.0)">p</text><text xml:space="preserve" font-family="Courier" font-size="23.0" fill="#000000" transform="matrix(1.00, 0.00, -0.00, -1.00, 285.1, 7.0)">a</text><text xml:space="preserve" font-family="Courier" font-size="23.0" fill="#000000" transform="matrix(1.00, 0.00, -0.00, -1.00, 298.9, 7.0)">r</text><text xml:space="preserve" font-family="Courier" font-size="23.0" fill="#000000" transform="matrix(1.00, 0.00, -0.00, -1.00, 312.7, 7.0)">s</text><text xml:space="preserve" font-family="Courier" font-size="23.0" fill="#000000" transform="matrix(1.00, 0.00, -0.00, -1.00, 326.5, 7.0)">l</text><text xml:space="preserve" font-family="Courier" font-size="23.0" fill="#000000" transform="matrix(1.00, 0.00, -0.00, -1.00, 340.3, 7.0)">e</text><text xml:space="preserve" font-family="Courier" font-size="23.0" fill="#000000" transform="matrix(1.00, 0.00, -0.00, -1.00, 354.1, 7.0)">y</text><text xml:space="preserve" font-family="Courier" font-size="23.0" fill="#000000" transform="matrix(1.00, 0.00, -0.00, -1.00, 368.0, 7.0)">'</text><text xml:space="preserve" font-family="Courier" font-size="23.0" fill="#000000" transform="matrix(1.00, 0.00, -0.00, -1.00, 381.8, 7.0)">,</text></g></svg>