<?xml version="1.0" encoding="UTF-8" standalone="no"?><svg xmlns="http://www.w3.org/2000/svg" xmlns:xlink="http://www.w3.org/1999/xlink" clip-rule="evenodd" stroke-miterlimit="4.00" viewBox="0 0 362 116"><desc>SVG generated by Keynote</desc><defs></defs><g transform="matrix(1.00, 0.00, -0.00, -1.00, 0.0, 116.0)"><image xlink:href="../../5FA0EF36-047F-436A-B80A-93E9325F875E/assets/1CD4832319626600650DB13712BEB617.png" width="360.00" height="109.00" transform="matrix(1.00, 0.00, -0.00, -1.00, 1.2, 110.5)" opacity="0.50"></image><path d="M 27.9 109.5 L 334.1 109.5 C 340.9 109.5 344.4 109.5 348.0 108.4 C 352.0 106.9 355.2 103.8 356.6 99.8 C 357.8 96.1 357.8 92.7 357.8 85.8 L 357.8 30.1 C 357.8 23.3 357.8 19.8 356.6 16.2 C 355.2 12.2 352.0 9.0 348.0 7.6 C 344.4 6.4 340.9 6.4 334.0 6.4 L 27.9 6.4 C 21.1 6.4 17.6 6.4 14.0 7.6 C 10.0 9.0 6.8 12.2 5.4 16.2 C 4.2 19.8 4.2 23.3 4.2 30.2 L 4.2 85.9 C 4.2 92.7 4.2 96.1 5.4 99.8 C 6.8 103.8 10.0 106.9 14.0 108.4 C 17.6 109.5 21.1 109.5 28.0 109.5 Z M 27.9 109.5 " fill="#51A7F9"></path><g><clipPath id="clip-76"><path d="M -4.3 6.4 L 366.3 6.4 L 366.3 109.5 L -4.3 109.5 Z M -4.3 6.4 "></path></clipPath><g clip-path="url(#clip-76)"><text xml:space="preserve" font-family="Helvetica-Bold" font-weight="bold" font-size="50.0" fill="#000000" transform="matrix(1.00, 0.00, -0.00, -1.00, 31.0, 39.0)">S</text><text xml:space="preserve" font-family="Helvetica-Bold" font-weight="bold" font-size="50.0" fill="#000000" transform="matrix(1.00, 0.00, -0.00, -1.00, 64.3, 39.0)">e</text><text xml:space="preserve" font-family="Helvetica-Bold" font-weight="bold" font-size="50.0" fill="#000000" transform="matrix(1.00, 0.00, -0.00, -1.00, 92.2, 39.0)">a</text><text xml:space="preserve" font-family="Helvetica-Bold" font-weight="bold" font-size="50.0" fill="#000000" transform="matrix(1.00, 0.00, -0.00, -1.00, 120.0, 39.0)">r</text><text xml:space="preserve" font-family="Helvetica-Bold" font-weight="bold" font-size="50.0" fill="#000000" transform="matrix(1.00, 0.00, -0.00, -1.00, 139.5, 39.0)">c</text><text xml:space="preserve" font-family="Helvetica-Bold" font-weight="bold" font-size="50.0" fill="#000000" transform="matrix(1.00, 0.00, -0.00, -1.00, 167.3, 39.0)">h</text><text xml:space="preserve" font-family="Helvetica-Bold" font-weight="bold" font-size="50.0" fill="#000000" transform="matrix(1.00, 0.00, -0.00, -1.00, 197.8, 39.0)"> </text><text xml:space="preserve" font-family="Helvetica-Bold" font-weight="bold" font-size="50.0" fill="#000000" transform="matrix(1.00, 0.00, -0.00, -1.00, 211.7, 39.0)">T</text><text xml:space="preserve" font-family="Helvetica-Bold" font-weight="bold" font-size="50.0" fill="#000000" transform="matrix(1.00, 0.00, -0.00, -1.00, 238.5, 39.0)">e</text><text xml:space="preserve" font-family="Helvetica-Bold" font-weight="bold" font-size="50.0" fill="#000000" transform="matrix(1.00, 0.00, -0.00, -1.00, 266.3, 39.0)">r</text><text xml:space="preserve" font-family="Helvetica-Bold" font-weight="bold" font-size="50.0" fill="#000000" transform="matrix(1.00, 0.00, -0.00, -1.00, 285.8, 39.0)">m</text></g></g></g></svg>