<?xml version="1.0" encoding="UTF-8" standalone="no"?><svg xmlns="http://www.w3.org/2000/svg" xmlns:xlink="http://www.w3.org/1999/xlink" clip-rule="evenodd" stroke-miterlimit="4.00" viewBox="0 0 336 78"><desc>SVG generated by Keynote</desc><defs></defs><g transform="matrix(1.00, 0.00, -0.00, -1.00, 0.0, 78.0)"><image xlink:href="../../F5FA9B86-1F3A-4843-BC28-CBD9C4939C09/assets/B77A0B8538838091964288086E4E840A.png" width="334.00" height="71.00" transform="matrix(1.00, 0.00, -0.00, -1.00, 1.1, 72.4)" opacity="0.50"></image><path d="M 27.0 71.4 L 309.0 71.4 C 315.6 71.4 318.9 71.4 322.5 70.3 C 326.3 68.9 329.4 65.9 330.8 62.0 C 331.9 58.4 331.9 55.1 331.9 48.4 L 331.9 29.4 C 331.9 22.8 331.9 19.5 330.8 16.0 C 329.4 12.1 326.3 9.0 322.5 7.6 C 318.9 6.5 315.6 6.5 308.9 6.5 L 27.0 6.5 C 20.4 6.5 17.1 6.5 13.5 7.6 C 9.7 9.0 6.6 12.1 5.2 16.0 C 4.1 19.5 4.1 22.8 4.1 29.5 L 4.1 48.5 C 4.1 55.1 4.1 58.4 5.2 62.0 C 6.6 65.9 9.7 68.9 13.5 70.3 C 17.1 71.4 20.4 71.4 27.1 71.4 Z M 27.0 71.4 " fill="#EB5C56"></path></g></svg>