<?xml version="1.0" encoding="UTF-8" standalone="no"?><svg xmlns="http://www.w3.org/2000/svg" xmlns:xlink="http://www.w3.org/1999/xlink" clip-rule="evenodd" stroke-miterlimit="4.00" viewBox="0 0 502 116"><desc>SVG generated by Keynote</desc><defs></defs><g transform="matrix(1.00, 0.00, -0.00, -1.00, 0.0, 116.0)"><image xlink:href="../../47A5CE0A-6CF5-4987-A53B-5E7E0B38401C/assets/07872CBE44E0902D66E647B0AB56D26E.png" width="499.00" height="109.00" transform="matrix(1.00, 0.00, -0.00, -1.00, 1.7, 110.9)" opacity="0.50"></image><path d="M 28.3 109.9 L 473.7 109.9 C 480.4 109.9 483.9 109.9 487.5 108.7 C 491.5 107.3 494.7 104.1 496.2 100.1 C 497.3 96.5 497.3 93.0 497.3 86.1 L 497.3 30.4 C 497.3 23.6 497.3 20.2 496.2 16.5 C 494.7 12.5 491.5 9.4 487.5 7.9 C 483.9 6.8 480.4 6.8 473.6 6.8 L 28.3 6.8 C 21.6 6.8 18.1 6.8 14.5 7.9 C 10.5 9.4 7.3 12.5 5.8 16.5 C 4.7 20.2 4.7 23.6 4.7 30.5 L 4.7 86.3 C 4.7 93.0 4.7 96.5 5.8 100.1 C 7.3 104.1 10.5 107.3 14.5 108.7 C 18.1 109.9 21.6 109.9 28.4 109.9 Z M 28.3 109.9 " fill="#51A7F9"></path></g></svg>