<?xml version="1.0" encoding="UTF-8" standalone="no"?><svg xmlns="http://www.w3.org/2000/svg" xmlns:xlink="http://www.w3.org/1999/xlink" clip-rule="evenodd" stroke-miterlimit="4.00" viewBox="0 0 502 116"><desc>SVG generated by Keynote</desc><defs></defs><g transform="matrix(1.00, 0.00, -0.00, -1.00, 0.0, 116.0)"><image xlink:href="../../47A5CE0A-6CF5-4987-A53B-5E7E0B38401C/assets/07872CBE44E0902D66E647B0AB56D26E.png" width="499.00" height="109.00" transform="matrix(1.00, 0.00, -0.00, -1.00, 1.7, 111.0)" opacity="0.50"></image><path d="M 28.3 110.0 L 473.7 110.0 C 480.4 110.0 483.9 110.0 487.5 108.8 C 491.5 107.3 494.7 104.2 496.2 100.2 C 497.3 96.5 497.3 93.1 497.3 86.2 L 497.3 30.5 C 497.3 23.7 497.3 20.3 496.2 16.6 C 494.7 12.6 491.5 9.5 487.5 8.0 C 483.9 6.8 480.4 6.8 473.6 6.8 L 28.3 6.8 C 21.6 6.8 18.1 6.8 14.5 8.0 C 10.5 9.5 7.3 12.6 5.8 16.6 C 4.7 20.3 4.7 23.7 4.7 30.6 L 4.7 86.3 C 4.7 93.1 4.7 96.5 5.8 100.2 C 7.3 104.2 10.5 107.3 14.5 108.8 C 18.1 110.0 21.6 110.0 28.4 110.0 Z M 28.3 110.0 " fill="#51A7F9"></path><g><clipPath id="clip-75"><path d="M -3.8 6.8 L 505.8 6.8 L 505.8 110.0 L -3.8 110.0 Z M -3.8 6.8 "></path></clipPath><g clip-path="url(#clip-75)"><text xml:space="preserve" font-family="Helvetica-Bold" font-weight="bold" font-size="50.0" fill="#000000" transform="matrix(1.00, 0.00, -0.00, -1.00, 32.0, 40.0)">B</text><text xml:space="preserve" font-family="Helvetica-Bold" font-weight="bold" font-size="50.0" fill="#000000" transform="matrix(1.00, 0.00, -0.00, -1.00, 68.1, 40.0)">a</text><text xml:space="preserve" font-family="Helvetica-Bold" font-weight="bold" font-size="50.0" fill="#000000" transform="matrix(1.00, 0.00, -0.00, -1.00, 95.9, 40.0)">g</text><text xml:space="preserve" font-family="Helvetica-Bold" font-weight="bold" font-size="50.0" fill="#000000" transform="matrix(1.00, 0.00, -0.00, -1.00, 126.5, 40.0)"> </text><text xml:space="preserve" font-family="Helvetica-Bold" font-weight="bold" font-size="50.0" fill="#000000" transform="matrix(1.00, 0.00, -0.00, -1.00, 140.3, 40.0)">o</text><text xml:space="preserve" font-family="Helvetica-Bold" font-weight="bold" font-size="50.0" fill="#000000" transform="matrix(1.00, 0.00, -0.00, -1.00, 170.9, 40.0)">f</text><text xml:space="preserve" font-family="Helvetica-Bold" font-weight="bold" font-size="50.0" fill="#000000" transform="matrix(1.00, 0.00, -0.00, -1.00, 187.5, 40.0)"> </text><text xml:space="preserve" font-family="Helvetica-Bold" font-weight="bold" font-size="50.0" fill="#000000" transform="matrix(1.00, 0.00, -0.00, -1.00, 201.4, 40.0)">I</text><text xml:space="preserve" font-family="Helvetica-Bold" font-weight="bold" font-size="50.0" fill="#000000" transform="matrix(1.00, 0.00, -0.00, -1.00, 215.3, 40.0)">n</text><text xml:space="preserve" font-family="Helvetica-Bold" font-weight="bold" font-size="50.0" fill="#000000" transform="matrix(1.00, 0.00, -0.00, -1.00, 245.8, 40.0)">g</text><text xml:space="preserve" font-family="Helvetica-Bold" font-weight="bold" font-size="50.0" fill="#000000" transform="matrix(1.00, 0.00, -0.00, -1.00, 276.4, 40.0)">r</text><text xml:space="preserve" font-family="Helvetica-Bold" font-weight="bold" font-size="50.0" fill="#000000" transform="matrix(1.00, 0.00, -0.00, -1.00, 295.8, 40.0)">e</text><text xml:space="preserve" font-family="Helvetica-Bold" font-weight="bold" font-size="50.0" fill="#000000" transform="matrix(1.00, 0.00, -0.00, -1.00, 323.6, 40.0)">d</text><text xml:space="preserve" font-family="Helvetica-Bold" font-weight="bold" font-size="50.0" fill="#000000" transform="matrix(1.00, 0.00, -0.00, -1.00, 354.2, 40.0)">i</text><text xml:space="preserve" font-family="Helvetica-Bold" font-weight="bold" font-size="50.0" fill="#000000" transform="matrix(1.00, 0.00, -0.00, -1.00, 368.1, 40.0)">e</text><text xml:space="preserve" font-family="Helvetica-Bold" font-weight="bold" font-size="50.0" fill="#000000" transform="matrix(1.00, 0.00, -0.00, -1.00, 395.9, 40.0)">n</text><text xml:space="preserve" font-family="Helvetica-Bold" font-weight="bold" font-size="50.0" fill="#000000" transform="matrix(1.00, 0.00, -0.00, -1.00, 426.4, 40.0)">t</text><text xml:space="preserve" font-family="Helvetica-Bold" font-weight="bold" font-size="50.0" fill="#000000" transform="matrix(1.00, 0.00, -0.00, -1.00, 443.1, 40.0)">s</text></g></g></g></svg>