<?xml version="1.0" encoding="UTF-8" standalone="no"?><svg xmlns="http://www.w3.org/2000/svg" xmlns:xlink="http://www.w3.org/1999/xlink" clip-rule="evenodd" stroke-miterlimit="4.00" viewBox="0 0 336 78"><desc>SVG generated by Keynote</desc><defs></defs><g transform="matrix(1.00, 0.00, -0.00, -1.00, 0.0, 78.0)"><image xlink:href="../../F5FA9B86-1F3A-4843-BC28-CBD9C4939C09/assets/B77A0B8538838091964288086E4E840A.png" width="334.00" height="71.00" transform="matrix(1.00, 0.00, -0.00, -1.00, 1.1, 72.1)" opacity="0.50"></image><path d="M 27.0 71.1 L 309.0 71.1 C 315.6 71.1 318.9 71.1 322.5 70.0 C 326.3 68.6 329.4 65.5 330.8 61.7 C 331.9 58.1 331.9 54.8 331.9 48.1 L 331.9 29.1 C 331.9 22.5 331.9 19.2 330.8 15.6 C 329.4 11.8 326.3 8.7 322.5 7.3 C 318.9 6.2 315.6 6.2 308.9 6.2 L 27.0 6.2 C 20.4 6.2 17.1 6.2 13.5 7.3 C 9.7 8.7 6.6 11.8 5.2 15.6 C 4.1 19.2 4.1 22.5 4.1 29.2 L 4.1 48.2 C 4.1 54.8 4.1 58.1 5.2 61.7 C 6.6 65.5 9.7 68.6 13.5 70.0 C 17.1 71.1 20.4 71.1 27.1 71.1 Z M 27.0 71.1 " fill="#EB5C56"></path><g><clipPath id="clip-60"><path d="M 0.5 6.2 L 335.4 6.2 L 335.4 71.1 L 0.5 71.1 Z M 0.5 6.2 "></path></clipPath><g clip-path="url(#clip-60)"><text xml:space="preserve" font-family="Helvetica-Light" font-size="32.0" fill="#000000" transform="matrix(1.00, 0.00, -0.00, -1.00, 32.0, 27.0)">K</text><text xml:space="preserve" font-family="Helvetica-Light" font-size="32.0" fill="#000000" transform="matrix(1.00, 0.00, -0.00, -1.00, 53.3, 27.0)">M</text><text xml:space="preserve" font-family="Helvetica-Light" font-size="32.0" fill="#000000" transform="matrix(1.00, 0.00, -0.00, -1.00, 80.0, 27.0)">e</text><text xml:space="preserve" font-family="Helvetica-Light" font-size="32.0" fill="#000000" transform="matrix(1.00, 0.00, -0.00, -1.00, 97.8, 27.0)">a</text><text xml:space="preserve" font-family="Helvetica-Light" font-size="32.0" fill="#000000" transform="matrix(1.00, 0.00, -0.00, -1.00, 115.6, 27.0)">n</text><text xml:space="preserve" font-family="Helvetica-Light" font-size="32.0" fill="#000000" transform="matrix(1.00, 0.00, -0.00, -1.00, 133.4, 27.0)">s</text><text xml:space="preserve" font-family="Helvetica-Light" font-size="32.0" fill="#000000" transform="matrix(1.00, 0.00, -0.00, -1.00, 149.4, 27.0)"> </text><text xml:space="preserve" font-family="Helvetica-Light" font-size="32.0" fill="#000000" transform="matrix(1.00, 0.00, -0.00, -1.00, 158.3, 27.0)">C</text><text xml:space="preserve" font-family="Helvetica-Light" font-size="32.0" fill="#000000" transform="matrix(1.00, 0.00, -0.00, -1.00, 181.4, 27.0)">l</text><text xml:space="preserve" font-family="Helvetica-Light" font-size="32.0" fill="#000000" transform="matrix(1.00, 0.00, -0.00, -1.00, 188.5, 27.0)">u</text><text xml:space="preserve" font-family="Helvetica-Light" font-size="32.0" fill="#000000" transform="matrix(1.00, 0.00, -0.00, -1.00, 206.3, 27.0)">s</text><text xml:space="preserve" font-family="Helvetica-Light" font-size="32.0" fill="#000000" transform="matrix(1.00, 0.00, -0.00, -1.00, 222.3, 27.0)">t</text><text xml:space="preserve" font-family="Helvetica-Light" font-size="32.0" fill="#000000" transform="matrix(1.00, 0.00, -0.00, -1.00, 231.2, 27.0)">e</text><text xml:space="preserve" font-family="Helvetica-Light" font-size="32.0" fill="#000000" transform="matrix(1.00, 0.00, -0.00, -1.00, 249.0, 27.0)">r</text><text xml:space="preserve" font-family="Helvetica-Light" font-size="32.0" fill="#000000" transform="matrix(1.00, 0.00, -0.00, -1.00, 259.6, 27.0)">i</text><text xml:space="preserve" font-family="Helvetica-Light" font-size="32.0" fill="#000000" transform="matrix(1.00, 0.00, -0.00, -1.00, 266.7, 27.0)">n</text><text xml:space="preserve" font-family="Helvetica-Light" font-size="32.0" fill="#000000" transform="matrix(1.00, 0.00, -0.00, -1.00, 284.5, 27.0)">g</text></g></g></g></svg>