<?xml version="1.0" encoding="UTF-8" standalone="no"?><svg xmlns="http://www.w3.org/2000/svg" xmlns:xlink="http://www.w3.org/1999/xlink" clip-rule="evenodd" stroke-miterlimit="4.00" viewBox="0 0 1920 1080"><desc>SVG generated by Keynote</desc><defs></defs><g transform="matrix(1.00, 0.00, -0.00, -1.00, 0.0, 1080.0)"><path d="M 0.0 1080.0 L 1920.0 1080.0 L 1920.0 0.0 L 0.0 0.0 Z M 0.0 1080.0 " fill="#FEFFFF"></path><text xml:space="preserve" font-family="Helvetica-Light" font-size="52.0" fill="#000000" transform="matrix(1.00, 0.00, -0.00, -1.00, 137.0, 645.0)">f</text><text xml:space="preserve" font-family="Helvetica-Light" font-size="52.0" fill="#000000" transform="matrix(1.00, 0.00, -0.00, -1.00, 151.5, 645.0)">o</text><text xml:space="preserve" font-family="Helvetica-Light" font-size="52.0" fill="#000000" transform="matrix(1.00, 0.00, -0.00, -1.00, 180.4, 645.0)">o</text><text xml:space="preserve" font-family="Helvetica-Light" font-size="52.0" fill="#000000" transform="matrix(1.00, 0.00, -0.00, -1.00, 209.3, 645.0)">d</text><text xml:space="preserve" font-family="Helvetica-Light" font-size="52.0" fill="#000000" transform="matrix(1.00, 0.00, -0.00, -1.00, 241.1, 645.0)"> </text><text xml:space="preserve" font-family="Helvetica-Light" font-size="52.0" fill="#000000" transform="matrix(1.00, 0.00, -0.00, -1.00, 255.5, 645.0)">p</text><text xml:space="preserve" font-family="Helvetica-Light" font-size="52.0" fill="#000000" transform="matrix(1.00, 0.00, -0.00, -1.00, 287.3, 645.0)">r</text><text xml:space="preserve" font-family="Helvetica-Light" font-size="52.0" fill="#000000" transform="matrix(1.00, 0.00, -0.00, -1.00, 303.7, 645.0)">o</text><text xml:space="preserve" font-family="Helvetica-Light" font-size="52.0" fill="#000000" transform="matrix(1.00, 0.00, -0.00, -1.00, 332.6, 645.0)">c</text><text xml:space="preserve" font-family="Helvetica-Light" font-size="52.0" fill="#000000" transform="matrix(1.00, 0.00, -0.00, -1.00, 361.5, 645.0)">e</text><text xml:space="preserve" font-family="Helvetica-Light" font-size="52.0" fill="#000000" transform="matrix(1.00, 0.00, -0.00, -1.00, 390.4, 645.0)">s</text><text xml:space="preserve" font-family="Helvetica-Light" font-size="52.0" fill="#000000" transform="matrix(1.00, 0.00, -0.00, -1.00, 416.4, 645.0)">s</text><text xml:space="preserve" font-family="Helvetica-Light" font-size="52.0" fill="#000000" transform="matrix(1.00, 0.00, -0.00, -1.00, 442.4, 645.0)">o</text><text xml:space="preserve" font-family="Helvetica-Light" font-size="52.0" fill="#000000" transform="matrix(1.00, 0.00, -0.00, -1.00, 471.3, 645.0)">r</text><text xml:space="preserve" font-family="Helvetica-Light" font-size="52.0" fill="#000000" transform="matrix(1.00, 0.00, -0.00, -1.00, 483.8, 645.0)">,</text><text xml:space="preserve" font-family="Helvetica-Light" font-size="52.0" fill="#000000" transform="matrix(1.00, 0.00, -0.00, -1.00, 498.3, 645.0)"> </text><text xml:space="preserve" font-family="Helvetica-Light" font-size="52.0" fill="#000000" transform="matrix(1.00, 0.00, -0.00, -1.00, 512.8, 645.0)">p</text><text xml:space="preserve" font-family="Helvetica-Light" font-size="52.0" fill="#000000" transform="matrix(1.00, 0.00, -0.00, -1.00, 544.5, 645.0)">r</text><text xml:space="preserve" font-family="Helvetica-Light" font-size="52.0" fill="#000000" transform="matrix(1.00, 0.00, -0.00, -1.00, 560.9, 645.0)">o</text><text xml:space="preserve" font-family="Helvetica-Light" font-size="52.0" fill="#000000" transform="matrix(1.00, 0.00, -0.00, -1.00, 589.8, 645.0)">c</text><text xml:space="preserve" font-family="Helvetica-Light" font-size="52.0" fill="#000000" transform="matrix(1.00, 0.00, -0.00, -1.00, 618.7, 645.0)">e</text><text xml:space="preserve" font-family="Helvetica-Light" font-size="52.0" fill="#000000" transform="matrix(1.00, 0.00, -0.00, -1.00, 647.6, 645.0)">s</text><text xml:space="preserve" font-family="Helvetica-Light" font-size="52.0" fill="#000000" transform="matrix(1.00, 0.00, -0.00, -1.00, 673.6, 645.0)">s</text><text xml:space="preserve" font-family="Helvetica-Light" font-size="52.0" fill="#000000" transform="matrix(1.00, 0.00, -0.00, -1.00, 699.6, 645.0)"> </text><text xml:space="preserve" font-family="Helvetica-Light" font-size="52.0" fill="#000000" transform="matrix(1.00, 0.00, -0.00, -1.00, 714.1, 645.0)">s</text><text xml:space="preserve" font-family="Helvetica-Light" font-size="52.0" fill="#000000" transform="matrix(1.00, 0.00, -0.00, -1.00, 740.1, 645.0)">m</text><text xml:space="preserve" font-family="Helvetica-Light" font-size="52.0" fill="#000000" transform="matrix(1.00, 0.00, -0.00, -1.00, 783.4, 645.0)">o</text><text xml:space="preserve" font-family="Helvetica-Light" font-size="52.0" fill="#000000" transform="matrix(1.00, 0.00, -0.00, -1.00, 812.3, 645.0)">o</text><text xml:space="preserve" font-family="Helvetica-Light" font-size="52.0" fill="#000000" transform="matrix(1.00, 0.00, -0.00, -1.00, 841.2, 645.0)">t</text><text xml:space="preserve" font-family="Helvetica-Light" font-size="52.0" fill="#000000" transform="matrix(1.00, 0.00, -0.00, -1.00, 855.7, 645.0)">h</text><text xml:space="preserve" font-family="Helvetica-Light" font-size="52.0" fill="#000000" transform="matrix(1.00, 0.00, -0.00, -1.00, 884.6, 645.0)">,</text><text xml:space="preserve" font-family="Helvetica-Light" font-size="52.0" fill="#000000" transform="matrix(1.00, 0.00, -0.00, -1.00, 899.1, 645.0)"> </text><text xml:space="preserve" font-family="Helvetica-Light" font-size="52.0" fill="#000000" transform="matrix(1.00, 0.00, -0.00, -1.00, 913.5, 645.0)">p</text><text xml:space="preserve" font-family="Helvetica-Light" font-size="52.0" fill="#000000" transform="matrix(1.00, 0.00, -0.00, -1.00, 945.3, 645.0)">r</text><text xml:space="preserve" font-family="Helvetica-Light" font-size="52.0" fill="#000000" transform="matrix(1.00, 0.00, -0.00, -1.00, 961.7, 645.0)">o</text><text xml:space="preserve" font-family="Helvetica-Light" font-size="52.0" fill="#000000" transform="matrix(1.00, 0.00, -0.00, -1.00, 990.6, 645.0)">c</text><text xml:space="preserve" font-family="Helvetica-Light" font-size="52.0" fill="#000000" transform="matrix(1.00, 0.00, -0.00, -1.00, 1019.5, 645.0)">e</text><text xml:space="preserve" font-family="Helvetica-Light" font-size="52.0" fill="#000000" transform="matrix(1.00, 0.00, -0.00, -1.00, 1048.4, 645.0)">s</text><text xml:space="preserve" font-family="Helvetica-Light" font-size="52.0" fill="#000000" transform="matrix(1.00, 0.00, -0.00, -1.00, 1074.4, 645.0)">s</text><text xml:space="preserve" font-family="Helvetica-Light" font-size="52.0" fill="#000000" transform="matrix(1.00, 0.00, -0.00, -1.00, 1100.4, 645.0)">o</text><text xml:space="preserve" font-family="Helvetica-Light" font-size="52.0" fill="#000000" transform="matrix(1.00, 0.00, -0.00, -1.00, 1129.3, 645.0)">r</text><text xml:space="preserve" font-family="Helvetica-Light" font-size="52.0" fill="#000000" transform="matrix(1.00, 0.00, -0.00, -1.00, 1146.6, 645.0)"> </text><text xml:space="preserve" font-family="Helvetica-Light" font-size="52.0" fill="#000000" transform="matrix(1.00, 0.00, -0.00, -1.00, 1161.1, 645.0)">p</text><text xml:space="preserve" font-family="Helvetica-Light" font-size="52.0" fill="#000000" transform="matrix(1.00, 0.00, -0.00, -1.00, 1192.9, 645.0)">r</text><text xml:space="preserve" font-family="Helvetica-Light" font-size="52.0" fill="#000000" transform="matrix(1.00, 0.00, -0.00, -1.00, 1209.2, 645.0)">o</text><text xml:space="preserve" font-family="Helvetica-Light" font-size="52.0" fill="#000000" transform="matrix(1.00, 0.00, -0.00, -1.00, 1238.2, 645.0)">c</text><text xml:space="preserve" font-family="Helvetica-Light" font-size="52.0" fill="#000000" transform="matrix(1.00, 0.00, -0.00, -1.00, 1267.1, 645.0)">e</text><text xml:space="preserve" font-family="Helvetica-Light" font-size="52.0" fill="#000000" transform="matrix(1.00, 0.00, -0.00, -1.00, 1296.0, 645.0)">s</text><text xml:space="preserve" font-family="Helvetica-Light" font-size="52.0" fill="#000000" transform="matrix(1.00, 0.00, -0.00, -1.00, 1322.0, 645.0)">s</text><text xml:space="preserve" font-family="Helvetica-Light" font-size="52.0" fill="#000000" transform="matrix(1.00, 0.00, -0.00, -1.00, 1348.0, 645.0)">,</text><text xml:space="preserve" font-family="Helvetica-Light" font-size="52.0" fill="#000000" transform="matrix(1.00, 0.00, -0.00, -1.00, 1362.4, 645.0)"> </text><text xml:space="preserve" font-family="Helvetica-Light" font-size="52.0" fill="#000000" transform="matrix(1.00, 0.00, -0.00, -1.00, 1376.9, 645.0)">f</text><text xml:space="preserve" font-family="Helvetica-Light" font-size="52.0" fill="#000000" transform="matrix(1.00, 0.00, -0.00, -1.00, 1391.3, 645.0)">o</text><text xml:space="preserve" font-family="Helvetica-Light" font-size="52.0" fill="#000000" transform="matrix(1.00, 0.00, -0.00, -1.00, 1420.3, 645.0)">o</text><text xml:space="preserve" font-family="Helvetica-Light" font-size="52.0" fill="#000000" transform="matrix(1.00, 0.00, -0.00, -1.00, 1449.2, 645.0)">d</text><text xml:space="preserve" font-family="Helvetica-Light" font-size="52.0" fill="#000000" transform="matrix(1.00, 0.00, -0.00, -1.00, 1480.9, 645.0)"> </text><text xml:space="preserve" font-family="Helvetica-Light" font-size="52.0" fill="#000000" transform="matrix(1.00, 0.00, -0.00, -1.00, 1495.4, 645.0)">p</text><text xml:space="preserve" font-family="Helvetica-Light" font-size="52.0" fill="#000000" transform="matrix(1.00, 0.00, -0.00, -1.00, 1527.2, 645.0)">r</text><text xml:space="preserve" font-family="Helvetica-Light" font-size="52.0" fill="#000000" transform="matrix(1.00, 0.00, -0.00, -1.00, 1543.5, 645.0)">o</text><text xml:space="preserve" font-family="Helvetica-Light" font-size="52.0" fill="#000000" transform="matrix(1.00, 0.00, -0.00, -1.00, 1572.5, 645.0)">c</text><text xml:space="preserve" font-family="Helvetica-Light" font-size="52.0" fill="#000000" transform="matrix(1.00, 0.00, -0.00, -1.00, 1601.4, 645.0)">e</text><text xml:space="preserve" font-family="Helvetica-Light" font-size="52.0" fill="#000000" transform="matrix(1.00, 0.00, -0.00, -1.00, 1630.3, 645.0)">s</text><text xml:space="preserve" font-family="Helvetica-Light" font-size="52.0" fill="#000000" transform="matrix(1.00, 0.00, -0.00, -1.00, 1656.3, 645.0)">s</text><text xml:space="preserve" font-family="Helvetica-Light" font-size="52.0" fill="#000000" transform="matrix(1.00, 0.00, -0.00, -1.00, 1682.3, 645.0)">o</text><text xml:space="preserve" font-family="Helvetica-Light" font-size="52.0" fill="#000000" transform="matrix(1.00, 0.00, -0.00, -1.00, 1711.2, 645.0)">r</text><text xml:space="preserve" font-family="Helvetica-Light" font-size="52.0" fill="#000000" transform="matrix(1.00, 0.00, -0.00, -1.00, 1728.5, 645.0)"> </text><text xml:space="preserve" font-family="Helvetica-Light" font-size="52.0" fill="#000000" transform="matrix(1.00, 0.00, -0.00, -1.00, 137.0, 583.0)">p</text><text xml:space="preserve" font-family="Helvetica-Light" font-size="52.0" fill="#000000" transform="matrix(1.00, 0.00, -0.00, -1.00, 168.8, 583.0)">r</text><text xml:space="preserve" font-family="Helvetica-Light" font-size="52.0" fill="#000000" transform="matrix(1.00, 0.00, -0.00, -1.00, 185.2, 583.0)">o</text><text xml:space="preserve" font-family="Helvetica-Light" font-size="52.0" fill="#000000" transform="matrix(1.00, 0.00, -0.00, -1.00, 214.1, 583.0)">c</text><text xml:space="preserve" font-family="Helvetica-Light" font-size="52.0" fill="#000000" transform="matrix(1.00, 0.00, -0.00, -1.00, 243.0, 583.0)">e</text><text xml:space="preserve" font-family="Helvetica-Light" font-size="52.0" fill="#000000" transform="matrix(1.00, 0.00, -0.00, -1.00, 271.9, 583.0)">s</text><text xml:space="preserve" font-family="Helvetica-Light" font-size="52.0" fill="#000000" transform="matrix(1.00, 0.00, -0.00, -1.00, 297.9, 583.0)">s</text><text xml:space="preserve" font-family="Helvetica-Light" font-size="52.0" fill="#000000" transform="matrix(1.00, 0.00, -0.00, -1.00, 323.9, 583.0)">,</text><text xml:space="preserve" font-family="Helvetica-Light" font-size="52.0" fill="#000000" transform="matrix(1.00, 0.00, -0.00, -1.00, 338.3, 583.0)"> </text><text xml:space="preserve" font-family="Helvetica-Light" font-size="52.0" fill="#000000" transform="matrix(1.00, 0.00, -0.00, -1.00, 352.8, 583.0)">b</text><text xml:space="preserve" font-family="Helvetica-Light" font-size="52.0" fill="#000000" transform="matrix(1.00, 0.00, -0.00, -1.00, 384.6, 583.0)">l</text><text xml:space="preserve" font-family="Helvetica-Light" font-size="52.0" fill="#000000" transform="matrix(1.00, 0.00, -0.00, -1.00, 396.1, 583.0)">e</text><text xml:space="preserve" font-family="Helvetica-Light" font-size="52.0" fill="#000000" transform="matrix(1.00, 0.00, -0.00, -1.00, 425.0, 583.0)">n</text><text xml:space="preserve" font-family="Helvetica-Light" font-size="52.0" fill="#000000" transform="matrix(1.00, 0.00, -0.00, -1.00, 453.9, 583.0)">d</text><text xml:space="preserve" font-family="Helvetica-Light" font-size="52.0" fill="#000000" transform="matrix(1.00, 0.00, -0.00, -1.00, 485.7, 583.0)">e</text><text xml:space="preserve" font-family="Helvetica-Light" font-size="52.0" fill="#000000" transform="matrix(1.00, 0.00, -0.00, -1.00, 514.6, 583.0)">r</text><text xml:space="preserve" font-family="Helvetica-Light" font-size="52.0" fill="#000000" transform="matrix(1.00, 0.00, -0.00, -1.00, 531.9, 583.0)"> </text><text xml:space="preserve" font-family="Helvetica-Light" font-size="52.0" fill="#000000" transform="matrix(1.00, 0.00, -0.00, -1.00, 546.4, 583.0)">f</text><text xml:space="preserve" font-family="Helvetica-Light" font-size="52.0" fill="#000000" transform="matrix(1.00, 0.00, -0.00, -1.00, 560.9, 583.0)">o</text><text xml:space="preserve" font-family="Helvetica-Light" font-size="52.0" fill="#000000" transform="matrix(1.00, 0.00, -0.00, -1.00, 589.8, 583.0)">o</text><text xml:space="preserve" font-family="Helvetica-Light" font-size="52.0" fill="#000000" transform="matrix(1.00, 0.00, -0.00, -1.00, 618.7, 583.0)">d</text><text xml:space="preserve" font-family="Helvetica-Light" font-size="52.0" fill="#000000" transform="matrix(1.00, 0.00, -0.00, -1.00, 650.4, 583.0)">,</text><text xml:space="preserve" font-family="Helvetica-Light" font-size="52.0" fill="#000000" transform="matrix(1.00, 0.00, -0.00, -1.00, 664.9, 583.0)"> </text><text xml:space="preserve" font-family="Helvetica-Light" font-size="52.0" fill="#000000" transform="matrix(1.00, 0.00, -0.00, -1.00, 679.4, 583.0)">b</text><text xml:space="preserve" font-family="Helvetica-Light" font-size="52.0" fill="#000000" transform="matrix(1.00, 0.00, -0.00, -1.00, 711.1, 583.0)">l</text><text xml:space="preserve" font-family="Helvetica-Light" font-size="52.0" fill="#000000" transform="matrix(1.00, 0.00, -0.00, -1.00, 722.7, 583.0)">e</text><text xml:space="preserve" font-family="Helvetica-Light" font-size="52.0" fill="#000000" transform="matrix(1.00, 0.00, -0.00, -1.00, 751.6, 583.0)">n</text><text xml:space="preserve" font-family="Helvetica-Light" font-size="52.0" fill="#000000" transform="matrix(1.00, 0.00, -0.00, -1.00, 780.5, 583.0)">d</text><text xml:space="preserve" font-family="Helvetica-Light" font-size="52.0" fill="#000000" transform="matrix(1.00, 0.00, -0.00, -1.00, 812.3, 583.0)">e</text><text xml:space="preserve" font-family="Helvetica-Light" font-size="52.0" fill="#000000" transform="matrix(1.00, 0.00, -0.00, -1.00, 841.2, 583.0)">r</text><text xml:space="preserve" font-family="Helvetica-Light" font-size="52.0" fill="#000000" transform="matrix(1.00, 0.00, -0.00, -1.00, 858.5, 583.0)"> </text><text xml:space="preserve" font-family="Helvetica-Light" font-size="52.0" fill="#000000" transform="matrix(1.00, 0.00, -0.00, -1.00, 873.0, 583.0)">f</text><text xml:space="preserve" font-family="Helvetica-Light" font-size="52.0" fill="#000000" transform="matrix(1.00, 0.00, -0.00, -1.00, 887.4, 583.0)">o</text><text xml:space="preserve" font-family="Helvetica-Light" font-size="52.0" fill="#000000" transform="matrix(1.00, 0.00, -0.00, -1.00, 916.3, 583.0)">o</text><text xml:space="preserve" font-family="Helvetica-Light" font-size="52.0" fill="#000000" transform="matrix(1.00, 0.00, -0.00, -1.00, 945.2, 583.0)">d</text><text xml:space="preserve" font-family="Helvetica-Light" font-size="52.0" fill="#000000" transform="matrix(1.00, 0.00, -0.00, -1.00, 977.0, 583.0)"> </text><text xml:space="preserve" font-family="Helvetica-Light" font-size="52.0" fill="#000000" transform="matrix(1.00, 0.00, -0.00, -1.00, 991.5, 583.0)">p</text><text xml:space="preserve" font-family="Helvetica-Light" font-size="52.0" fill="#000000" transform="matrix(1.00, 0.00, -0.00, -1.00, 1023.2, 583.0)">r</text><text xml:space="preserve" font-family="Helvetica-Light" font-size="52.0" fill="#000000" transform="matrix(1.00, 0.00, -0.00, -1.00, 1039.6, 583.0)">o</text><text xml:space="preserve" font-family="Helvetica-Light" font-size="52.0" fill="#000000" transform="matrix(1.00, 0.00, -0.00, -1.00, 1068.5, 583.0)">c</text><text xml:space="preserve" font-family="Helvetica-Light" font-size="52.0" fill="#000000" transform="matrix(1.00, 0.00, -0.00, -1.00, 1097.4, 583.0)">e</text><text xml:space="preserve" font-family="Helvetica-Light" font-size="52.0" fill="#000000" transform="matrix(1.00, 0.00, -0.00, -1.00, 1126.4, 583.0)">s</text><text xml:space="preserve" font-family="Helvetica-Light" font-size="52.0" fill="#000000" transform="matrix(1.00, 0.00, -0.00, -1.00, 1152.4, 583.0)">s</text><text xml:space="preserve" font-family="Helvetica-Light" font-size="52.0" fill="#000000" transform="matrix(1.00, 0.00, -0.00, -1.00, 1178.4, 583.0)">o</text><text xml:space="preserve" font-family="Helvetica-Light" font-size="52.0" fill="#000000" transform="matrix(1.00, 0.00, -0.00, -1.00, 1207.3, 583.0)">r</text><text xml:space="preserve" font-family="Helvetica-Light" font-size="52.0" fill="#000000" transform="matrix(1.00, 0.00, -0.00, -1.00, 1219.8, 583.0)">,</text><text xml:space="preserve" font-family="Helvetica-Light" font-size="52.0" fill="#000000" transform="matrix(1.00, 0.00, -0.00, -1.00, 1234.3, 583.0)"> </text><text xml:space="preserve" font-family="Helvetica-Light" font-size="52.0" fill="#000000" transform="matrix(1.00, 0.00, -0.00, -1.00, 1248.7, 583.0)">s</text><text xml:space="preserve" font-family="Helvetica-Light" font-size="52.0" fill="#000000" transform="matrix(1.00, 0.00, -0.00, -1.00, 1274.7, 583.0)">t</text><text xml:space="preserve" font-family="Helvetica-Light" font-size="52.0" fill="#000000" transform="matrix(1.00, 0.00, -0.00, -1.00, 1289.2, 583.0)">e</text><text xml:space="preserve" font-family="Helvetica-Light" font-size="52.0" fill="#000000" transform="matrix(1.00, 0.00, -0.00, -1.00, 1318.1, 583.0)">e</text><text xml:space="preserve" font-family="Helvetica-Light" font-size="52.0" fill="#000000" transform="matrix(1.00, 0.00, -0.00, -1.00, 1347.0, 583.0)">l</text><text xml:space="preserve" font-family="Helvetica-Light" font-size="52.0" fill="#000000" transform="matrix(1.00, 0.00, -0.00, -1.00, 1358.5, 583.0)"> </text><text xml:space="preserve" font-family="Helvetica-Light" font-size="52.0" fill="#000000" transform="matrix(1.00, 0.00, -0.00, -1.00, 1373.0, 583.0)">b</text><text xml:space="preserve" font-family="Helvetica-Light" font-size="52.0" fill="#000000" transform="matrix(1.00, 0.00, -0.00, -1.00, 1404.8, 583.0)">l</text><text xml:space="preserve" font-family="Helvetica-Light" font-size="52.0" fill="#000000" transform="matrix(1.00, 0.00, -0.00, -1.00, 1416.3, 583.0)">a</text><text xml:space="preserve" font-family="Helvetica-Light" font-size="52.0" fill="#000000" transform="matrix(1.00, 0.00, -0.00, -1.00, 1445.2, 583.0)">d</text><text xml:space="preserve" font-family="Helvetica-Light" font-size="52.0" fill="#000000" transform="matrix(1.00, 0.00, -0.00, -1.00, 1477.0, 583.0)">e</text><text xml:space="preserve" font-family="Helvetica-Light" font-size="52.0" fill="#000000" transform="matrix(1.00, 0.00, -0.00, -1.00, 1505.9, 583.0)">,</text><text xml:space="preserve" font-family="Helvetica-Light" font-size="52.0" fill="#000000" transform="matrix(1.00, 0.00, -0.00, -1.00, 1520.4, 583.0)"> </text><text xml:space="preserve" font-family="Helvetica-Light" font-size="52.0" fill="#000000" transform="matrix(1.00, 0.00, -0.00, -1.00, 1534.8, 583.0)">p</text><text xml:space="preserve" font-family="Helvetica-Light" font-size="52.0" fill="#000000" transform="matrix(1.00, 0.00, -0.00, -1.00, 1566.6, 583.0)">r</text><text xml:space="preserve" font-family="Helvetica-Light" font-size="52.0" fill="#000000" transform="matrix(1.00, 0.00, -0.00, -1.00, 1583.0, 583.0)">o</text><text xml:space="preserve" font-family="Helvetica-Light" font-size="52.0" fill="#000000" transform="matrix(1.00, 0.00, -0.00, -1.00, 1611.9, 583.0)">c</text><text xml:space="preserve" font-family="Helvetica-Light" font-size="52.0" fill="#000000" transform="matrix(1.00, 0.00, -0.00, -1.00, 1640.8, 583.0)">e</text><text xml:space="preserve" font-family="Helvetica-Light" font-size="52.0" fill="#000000" transform="matrix(1.00, 0.00, -0.00, -1.00, 1669.7, 583.0)">s</text><text xml:space="preserve" font-family="Helvetica-Light" font-size="52.0" fill="#000000" transform="matrix(1.00, 0.00, -0.00, -1.00, 1695.7, 583.0)">s</text><text xml:space="preserve" font-family="Helvetica-Light" font-size="52.0" fill="#000000" transform="matrix(1.00, 0.00, -0.00, -1.00, 1721.7, 583.0)">o</text><text xml:space="preserve" font-family="Helvetica-Light" font-size="52.0" fill="#000000" transform="matrix(1.00, 0.00, -0.00, -1.00, 1750.6, 583.0)">r</text><text xml:space="preserve" font-family="Helvetica-Light" font-size="52.0" fill="#000000" transform="matrix(1.00, 0.00, -0.00, -1.00, 1767.9, 583.0)"> </text><text xml:space="preserve" font-family="Helvetica-Light" font-size="52.0" fill="#000000" transform="matrix(1.00, 0.00, -0.00, -1.00, 137.0, 521.0)">ﬁ</text><text xml:space="preserve" font-family="Helvetica-Light" font-size="52.0" fill="#000000" transform="matrix(1.00, 0.00, -0.00, -1.00, 163.0, 521.0)">t</text><text xml:space="preserve" font-family="Helvetica-Light" font-size="52.0" fill="#000000" transform="matrix(1.00, 0.00, -0.00, -1.00, 177.5, 521.0)">t</text><text xml:space="preserve" font-family="Helvetica-Light" font-size="52.0" fill="#000000" transform="matrix(1.00, 0.00, -0.00, -1.00, 191.9, 521.0)">e</text><text xml:space="preserve" font-family="Helvetica-Light" font-size="52.0" fill="#000000" transform="matrix(1.00, 0.00, -0.00, -1.00, 220.8, 521.0)">d</text><text xml:space="preserve" font-family="Helvetica-Light" font-size="52.0" fill="#000000" transform="matrix(1.00, 0.00, -0.00, -1.00, 252.6, 521.0)">,</text><text xml:space="preserve" font-family="Helvetica-Light" font-size="52.0" fill="#000000" transform="matrix(1.00, 0.00, -0.00, -1.00, 267.1, 521.0)"> </text><text xml:space="preserve" font-family="Helvetica-Light" font-size="52.0" fill="#000000" transform="matrix(1.00, 0.00, -0.00, -1.00, 281.5, 521.0)">f</text><text xml:space="preserve" font-family="Helvetica-Light" font-size="52.0" fill="#000000" transform="matrix(1.00, 0.00, -0.00, -1.00, 296.0, 521.0)">o</text><text xml:space="preserve" font-family="Helvetica-Light" font-size="52.0" fill="#000000" transform="matrix(1.00, 0.00, -0.00, -1.00, 324.9, 521.0)">o</text><text xml:space="preserve" font-family="Helvetica-Light" font-size="52.0" fill="#000000" transform="matrix(1.00, 0.00, -0.00, -1.00, 353.8, 521.0)">d</text><text xml:space="preserve" font-family="Helvetica-Light" font-size="52.0" fill="#000000" transform="matrix(1.00, 0.00, -0.00, -1.00, 385.6, 521.0)"> </text><text xml:space="preserve" font-family="Helvetica-Light" font-size="52.0" fill="#000000" transform="matrix(1.00, 0.00, -0.00, -1.00, 400.0, 521.0)">p</text><text xml:space="preserve" font-family="Helvetica-Light" font-size="52.0" fill="#000000" transform="matrix(1.00, 0.00, -0.00, -1.00, 431.8, 521.0)">r</text><text xml:space="preserve" font-family="Helvetica-Light" font-size="52.0" fill="#000000" transform="matrix(1.00, 0.00, -0.00, -1.00, 448.2, 521.0)">o</text><text xml:space="preserve" font-family="Helvetica-Light" font-size="52.0" fill="#000000" transform="matrix(1.00, 0.00, -0.00, -1.00, 477.1, 521.0)">c</text><text xml:space="preserve" font-family="Helvetica-Light" font-size="52.0" fill="#000000" transform="matrix(1.00, 0.00, -0.00, -1.00, 506.0, 521.0)">e</text><text xml:space="preserve" font-family="Helvetica-Light" font-size="52.0" fill="#000000" transform="matrix(1.00, 0.00, -0.00, -1.00, 534.9, 521.0)">s</text><text xml:space="preserve" font-family="Helvetica-Light" font-size="52.0" fill="#000000" transform="matrix(1.00, 0.00, -0.00, -1.00, 560.9, 521.0)">s</text><text xml:space="preserve" font-family="Helvetica-Light" font-size="52.0" fill="#000000" transform="matrix(1.00, 0.00, -0.00, -1.00, 586.9, 521.0)">o</text><text xml:space="preserve" font-family="Helvetica-Light" font-size="52.0" fill="#000000" transform="matrix(1.00, 0.00, -0.00, -1.00, 615.8, 521.0)">r</text><text xml:space="preserve" font-family="Helvetica-Light" font-size="52.0" fill="#000000" transform="matrix(1.00, 0.00, -0.00, -1.00, 633.1, 521.0)"> </text><text xml:space="preserve" font-family="Helvetica-Light" font-size="52.0" fill="#000000" transform="matrix(1.00, 0.00, -0.00, -1.00, 647.6, 521.0)">ﬁ</text><text xml:space="preserve" font-family="Helvetica-Light" font-size="52.0" fill="#000000" transform="matrix(1.00, 0.00, -0.00, -1.00, 673.6, 521.0)">t</text><text xml:space="preserve" font-family="Helvetica-Light" font-size="52.0" fill="#000000" transform="matrix(1.00, 0.00, -0.00, -1.00, 688.0, 521.0)">t</text><text xml:space="preserve" font-family="Helvetica-Light" font-size="52.0" fill="#000000" transform="matrix(1.00, 0.00, -0.00, -1.00, 702.5, 521.0)">e</text><text xml:space="preserve" font-family="Helvetica-Light" font-size="52.0" fill="#000000" transform="matrix(1.00, 0.00, -0.00, -1.00, 731.4, 521.0)">d</text><text xml:space="preserve" font-family="Helvetica-Light" font-size="52.0" fill="#000000" transform="matrix(1.00, 0.00, -0.00, -1.00, 763.2, 521.0)">,</text><text xml:space="preserve" font-family="Helvetica-Light" font-size="52.0" fill="#000000" transform="matrix(1.00, 0.00, -0.00, -1.00, 777.6, 521.0)"> </text><text xml:space="preserve" font-family="Helvetica-Light" font-size="52.0" fill="#000000" transform="matrix(1.00, 0.00, -0.00, -1.00, 792.1, 521.0)">ﬁ</text><text xml:space="preserve" font-family="Helvetica-Light" font-size="52.0" fill="#000000" transform="matrix(1.00, 0.00, -0.00, -1.00, 818.1, 521.0)">t</text><text xml:space="preserve" font-family="Helvetica-Light" font-size="52.0" fill="#000000" transform="matrix(1.00, 0.00, -0.00, -1.00, 832.6, 521.0)">t</text><text xml:space="preserve" font-family="Helvetica-Light" font-size="52.0" fill="#000000" transform="matrix(1.00, 0.00, -0.00, -1.00, 847.0, 521.0)">e</text><text xml:space="preserve" font-family="Helvetica-Light" font-size="52.0" fill="#000000" transform="matrix(1.00, 0.00, -0.00, -1.00, 875.9, 521.0)">d</text><text xml:space="preserve" font-family="Helvetica-Light" font-size="52.0" fill="#000000" transform="matrix(1.00, 0.00, -0.00, -1.00, 907.7, 521.0)"> </text><text xml:space="preserve" font-family="Helvetica-Light" font-size="52.0" fill="#000000" transform="matrix(1.00, 0.00, -0.00, -1.00, 922.1, 521.0)">s</text><text xml:space="preserve" font-family="Helvetica-Light" font-size="52.0" fill="#000000" transform="matrix(1.00, 0.00, -0.00, -1.00, 948.1, 521.0)">t</text><text xml:space="preserve" font-family="Helvetica-Light" font-size="52.0" fill="#000000" transform="matrix(1.00, 0.00, -0.00, -1.00, 962.6, 521.0)">e</text><text xml:space="preserve" font-family="Helvetica-Light" font-size="52.0" fill="#000000" transform="matrix(1.00, 0.00, -0.00, -1.00, 991.5, 521.0)">e</text><text xml:space="preserve" font-family="Helvetica-Light" font-size="52.0" fill="#000000" transform="matrix(1.00, 0.00, -0.00, -1.00, 1020.4, 521.0)">l</text><text xml:space="preserve" font-family="Helvetica-Light" font-size="52.0" fill="#000000" transform="matrix(1.00, 0.00, -0.00, -1.00, 1032.0, 521.0)">,</text><text xml:space="preserve" font-family="Helvetica-Light" font-size="52.0" fill="#000000" transform="matrix(1.00, 0.00, -0.00, -1.00, 1046.4, 521.0)"> </text><text xml:space="preserve" font-family="Helvetica-Light" font-size="52.0" fill="#000000" transform="matrix(1.00, 0.00, -0.00, -1.00, 1060.9, 521.0)">p</text><text xml:space="preserve" font-family="Helvetica-Light" font-size="52.0" fill="#000000" transform="matrix(1.00, 0.00, -0.00, -1.00, 1092.7, 521.0)">r</text><text xml:space="preserve" font-family="Helvetica-Light" font-size="52.0" fill="#000000" transform="matrix(1.00, 0.00, -0.00, -1.00, 1109.0, 521.0)">o</text><text xml:space="preserve" font-family="Helvetica-Light" font-size="52.0" fill="#000000" transform="matrix(1.00, 0.00, -0.00, -1.00, 1137.9, 521.0)">c</text><text xml:space="preserve" font-family="Helvetica-Light" font-size="52.0" fill="#000000" transform="matrix(1.00, 0.00, -0.00, -1.00, 1166.9, 521.0)">e</text><text xml:space="preserve" font-family="Helvetica-Light" font-size="52.0" fill="#000000" transform="matrix(1.00, 0.00, -0.00, -1.00, 1195.8, 521.0)">s</text><text xml:space="preserve" font-family="Helvetica-Light" font-size="52.0" fill="#000000" transform="matrix(1.00, 0.00, -0.00, -1.00, 1221.8, 521.0)">s</text><text xml:space="preserve" font-family="Helvetica-Light" font-size="52.0" fill="#000000" transform="matrix(1.00, 0.00, -0.00, -1.00, 1247.8, 521.0)">o</text><text xml:space="preserve" font-family="Helvetica-Light" font-size="52.0" fill="#000000" transform="matrix(1.00, 0.00, -0.00, -1.00, 1276.7, 521.0)">r</text><text xml:space="preserve" font-family="Helvetica-Light" font-size="52.0" fill="#000000" transform="matrix(1.00, 0.00, -0.00, -1.00, 1294.0, 521.0)"> </text><text xml:space="preserve" font-family="Helvetica-Light" font-size="52.0" fill="#000000" transform="matrix(1.00, 0.00, -0.00, -1.00, 1308.5, 521.0)">ﬁ</text><text xml:space="preserve" font-family="Helvetica-Light" font-size="52.0" fill="#000000" transform="matrix(1.00, 0.00, -0.00, -1.00, 1334.5, 521.0)">t</text><text xml:space="preserve" font-family="Helvetica-Light" font-size="52.0" fill="#000000" transform="matrix(1.00, 0.00, -0.00, -1.00, 1348.9, 521.0)">t</text><text xml:space="preserve" font-family="Helvetica-Light" font-size="52.0" fill="#000000" transform="matrix(1.00, 0.00, -0.00, -1.00, 1363.4, 521.0)">e</text><text xml:space="preserve" font-family="Helvetica-Light" font-size="52.0" fill="#000000" transform="matrix(1.00, 0.00, -0.00, -1.00, 1392.3, 521.0)">d</text><text xml:space="preserve" font-family="Helvetica-Light" font-size="52.0" fill="#000000" transform="matrix(1.00, 0.00, -0.00, -1.00, 1424.1, 521.0)"> </text><text xml:space="preserve" font-family="Helvetica-Light" font-size="52.0" fill="#000000" transform="matrix(1.00, 0.00, -0.00, -1.00, 1438.5, 521.0)">s</text><text xml:space="preserve" font-family="Helvetica-Light" font-size="52.0" fill="#000000" transform="matrix(1.00, 0.00, -0.00, -1.00, 1464.5, 521.0)">t</text><text xml:space="preserve" font-family="Helvetica-Light" font-size="52.0" fill="#000000" transform="matrix(1.00, 0.00, -0.00, -1.00, 1479.0, 521.0)">e</text><text xml:space="preserve" font-family="Helvetica-Light" font-size="52.0" fill="#000000" transform="matrix(1.00, 0.00, -0.00, -1.00, 1507.9, 521.0)">e</text><text xml:space="preserve" font-family="Helvetica-Light" font-size="52.0" fill="#000000" transform="matrix(1.00, 0.00, -0.00, -1.00, 1536.8, 521.0)">l</text><text xml:space="preserve" font-family="Helvetica-Light" font-size="52.0" fill="#000000" transform="matrix(1.00, 0.00, -0.00, -1.00, 1548.3, 521.0)">,</text><text xml:space="preserve" font-family="Helvetica-Light" font-size="52.0" fill="#000000" transform="matrix(1.00, 0.00, -0.00, -1.00, 1562.8, 521.0)"> </text><text xml:space="preserve" font-family="Helvetica-Light" font-size="52.0" fill="#000000" transform="matrix(1.00, 0.00, -0.00, -1.00, 137.0, 459.0)">p</text><text xml:space="preserve" font-family="Helvetica-Light" font-size="52.0" fill="#000000" transform="matrix(1.00, 0.00, -0.00, -1.00, 168.8, 459.0)">r</text><text xml:space="preserve" font-family="Helvetica-Light" font-size="52.0" fill="#000000" transform="matrix(1.00, 0.00, -0.00, -1.00, 185.2, 459.0)">o</text><text xml:space="preserve" font-family="Helvetica-Light" font-size="52.0" fill="#000000" transform="matrix(1.00, 0.00, -0.00, -1.00, 214.1, 459.0)">c</text><text xml:space="preserve" font-family="Helvetica-Light" font-size="52.0" fill="#000000" transform="matrix(1.00, 0.00, -0.00, -1.00, 243.0, 459.0)">e</text><text xml:space="preserve" font-family="Helvetica-Light" font-size="52.0" fill="#000000" transform="matrix(1.00, 0.00, -0.00, -1.00, 271.9, 459.0)">s</text><text xml:space="preserve" font-family="Helvetica-Light" font-size="52.0" fill="#000000" transform="matrix(1.00, 0.00, -0.00, -1.00, 297.9, 459.0)">s</text><text xml:space="preserve" font-family="Helvetica-Light" font-size="52.0" fill="#000000" transform="matrix(1.00, 0.00, -0.00, -1.00, 323.9, 459.0)">o</text><text xml:space="preserve" font-family="Helvetica-Light" font-size="52.0" fill="#000000" transform="matrix(1.00, 0.00, -0.00, -1.00, 352.8, 459.0)">r</text><text xml:space="preserve" font-family="Helvetica-Light" font-size="52.0" fill="#000000" transform="matrix(1.00, 0.00, -0.00, -1.00, 370.1, 459.0)"> </text><text xml:space="preserve" font-family="Helvetica-Light" font-size="52.0" fill="#000000" transform="matrix(1.00, 0.00, -0.00, -1.00, 384.6, 459.0)">b</text><text xml:space="preserve" font-family="Helvetica-Light" font-size="52.0" fill="#000000" transform="matrix(1.00, 0.00, -0.00, -1.00, 416.3, 459.0)">l</text><text xml:space="preserve" font-family="Helvetica-Light" font-size="52.0" fill="#000000" transform="matrix(1.00, 0.00, -0.00, -1.00, 427.9, 459.0)">e</text><text xml:space="preserve" font-family="Helvetica-Light" font-size="52.0" fill="#000000" transform="matrix(1.00, 0.00, -0.00, -1.00, 456.8, 459.0)">n</text><text xml:space="preserve" font-family="Helvetica-Light" font-size="52.0" fill="#000000" transform="matrix(1.00, 0.00, -0.00, -1.00, 485.7, 459.0)">d</text><text xml:space="preserve" font-family="Helvetica-Light" font-size="52.0" fill="#000000" transform="matrix(1.00, 0.00, -0.00, -1.00, 517.5, 459.0)">e</text><text xml:space="preserve" font-family="Helvetica-Light" font-size="52.0" fill="#000000" transform="matrix(1.00, 0.00, -0.00, -1.00, 546.4, 459.0)">r</text><text xml:space="preserve" font-family="Helvetica-Light" font-size="52.0" fill="#000000" transform="matrix(1.00, 0.00, -0.00, -1.00, 558.9, 459.0)">,</text><text xml:space="preserve" font-family="Helvetica-Light" font-size="52.0" fill="#000000" transform="matrix(1.00, 0.00, -0.00, -1.00, 573.4, 459.0)"> </text><text xml:space="preserve" font-family="Helvetica-Light" font-size="52.0" fill="#000000" transform="matrix(1.00, 0.00, -0.00, -1.00, 587.8, 459.0)">f</text><text xml:space="preserve" font-family="Helvetica-Light" font-size="52.0" fill="#000000" transform="matrix(1.00, 0.00, -0.00, -1.00, 602.3, 459.0)">o</text><text xml:space="preserve" font-family="Helvetica-Light" font-size="52.0" fill="#000000" transform="matrix(1.00, 0.00, -0.00, -1.00, 631.2, 459.0)">o</text><text xml:space="preserve" font-family="Helvetica-Light" font-size="52.0" fill="#000000" transform="matrix(1.00, 0.00, -0.00, -1.00, 660.1, 459.0)">d</text><text xml:space="preserve" font-family="Helvetica-Light" font-size="52.0" fill="#000000" transform="matrix(1.00, 0.00, -0.00, -1.00, 691.9, 459.0)"> </text><text xml:space="preserve" font-family="Helvetica-Light" font-size="52.0" fill="#000000" transform="matrix(1.00, 0.00, -0.00, -1.00, 706.3, 459.0)">p</text><text xml:space="preserve" font-family="Helvetica-Light" font-size="52.0" fill="#000000" transform="matrix(1.00, 0.00, -0.00, -1.00, 738.1, 459.0)">r</text><text xml:space="preserve" font-family="Helvetica-Light" font-size="52.0" fill="#000000" transform="matrix(1.00, 0.00, -0.00, -1.00, 754.5, 459.0)">o</text><text xml:space="preserve" font-family="Helvetica-Light" font-size="52.0" fill="#000000" transform="matrix(1.00, 0.00, -0.00, -1.00, 783.4, 459.0)">c</text><text xml:space="preserve" font-family="Helvetica-Light" font-size="52.0" fill="#000000" transform="matrix(1.00, 0.00, -0.00, -1.00, 812.3, 459.0)">e</text><text xml:space="preserve" font-family="Helvetica-Light" font-size="52.0" fill="#000000" transform="matrix(1.00, 0.00, -0.00, -1.00, 841.2, 459.0)">s</text><text xml:space="preserve" font-family="Helvetica-Light" font-size="52.0" fill="#000000" transform="matrix(1.00, 0.00, -0.00, -1.00, 867.2, 459.0)">s</text><text xml:space="preserve" font-family="Helvetica-Light" font-size="52.0" fill="#000000" transform="matrix(1.00, 0.00, -0.00, -1.00, 893.2, 459.0)">o</text><text xml:space="preserve" font-family="Helvetica-Light" font-size="52.0" fill="#000000" transform="matrix(1.00, 0.00, -0.00, -1.00, 922.1, 459.0)">r</text><text xml:space="preserve" font-family="Helvetica-Light" font-size="52.0" fill="#000000" transform="matrix(1.00, 0.00, -0.00, -1.00, 939.5, 459.0)"> </text><text xml:space="preserve" font-family="Helvetica-Light" font-size="52.0" fill="#000000" transform="matrix(1.00, 0.00, -0.00, -1.00, 953.9, 459.0)">b</text><text xml:space="preserve" font-family="Helvetica-Light" font-size="52.0" fill="#000000" transform="matrix(1.00, 0.00, -0.00, -1.00, 985.7, 459.0)">l</text><text xml:space="preserve" font-family="Helvetica-Light" font-size="52.0" fill="#000000" transform="matrix(1.00, 0.00, -0.00, -1.00, 997.2, 459.0)">e</text><text xml:space="preserve" font-family="Helvetica-Light" font-size="52.0" fill="#000000" transform="matrix(1.00, 0.00, -0.00, -1.00, 1026.1, 459.0)">n</text><text xml:space="preserve" font-family="Helvetica-Light" font-size="52.0" fill="#000000" transform="matrix(1.00, 0.00, -0.00, -1.00, 1055.1, 459.0)">d</text><text xml:space="preserve" font-family="Helvetica-Light" font-size="52.0" fill="#000000" transform="matrix(1.00, 0.00, -0.00, -1.00, 1086.8, 459.0)">e</text><text xml:space="preserve" font-family="Helvetica-Light" font-size="52.0" fill="#000000" transform="matrix(1.00, 0.00, -0.00, -1.00, 1115.7, 459.0)">r</text><text xml:space="preserve" font-family="Helvetica-Light" font-size="52.0" fill="#000000" transform="matrix(1.00, 0.00, -0.00, -1.00, 1128.3, 459.0)">,</text><text xml:space="preserve" font-family="Helvetica-Light" font-size="52.0" fill="#000000" transform="matrix(1.00, 0.00, -0.00, -1.00, 1142.7, 459.0)"> </text><text xml:space="preserve" font-family="Helvetica-Light" font-size="52.0" fill="#000000" transform="matrix(1.00, 0.00, -0.00, -1.00, 1157.2, 459.0)">ﬁ</text><text xml:space="preserve" font-family="Helvetica-Light" font-size="52.0" fill="#000000" transform="matrix(1.00, 0.00, -0.00, -1.00, 1183.2, 459.0)">t</text><text xml:space="preserve" font-family="Helvetica-Light" font-size="52.0" fill="#000000" transform="matrix(1.00, 0.00, -0.00, -1.00, 1197.6, 459.0)">t</text><text xml:space="preserve" font-family="Helvetica-Light" font-size="52.0" fill="#000000" transform="matrix(1.00, 0.00, -0.00, -1.00, 1212.1, 459.0)">e</text><text xml:space="preserve" font-family="Helvetica-Light" font-size="52.0" fill="#000000" transform="matrix(1.00, 0.00, -0.00, -1.00, 1241.0, 459.0)">d</text><text xml:space="preserve" font-family="Helvetica-Light" font-size="52.0" fill="#000000" transform="matrix(1.00, 0.00, -0.00, -1.00, 1272.8, 459.0)"> </text><text xml:space="preserve" font-family="Helvetica-Light" font-size="52.0" fill="#000000" transform="matrix(1.00, 0.00, -0.00, -1.00, 1287.2, 459.0)">s</text><text xml:space="preserve" font-family="Helvetica-Light" font-size="52.0" fill="#000000" transform="matrix(1.00, 0.00, -0.00, -1.00, 1313.2, 459.0)">t</text><text xml:space="preserve" font-family="Helvetica-Light" font-size="52.0" fill="#000000" transform="matrix(1.00, 0.00, -0.00, -1.00, 1327.7, 459.0)">e</text><text xml:space="preserve" font-family="Helvetica-Light" font-size="52.0" fill="#000000" transform="matrix(1.00, 0.00, -0.00, -1.00, 1356.6, 459.0)">e</text><text xml:space="preserve" font-family="Helvetica-Light" font-size="52.0" fill="#000000" transform="matrix(1.00, 0.00, -0.00, -1.00, 1385.5, 459.0)">l</text><text xml:space="preserve" font-family="Helvetica-Light" font-size="52.0" fill="#000000" transform="matrix(1.00, 0.00, -0.00, -1.00, 1397.1, 459.0)"> </text><text xml:space="preserve" font-family="Helvetica-Light" font-size="52.0" fill="#000000" transform="matrix(1.00, 0.00, -0.00, -1.00, 1411.5, 459.0)">b</text><text xml:space="preserve" font-family="Helvetica-Light" font-size="52.0" fill="#000000" transform="matrix(1.00, 0.00, -0.00, -1.00, 1443.3, 459.0)">l</text><text xml:space="preserve" font-family="Helvetica-Light" font-size="52.0" fill="#000000" transform="matrix(1.00, 0.00, -0.00, -1.00, 1454.8, 459.0)">a</text><text xml:space="preserve" font-family="Helvetica-Light" font-size="52.0" fill="#000000" transform="matrix(1.00, 0.00, -0.00, -1.00, 1483.7, 459.0)">d</text><text xml:space="preserve" font-family="Helvetica-Light" font-size="52.0" fill="#000000" transform="matrix(1.00, 0.00, -0.00, -1.00, 1515.5, 459.0)">e</text><text xml:space="preserve" font-family="Helvetica-Light" font-size="52.0" fill="#000000" transform="matrix(1.00, 0.00, -0.00, -1.00, 1544.4, 459.0)">,</text><text xml:space="preserve" font-family="Helvetica-Light" font-size="52.0" fill="#000000" transform="matrix(1.00, 0.00, -0.00, -1.00, 1558.9, 459.0)"> </text><text xml:space="preserve" font-family="Helvetica-Light" font-size="52.0" fill="#000000" transform="matrix(1.00, 0.00, -0.00, -1.00, 137.0, 397.0)">c</text><text xml:space="preserve" font-family="Helvetica-Light" font-size="52.0" fill="#000000" transform="matrix(1.00, 0.00, -0.00, -1.00, 165.9, 397.0)">o</text><text xml:space="preserve" font-family="Helvetica-Light" font-size="52.0" fill="#000000" transform="matrix(1.00, 0.00, -0.00, -1.00, 194.8, 397.0)">n</text><text xml:space="preserve" font-family="Helvetica-Light" font-size="52.0" fill="#000000" transform="matrix(1.00, 0.00, -0.00, -1.00, 223.7, 397.0)">t</text><text xml:space="preserve" font-family="Helvetica-Light" font-size="52.0" fill="#000000" transform="matrix(1.00, 0.00, -0.00, -1.00, 238.2, 397.0)">a</text><text xml:space="preserve" font-family="Helvetica-Light" font-size="52.0" fill="#000000" transform="matrix(1.00, 0.00, -0.00, -1.00, 267.1, 397.0)">i</text><text xml:space="preserve" font-family="Helvetica-Light" font-size="52.0" fill="#000000" transform="matrix(1.00, 0.00, -0.00, -1.00, 278.6, 397.0)">n</text><text xml:space="preserve" font-family="Helvetica-Light" font-size="52.0" fill="#000000" transform="matrix(1.00, 0.00, -0.00, -1.00, 307.6, 397.0)">e</text><text xml:space="preserve" font-family="Helvetica-Light" font-size="52.0" fill="#000000" transform="matrix(1.00, 0.00, -0.00, -1.00, 336.5, 397.0)">r</text><text xml:space="preserve" font-family="Helvetica-Light" font-size="52.0" fill="#000000" transform="matrix(1.00, 0.00, -0.00, -1.00, 353.8, 397.0)"> </text><text xml:space="preserve" font-family="Helvetica-Light" font-size="52.0" fill="#000000" transform="matrix(1.00, 0.00, -0.00, -1.00, 368.2, 397.0)">f</text><text xml:space="preserve" font-family="Helvetica-Light" font-size="52.0" fill="#000000" transform="matrix(1.00, 0.00, -0.00, -1.00, 382.7, 397.0)">o</text><text xml:space="preserve" font-family="Helvetica-Light" font-size="52.0" fill="#000000" transform="matrix(1.00, 0.00, -0.00, -1.00, 411.6, 397.0)">o</text><text xml:space="preserve" font-family="Helvetica-Light" font-size="52.0" fill="#000000" transform="matrix(1.00, 0.00, -0.00, -1.00, 440.5, 397.0)">d</text><text xml:space="preserve" font-family="Helvetica-Light" font-size="52.0" fill="#000000" transform="matrix(1.00, 0.00, -0.00, -1.00, 472.3, 397.0)"> </text><text xml:space="preserve" font-family="Helvetica-Light" font-size="52.0" fill="#000000" transform="matrix(1.00, 0.00, -0.00, -1.00, 486.8, 397.0)">p</text><text xml:space="preserve" font-family="Helvetica-Light" font-size="52.0" fill="#000000" transform="matrix(1.00, 0.00, -0.00, -1.00, 518.5, 397.0)">r</text><text xml:space="preserve" font-family="Helvetica-Light" font-size="52.0" fill="#000000" transform="matrix(1.00, 0.00, -0.00, -1.00, 534.9, 397.0)">o</text><text xml:space="preserve" font-family="Helvetica-Light" font-size="52.0" fill="#000000" transform="matrix(1.00, 0.00, -0.00, -1.00, 563.8, 397.0)">c</text><text xml:space="preserve" font-family="Helvetica-Light" font-size="52.0" fill="#000000" transform="matrix(1.00, 0.00, -0.00, -1.00, 592.7, 397.0)">e</text><text xml:space="preserve" font-family="Helvetica-Light" font-size="52.0" fill="#000000" transform="matrix(1.00, 0.00, -0.00, -1.00, 621.6, 397.0)">s</text><text xml:space="preserve" font-family="Helvetica-Light" font-size="52.0" fill="#000000" transform="matrix(1.00, 0.00, -0.00, -1.00, 647.6, 397.0)">s</text><text xml:space="preserve" font-family="Helvetica-Light" font-size="52.0" fill="#000000" transform="matrix(1.00, 0.00, -0.00, -1.00, 673.6, 397.0)">o</text><text xml:space="preserve" font-family="Helvetica-Light" font-size="52.0" fill="#000000" transform="matrix(1.00, 0.00, -0.00, -1.00, 702.6, 397.0)">r</text></g></svg>