<?xml version="1.0" encoding="UTF-8" standalone="no"?><svg xmlns="http://www.w3.org/2000/svg" xmlns:xlink="http://www.w3.org/1999/xlink" clip-rule="evenodd" stroke-miterlimit="4.00" viewBox="0 0 525 64"><desc>SVG generated by Keynote</desc><defs></defs><g transform="matrix(1.00, 0.00, -0.00, -1.00, 0.0, 64.0)"><text xml:space="preserve" font-family="Helvetica-Light" font-size="64.0" fill="#FEFFFE" transform="matrix(1.00, 0.00, -0.00, -1.00, -3.0, 15.0)">B</text><text xml:space="preserve" font-family="Helvetica-Light" font-size="64.0" fill="#FEFFFE" transform="matrix(1.00, 0.00, -0.00, -1.00, 39.7, 15.0)">a</text><text xml:space="preserve" font-family="Helvetica-Light" font-size="64.0" fill="#FEFFFE" transform="matrix(1.00, 0.00, -0.00, -1.00, 75.3, 15.0)">g</text><text xml:space="preserve" font-family="Helvetica-Light" font-size="64.0" fill="#FEFFFE" transform="matrix(1.00, 0.00, -0.00, -1.00, 114.4, 15.0)"> </text><text xml:space="preserve" font-family="Helvetica-Light" font-size="64.0" fill="#FEFFFE" transform="matrix(1.00, 0.00, -0.00, -1.00, 132.2, 15.0)">o</text><text xml:space="preserve" font-family="Helvetica-Light" font-size="64.0" fill="#FEFFFE" transform="matrix(1.00, 0.00, -0.00, -1.00, 167.8, 15.0)">f</text><text xml:space="preserve" font-family="Helvetica-Light" font-size="64.0" fill="#FEFFFE" transform="matrix(1.00, 0.00, -0.00, -1.00, 185.5, 15.0)"> </text><text xml:space="preserve" font-family="Helvetica-Light" font-size="64.0" fill="#FEFFFE" transform="matrix(1.00, 0.00, -0.00, -1.00, 203.3, 15.0)">I</text><text xml:space="preserve" font-family="Helvetica-Light" font-size="64.0" fill="#FEFFFE" transform="matrix(1.00, 0.00, -0.00, -1.00, 221.1, 15.0)">n</text><text xml:space="preserve" font-family="Helvetica-Light" font-size="64.0" fill="#FEFFFE" transform="matrix(1.00, 0.00, -0.00, -1.00, 256.7, 15.0)">g</text><text xml:space="preserve" font-family="Helvetica-Light" font-size="64.0" fill="#FEFFFE" transform="matrix(1.00, 0.00, -0.00, -1.00, 295.8, 15.0)">r</text><text xml:space="preserve" font-family="Helvetica-Light" font-size="64.0" fill="#FEFFFE" transform="matrix(1.00, 0.00, -0.00, -1.00, 316.0, 15.0)">e</text><text xml:space="preserve" font-family="Helvetica-Light" font-size="64.0" fill="#FEFFFE" transform="matrix(1.00, 0.00, -0.00, -1.00, 351.6, 15.0)">d</text><text xml:space="preserve" font-family="Helvetica-Light" font-size="64.0" fill="#FEFFFE" transform="matrix(1.00, 0.00, -0.00, -1.00, 390.7, 15.0)">i</text><text xml:space="preserve" font-family="Helvetica-Light" font-size="64.0" fill="#FEFFFE" transform="matrix(1.00, 0.00, -0.00, -1.00, 404.9, 15.0)">e</text><text xml:space="preserve" font-family="Helvetica-Light" font-size="64.0" fill="#FEFFFE" transform="matrix(1.00, 0.00, -0.00, -1.00, 440.5, 15.0)">n</text><text xml:space="preserve" font-family="Helvetica-Light" font-size="64.0" fill="#FEFFFE" transform="matrix(1.00, 0.00, -0.00, -1.00, 476.0, 15.0)">t</text><text xml:space="preserve" font-family="Helvetica-Light" font-size="64.0" fill="#FEFFFE" transform="matrix(1.00, 0.00, -0.00, -1.00, 493.8, 15.0)">s</text></g></svg>