<?xml version="1.0" encoding="UTF-8" standalone="no"?><svg xmlns="http://www.w3.org/2000/svg" xmlns:xlink="http://www.w3.org/1999/xlink" clip-rule="evenodd" stroke-miterlimit="4.00" viewBox="0 0 1920 1080"><desc>SVG generated by Keynote</desc><defs></defs><g transform="matrix(1.00, 0.00, -0.00, -1.00, 0.0, 1080.0)"><path d="M 0.0 1080.0 L 1920.0 1080.0 L 1920.0 0.0 L 0.0 0.0 Z M 0.0 1080.0 " fill="#FEFFFF"></path><text xml:space="preserve" font-family="Helvetica-Light" font-size="52.0" fill="#000000" transform="matrix(1.00, 0.00, -0.00, -1.00, 137.0, 614.0)">ﬁ</text><text xml:space="preserve" font-family="Helvetica-Light" font-size="52.0" fill="#000000" transform="matrix(1.00, 0.00, -0.00, -1.00, 163.0, 614.0)">l</text><text xml:space="preserve" font-family="Helvetica-Light" font-size="52.0" fill="#000000" transform="matrix(1.00, 0.00, -0.00, -1.00, 174.5, 614.0)">l</text><text xml:space="preserve" font-family="Helvetica-Light" font-size="52.0" fill="#000000" transform="matrix(1.00, 0.00, -0.00, -1.00, 186.1, 614.0)">e</text><text xml:space="preserve" font-family="Helvetica-Light" font-size="52.0" fill="#000000" transform="matrix(1.00, 0.00, -0.00, -1.00, 215.0, 614.0)">d</text><text xml:space="preserve" font-family="Helvetica-Light" font-size="52.0" fill="#000000" transform="matrix(1.00, 0.00, -0.00, -1.00, 246.8, 614.0)"> </text><text xml:space="preserve" font-family="Helvetica-Light" font-size="52.0" fill="#000000" transform="matrix(1.00, 0.00, -0.00, -1.00, 261.2, 614.0)">i</text><text xml:space="preserve" font-family="Helvetica-Light" font-size="52.0" fill="#000000" transform="matrix(1.00, 0.00, -0.00, -1.00, 272.8, 614.0)">c</text><text xml:space="preserve" font-family="Helvetica-Light" font-size="52.0" fill="#000000" transform="matrix(1.00, 0.00, -0.00, -1.00, 301.7, 614.0)">e</text><text xml:space="preserve" font-family="Helvetica-Light" font-size="52.0" fill="#000000" transform="matrix(1.00, 0.00, -0.00, -1.00, 330.6, 614.0)">,</text><text xml:space="preserve" font-family="Helvetica-Light" font-size="52.0" fill="#000000" transform="matrix(1.00, 0.00, -0.00, -1.00, 345.1, 614.0)"> </text><text xml:space="preserve" font-family="Helvetica-Light" font-size="52.0" fill="#000000" transform="matrix(1.00, 0.00, -0.00, -1.00, 359.5, 614.0)">g</text><text xml:space="preserve" font-family="Helvetica-Light" font-size="52.0" fill="#000000" transform="matrix(1.00, 0.00, -0.00, -1.00, 391.3, 614.0)">l</text><text xml:space="preserve" font-family="Helvetica-Light" font-size="52.0" fill="#000000" transform="matrix(1.00, 0.00, -0.00, -1.00, 402.8, 614.0)">a</text><text xml:space="preserve" font-family="Helvetica-Light" font-size="52.0" fill="#000000" transform="matrix(1.00, 0.00, -0.00, -1.00, 431.7, 614.0)">s</text><text xml:space="preserve" font-family="Helvetica-Light" font-size="52.0" fill="#000000" transform="matrix(1.00, 0.00, -0.00, -1.00, 457.7, 614.0)">s</text><text xml:space="preserve" font-family="Helvetica-Light" font-size="52.0" fill="#000000" transform="matrix(1.00, 0.00, -0.00, -1.00, 483.7, 614.0)"> </text><text xml:space="preserve" font-family="Helvetica-Light" font-size="52.0" fill="#000000" transform="matrix(1.00, 0.00, -0.00, -1.00, 498.2, 614.0)">ﬁ</text><text xml:space="preserve" font-family="Helvetica-Light" font-size="52.0" fill="#000000" transform="matrix(1.00, 0.00, -0.00, -1.00, 524.2, 614.0)">l</text><text xml:space="preserve" font-family="Helvetica-Light" font-size="52.0" fill="#000000" transform="matrix(1.00, 0.00, -0.00, -1.00, 535.7, 614.0)">l</text><text xml:space="preserve" font-family="Helvetica-Light" font-size="52.0" fill="#000000" transform="matrix(1.00, 0.00, -0.00, -1.00, 547.3, 614.0)">e</text><text xml:space="preserve" font-family="Helvetica-Light" font-size="52.0" fill="#000000" transform="matrix(1.00, 0.00, -0.00, -1.00, 576.2, 614.0)">d</text><text xml:space="preserve" font-family="Helvetica-Light" font-size="52.0" fill="#000000" transform="matrix(1.00, 0.00, -0.00, -1.00, 608.0, 614.0)">,</text><text xml:space="preserve" font-family="Helvetica-Light" font-size="52.0" fill="#000000" transform="matrix(1.00, 0.00, -0.00, -1.00, 622.4, 614.0)"> </text><text xml:space="preserve" font-family="Helvetica-Light" font-size="52.0" fill="#000000" transform="matrix(1.00, 0.00, -0.00, -1.00, 636.9, 614.0)">g</text><text xml:space="preserve" font-family="Helvetica-Light" font-size="52.0" fill="#000000" transform="matrix(1.00, 0.00, -0.00, -1.00, 668.6, 614.0)">l</text><text xml:space="preserve" font-family="Helvetica-Light" font-size="52.0" fill="#000000" transform="matrix(1.00, 0.00, -0.00, -1.00, 680.2, 614.0)">a</text><text xml:space="preserve" font-family="Helvetica-Light" font-size="52.0" fill="#000000" transform="matrix(1.00, 0.00, -0.00, -1.00, 709.1, 614.0)">s</text><text xml:space="preserve" font-family="Helvetica-Light" font-size="52.0" fill="#000000" transform="matrix(1.00, 0.00, -0.00, -1.00, 735.1, 614.0)">s</text><text xml:space="preserve" font-family="Helvetica-Light" font-size="52.0" fill="#000000" transform="matrix(1.00, 0.00, -0.00, -1.00, 761.1, 614.0)"> </text><text xml:space="preserve" font-family="Helvetica-Light" font-size="52.0" fill="#000000" transform="matrix(1.00, 0.00, -0.00, -1.00, 775.6, 614.0)">i</text><text xml:space="preserve" font-family="Helvetica-Light" font-size="52.0" fill="#000000" transform="matrix(1.00, 0.00, -0.00, -1.00, 787.1, 614.0)">c</text><text xml:space="preserve" font-family="Helvetica-Light" font-size="52.0" fill="#000000" transform="matrix(1.00, 0.00, -0.00, -1.00, 816.0, 614.0)">e</text><text xml:space="preserve" font-family="Helvetica-Light" font-size="52.0" fill="#000000" transform="matrix(1.00, 0.00, -0.00, -1.00, 844.9, 614.0)">,</text><text xml:space="preserve" font-family="Helvetica-Light" font-size="52.0" fill="#000000" transform="matrix(1.00, 0.00, -0.00, -1.00, 859.4, 614.0)"> </text><text xml:space="preserve" font-family="Helvetica-Light" font-size="52.0" fill="#000000" transform="matrix(1.00, 0.00, -0.00, -1.00, 873.8, 614.0)">g</text><text xml:space="preserve" font-family="Helvetica-Light" font-size="52.0" fill="#000000" transform="matrix(1.00, 0.00, -0.00, -1.00, 905.6, 614.0)">l</text><text xml:space="preserve" font-family="Helvetica-Light" font-size="52.0" fill="#000000" transform="matrix(1.00, 0.00, -0.00, -1.00, 917.2, 614.0)">a</text><text xml:space="preserve" font-family="Helvetica-Light" font-size="52.0" fill="#000000" transform="matrix(1.00, 0.00, -0.00, -1.00, 946.1, 614.0)">s</text><text xml:space="preserve" font-family="Helvetica-Light" font-size="52.0" fill="#000000" transform="matrix(1.00, 0.00, -0.00, -1.00, 972.1, 614.0)">s</text><text xml:space="preserve" font-family="Helvetica-Light" font-size="52.0" fill="#000000" transform="matrix(1.00, 0.00, -0.00, -1.00, 998.1, 614.0)"> </text><text xml:space="preserve" font-family="Helvetica-Light" font-size="52.0" fill="#000000" transform="matrix(1.00, 0.00, -0.00, -1.00, 1012.5, 614.0)">ﬁ</text><text xml:space="preserve" font-family="Helvetica-Light" font-size="52.0" fill="#000000" transform="matrix(1.00, 0.00, -0.00, -1.00, 1038.5, 614.0)">l</text><text xml:space="preserve" font-family="Helvetica-Light" font-size="52.0" fill="#000000" transform="matrix(1.00, 0.00, -0.00, -1.00, 1050.1, 614.0)">l</text><text xml:space="preserve" font-family="Helvetica-Light" font-size="52.0" fill="#000000" transform="matrix(1.00, 0.00, -0.00, -1.00, 1061.6, 614.0)">e</text><text xml:space="preserve" font-family="Helvetica-Light" font-size="52.0" fill="#000000" transform="matrix(1.00, 0.00, -0.00, -1.00, 1090.5, 614.0)">d</text><text xml:space="preserve" font-family="Helvetica-Light" font-size="52.0" fill="#000000" transform="matrix(1.00, 0.00, -0.00, -1.00, 1122.3, 614.0)"> </text><text xml:space="preserve" font-family="Helvetica-Light" font-size="52.0" fill="#000000" transform="matrix(1.00, 0.00, -0.00, -1.00, 1136.8, 614.0)">i</text><text xml:space="preserve" font-family="Helvetica-Light" font-size="52.0" fill="#000000" transform="matrix(1.00, 0.00, -0.00, -1.00, 1148.3, 614.0)">c</text><text xml:space="preserve" font-family="Helvetica-Light" font-size="52.0" fill="#000000" transform="matrix(1.00, 0.00, -0.00, -1.00, 1177.2, 614.0)">e</text><text xml:space="preserve" font-family="Helvetica-Light" font-size="52.0" fill="#000000" transform="matrix(1.00, 0.00, -0.00, -1.00, 1206.1, 614.0)">,</text><text xml:space="preserve" font-family="Helvetica-Light" font-size="52.0" fill="#000000" transform="matrix(1.00, 0.00, -0.00, -1.00, 1220.6, 614.0)"> </text><text xml:space="preserve" font-family="Helvetica-Light" font-size="52.0" fill="#000000" transform="matrix(1.00, 0.00, -0.00, -1.00, 1235.0, 614.0)">r</text><text xml:space="preserve" font-family="Helvetica-Light" font-size="52.0" fill="#000000" transform="matrix(1.00, 0.00, -0.00, -1.00, 1251.4, 614.0)">o</text><text xml:space="preserve" font-family="Helvetica-Light" font-size="52.0" fill="#000000" transform="matrix(1.00, 0.00, -0.00, -1.00, 1280.3, 614.0)">c</text><text xml:space="preserve" font-family="Helvetica-Light" font-size="52.0" fill="#000000" transform="matrix(1.00, 0.00, -0.00, -1.00, 1309.2, 614.0)">k</text><text xml:space="preserve" font-family="Helvetica-Light" font-size="52.0" fill="#000000" transform="matrix(1.00, 0.00, -0.00, -1.00, 1335.2, 614.0)">s</text><text xml:space="preserve" font-family="Helvetica-Light" font-size="52.0" fill="#000000" transform="matrix(1.00, 0.00, -0.00, -1.00, 1361.2, 614.0)"> </text><text xml:space="preserve" font-family="Helvetica-Light" font-size="52.0" fill="#000000" transform="matrix(1.00, 0.00, -0.00, -1.00, 1375.7, 614.0)">g</text><text xml:space="preserve" font-family="Helvetica-Light" font-size="52.0" fill="#000000" transform="matrix(1.00, 0.00, -0.00, -1.00, 1407.5, 614.0)">l</text><text xml:space="preserve" font-family="Helvetica-Light" font-size="52.0" fill="#000000" transform="matrix(1.00, 0.00, -0.00, -1.00, 1419.0, 614.0)">a</text><text xml:space="preserve" font-family="Helvetica-Light" font-size="52.0" fill="#000000" transform="matrix(1.00, 0.00, -0.00, -1.00, 1447.9, 614.0)">s</text><text xml:space="preserve" font-family="Helvetica-Light" font-size="52.0" fill="#000000" transform="matrix(1.00, 0.00, -0.00, -1.00, 1473.9, 614.0)">s</text><text xml:space="preserve" font-family="Helvetica-Light" font-size="52.0" fill="#000000" transform="matrix(1.00, 0.00, -0.00, -1.00, 1499.9, 614.0)">,</text><text xml:space="preserve" font-family="Helvetica-Light" font-size="52.0" fill="#000000" transform="matrix(1.00, 0.00, -0.00, -1.00, 1514.4, 614.0)"> </text><text xml:space="preserve" font-family="Helvetica-Light" font-size="52.0" fill="#000000" transform="matrix(1.00, 0.00, -0.00, -1.00, 1528.8, 614.0)">i</text><text xml:space="preserve" font-family="Helvetica-Light" font-size="52.0" fill="#000000" transform="matrix(1.00, 0.00, -0.00, -1.00, 1540.4, 614.0)">c</text><text xml:space="preserve" font-family="Helvetica-Light" font-size="52.0" fill="#000000" transform="matrix(1.00, 0.00, -0.00, -1.00, 1569.3, 614.0)">e</text><text xml:space="preserve" font-family="Helvetica-Light" font-size="52.0" fill="#000000" transform="matrix(1.00, 0.00, -0.00, -1.00, 1598.2, 614.0)"> </text><text xml:space="preserve" font-family="Helvetica-Light" font-size="52.0" fill="#000000" transform="matrix(1.00, 0.00, -0.00, -1.00, 137.0, 552.0)">g</text><text xml:space="preserve" font-family="Helvetica-Light" font-size="52.0" fill="#000000" transform="matrix(1.00, 0.00, -0.00, -1.00, 168.8, 552.0)">a</text><text xml:space="preserve" font-family="Helvetica-Light" font-size="52.0" fill="#000000" transform="matrix(1.00, 0.00, -0.00, -1.00, 197.7, 552.0)">r</text><text xml:space="preserve" font-family="Helvetica-Light" font-size="52.0" fill="#000000" transform="matrix(1.00, 0.00, -0.00, -1.00, 215.9, 552.0)">n</text><text xml:space="preserve" font-family="Helvetica-Light" font-size="52.0" fill="#000000" transform="matrix(1.00, 0.00, -0.00, -1.00, 244.8, 552.0)">i</text><text xml:space="preserve" font-family="Helvetica-Light" font-size="52.0" fill="#000000" transform="matrix(1.00, 0.00, -0.00, -1.00, 256.4, 552.0)">s</text><text xml:space="preserve" font-family="Helvetica-Light" font-size="52.0" fill="#000000" transform="matrix(1.00, 0.00, -0.00, -1.00, 282.4, 552.0)">h</text><text xml:space="preserve" font-family="Helvetica-Light" font-size="52.0" fill="#000000" transform="matrix(1.00, 0.00, -0.00, -1.00, 311.3, 552.0)">,</text><text xml:space="preserve" font-family="Helvetica-Light" font-size="52.0" fill="#000000" transform="matrix(1.00, 0.00, -0.00, -1.00, 325.8, 552.0)"> </text><text xml:space="preserve" font-family="Helvetica-Light" font-size="52.0" fill="#000000" transform="matrix(1.00, 0.00, -0.00, -1.00, 340.2, 552.0)">h</text><text xml:space="preserve" font-family="Helvetica-Light" font-size="52.0" fill="#000000" transform="matrix(1.00, 0.00, -0.00, -1.00, 369.1, 552.0)">i</text><text xml:space="preserve" font-family="Helvetica-Light" font-size="52.0" fill="#000000" transform="matrix(1.00, 0.00, -0.00, -1.00, 380.7, 552.0)">g</text><text xml:space="preserve" font-family="Helvetica-Light" font-size="52.0" fill="#000000" transform="matrix(1.00, 0.00, -0.00, -1.00, 412.4, 552.0)">h</text><text xml:space="preserve" font-family="Helvetica-Light" font-size="52.0" fill="#000000" transform="matrix(1.00, 0.00, -0.00, -1.00, 441.4, 552.0)">b</text><text xml:space="preserve" font-family="Helvetica-Light" font-size="52.0" fill="#000000" transform="matrix(1.00, 0.00, -0.00, -1.00, 473.1, 552.0)">a</text><text xml:space="preserve" font-family="Helvetica-Light" font-size="52.0" fill="#000000" transform="matrix(1.00, 0.00, -0.00, -1.00, 502.0, 552.0)">l</text><text xml:space="preserve" font-family="Helvetica-Light" font-size="52.0" fill="#000000" transform="matrix(1.00, 0.00, -0.00, -1.00, 513.6, 552.0)">l</text><text xml:space="preserve" font-family="Helvetica-Light" font-size="52.0" fill="#000000" transform="matrix(1.00, 0.00, -0.00, -1.00, 525.1, 552.0)"> </text><text xml:space="preserve" font-family="Helvetica-Light" font-size="52.0" fill="#000000" transform="matrix(1.00, 0.00, -0.00, -1.00, 539.6, 552.0)">g</text><text xml:space="preserve" font-family="Helvetica-Light" font-size="52.0" fill="#000000" transform="matrix(1.00, 0.00, -0.00, -1.00, 571.4, 552.0)">l</text><text xml:space="preserve" font-family="Helvetica-Light" font-size="52.0" fill="#000000" transform="matrix(1.00, 0.00, -0.00, -1.00, 582.9, 552.0)">a</text><text xml:space="preserve" font-family="Helvetica-Light" font-size="52.0" fill="#000000" transform="matrix(1.00, 0.00, -0.00, -1.00, 611.8, 552.0)">s</text><text xml:space="preserve" font-family="Helvetica-Light" font-size="52.0" fill="#000000" transform="matrix(1.00, 0.00, -0.00, -1.00, 637.8, 552.0)">s</text><text xml:space="preserve" font-family="Helvetica-Light" font-size="52.0" fill="#000000" transform="matrix(1.00, 0.00, -0.00, -1.00, 663.8, 552.0)">,</text><text xml:space="preserve" font-family="Helvetica-Light" font-size="52.0" fill="#000000" transform="matrix(1.00, 0.00, -0.00, -1.00, 678.3, 552.0)"> </text><text xml:space="preserve" font-family="Helvetica-Light" font-size="52.0" fill="#000000" transform="matrix(1.00, 0.00, -0.00, -1.00, 692.7, 552.0)">g</text><text xml:space="preserve" font-family="Helvetica-Light" font-size="52.0" fill="#000000" transform="matrix(1.00, 0.00, -0.00, -1.00, 724.5, 552.0)">a</text><text xml:space="preserve" font-family="Helvetica-Light" font-size="52.0" fill="#000000" transform="matrix(1.00, 0.00, -0.00, -1.00, 753.4, 552.0)">r</text><text xml:space="preserve" font-family="Helvetica-Light" font-size="52.0" fill="#000000" transform="matrix(1.00, 0.00, -0.00, -1.00, 771.7, 552.0)">n</text><text xml:space="preserve" font-family="Helvetica-Light" font-size="52.0" fill="#000000" transform="matrix(1.00, 0.00, -0.00, -1.00, 800.6, 552.0)">i</text><text xml:space="preserve" font-family="Helvetica-Light" font-size="52.0" fill="#000000" transform="matrix(1.00, 0.00, -0.00, -1.00, 812.1, 552.0)">s</text><text xml:space="preserve" font-family="Helvetica-Light" font-size="52.0" fill="#000000" transform="matrix(1.00, 0.00, -0.00, -1.00, 838.1, 552.0)">h</text><text xml:space="preserve" font-family="Helvetica-Light" font-size="52.0" fill="#000000" transform="matrix(1.00, 0.00, -0.00, -1.00, 867.0, 552.0)"> </text><text xml:space="preserve" font-family="Helvetica-Light" font-size="52.0" fill="#000000" transform="matrix(1.00, 0.00, -0.00, -1.00, 881.5, 552.0)">o</text><text xml:space="preserve" font-family="Helvetica-Light" font-size="52.0" fill="#000000" transform="matrix(1.00, 0.00, -0.00, -1.00, 910.4, 552.0)">r</text><text xml:space="preserve" font-family="Helvetica-Light" font-size="52.0" fill="#000000" transform="matrix(1.00, 0.00, -0.00, -1.00, 927.7, 552.0)">a</text><text xml:space="preserve" font-family="Helvetica-Light" font-size="52.0" fill="#000000" transform="matrix(1.00, 0.00, -0.00, -1.00, 956.6, 552.0)">n</text><text xml:space="preserve" font-family="Helvetica-Light" font-size="52.0" fill="#000000" transform="matrix(1.00, 0.00, -0.00, -1.00, 985.5, 552.0)">g</text><text xml:space="preserve" font-family="Helvetica-Light" font-size="52.0" fill="#000000" transform="matrix(1.00, 0.00, -0.00, -1.00, 1017.3, 552.0)">e</text><text xml:space="preserve" font-family="Helvetica-Light" font-size="52.0" fill="#000000" transform="matrix(1.00, 0.00, -0.00, -1.00, 1046.2, 552.0)">,</text><text xml:space="preserve" font-family="Helvetica-Light" font-size="52.0" fill="#000000" transform="matrix(1.00, 0.00, -0.00, -1.00, 1060.7, 552.0)"> </text><text xml:space="preserve" font-family="Helvetica-Light" font-size="52.0" fill="#000000" transform="matrix(1.00, 0.00, -0.00, -1.00, 1075.1, 552.0)">o</text><text xml:space="preserve" font-family="Helvetica-Light" font-size="52.0" fill="#000000" transform="matrix(1.00, 0.00, -0.00, -1.00, 1104.0, 552.0)">r</text><text xml:space="preserve" font-family="Helvetica-Light" font-size="52.0" fill="#000000" transform="matrix(1.00, 0.00, -0.00, -1.00, 1121.4, 552.0)">a</text><text xml:space="preserve" font-family="Helvetica-Light" font-size="52.0" fill="#000000" transform="matrix(1.00, 0.00, -0.00, -1.00, 1150.3, 552.0)">n</text><text xml:space="preserve" font-family="Helvetica-Light" font-size="52.0" fill="#000000" transform="matrix(1.00, 0.00, -0.00, -1.00, 1179.2, 552.0)">g</text><text xml:space="preserve" font-family="Helvetica-Light" font-size="52.0" fill="#000000" transform="matrix(1.00, 0.00, -0.00, -1.00, 1211.0, 552.0)">e</text><text xml:space="preserve" font-family="Helvetica-Light" font-size="52.0" fill="#000000" transform="matrix(1.00, 0.00, -0.00, -1.00, 1239.9, 552.0)"> </text><text xml:space="preserve" font-family="Helvetica-Light" font-size="52.0" fill="#000000" transform="matrix(1.00, 0.00, -0.00, -1.00, 1254.3, 552.0)">t</text><text xml:space="preserve" font-family="Helvetica-Light" font-size="52.0" fill="#000000" transform="matrix(1.00, 0.00, -0.00, -1.00, 1268.8, 552.0)">w</text><text xml:space="preserve" font-family="Helvetica-Light" font-size="52.0" fill="#000000" transform="matrix(1.00, 0.00, -0.00, -1.00, 1306.3, 552.0)">i</text><text xml:space="preserve" font-family="Helvetica-Light" font-size="52.0" fill="#000000" transform="matrix(1.00, 0.00, -0.00, -1.00, 1317.9, 552.0)">s</text><text xml:space="preserve" font-family="Helvetica-Light" font-size="52.0" fill="#000000" transform="matrix(1.00, 0.00, -0.00, -1.00, 1343.9, 552.0)">t</text><text xml:space="preserve" font-family="Helvetica-Light" font-size="52.0" fill="#000000" transform="matrix(1.00, 0.00, -0.00, -1.00, 1358.3, 552.0)">,</text><text xml:space="preserve" font-family="Helvetica-Light" font-size="52.0" fill="#000000" transform="matrix(1.00, 0.00, -0.00, -1.00, 1372.8, 552.0)"> </text><text xml:space="preserve" font-family="Helvetica-Light" font-size="52.0" fill="#000000" transform="matrix(1.00, 0.00, -0.00, -1.00, 1387.2, 552.0)">ﬁ</text><text xml:space="preserve" font-family="Helvetica-Light" font-size="52.0" fill="#000000" transform="matrix(1.00, 0.00, -0.00, -1.00, 1413.2, 552.0)">l</text><text xml:space="preserve" font-family="Helvetica-Light" font-size="52.0" fill="#000000" transform="matrix(1.00, 0.00, -0.00, -1.00, 1424.8, 552.0)">l</text><text xml:space="preserve" font-family="Helvetica-Light" font-size="52.0" fill="#000000" transform="matrix(1.00, 0.00, -0.00, -1.00, 1436.3, 552.0)">e</text><text xml:space="preserve" font-family="Helvetica-Light" font-size="52.0" fill="#000000" transform="matrix(1.00, 0.00, -0.00, -1.00, 1465.2, 552.0)">d</text><text xml:space="preserve" font-family="Helvetica-Light" font-size="52.0" fill="#000000" transform="matrix(1.00, 0.00, -0.00, -1.00, 1497.0, 552.0)"> </text><text xml:space="preserve" font-family="Helvetica-Light" font-size="52.0" fill="#000000" transform="matrix(1.00, 0.00, -0.00, -1.00, 1511.5, 552.0)">i</text><text xml:space="preserve" font-family="Helvetica-Light" font-size="52.0" fill="#000000" transform="matrix(1.00, 0.00, -0.00, -1.00, 1523.0, 552.0)">c</text><text xml:space="preserve" font-family="Helvetica-Light" font-size="52.0" fill="#000000" transform="matrix(1.00, 0.00, -0.00, -1.00, 1551.9, 552.0)">e</text><text xml:space="preserve" font-family="Helvetica-Light" font-size="52.0" fill="#000000" transform="matrix(1.00, 0.00, -0.00, -1.00, 1580.8, 552.0)"> </text><text xml:space="preserve" font-family="Helvetica-Light" font-size="52.0" fill="#000000" transform="matrix(1.00, 0.00, -0.00, -1.00, 137.0, 490.0)">g</text><text xml:space="preserve" font-family="Helvetica-Light" font-size="52.0" fill="#000000" transform="matrix(1.00, 0.00, -0.00, -1.00, 168.8, 490.0)">a</text><text xml:space="preserve" font-family="Helvetica-Light" font-size="52.0" fill="#000000" transform="matrix(1.00, 0.00, -0.00, -1.00, 197.7, 490.0)">r</text><text xml:space="preserve" font-family="Helvetica-Light" font-size="52.0" fill="#000000" transform="matrix(1.00, 0.00, -0.00, -1.00, 215.9, 490.0)">n</text><text xml:space="preserve" font-family="Helvetica-Light" font-size="52.0" fill="#000000" transform="matrix(1.00, 0.00, -0.00, -1.00, 244.8, 490.0)">i</text><text xml:space="preserve" font-family="Helvetica-Light" font-size="52.0" fill="#000000" transform="matrix(1.00, 0.00, -0.00, -1.00, 256.4, 490.0)">s</text><text xml:space="preserve" font-family="Helvetica-Light" font-size="52.0" fill="#000000" transform="matrix(1.00, 0.00, -0.00, -1.00, 282.4, 490.0)">h</text><text xml:space="preserve" font-family="Helvetica-Light" font-size="52.0" fill="#000000" transform="matrix(1.00, 0.00, -0.00, -1.00, 311.3, 490.0)">,</text><text xml:space="preserve" font-family="Helvetica-Light" font-size="52.0" fill="#000000" transform="matrix(1.00, 0.00, -0.00, -1.00, 325.8, 490.0)"> </text><text xml:space="preserve" font-family="Helvetica-Light" font-size="52.0" fill="#000000" transform="matrix(1.00, 0.00, -0.00, -1.00, 340.2, 490.0)">g</text><text xml:space="preserve" font-family="Helvetica-Light" font-size="52.0" fill="#000000" transform="matrix(1.00, 0.00, -0.00, -1.00, 372.0, 490.0)">a</text><text xml:space="preserve" font-family="Helvetica-Light" font-size="52.0" fill="#000000" transform="matrix(1.00, 0.00, -0.00, -1.00, 400.9, 490.0)">r</text><text xml:space="preserve" font-family="Helvetica-Light" font-size="52.0" fill="#000000" transform="matrix(1.00, 0.00, -0.00, -1.00, 419.2, 490.0)">n</text><text xml:space="preserve" font-family="Helvetica-Light" font-size="52.0" fill="#000000" transform="matrix(1.00, 0.00, -0.00, -1.00, 448.1, 490.0)">i</text><text xml:space="preserve" font-family="Helvetica-Light" font-size="52.0" fill="#000000" transform="matrix(1.00, 0.00, -0.00, -1.00, 459.6, 490.0)">s</text><text xml:space="preserve" font-family="Helvetica-Light" font-size="52.0" fill="#000000" transform="matrix(1.00, 0.00, -0.00, -1.00, 485.6, 490.0)">h</text><text xml:space="preserve" font-family="Helvetica-Light" font-size="52.0" fill="#000000" transform="matrix(1.00, 0.00, -0.00, -1.00, 514.5, 490.0)"> </text><text xml:space="preserve" font-family="Helvetica-Light" font-size="52.0" fill="#000000" transform="matrix(1.00, 0.00, -0.00, -1.00, 529.0, 490.0)">o</text><text xml:space="preserve" font-family="Helvetica-Light" font-size="52.0" fill="#000000" transform="matrix(1.00, 0.00, -0.00, -1.00, 557.9, 490.0)">r</text><text xml:space="preserve" font-family="Helvetica-Light" font-size="52.0" fill="#000000" transform="matrix(1.00, 0.00, -0.00, -1.00, 575.2, 490.0)">a</text><text xml:space="preserve" font-family="Helvetica-Light" font-size="52.0" fill="#000000" transform="matrix(1.00, 0.00, -0.00, -1.00, 604.1, 490.0)">n</text><text xml:space="preserve" font-family="Helvetica-Light" font-size="52.0" fill="#000000" transform="matrix(1.00, 0.00, -0.00, -1.00, 633.0, 490.0)">g</text><text xml:space="preserve" font-family="Helvetica-Light" font-size="52.0" fill="#000000" transform="matrix(1.00, 0.00, -0.00, -1.00, 664.8, 490.0)">e</text><text xml:space="preserve" font-family="Helvetica-Light" font-size="52.0" fill="#000000" transform="matrix(1.00, 0.00, -0.00, -1.00, 693.7, 490.0)"> </text><text xml:space="preserve" font-family="Helvetica-Light" font-size="52.0" fill="#000000" transform="matrix(1.00, 0.00, -0.00, -1.00, 708.2, 490.0)">t</text><text xml:space="preserve" font-family="Helvetica-Light" font-size="52.0" fill="#000000" transform="matrix(1.00, 0.00, -0.00, -1.00, 722.6, 490.0)">w</text><text xml:space="preserve" font-family="Helvetica-Light" font-size="52.0" fill="#000000" transform="matrix(1.00, 0.00, -0.00, -1.00, 760.2, 490.0)">i</text><text xml:space="preserve" font-family="Helvetica-Light" font-size="52.0" fill="#000000" transform="matrix(1.00, 0.00, -0.00, -1.00, 771.7, 490.0)">s</text><text xml:space="preserve" font-family="Helvetica-Light" font-size="52.0" fill="#000000" transform="matrix(1.00, 0.00, -0.00, -1.00, 797.7, 490.0)">t</text><text xml:space="preserve" font-family="Helvetica-Light" font-size="52.0" fill="#000000" transform="matrix(1.00, 0.00, -0.00, -1.00, 812.2, 490.0)">,</text><text xml:space="preserve" font-family="Helvetica-Light" font-size="52.0" fill="#000000" transform="matrix(1.00, 0.00, -0.00, -1.00, 826.6, 490.0)"> </text><text xml:space="preserve" font-family="Helvetica-Light" font-size="52.0" fill="#000000" transform="matrix(1.00, 0.00, -0.00, -1.00, 841.1, 490.0)">r</text><text xml:space="preserve" font-family="Helvetica-Light" font-size="52.0" fill="#000000" transform="matrix(1.00, 0.00, -0.00, -1.00, 857.5, 490.0)">o</text><text xml:space="preserve" font-family="Helvetica-Light" font-size="52.0" fill="#000000" transform="matrix(1.00, 0.00, -0.00, -1.00, 886.4, 490.0)">c</text><text xml:space="preserve" font-family="Helvetica-Light" font-size="52.0" fill="#000000" transform="matrix(1.00, 0.00, -0.00, -1.00, 915.3, 490.0)">k</text><text xml:space="preserve" font-family="Helvetica-Light" font-size="52.0" fill="#000000" transform="matrix(1.00, 0.00, -0.00, -1.00, 941.3, 490.0)">s</text><text xml:space="preserve" font-family="Helvetica-Light" font-size="52.0" fill="#000000" transform="matrix(1.00, 0.00, -0.00, -1.00, 967.3, 490.0)"> </text><text xml:space="preserve" font-family="Helvetica-Light" font-size="52.0" fill="#000000" transform="matrix(1.00, 0.00, -0.00, -1.00, 981.7, 490.0)">g</text><text xml:space="preserve" font-family="Helvetica-Light" font-size="52.0" fill="#000000" transform="matrix(1.00, 0.00, -0.00, -1.00, 1013.5, 490.0)">l</text><text xml:space="preserve" font-family="Helvetica-Light" font-size="52.0" fill="#000000" transform="matrix(1.00, 0.00, -0.00, -1.00, 1025.1, 490.0)">a</text><text xml:space="preserve" font-family="Helvetica-Light" font-size="52.0" fill="#000000" transform="matrix(1.00, 0.00, -0.00, -1.00, 1054.0, 490.0)">s</text><text xml:space="preserve" font-family="Helvetica-Light" font-size="52.0" fill="#000000" transform="matrix(1.00, 0.00, -0.00, -1.00, 1080.0, 490.0)">s</text><text xml:space="preserve" font-family="Helvetica-Light" font-size="52.0" fill="#000000" transform="matrix(1.00, 0.00, -0.00, -1.00, 1106.0, 490.0)"> </text><text xml:space="preserve" font-family="Helvetica-Light" font-size="52.0" fill="#000000" transform="matrix(1.00, 0.00, -0.00, -1.00, 1120.4, 490.0)">ﬁ</text><text xml:space="preserve" font-family="Helvetica-Light" font-size="52.0" fill="#000000" transform="matrix(1.00, 0.00, -0.00, -1.00, 1146.4, 490.0)">l</text><text xml:space="preserve" font-family="Helvetica-Light" font-size="52.0" fill="#000000" transform="matrix(1.00, 0.00, -0.00, -1.00, 1158.0, 490.0)">l</text><text xml:space="preserve" font-family="Helvetica-Light" font-size="52.0" fill="#000000" transform="matrix(1.00, 0.00, -0.00, -1.00, 1169.5, 490.0)">e</text><text xml:space="preserve" font-family="Helvetica-Light" font-size="52.0" fill="#000000" transform="matrix(1.00, 0.00, -0.00, -1.00, 1198.4, 490.0)">d</text><text xml:space="preserve" font-family="Helvetica-Light" font-size="52.0" fill="#000000" transform="matrix(1.00, 0.00, -0.00, -1.00, 1230.2, 490.0)">,</text><text xml:space="preserve" font-family="Helvetica-Light" font-size="52.0" fill="#000000" transform="matrix(1.00, 0.00, -0.00, -1.00, 1244.7, 490.0)"> </text><text xml:space="preserve" font-family="Helvetica-Light" font-size="52.0" fill="#000000" transform="matrix(1.00, 0.00, -0.00, -1.00, 1259.1, 490.0)">s</text><text xml:space="preserve" font-family="Helvetica-Light" font-size="52.0" fill="#000000" transform="matrix(1.00, 0.00, -0.00, -1.00, 1285.1, 490.0)">t</text><text xml:space="preserve" font-family="Helvetica-Light" font-size="52.0" fill="#000000" transform="matrix(1.00, 0.00, -0.00, -1.00, 1299.6, 490.0)">r</text><text xml:space="preserve" font-family="Helvetica-Light" font-size="52.0" fill="#000000" transform="matrix(1.00, 0.00, -0.00, -1.00, 1316.9, 490.0)">a</text><text xml:space="preserve" font-family="Helvetica-Light" font-size="52.0" fill="#000000" transform="matrix(1.00, 0.00, -0.00, -1.00, 1345.8, 490.0)">i</text><text xml:space="preserve" font-family="Helvetica-Light" font-size="52.0" fill="#000000" transform="matrix(1.00, 0.00, -0.00, -1.00, 1357.3, 490.0)">n</text><text xml:space="preserve" font-family="Helvetica-Light" font-size="52.0" fill="#000000" transform="matrix(1.00, 0.00, -0.00, -1.00, 1386.2, 490.0)"> </text><text xml:space="preserve" font-family="Helvetica-Light" font-size="52.0" fill="#000000" transform="matrix(1.00, 0.00, -0.00, -1.00, 1400.7, 490.0)">r</text><text xml:space="preserve" font-family="Helvetica-Light" font-size="52.0" fill="#000000" transform="matrix(1.00, 0.00, -0.00, -1.00, 1417.1, 490.0)">o</text><text xml:space="preserve" font-family="Helvetica-Light" font-size="52.0" fill="#000000" transform="matrix(1.00, 0.00, -0.00, -1.00, 1446.0, 490.0)">c</text><text xml:space="preserve" font-family="Helvetica-Light" font-size="52.0" fill="#000000" transform="matrix(1.00, 0.00, -0.00, -1.00, 1474.9, 490.0)">k</text><text xml:space="preserve" font-family="Helvetica-Light" font-size="52.0" fill="#000000" transform="matrix(1.00, 0.00, -0.00, -1.00, 1500.9, 490.0)">s</text><text xml:space="preserve" font-family="Helvetica-Light" font-size="52.0" fill="#000000" transform="matrix(1.00, 0.00, -0.00, -1.00, 1526.9, 490.0)">,</text><text xml:space="preserve" font-family="Helvetica-Light" font-size="52.0" fill="#000000" transform="matrix(1.00, 0.00, -0.00, -1.00, 1541.4, 490.0)"> </text><text xml:space="preserve" font-family="Helvetica-Light" font-size="52.0" fill="#000000" transform="matrix(1.00, 0.00, -0.00, -1.00, 1555.8, 490.0)">s</text><text xml:space="preserve" font-family="Helvetica-Light" font-size="52.0" fill="#000000" transform="matrix(1.00, 0.00, -0.00, -1.00, 1581.8, 490.0)">t</text><text xml:space="preserve" font-family="Helvetica-Light" font-size="52.0" fill="#000000" transform="matrix(1.00, 0.00, -0.00, -1.00, 1596.3, 490.0)">r</text><text xml:space="preserve" font-family="Helvetica-Light" font-size="52.0" fill="#000000" transform="matrix(1.00, 0.00, -0.00, -1.00, 1613.6, 490.0)">a</text><text xml:space="preserve" font-family="Helvetica-Light" font-size="52.0" fill="#000000" transform="matrix(1.00, 0.00, -0.00, -1.00, 1642.5, 490.0)">i</text><text xml:space="preserve" font-family="Helvetica-Light" font-size="52.0" fill="#000000" transform="matrix(1.00, 0.00, -0.00, -1.00, 1654.0, 490.0)">n</text><text xml:space="preserve" font-family="Helvetica-Light" font-size="52.0" fill="#000000" transform="matrix(1.00, 0.00, -0.00, -1.00, 1683.0, 490.0)"> </text><text xml:space="preserve" font-family="Helvetica-Light" font-size="52.0" fill="#000000" transform="matrix(1.00, 0.00, -0.00, -1.00, 137.0, 428.0)">r</text><text xml:space="preserve" font-family="Helvetica-Light" font-size="52.0" fill="#000000" transform="matrix(1.00, 0.00, -0.00, -1.00, 153.4, 428.0)">o</text><text xml:space="preserve" font-family="Helvetica-Light" font-size="52.0" fill="#000000" transform="matrix(1.00, 0.00, -0.00, -1.00, 182.3, 428.0)">c</text><text xml:space="preserve" font-family="Helvetica-Light" font-size="52.0" fill="#000000" transform="matrix(1.00, 0.00, -0.00, -1.00, 211.2, 428.0)">k</text><text xml:space="preserve" font-family="Helvetica-Light" font-size="52.0" fill="#000000" transform="matrix(1.00, 0.00, -0.00, -1.00, 237.2, 428.0)">s</text><text xml:space="preserve" font-family="Helvetica-Light" font-size="52.0" fill="#000000" transform="matrix(1.00, 0.00, -0.00, -1.00, 263.2, 428.0)"> </text><text xml:space="preserve" font-family="Helvetica-Light" font-size="52.0" fill="#000000" transform="matrix(1.00, 0.00, -0.00, -1.00, 277.7, 428.0)">g</text><text xml:space="preserve" font-family="Helvetica-Light" font-size="52.0" fill="#000000" transform="matrix(1.00, 0.00, -0.00, -1.00, 309.4, 428.0)">l</text><text xml:space="preserve" font-family="Helvetica-Light" font-size="52.0" fill="#000000" transform="matrix(1.00, 0.00, -0.00, -1.00, 321.0, 428.0)">a</text><text xml:space="preserve" font-family="Helvetica-Light" font-size="52.0" fill="#000000" transform="matrix(1.00, 0.00, -0.00, -1.00, 349.9, 428.0)">s</text><text xml:space="preserve" font-family="Helvetica-Light" font-size="52.0" fill="#000000" transform="matrix(1.00, 0.00, -0.00, -1.00, 375.9, 428.0)">s</text><text xml:space="preserve" font-family="Helvetica-Light" font-size="52.0" fill="#000000" transform="matrix(1.00, 0.00, -0.00, -1.00, 401.9, 428.0)">,</text><text xml:space="preserve" font-family="Helvetica-Light" font-size="52.0" fill="#000000" transform="matrix(1.00, 0.00, -0.00, -1.00, 416.3, 428.0)"> </text><text xml:space="preserve" font-family="Helvetica-Light" font-size="52.0" fill="#000000" transform="matrix(1.00, 0.00, -0.00, -1.00, 430.8, 428.0)">l</text><text xml:space="preserve" font-family="Helvetica-Light" font-size="52.0" fill="#000000" transform="matrix(1.00, 0.00, -0.00, -1.00, 442.3, 428.0)">i</text><text xml:space="preserve" font-family="Helvetica-Light" font-size="52.0" fill="#000000" transform="matrix(1.00, 0.00, -0.00, -1.00, 453.9, 428.0)">q</text><text xml:space="preserve" font-family="Helvetica-Light" font-size="52.0" fill="#000000" transform="matrix(1.00, 0.00, -0.00, -1.00, 485.7, 428.0)">u</text><text xml:space="preserve" font-family="Helvetica-Light" font-size="52.0" fill="#000000" transform="matrix(1.00, 0.00, -0.00, -1.00, 514.6, 428.0)">i</text><text xml:space="preserve" font-family="Helvetica-Light" font-size="52.0" fill="#000000" transform="matrix(1.00, 0.00, -0.00, -1.00, 526.1, 428.0)">d</text><text xml:space="preserve" font-family="Helvetica-Light" font-size="52.0" fill="#000000" transform="matrix(1.00, 0.00, -0.00, -1.00, 557.9, 428.0)"> </text><text xml:space="preserve" font-family="Helvetica-Light" font-size="52.0" fill="#000000" transform="matrix(1.00, 0.00, -0.00, -1.00, 572.3, 428.0)">i</text><text xml:space="preserve" font-family="Helvetica-Light" font-size="52.0" fill="#000000" transform="matrix(1.00, 0.00, -0.00, -1.00, 583.9, 428.0)">c</text><text xml:space="preserve" font-family="Helvetica-Light" font-size="52.0" fill="#000000" transform="matrix(1.00, 0.00, -0.00, -1.00, 612.8, 428.0)">e</text></g></svg>