<?xml version="1.0" encoding="UTF-8" standalone="no"?><svg xmlns="http://www.w3.org/2000/svg" xmlns:xlink="http://www.w3.org/1999/xlink" clip-rule="evenodd" stroke-miterlimit="4.00" viewBox="0 0 137 59"><desc>SVG generated by Keynote</desc><defs></defs><g transform="matrix(1.00, 0.00, -0.00, -1.00, 0.0, 59.0)"><image xlink:href="../../538C0DDA-5D45-4AD4-B9B6-AF9E15058457/assets/5AA3894E04527D6AD0185DCFAB4AAAC5.png" width="134.00" height="52.00" transform="matrix(1.00, 0.00, -0.00, -1.00, 1.7, 53.6)" opacity="0.50"></image><g><clipPath id="clip-54"><path d="M 4.7 52.6 L 132.8 52.6 L 132.8 6.6 L 4.7 6.6 Z M 4.7 52.6 "></path></clipPath><g clip-path="url(#clip-54)"><image xlink:href="../../4F5A48CE-48E1-4AFC-A0E5-9B5DA62F06D1/assets/A3B0B5B6FA27390CB5A3D2DDF69F2476.jpeg" width="550.00" height="550.00" transform="matrix(0.55, 0.00, -0.00, -0.55, 4.7, 52.6)"></image><path d="M 4.7 52.6 L 132.8 52.6 L 132.8 6.6 L 4.7 6.6 Z M 4.7 52.6 " fill="#009BFC" fill-opacity="0.50"></path></g></g><g><clipPath id="clip-55"><path d="M 0.7 2.6 L 136.8 2.6 L 136.8 56.6 L 0.7 56.6 Z M 0.7 2.6 "></path></clipPath><g clip-path="url(#clip-55)"><text xml:space="preserve" font-family="Helvetica-Light" font-size="32.0" fill="#FEFFFE" transform="matrix(1.00, 0.00, -0.00, -1.00, 9.0, 18.0)">N</text><text xml:space="preserve" font-family="Helvetica-Light" font-size="32.0" fill="#FEFFFE" transform="matrix(1.00, 0.00, -0.00, -1.00, 32.1, 18.0)">u</text><text xml:space="preserve" font-family="Helvetica-Light" font-size="32.0" fill="#FEFFFE" transform="matrix(1.00, 0.00, -0.00, -1.00, 49.9, 18.0)">t</text><text xml:space="preserve" font-family="Helvetica-Light" font-size="32.0" fill="#FEFFFE" transform="matrix(1.00, 0.00, -0.00, -1.00, 58.8, 18.0)">r</text><text xml:space="preserve" font-family="Helvetica-Light" font-size="32.0" fill="#FEFFFE" transform="matrix(1.00, 0.00, -0.00, -1.00, 69.4, 18.0)">i</text><text xml:space="preserve" font-family="Helvetica-Light" font-size="32.0" fill="#FEFFFE" transform="matrix(1.00, 0.00, -0.00, -1.00, 76.6, 18.0)">t</text><text xml:space="preserve" font-family="Helvetica-Light" font-size="32.0" fill="#FEFFFE" transform="matrix(1.00, 0.00, -0.00, -1.00, 85.4, 18.0)">i</text><text xml:space="preserve" font-family="Helvetica-Light" font-size="32.0" fill="#FEFFFE" transform="matrix(1.00, 0.00, -0.00, -1.00, 92.6, 18.0)">o</text><text xml:space="preserve" font-family="Helvetica-Light" font-size="32.0" fill="#FEFFFE" transform="matrix(1.00, 0.00, -0.00, -1.00, 110.3, 18.0)">n</text></g></g></g></svg>