<?xml version="1.0" encoding="UTF-8" standalone="no"?><svg xmlns="http://www.w3.org/2000/svg" xmlns:xlink="http://www.w3.org/1999/xlink" clip-rule="evenodd" stroke-miterlimit="4.00" viewBox="0 0 505 88"><desc>SVG generated by Keynote</desc><defs></defs><g transform="matrix(1.00, 0.00, -0.00, -1.00, 0.0, 88.0)"><path d="M 1.5 86.9 L 503.7 86.9 L 503.7 1.9 L 1.5 1.9 Z M 1.5 86.9 " fill="#3A5360"></path><g><clipPath id="clip-299"><path d="M -10.5 -10.1 L 515.7 -10.1 L 515.7 98.9 L -10.5 98.9 Z M -10.5 -10.1 "></path></clipPath><g clip-path="url(#clip-299)"><text xml:space="preserve" font-family="Helvetica-Light" font-size="64.0" fill="#FEFFFE" transform="matrix(1.00, 0.00, -0.00, -1.00, 6.0, 21.0)">B</text><text xml:space="preserve" font-family="Helvetica-Light" font-size="64.0" fill="#FEFFFE" transform="matrix(1.00, 0.00, -0.00, -1.00, 48.7, 21.0)">a</text><text xml:space="preserve" font-family="Helvetica-Light" font-size="64.0" fill="#FEFFFE" transform="matrix(1.00, 0.00, -0.00, -1.00, 84.3, 21.0)">g</text><text xml:space="preserve" font-family="Helvetica-Light" font-size="64.0" fill="#FEFFFE" transform="matrix(1.00, 0.00, -0.00, -1.00, 123.4, 21.0)"> </text><text xml:space="preserve" font-family="Helvetica-Light" font-size="64.0" fill="#FEFFFE" transform="matrix(1.00, 0.00, -0.00, -1.00, 141.2, 21.0)">o</text><text xml:space="preserve" font-family="Helvetica-Light" font-size="64.0" fill="#FEFFFE" transform="matrix(1.00, 0.00, -0.00, -1.00, 176.8, 21.0)">f</text><text xml:space="preserve" font-family="Helvetica-Light" font-size="64.0" fill="#FEFFFE" transform="matrix(1.00, 0.00, -0.00, -1.00, 194.5, 21.0)"> </text><text xml:space="preserve" font-family="Helvetica-Light" font-size="64.0" fill="#FEFFFE" transform="matrix(1.00, 0.00, -0.00, -1.00, 212.3, 21.0)">D</text><text xml:space="preserve" font-family="Helvetica-Light" font-size="64.0" fill="#FEFFFE" transform="matrix(1.00, 0.00, -0.00, -1.00, 258.5, 21.0)">i</text><text xml:space="preserve" font-family="Helvetica-Light" font-size="64.0" fill="#FEFFFE" transform="matrix(1.00, 0.00, -0.00, -1.00, 272.8, 21.0)">r</text><text xml:space="preserve" font-family="Helvetica-Light" font-size="64.0" fill="#FEFFFE" transform="matrix(1.00, 0.00, -0.00, -1.00, 292.9, 21.0)">e</text><text xml:space="preserve" font-family="Helvetica-Light" font-size="64.0" fill="#FEFFFE" transform="matrix(1.00, 0.00, -0.00, -1.00, 328.5, 21.0)">c</text><text xml:space="preserve" font-family="Helvetica-Light" font-size="64.0" fill="#FEFFFE" transform="matrix(1.00, 0.00, -0.00, -1.00, 364.1, 21.0)">t</text><text xml:space="preserve" font-family="Helvetica-Light" font-size="64.0" fill="#FEFFFE" transform="matrix(1.00, 0.00, -0.00, -1.00, 381.9, 21.0)">i</text><text xml:space="preserve" font-family="Helvetica-Light" font-size="64.0" fill="#FEFFFE" transform="matrix(1.00, 0.00, -0.00, -1.00, 396.1, 21.0)">o</text><text xml:space="preserve" font-family="Helvetica-Light" font-size="64.0" fill="#FEFFFE" transform="matrix(1.00, 0.00, -0.00, -1.00, 431.7, 21.0)">n</text><text xml:space="preserve" font-family="Helvetica-Light" font-size="64.0" fill="#FEFFFE" transform="matrix(1.00, 0.00, -0.00, -1.00, 467.2, 21.0)">s</text></g></g></g></svg>