<?xml version="1.0" encoding="UTF-8" standalone="no"?><svg xmlns="http://www.w3.org/2000/svg" xmlns:xlink="http://www.w3.org/1999/xlink" clip-rule="evenodd" stroke-miterlimit="4.00" viewBox="0 0 85 59"><desc>SVG generated by Keynote</desc><defs></defs><g transform="matrix(1.00, 0.00, -0.00, -1.00, 0.0, 59.0)"><image xlink:href="AB362F8608994E0BCECCB6BB34D23334.png" width="83.00" height="52.00" transform="matrix(0.99, 0.00, -0.00, -1.00, 1.3, 53.4)" opacity="0.50"></image><g><clipPath id="clip-300"><path d="M 4.3 52.4 L 80.9 52.4 L 80.9 6.4 L 4.3 6.4 Z M 4.3 52.4 "></path></clipPath><g clip-path="url(#clip-300)"><image xlink:href="../../4F5A48CE-48E1-4AFC-A0E5-9B5DA62F06D1/assets/A3B0B5B6FA27390CB5A3D2DDF69F2476.jpeg" width="550.00" height="550.00" transform="matrix(0.55, 0.00, -0.00, -0.55, 4.3, 52.4)"></image><path d="M 4.3 52.4 L 80.9 52.4 L 80.9 6.4 L 4.3 6.4 Z M 4.3 52.4 " fill="#FF2A05" fill-opacity="0.50"></path></g></g><g><clipPath id="clip-301"><path d="M 0.3 2.4 L 84.9 2.4 L 84.9 56.4 L 0.3 56.4 Z M 0.3 2.4 "></path></clipPath><g clip-path="url(#clip-301)"><text xml:space="preserve" font-family="Helvetica-Light" font-size="32.0" fill="#FEFFFE" transform="matrix(1.00, 0.00, -0.00, -1.00, 9.0, 18.0)">N</text><text xml:space="preserve" font-family="Helvetica-Light" font-size="32.0" fill="#FEFFFE" transform="matrix(1.00, 0.00, -0.00, -1.00, 32.1, 18.0)">M</text><text xml:space="preserve" font-family="Helvetica-Light" font-size="32.0" fill="#FEFFFE" transform="matrix(1.00, 0.00, -0.00, -1.00, 58.8, 18.0)">F</text></g></g></g></svg>