<?xml version="1.0" encoding="UTF-8" standalone="no"?><svg xmlns="http://www.w3.org/2000/svg" xmlns:xlink="http://www.w3.org/1999/xlink" clip-rule="evenodd" stroke-miterlimit="4.00" viewBox="0 0 80 49"><desc>SVG generated by Keynote</desc><defs></defs><g transform="matrix(1.00, 0.00, -0.00, -1.00, 0.0, 49.0)"><g><clipPath id="clip-44"><path d="M 1.8 47.6 L 78.4 47.6 L 78.4 1.6 L 1.8 1.6 Z M 1.8 47.6 "></path></clipPath><g clip-path="url(#clip-44)"><image xlink:href="../../4F5A48CE-48E1-4AFC-A0E5-9B5DA62F06D1/assets/A3B0B5B6FA27390CB5A3D2DDF69F2476.jpeg" width="550.00" height="550.00" transform="matrix(0.55, 0.00, -0.00, -0.55, 1.8, 47.6)"></image><path d="M 1.8 47.6 L 78.4 47.6 L 78.4 1.6 L 1.8 1.6 Z M 1.8 47.6 " fill="#009BFC" fill-opacity="0.50"></path></g></g><g><clipPath id="clip-45"><path d="M -2.2 -2.4 L 82.4 -2.4 L 82.4 51.6 L -2.2 51.6 Z M -2.2 -2.4 "></path></clipPath><g clip-path="url(#clip-45)"><text xml:space="preserve" font-family="Helvetica-Light" font-size="32.0" fill="#FEFFFE" transform="matrix(1.00, 0.00, -0.00, -1.00, 6.0, 13.0)">T</text><text xml:space="preserve" font-family="Helvetica-Light" font-size="32.0" fill="#FEFFFE" transform="matrix(1.00, 0.00, -0.00, -1.00, 20.2, 13.0)">a</text><text xml:space="preserve" font-family="Helvetica-Light" font-size="32.0" fill="#FEFFFE" transform="matrix(1.00, 0.00, -0.00, -1.00, 38.0, 13.0)">g</text><text xml:space="preserve" font-family="Helvetica-Light" font-size="32.0" fill="#FEFFFE" transform="matrix(1.00, 0.00, -0.00, -1.00, 57.6, 13.0)">s</text></g></g></g></svg>