<?xml version="1.0" encoding="UTF-8" standalone="no"?><svg xmlns="http://www.w3.org/2000/svg" xmlns:xlink="http://www.w3.org/1999/xlink" clip-rule="evenodd" stroke-miterlimit="4.00" viewBox="0 0 1199 53"><desc>SVG generated by Keynote</desc><defs></defs><g transform="matrix(1.00, 0.00, -0.00, -1.00, 0.0, 53.0)"><text xml:space="preserve" font-family="Helvetica-Light" font-size="39.0" fill="#000000" transform="matrix(1.00, 0.00, -0.00, -1.00, 0.4, 17.4)">•</text><text xml:space="preserve" font-family="Helvetica-Light" font-size="52.0" fill="#000000" transform="matrix(1.00, 0.00, -0.00, -1.00, 50.0, 13.0)">R</text><text xml:space="preserve" font-family="Helvetica-Light" font-size="52.0" fill="#000000" transform="matrix(1.00, 0.00, -0.00, -1.00, 84.7, 13.0)">e</text><text xml:space="preserve" font-family="Helvetica-Light" font-size="52.0" fill="#000000" transform="matrix(1.00, 0.00, -0.00, -1.00, 113.6, 13.0)">ﬁ</text><text xml:space="preserve" font-family="Helvetica-Light" font-size="52.0" fill="#000000" transform="matrix(1.00, 0.00, -0.00, -1.00, 139.6, 13.0)">n</text><text xml:space="preserve" font-family="Helvetica-Light" font-size="52.0" fill="#000000" transform="matrix(1.00, 0.00, -0.00, -1.00, 168.5, 13.0)">e</text><text xml:space="preserve" font-family="Helvetica-Light" font-size="52.0" fill="#000000" transform="matrix(1.00, 0.00, -0.00, -1.00, 197.4, 13.0)">m</text><text xml:space="preserve" font-family="Helvetica-Light" font-size="52.0" fill="#000000" transform="matrix(1.00, 0.00, -0.00, -1.00, 240.7, 13.0)">e</text><text xml:space="preserve" font-family="Helvetica-Light" font-size="52.0" fill="#000000" transform="matrix(1.00, 0.00, -0.00, -1.00, 269.6, 13.0)">n</text><text xml:space="preserve" font-family="Helvetica-Light" font-size="52.0" fill="#000000" transform="matrix(1.00, 0.00, -0.00, -1.00, 298.6, 13.0)">t</text><text xml:space="preserve" font-family="Helvetica-Light" font-size="52.0" fill="#000000" transform="matrix(1.00, 0.00, -0.00, -1.00, 313.0, 13.0)">s</text><text xml:space="preserve" font-family="Helvetica-Light" font-size="52.0" fill="#000000" transform="matrix(1.00, 0.00, -0.00, -1.00, 339.0, 13.0)"> </text><text xml:space="preserve" font-family="Helvetica-Light" font-size="52.0" fill="#000000" transform="matrix(1.00, 0.00, -0.00, -1.00, 353.5, 13.0)">t</text><text xml:space="preserve" font-family="Helvetica-Light" font-size="52.0" fill="#000000" transform="matrix(1.00, 0.00, -0.00, -1.00, 367.9, 13.0)">o</text><text xml:space="preserve" font-family="Helvetica-Light" font-size="52.0" fill="#000000" transform="matrix(1.00, 0.00, -0.00, -1.00, 396.8, 13.0)"> </text><text xml:space="preserve" font-family="Helvetica-Light" font-size="52.0" fill="#000000" transform="matrix(1.00, 0.00, -0.00, -1.00, 411.3, 13.0)">u</text><text xml:space="preserve" font-family="Helvetica-Light" font-size="52.0" fill="#000000" transform="matrix(1.00, 0.00, -0.00, -1.00, 440.2, 13.0)">s</text><text xml:space="preserve" font-family="Helvetica-Light" font-size="52.0" fill="#000000" transform="matrix(1.00, 0.00, -0.00, -1.00, 466.2, 13.0)">e</text><text xml:space="preserve" font-family="Helvetica-Light" font-size="52.0" fill="#000000" transform="matrix(1.00, 0.00, -0.00, -1.00, 495.1, 13.0)">r</text><text xml:space="preserve" font-family="Helvetica-Light" font-size="52.0" fill="#000000" transform="matrix(1.00, 0.00, -0.00, -1.00, 512.4, 13.0)"> </text><text xml:space="preserve" font-family="Helvetica-Light" font-size="52.0" fill="#000000" transform="matrix(1.00, 0.00, -0.00, -1.00, 526.9, 13.0)">i</text><text xml:space="preserve" font-family="Helvetica-Light" font-size="52.0" fill="#000000" transform="matrix(1.00, 0.00, -0.00, -1.00, 538.4, 13.0)">n</text><text xml:space="preserve" font-family="Helvetica-Light" font-size="52.0" fill="#000000" transform="matrix(1.00, 0.00, -0.00, -1.00, 567.3, 13.0)">t</text><text xml:space="preserve" font-family="Helvetica-Light" font-size="52.0" fill="#000000" transform="matrix(1.00, 0.00, -0.00, -1.00, 581.8, 13.0)">e</text><text xml:space="preserve" font-family="Helvetica-Light" font-size="52.0" fill="#000000" transform="matrix(1.00, 0.00, -0.00, -1.00, 610.7, 13.0)">r</text><text xml:space="preserve" font-family="Helvetica-Light" font-size="52.0" fill="#000000" transform="matrix(1.00, 0.00, -0.00, -1.00, 628.0, 13.0)">a</text><text xml:space="preserve" font-family="Helvetica-Light" font-size="52.0" fill="#000000" transform="matrix(1.00, 0.00, -0.00, -1.00, 656.9, 13.0)">c</text><text xml:space="preserve" font-family="Helvetica-Light" font-size="52.0" fill="#000000" transform="matrix(1.00, 0.00, -0.00, -1.00, 685.9, 13.0)">t</text><text xml:space="preserve" font-family="Helvetica-Light" font-size="52.0" fill="#000000" transform="matrix(1.00, 0.00, -0.00, -1.00, 700.3, 13.0)">i</text><text xml:space="preserve" font-family="Helvetica-Light" font-size="52.0" fill="#000000" transform="matrix(1.00, 0.00, -0.00, -1.00, 711.9, 13.0)">o</text><text xml:space="preserve" font-family="Helvetica-Light" font-size="52.0" fill="#000000" transform="matrix(1.00, 0.00, -0.00, -1.00, 740.8, 13.0)">n</text><text xml:space="preserve" font-family="Helvetica-Light" font-size="52.0" fill="#000000" transform="matrix(1.00, 0.00, -0.00, -1.00, 769.7, 13.0)"> </text><text xml:space="preserve" font-family="Helvetica-Light" font-size="52.0" fill="#000000" transform="matrix(1.00, 0.00, -0.00, -1.00, 784.1, 13.0)">o</text><text xml:space="preserve" font-family="Helvetica-Light" font-size="52.0" fill="#000000" transform="matrix(1.00, 0.00, -0.00, -1.00, 813.0, 13.0)">n</text><text xml:space="preserve" font-family="Helvetica-Light" font-size="52.0" fill="#000000" transform="matrix(1.00, 0.00, -0.00, -1.00, 842.0, 13.0)"> </text><text xml:space="preserve" font-family="Helvetica-Light" font-size="52.0" fill="#000000" transform="matrix(1.00, 0.00, -0.00, -1.00, 856.4, 13.0)">t</text><text xml:space="preserve" font-family="Helvetica-Light" font-size="52.0" fill="#000000" transform="matrix(1.00, 0.00, -0.00, -1.00, 870.9, 13.0)">h</text><text xml:space="preserve" font-family="Helvetica-Light" font-size="52.0" fill="#000000" transform="matrix(1.00, 0.00, -0.00, -1.00, 899.8, 13.0)">e</text><text xml:space="preserve" font-family="Helvetica-Light" font-size="52.0" fill="#000000" transform="matrix(1.00, 0.00, -0.00, -1.00, 928.7, 13.0)"> </text><text xml:space="preserve" font-family="Helvetica-Light" font-size="52.0" fill="#000000" transform="matrix(1.00, 0.00, -0.00, -1.00, 943.2, 13.0)">a</text><text xml:space="preserve" font-family="Helvetica-Light" font-size="52.0" fill="#000000" transform="matrix(1.00, 0.00, -0.00, -1.00, 972.1, 13.0)">p</text><text xml:space="preserve" font-family="Helvetica-Light" font-size="52.0" fill="#000000" transform="matrix(1.00, 0.00, -0.00, -1.00, 1003.8, 13.0)">p</text><text xml:space="preserve" font-family="Helvetica-Light" font-size="52.0" fill="#000000" transform="matrix(1.00, 0.00, -0.00, -1.00, 1035.6, 13.0)">l</text><text xml:space="preserve" font-family="Helvetica-Light" font-size="52.0" fill="#000000" transform="matrix(1.00, 0.00, -0.00, -1.00, 1047.2, 13.0)">i</text><text xml:space="preserve" font-family="Helvetica-Light" font-size="52.0" fill="#000000" transform="matrix(1.00, 0.00, -0.00, -1.00, 1058.7, 13.0)">c</text><text xml:space="preserve" font-family="Helvetica-Light" font-size="52.0" fill="#000000" transform="matrix(1.00, 0.00, -0.00, -1.00, 1087.6, 13.0)">a</text><text xml:space="preserve" font-family="Helvetica-Light" font-size="52.0" fill="#000000" transform="matrix(1.00, 0.00, -0.00, -1.00, 1116.5, 13.0)">t</text><text xml:space="preserve" font-family="Helvetica-Light" font-size="52.0" fill="#000000" transform="matrix(1.00, 0.00, -0.00, -1.00, 1131.0, 13.0)">i</text><text xml:space="preserve" font-family="Helvetica-Light" font-size="52.0" fill="#000000" transform="matrix(1.00, 0.00, -0.00, -1.00, 1142.5, 13.0)">o</text><text xml:space="preserve" font-family="Helvetica-Light" font-size="52.0" fill="#000000" transform="matrix(1.00, 0.00, -0.00, -1.00, 1171.4, 13.0)">n</text></g></svg>