<?xml version="1.0" encoding="UTF-8" standalone="no"?><svg xmlns="http://www.w3.org/2000/svg" xmlns:xlink="http://www.w3.org/1999/xlink" clip-rule="evenodd" stroke-miterlimit="4.00" viewBox="0 0 501 63"><desc>SVG generated by Keynote</desc><defs></defs><g transform="matrix(1.00, 0.00, -0.00, -1.00, 0.0, 63.0)"><text xml:space="preserve" font-family="Helvetica-Light" font-size="64.0" fill="#FEFFFE" transform="matrix(1.00, 0.00, -0.00, -1.00, -3.0, 15.0)">M</text><text xml:space="preserve" font-family="Helvetica-Light" font-size="64.0" fill="#FEFFFE" transform="matrix(1.00, 0.00, -0.00, -1.00, 50.3, 15.0)">a</text><text xml:space="preserve" font-family="Helvetica-Light" font-size="64.0" fill="#FEFFFE" transform="matrix(1.00, 0.00, -0.00, -1.00, 85.9, 15.0)">t</text><text xml:space="preserve" font-family="Helvetica-Light" font-size="64.0" fill="#FEFFFE" transform="matrix(1.00, 0.00, -0.00, -1.00, 103.7, 15.0)">c</text><text xml:space="preserve" font-family="Helvetica-Light" font-size="64.0" fill="#FEFFFE" transform="matrix(1.00, 0.00, -0.00, -1.00, 139.3, 15.0)">h</text><text xml:space="preserve" font-family="Helvetica-Light" font-size="64.0" fill="#FEFFFE" transform="matrix(1.00, 0.00, -0.00, -1.00, 174.9, 15.0)">e</text><text xml:space="preserve" font-family="Helvetica-Light" font-size="64.0" fill="#FEFFFE" transform="matrix(1.00, 0.00, -0.00, -1.00, 210.4, 15.0)">d</text><text xml:space="preserve" font-family="Helvetica-Light" font-size="64.0" fill="#FEFFFE" transform="matrix(1.00, 0.00, -0.00, -1.00, 249.5, 15.0)"> </text><text xml:space="preserve" font-family="Helvetica-Light" font-size="64.0" fill="#FEFFFE" transform="matrix(1.00, 0.00, -0.00, -1.00, 267.3, 15.0)">R</text><text xml:space="preserve" font-family="Helvetica-Light" font-size="64.0" fill="#FEFFFE" transform="matrix(1.00, 0.00, -0.00, -1.00, 310.0, 15.0)">e</text><text xml:space="preserve" font-family="Helvetica-Light" font-size="64.0" fill="#FEFFFE" transform="matrix(1.00, 0.00, -0.00, -1.00, 345.6, 15.0)">c</text><text xml:space="preserve" font-family="Helvetica-Light" font-size="64.0" fill="#FEFFFE" transform="matrix(1.00, 0.00, -0.00, -1.00, 381.2, 15.0)">i</text><text xml:space="preserve" font-family="Helvetica-Light" font-size="64.0" fill="#FEFFFE" transform="matrix(1.00, 0.00, -0.00, -1.00, 395.4, 15.0)">p</text><text xml:space="preserve" font-family="Helvetica-Light" font-size="64.0" fill="#FEFFFE" transform="matrix(1.00, 0.00, -0.00, -1.00, 434.5, 15.0)">e</text><text xml:space="preserve" font-family="Helvetica-Light" font-size="64.0" fill="#FEFFFE" transform="matrix(1.00, 0.00, -0.00, -1.00, 470.1, 15.0)">s</text></g></svg>