<?xml version="1.0" encoding="UTF-8" standalone="no"?><svg xmlns="http://www.w3.org/2000/svg" xmlns:xlink="http://www.w3.org/1999/xlink" clip-rule="evenodd" stroke-miterlimit="4.00" viewBox="0 0 195 78"><desc>SVG generated by Keynote</desc><defs></defs><g transform="matrix(1.00, 0.00, -0.00, -1.00, 0.0, 78.0)"><image xlink:href="748ADB321BC6828EFC4DA7CA3DED09AD.png" width="193.00" height="71.00" transform="matrix(1.00, 0.00, -0.00, -1.00, 1.3, 72.7)" opacity="0.50"></image><path d="M 27.3 71.7 L 168.0 71.7 C 174.6 71.7 177.9 71.7 181.4 70.5 C 185.3 69.1 188.4 66.1 189.8 62.2 C 190.9 58.6 190.9 55.3 190.9 48.6 L 190.9 29.6 C 190.9 23.1 190.9 19.7 189.8 16.2 C 188.4 12.3 185.3 9.2 181.4 7.8 C 177.9 6.7 174.6 6.7 167.9 6.7 L 27.3 6.7 C 20.7 6.7 17.4 6.7 13.8 7.8 C 9.9 9.2 6.9 12.3 5.5 16.2 C 4.3 19.7 4.3 23.1 4.3 29.7 L 4.3 48.7 C 4.3 55.3 4.3 58.6 5.5 62.2 C 6.9 66.1 9.9 69.1 13.8 70.5 C 17.4 71.7 20.7 71.7 27.4 71.7 Z M 27.3 71.7 " fill="#6FBF40"></path><g><clipPath id="clip-101"><path d="M 0.8 6.7 L 194.4 6.7 L 194.4 71.7 L 0.8 71.7 Z M 0.8 6.7 "></path></clipPath><g clip-path="url(#clip-101)"><text xml:space="preserve" font-family="Helvetica-Light" font-size="32.0" fill="#000000" transform="matrix(1.00, 0.00, -0.00, -1.00, 17.0, 27.0)">I</text><text xml:space="preserve" font-family="Helvetica-Light" font-size="32.0" fill="#000000" transform="matrix(1.00, 0.00, -0.00, -1.00, 25.9, 27.0)">n</text><text xml:space="preserve" font-family="Helvetica-Light" font-size="32.0" fill="#000000" transform="matrix(1.00, 0.00, -0.00, -1.00, 43.7, 27.0)">g</text><text xml:space="preserve" font-family="Helvetica-Light" font-size="32.0" fill="#000000" transform="matrix(1.00, 0.00, -0.00, -1.00, 63.2, 27.0)">r</text><text xml:space="preserve" font-family="Helvetica-Light" font-size="32.0" fill="#000000" transform="matrix(1.00, 0.00, -0.00, -1.00, 73.3, 27.0)">e</text><text xml:space="preserve" font-family="Helvetica-Light" font-size="32.0" fill="#000000" transform="matrix(1.00, 0.00, -0.00, -1.00, 91.1, 27.0)">d</text><text xml:space="preserve" font-family="Helvetica-Light" font-size="32.0" fill="#000000" transform="matrix(1.00, 0.00, -0.00, -1.00, 110.7, 27.0)">i</text><text xml:space="preserve" font-family="Helvetica-Light" font-size="32.0" fill="#000000" transform="matrix(1.00, 0.00, -0.00, -1.00, 117.8, 27.0)">e</text><text xml:space="preserve" font-family="Helvetica-Light" font-size="32.0" fill="#000000" transform="matrix(1.00, 0.00, -0.00, -1.00, 135.6, 27.0)">n</text><text xml:space="preserve" font-family="Helvetica-Light" font-size="32.0" fill="#000000" transform="matrix(1.00, 0.00, -0.00, -1.00, 153.4, 27.0)">t</text><text xml:space="preserve" font-family="Helvetica-Light" font-size="32.0" fill="#000000" transform="matrix(1.00, 0.00, -0.00, -1.00, 162.2, 27.0)">s</text></g></g></g></svg>