<?xml version="1.0" encoding="UTF-8" standalone="no"?><svg xmlns="http://www.w3.org/2000/svg" xmlns:xlink="http://www.w3.org/1999/xlink" clip-rule="evenodd" stroke-miterlimit="4.00" viewBox="0 0 1920 1080"><desc>SVG generated by Keynote</desc><defs></defs><g transform="matrix(1.00, 0.00, -0.00, -1.00, 0.0, 1080.0)"><path d="M 0.0 1080.0 L 1920.0 1080.0 L 1920.0 0.0 L 0.0 0.0 Z M 0.0 1080.0 " fill="#DCEEF6"></path><path d="M 0.0 0.0 L 313.3 0.0 " fill="none" stroke="#000000" stroke-width="2.00" transform="matrix(0.00, 1.00, 1.00, 0.00, 1408.5, 383.4)"></path><path d="M 0.0 0.0 L 82.4 0.0 " fill="none" stroke="#000000" stroke-width="2.00" transform="matrix(1.00, 0.00, 0.00, -1.00, 1408.0, 696.4)"></path><path d="M 0.0 0.0 L 82.4 0.0 " fill="none" stroke="#000000" stroke-width="2.00" transform="matrix(1.00, 0.00, 0.00, -1.00, 1408.0, 618.2)"></path><path d="M 0.0 0.0 L 82.4 0.0 " fill="none" stroke="#000000" stroke-width="2.00" transform="matrix(1.00, 0.00, 0.00, -1.00, 1408.0, 540.0)"></path><path d="M 0.0 0.0 L 82.4 0.0 " fill="none" stroke="#000000" stroke-width="2.00" transform="matrix(1.00, 0.00, 0.00, -1.00, 1408.0, 461.8)"></path><path d="M 0.0 0.0 L 82.4 0.0 " fill="none" stroke="#000000" stroke-width="2.00" transform="matrix(1.00, 0.00, 0.00, -1.00, 1408.0, 383.6)"></path><path d="M 0.0 0.0 L 78.4 0.0 L 79.4 0.0 " fill="none" stroke="#000000" stroke-width="2.00" transform="matrix(1.00, 0.00, 0.00, -1.00, 1326.0, 540.0)"></path><path d="M 1408.5 544.0 C 1410.7 544.0 1412.5 542.2 1412.5 540.0 C 1412.5 537.8 1410.7 536.0 1408.5 536.0 C 1406.3 536.0 1404.5 537.8 1404.5 540.0 C 1404.5 542.2 1406.3 544.0 1408.5 544.0 Z M 1408.5 544.0 " fill="#000000"></path><text xml:space="preserve" font-family="Helvetica-Light" font-size="112.0" fill="#000000" transform="matrix(1.00, 0.00, -0.00, -1.00, 397.0, 952.0)">R</text><text xml:space="preserve" font-family="Helvetica-Light" font-size="112.0" fill="#000000" transform="matrix(1.00, 0.00, -0.00, -1.00, 471.7, 952.0)">e</text><text xml:space="preserve" font-family="Helvetica-Light" font-size="112.0" fill="#000000" transform="matrix(1.00, 0.00, -0.00, -1.00, 534.0, 952.0)">c</text><text xml:space="preserve" font-family="Helvetica-Light" font-size="112.0" fill="#000000" transform="matrix(1.00, 0.00, -0.00, -1.00, 596.2, 952.0)">i</text><text xml:space="preserve" font-family="Helvetica-Light" font-size="112.0" fill="#000000" transform="matrix(1.00, 0.00, -0.00, -1.00, 621.1, 952.0)">p</text><text xml:space="preserve" font-family="Helvetica-Light" font-size="112.0" fill="#000000" transform="matrix(1.00, 0.00, -0.00, -1.00, 689.5, 952.0)">e</text><text xml:space="preserve" font-family="Helvetica-Light" font-size="112.0" fill="#000000" transform="matrix(1.00, 0.00, -0.00, -1.00, 751.8, 952.0)"> </text><text xml:space="preserve" font-family="Helvetica-Light" font-size="112.0" fill="#000000" transform="matrix(1.00, 0.00, -0.00, -1.00, 783.0, 952.0)">f</text><text xml:space="preserve" font-family="Helvetica-Light" font-size="112.0" fill="#000000" transform="matrix(1.00, 0.00, -0.00, -1.00, 814.1, 952.0)">o</text><text xml:space="preserve" font-family="Helvetica-Light" font-size="112.0" fill="#000000" transform="matrix(1.00, 0.00, -0.00, -1.00, 876.4, 952.0)">r</text><text xml:space="preserve" font-family="Helvetica-Light" font-size="112.0" fill="#000000" transform="matrix(1.00, 0.00, -0.00, -1.00, 913.7, 952.0)"> </text><text xml:space="preserve" font-family="Helvetica-Light" font-size="112.0" fill="#000000" transform="matrix(1.00, 0.00, -0.00, -1.00, 944.8, 952.0)">S</text><text xml:space="preserve" font-family="Helvetica-Light" font-size="112.0" fill="#000000" transform="matrix(1.00, 0.00, -0.00, -1.00, 1013.2, 952.0)">t</text><text xml:space="preserve" font-family="Helvetica-Light" font-size="112.0" fill="#000000" transform="matrix(1.00, 0.00, -0.00, -1.00, 1044.4, 952.0)">o</text><text xml:space="preserve" font-family="Helvetica-Light" font-size="112.0" fill="#000000" transform="matrix(1.00, 0.00, -0.00, -1.00, 1106.6, 952.0)">n</text><text xml:space="preserve" font-family="Helvetica-Light" font-size="112.0" fill="#000000" transform="matrix(1.00, 0.00, -0.00, -1.00, 1168.9, 952.0)">e</text><text xml:space="preserve" font-family="Helvetica-Light" font-size="112.0" fill="#000000" transform="matrix(1.00, 0.00, -0.00, -1.00, 1231.2, 952.0)"> </text><text xml:space="preserve" font-family="Helvetica-Light" font-size="112.0" fill="#000000" transform="matrix(1.00, 0.00, -0.00, -1.00, 1262.3, 952.0)">S</text><text xml:space="preserve" font-family="Helvetica-Light" font-size="112.0" fill="#000000" transform="matrix(1.00, 0.00, -0.00, -1.00, 1330.7, 952.0)">o</text><text xml:space="preserve" font-family="Helvetica-Light" font-size="112.0" fill="#000000" transform="matrix(1.00, 0.00, -0.00, -1.00, 1393.0, 952.0)">u</text><text xml:space="preserve" font-family="Helvetica-Light" font-size="112.0" fill="#000000" transform="matrix(1.00, 0.00, -0.00, -1.00, 1455.3, 952.0)">p</text><image xlink:href="../../232ACC8C-DA5A-443C-9D1D-CCF2A5A78B08/assets/F7C2A6DA6DBD5622FE470D833B3F6C95.png" width="222.00" height="109.00" transform="matrix(1.00, 0.00, -0.00, -1.00, 275.1, 592.6)" opacity="0.50"></image><path d="M 301.7 591.6 L 470.9 591.6 C 477.7 591.6 481.1 591.6 484.8 590.4 C 488.8 588.9 491.9 585.8 493.4 581.8 C 494.6 578.1 494.6 574.7 494.6 567.8 L 494.6 512.1 C 494.6 505.3 494.6 501.9 493.4 498.2 C 491.9 494.2 488.8 491.1 484.8 489.6 C 481.1 488.4 477.7 488.4 470.8 488.4 L 301.7 488.4 C 295.0 488.4 291.5 488.4 287.9 489.6 C 283.9 491.1 280.7 494.2 279.3 498.2 C 278.1 501.9 278.1 505.3 278.1 512.2 L 278.1 567.9 C 278.1 574.7 278.1 578.1 279.3 581.8 C 280.7 585.8 283.9 588.9 287.9 590.4 C 291.5 591.6 295.0 591.6 301.8 591.6 Z M 301.7 591.6 " fill="#51A7F9"></path><g><clipPath id="clip-14"><path d="M 269.6 488.4 L 503.1 488.4 L 503.1 591.6 L 269.6 591.6 Z M 269.6 488.4 "></path></clipPath><g clip-path="url(#clip-14)"><text xml:space="preserve" font-family="Helvetica-Bold" font-weight="bold" font-size="50.0" fill="#000000" transform="matrix(1.00, 0.00, -0.00, -1.00, 304.0, 521.0)">R</text><text xml:space="preserve" font-family="Helvetica-Bold" font-weight="bold" font-size="50.0" fill="#000000" transform="matrix(1.00, 0.00, -0.00, -1.00, 340.1, 521.0)">e</text><text xml:space="preserve" font-family="Helvetica-Bold" font-weight="bold" font-size="50.0" fill="#000000" transform="matrix(1.00, 0.00, -0.00, -1.00, 367.9, 521.0)">c</text><text xml:space="preserve" font-family="Helvetica-Bold" font-weight="bold" font-size="50.0" fill="#000000" transform="matrix(1.00, 0.00, -0.00, -1.00, 395.8, 521.0)">i</text><text xml:space="preserve" font-family="Helvetica-Bold" font-weight="bold" font-size="50.0" fill="#000000" transform="matrix(1.00, 0.00, -0.00, -1.00, 409.7, 521.0)">p</text><text xml:space="preserve" font-family="Helvetica-Bold" font-weight="bold" font-size="50.0" fill="#000000" transform="matrix(1.00, 0.00, -0.00, -1.00, 440.2, 521.0)">e</text></g></g><image xlink:href="../../63D399A3-35E1-45FF-B287-06BE5905E8D9/assets/012DA33ECD4E2772276F3DCCEB1B19FE.png" width="163.00" height="71.00" transform="matrix(1.00, 0.00, -0.00, -1.00, 668.0, 573.5)" opacity="0.50"></image><path d="M 693.9 572.5 L 804.8 572.5 C 811.4 572.5 814.7 572.5 818.2 571.4 C 822.1 569.9 825.2 566.9 826.6 563.0 C 827.7 559.5 827.7 556.1 827.7 549.4 L 827.7 530.5 C 827.7 523.9 827.7 520.5 826.6 517.0 C 825.2 513.1 822.1 510.1 818.2 508.6 C 814.7 507.5 811.4 507.5 804.7 507.5 L 693.9 507.5 C 687.4 507.5 684.0 507.5 680.5 508.6 C 676.6 510.1 673.5 513.1 672.1 517.0 C 671.0 520.5 671.0 523.9 671.0 530.6 L 671.0 549.5 C 671.0 556.1 671.0 559.5 672.1 563.0 C 673.5 566.9 676.6 569.9 680.5 571.4 C 684.0 572.5 687.4 572.5 694.0 572.5 Z M 693.9 572.5 " fill="#EB5C56"></path><g><clipPath id="clip-15"><path d="M 667.5 507.5 L 831.2 507.5 L 831.2 572.5 L 667.5 572.5 Z M 667.5 507.5 "></path></clipPath><g clip-path="url(#clip-15)"><text xml:space="preserve" font-family="Helvetica-Light" font-size="32.0" fill="#000000" transform="matrix(1.00, 0.00, -0.00, -1.00, 703.0, 528.0)">P</text><text xml:space="preserve" font-family="Helvetica-Light" font-size="32.0" fill="#000000" transform="matrix(1.00, 0.00, -0.00, -1.00, 722.6, 528.0)">a</text><text xml:space="preserve" font-family="Helvetica-Light" font-size="32.0" fill="#000000" transform="matrix(1.00, 0.00, -0.00, -1.00, 740.3, 528.0)">r</text><text xml:space="preserve" font-family="Helvetica-Light" font-size="32.0" fill="#000000" transform="matrix(1.00, 0.00, -0.00, -1.00, 751.0, 528.0)">s</text><text xml:space="preserve" font-family="Helvetica-Light" font-size="32.0" fill="#000000" transform="matrix(1.00, 0.00, -0.00, -1.00, 767.0, 528.0)">e</text><text xml:space="preserve" font-family="Helvetica-Light" font-size="32.0" fill="#000000" transform="matrix(1.00, 0.00, -0.00, -1.00, 784.8, 528.0)">r</text></g></g><path d="M 602.9 525.6 L 602.9 512.9 L 659.0 540.0 L 602.9 567.1 L 602.9 554.4 L 506.6 554.4 L 506.6 525.6 Z M 602.9 525.6 " fill="#A6AAA8"></path><path d="M 936.1 525.6 L 936.1 512.9 L 992.1 540.0 L 936.1 567.1 L 936.1 554.4 L 839.7 554.4 L 839.7 525.6 Z M 936.1 525.6 " fill="#A6AAA8"></path><image xlink:href="../../63D399A3-35E1-45FF-B287-06BE5905E8D9/assets/5429DA88C4363CC4B41D70FC123B7342.png" width="359.00" height="109.00" transform="matrix(1.00, 0.00, -0.00, -1.00, 1005.2, 592.6)" opacity="0.50"></image><path d="M 1031.8 591.6 L 1337.9 591.6 C 1344.7 591.6 1348.2 591.6 1351.8 590.4 C 1355.8 588.9 1359.0 585.8 1360.4 581.8 C 1361.6 578.1 1361.6 574.7 1361.6 567.8 L 1361.6 512.1 C 1361.6 505.3 1361.6 501.9 1360.4 498.2 C 1359.0 494.2 1355.8 491.1 1351.8 489.6 C 1348.2 488.4 1344.7 488.4 1337.8 488.4 L 1031.8 488.4 C 1025.0 488.4 1021.6 488.4 1017.9 489.6 C 1013.9 491.1 1010.8 494.2 1009.3 498.2 C 1008.2 501.9 1008.2 505.3 1008.2 512.2 L 1008.2 567.9 C 1008.2 574.7 1008.2 578.1 1009.3 581.8 C 1010.8 585.8 1013.9 588.9 1017.9 590.4 C 1021.6 591.6 1025.0 591.6 1031.9 591.6 Z M 1031.8 591.6 " fill="#51A7F9"></path><g><clipPath id="clip-16"><path d="M 999.7 488.4 L 1370.1 488.4 L 1370.1 591.6 L 999.7 591.6 Z M 999.7 488.4 "></path></clipPath><g clip-path="url(#clip-16)"><text xml:space="preserve" font-family="Helvetica-Bold" font-weight="bold" font-size="50.0" fill="#000000" transform="matrix(1.00, 0.00, -0.00, -1.00, 1032.0, 521.0)">C</text><text xml:space="preserve" font-family="Helvetica-Bold" font-weight="bold" font-size="50.0" fill="#000000" transform="matrix(1.00, 0.00, -0.00, -1.00, 1068.1, 521.0)">o</text><text xml:space="preserve" font-family="Helvetica-Bold" font-weight="bold" font-size="50.0" fill="#000000" transform="matrix(1.00, 0.00, -0.00, -1.00, 1098.7, 521.0)">m</text><text xml:space="preserve" font-family="Helvetica-Bold" font-weight="bold" font-size="50.0" fill="#000000" transform="matrix(1.00, 0.00, -0.00, -1.00, 1143.1, 521.0)">p</text><text xml:space="preserve" font-family="Helvetica-Bold" font-weight="bold" font-size="50.0" fill="#000000" transform="matrix(1.00, 0.00, -0.00, -1.00, 1173.7, 521.0)">o</text><text xml:space="preserve" font-family="Helvetica-Bold" font-weight="bold" font-size="50.0" fill="#000000" transform="matrix(1.00, 0.00, -0.00, -1.00, 1204.2, 521.0)">n</text><text xml:space="preserve" font-family="Helvetica-Bold" font-weight="bold" font-size="50.0" fill="#000000" transform="matrix(1.00, 0.00, -0.00, -1.00, 1234.7, 521.0)">e</text><text xml:space="preserve" font-family="Helvetica-Bold" font-weight="bold" font-size="50.0" fill="#000000" transform="matrix(1.00, 0.00, -0.00, -1.00, 1262.5, 521.0)">n</text><text xml:space="preserve" font-family="Helvetica-Bold" font-weight="bold" font-size="50.0" fill="#000000" transform="matrix(1.00, 0.00, -0.00, -1.00, 1293.1, 521.0)">t</text><text xml:space="preserve" font-family="Helvetica-Bold" font-weight="bold" font-size="50.0" fill="#000000" transform="matrix(1.00, 0.00, -0.00, -1.00, 1309.7, 521.0)">s</text></g></g><image xlink:href="../../63D399A3-35E1-45FF-B287-06BE5905E8D9/assets/748ADB321BC6828EFC4DA7CA3DED09AD.png" width="193.00" height="71.00" transform="matrix(1.00, 0.00, -0.00, -1.00, 1452.3, 651.7)" opacity="0.50"></image><path d="M 1478.3 650.7 L 1619.0 650.7 C 1625.6 650.7 1628.9 650.7 1632.4 649.5 C 1636.3 648.1 1639.4 645.1 1640.8 641.2 C 1641.9 637.6 1641.9 634.3 1641.9 627.6 L 1641.9 608.6 C 1641.9 602.1 1641.9 598.7 1640.8 595.2 C 1639.4 591.3 1636.3 588.2 1632.4 586.8 C 1628.9 585.7 1625.6 585.7 1618.9 585.7 L 1478.3 585.7 C 1471.7 585.7 1468.4 585.7 1464.8 586.8 C 1460.9 588.2 1457.9 591.3 1456.5 595.2 C 1455.3 598.7 1455.3 602.1 1455.3 608.7 L 1455.3 627.7 C 1455.3 634.3 1455.3 637.6 1456.5 641.2 C 1457.9 645.1 1460.9 648.1 1464.8 649.5 C 1468.4 650.7 1471.7 650.7 1478.4 650.7 Z M 1478.3 650.7 " fill="#6FBF40"></path><g><clipPath id="clip-17"><path d="M 1451.8 585.7 L 1645.4 585.7 L 1645.4 650.7 L 1451.8 650.7 Z M 1451.8 585.7 "></path></clipPath><g clip-path="url(#clip-17)"><text xml:space="preserve" font-family="Helvetica-Light" font-size="32.0" fill="#000000" transform="matrix(1.00, 0.00, -0.00, -1.00, 1468.0, 606.0)">I</text><text xml:space="preserve" font-family="Helvetica-Light" font-size="32.0" fill="#000000" transform="matrix(1.00, 0.00, -0.00, -1.00, 1476.9, 606.0)">n</text><text xml:space="preserve" font-family="Helvetica-Light" font-size="32.0" fill="#000000" transform="matrix(1.00, 0.00, -0.00, -1.00, 1494.7, 606.0)">g</text><text xml:space="preserve" font-family="Helvetica-Light" font-size="32.0" fill="#000000" transform="matrix(1.00, 0.00, -0.00, -1.00, 1514.2, 606.0)">r</text><text xml:space="preserve" font-family="Helvetica-Light" font-size="32.0" fill="#000000" transform="matrix(1.00, 0.00, -0.00, -1.00, 1524.3, 606.0)">e</text><text xml:space="preserve" font-family="Helvetica-Light" font-size="32.0" fill="#000000" transform="matrix(1.00, 0.00, -0.00, -1.00, 1542.1, 606.0)">d</text><text xml:space="preserve" font-family="Helvetica-Light" font-size="32.0" fill="#000000" transform="matrix(1.00, 0.00, -0.00, -1.00, 1561.7, 606.0)">i</text><text xml:space="preserve" font-family="Helvetica-Light" font-size="32.0" fill="#000000" transform="matrix(1.00, 0.00, -0.00, -1.00, 1568.8, 606.0)">e</text><text xml:space="preserve" font-family="Helvetica-Light" font-size="32.0" fill="#000000" transform="matrix(1.00, 0.00, -0.00, -1.00, 1586.6, 606.0)">n</text><text xml:space="preserve" font-family="Helvetica-Light" font-size="32.0" fill="#000000" transform="matrix(1.00, 0.00, -0.00, -1.00, 1604.4, 606.0)">t</text><text xml:space="preserve" font-family="Helvetica-Light" font-size="32.0" fill="#000000" transform="matrix(1.00, 0.00, -0.00, -1.00, 1613.2, 606.0)">s</text></g></g><image xlink:href="../../63D399A3-35E1-45FF-B287-06BE5905E8D9/assets/748ADB321BC6828EFC4DA7CA3DED09AD.png" width="193.00" height="71.00" transform="matrix(1.00, 0.00, -0.00, -1.00, 1452.3, 573.5)" opacity="0.50"></image><path d="M 1478.3 572.5 L 1619.0 572.5 C 1625.6 572.5 1628.9 572.5 1632.4 571.4 C 1636.3 569.9 1639.4 566.9 1640.8 563.0 C 1641.9 559.5 1641.9 556.1 1641.9 549.4 L 1641.9 530.5 C 1641.9 523.9 1641.9 520.5 1640.8 517.0 C 1639.4 513.1 1636.3 510.1 1632.4 508.6 C 1628.9 507.5 1625.6 507.5 1618.9 507.5 L 1478.3 507.5 C 1471.7 507.5 1468.4 507.5 1464.8 508.6 C 1460.9 510.1 1457.9 513.1 1456.5 517.0 C 1455.3 520.5 1455.3 523.9 1455.3 530.6 L 1455.3 549.5 C 1455.3 556.1 1455.3 559.5 1456.5 563.0 C 1457.9 566.9 1460.9 569.9 1464.8 571.4 C 1468.4 572.5 1471.7 572.5 1478.4 572.5 Z M 1478.3 572.5 " fill="#6FBF40"></path><g><clipPath id="clip-18"><path d="M 1451.8 507.5 L 1645.4 507.5 L 1645.4 572.5 L 1451.8 572.5 Z M 1451.8 507.5 "></path></clipPath><g clip-path="url(#clip-18)"><text xml:space="preserve" font-family="Helvetica-Light" font-size="32.0" fill="#000000" transform="matrix(1.00, 0.00, -0.00, -1.00, 1477.0, 528.0)">D</text><text xml:space="preserve" font-family="Helvetica-Light" font-size="32.0" fill="#000000" transform="matrix(1.00, 0.00, -0.00, -1.00, 1500.1, 528.0)">i</text><text xml:space="preserve" font-family="Helvetica-Light" font-size="32.0" fill="#000000" transform="matrix(1.00, 0.00, -0.00, -1.00, 1507.2, 528.0)">r</text><text xml:space="preserve" font-family="Helvetica-Light" font-size="32.0" fill="#000000" transform="matrix(1.00, 0.00, -0.00, -1.00, 1517.3, 528.0)">e</text><text xml:space="preserve" font-family="Helvetica-Light" font-size="32.0" fill="#000000" transform="matrix(1.00, 0.00, -0.00, -1.00, 1535.1, 528.0)">c</text><text xml:space="preserve" font-family="Helvetica-Light" font-size="32.0" fill="#000000" transform="matrix(1.00, 0.00, -0.00, -1.00, 1552.9, 528.0)">t</text><text xml:space="preserve" font-family="Helvetica-Light" font-size="32.0" fill="#000000" transform="matrix(1.00, 0.00, -0.00, -1.00, 1561.8, 528.0)">i</text><text xml:space="preserve" font-family="Helvetica-Light" font-size="32.0" fill="#000000" transform="matrix(1.00, 0.00, -0.00, -1.00, 1568.9, 528.0)">o</text><text xml:space="preserve" font-family="Helvetica-Light" font-size="32.0" fill="#000000" transform="matrix(1.00, 0.00, -0.00, -1.00, 1586.7, 528.0)">n</text><text xml:space="preserve" font-family="Helvetica-Light" font-size="32.0" fill="#000000" transform="matrix(1.00, 0.00, -0.00, -1.00, 1604.5, 528.0)">s</text></g></g><image xlink:href="../../63D399A3-35E1-45FF-B287-06BE5905E8D9/assets/748ADB321BC6828EFC4DA7CA3DED09AD.png" width="193.00" height="71.00" transform="matrix(1.00, 0.00, -0.00, -1.00, 1452.3, 495.3)" opacity="0.50"></image><path d="M 1478.3 494.3 L 1619.0 494.3 C 1625.6 494.3 1628.9 494.3 1632.4 493.2 C 1636.3 491.8 1639.4 488.7 1640.8 484.8 C 1641.9 481.3 1641.9 477.9 1641.9 471.3 L 1641.9 452.3 C 1641.9 445.7 1641.9 442.4 1640.8 438.8 C 1639.4 434.9 1636.3 431.9 1632.4 430.5 C 1628.9 429.3 1625.6 429.3 1618.9 429.3 L 1478.3 429.3 C 1471.7 429.3 1468.4 429.3 1464.8 430.5 C 1460.9 431.9 1457.9 434.9 1456.5 438.8 C 1455.3 442.4 1455.3 445.7 1455.3 452.4 L 1455.3 471.4 C 1455.3 477.9 1455.3 481.3 1456.5 484.8 C 1457.9 488.7 1460.9 491.8 1464.8 493.2 C 1468.4 494.3 1471.7 494.3 1478.4 494.3 Z M 1478.3 494.3 " fill="#6FBF40"></path><g><clipPath id="clip-19"><path d="M 1451.8 429.3 L 1645.4 429.3 L 1645.4 494.3 L 1451.8 494.3 Z M 1451.8 429.3 "></path></clipPath><g clip-path="url(#clip-19)"><text xml:space="preserve" font-family="Helvetica-Light" font-size="32.0" fill="#000000" transform="matrix(1.00, 0.00, -0.00, -1.00, 1489.0, 450.0)">N</text><text xml:space="preserve" font-family="Helvetica-Light" font-size="32.0" fill="#000000" transform="matrix(1.00, 0.00, -0.00, -1.00, 1512.1, 450.0)">u</text><text xml:space="preserve" font-family="Helvetica-Light" font-size="32.0" fill="#000000" transform="matrix(1.00, 0.00, -0.00, -1.00, 1529.9, 450.0)">t</text><text xml:space="preserve" font-family="Helvetica-Light" font-size="32.0" fill="#000000" transform="matrix(1.00, 0.00, -0.00, -1.00, 1538.8, 450.0)">r</text><text xml:space="preserve" font-family="Helvetica-Light" font-size="32.0" fill="#000000" transform="matrix(1.00, 0.00, -0.00, -1.00, 1549.4, 450.0)">i</text><text xml:space="preserve" font-family="Helvetica-Light" font-size="32.0" fill="#000000" transform="matrix(1.00, 0.00, -0.00, -1.00, 1556.6, 450.0)">t</text><text xml:space="preserve" font-family="Helvetica-Light" font-size="32.0" fill="#000000" transform="matrix(1.00, 0.00, -0.00, -1.00, 1565.4, 450.0)">i</text><text xml:space="preserve" font-family="Helvetica-Light" font-size="32.0" fill="#000000" transform="matrix(1.00, 0.00, -0.00, -1.00, 1572.6, 450.0)">o</text><text xml:space="preserve" font-family="Helvetica-Light" font-size="32.0" fill="#000000" transform="matrix(1.00, 0.00, -0.00, -1.00, 1590.3, 450.0)">n</text></g></g><image xlink:href="../../63D399A3-35E1-45FF-B287-06BE5905E8D9/assets/748ADB321BC6828EFC4DA7CA3DED09AD.png" width="193.00" height="71.00" transform="matrix(1.00, 0.00, -0.00, -1.00, 1452.3, 729.9)" opacity="0.50"></image><path d="M 1478.3 728.9 L 1619.0 728.9 C 1625.6 728.9 1628.9 728.9 1632.4 727.7 C 1636.3 726.3 1639.4 723.3 1640.8 719.4 C 1641.9 715.8 1641.9 712.5 1641.9 705.8 L 1641.9 686.8 C 1641.9 680.3 1641.9 676.9 1640.8 673.4 C 1639.4 669.5 1636.3 666.4 1632.4 665.0 C 1628.9 663.9 1625.6 663.9 1618.9 663.9 L 1478.3 663.9 C 1471.7 663.9 1468.4 663.9 1464.8 665.0 C 1460.9 666.4 1457.9 669.5 1456.5 673.4 C 1455.3 676.9 1455.3 680.3 1455.3 686.9 L 1455.3 705.9 C 1455.3 712.5 1455.3 715.8 1456.5 719.4 C 1457.9 723.3 1460.9 726.3 1464.8 727.7 C 1468.4 728.9 1471.7 728.9 1478.4 728.9 Z M 1478.3 728.9 " fill="#6FBF40"></path><g><clipPath id="clip-20"><path d="M 1451.8 663.9 L 1645.4 663.9 L 1645.4 728.9 L 1451.8 728.9 Z M 1451.8 663.9 "></path></clipPath><g clip-path="url(#clip-20)"><text xml:space="preserve" font-family="Helvetica-Light" font-size="32.0" fill="#000000" transform="matrix(1.00, 0.00, -0.00, -1.00, 1467.0, 684.0)">D</text><text xml:space="preserve" font-family="Helvetica-Light" font-size="32.0" fill="#000000" transform="matrix(1.00, 0.00, -0.00, -1.00, 1490.1, 684.0)">e</text><text xml:space="preserve" font-family="Helvetica-Light" font-size="32.0" fill="#000000" transform="matrix(1.00, 0.00, -0.00, -1.00, 1507.9, 684.0)">s</text><text xml:space="preserve" font-family="Helvetica-Light" font-size="32.0" fill="#000000" transform="matrix(1.00, 0.00, -0.00, -1.00, 1523.9, 684.0)">c</text><text xml:space="preserve" font-family="Helvetica-Light" font-size="32.0" fill="#000000" transform="matrix(1.00, 0.00, -0.00, -1.00, 1541.7, 684.0)">r</text><text xml:space="preserve" font-family="Helvetica-Light" font-size="32.0" fill="#000000" transform="matrix(1.00, 0.00, -0.00, -1.00, 1552.3, 684.0)">i</text><text xml:space="preserve" font-family="Helvetica-Light" font-size="32.0" fill="#000000" transform="matrix(1.00, 0.00, -0.00, -1.00, 1559.4, 684.0)">p</text><text xml:space="preserve" font-family="Helvetica-Light" font-size="32.0" fill="#000000" transform="matrix(1.00, 0.00, -0.00, -1.00, 1579.0, 684.0)">t</text><text xml:space="preserve" font-family="Helvetica-Light" font-size="32.0" fill="#000000" transform="matrix(1.00, 0.00, -0.00, -1.00, 1587.9, 684.0)">i</text><text xml:space="preserve" font-family="Helvetica-Light" font-size="32.0" fill="#000000" transform="matrix(1.00, 0.00, -0.00, -1.00, 1595.0, 684.0)">o</text><text xml:space="preserve" font-family="Helvetica-Light" font-size="32.0" fill="#000000" transform="matrix(1.00, 0.00, -0.00, -1.00, 1612.8, 684.0)">n</text></g></g><image xlink:href="../../63D399A3-35E1-45FF-B287-06BE5905E8D9/assets/748ADB321BC6828EFC4DA7CA3DED09AD.png" width="193.00" height="71.00" transform="matrix(1.00, 0.00, -0.00, -1.00, 1452.3, 417.1)" opacity="0.50"></image><path d="M 1478.3 416.1 L 1619.0 416.1 C 1625.6 416.1 1628.9 416.1 1632.4 415.0 C 1636.3 413.6 1639.4 410.5 1640.8 406.6 C 1641.9 403.1 1641.9 399.7 1641.9 393.1 L 1641.9 374.1 C 1641.9 367.5 1641.9 364.2 1640.8 360.6 C 1639.4 356.7 1636.3 353.7 1632.4 352.3 C 1628.9 351.1 1625.6 351.1 1618.9 351.1 L 1478.3 351.1 C 1471.7 351.1 1468.4 351.1 1464.8 352.3 C 1460.9 353.7 1457.9 356.7 1456.5 360.6 C 1455.3 364.2 1455.3 367.5 1455.3 374.2 L 1455.3 393.2 C 1455.3 399.7 1455.3 403.1 1456.5 406.6 C 1457.9 410.5 1460.9 413.6 1464.8 415.0 C 1468.4 416.1 1471.7 416.1 1478.4 416.1 Z M 1478.3 416.1 " fill="#6FBF40"></path><g><clipPath id="clip-21"><path d="M 1451.8 351.1 L 1645.4 351.1 L 1645.4 416.1 L 1451.8 416.1 Z M 1451.8 351.1 "></path></clipPath><g clip-path="url(#clip-21)"><text xml:space="preserve" font-family="Helvetica-Light" font-size="32.0" fill="#000000" transform="matrix(1.00, 0.00, -0.00, -1.00, 1515.0, 372.0)">T</text><text xml:space="preserve" font-family="Helvetica-Light" font-size="32.0" fill="#000000" transform="matrix(1.00, 0.00, -0.00, -1.00, 1529.2, 372.0)">a</text><text xml:space="preserve" font-family="Helvetica-Light" font-size="32.0" fill="#000000" transform="matrix(1.00, 0.00, -0.00, -1.00, 1547.0, 372.0)">g</text><text xml:space="preserve" font-family="Helvetica-Light" font-size="32.0" fill="#000000" transform="matrix(1.00, 0.00, -0.00, -1.00, 1566.6, 372.0)">s</text></g></g></g></svg>