<?xml version="1.0" encoding="UTF-8" standalone="no"?><svg xmlns="http://www.w3.org/2000/svg" xmlns:xlink="http://www.w3.org/1999/xlink" clip-rule="evenodd" stroke-miterlimit="4.00" viewBox="0 0 195 78"><desc>SVG generated by Keynote</desc><defs></defs><g transform="matrix(1.00, 0.00, -0.00, -1.00, 0.0, 78.0)"><image xlink:href="../../63D399A3-35E1-45FF-B287-06BE5905E8D9/assets/748ADB321BC6828EFC4DA7CA3DED09AD.png" width="193.00" height="71.00" transform="matrix(1.00, 0.00, -0.00, -1.00, 1.3, 72.1)" opacity="0.50"></image><path d="M 27.3 71.1 L 168.0 71.1 C 174.6 71.1 177.9 71.1 181.4 70.0 C 185.3 68.6 188.4 65.5 189.8 61.6 C 190.9 58.1 190.9 54.7 190.9 48.1 L 190.9 29.1 C 190.9 22.5 190.9 19.2 189.8 15.6 C 188.4 11.7 185.3 8.7 181.4 7.3 C 177.9 6.1 174.6 6.1 167.9 6.1 L 27.3 6.1 C 20.7 6.1 17.4 6.1 13.8 7.3 C 9.9 8.7 6.9 11.7 5.5 15.6 C 4.3 19.2 4.3 22.5 4.3 29.2 L 4.3 48.2 C 4.3 54.7 4.3 58.1 5.5 61.6 C 6.9 65.5 9.9 68.6 13.8 70.0 C 17.4 71.1 20.7 71.1 27.4 71.1 Z M 27.3 71.1 " fill="#6FBF40"></path><g><clipPath id="clip-9"><path d="M 0.8 6.1 L 194.4 6.1 L 194.4 71.1 L 0.8 71.1 Z M 0.8 6.1 "></path></clipPath><g clip-path="url(#clip-9)"><text xml:space="preserve" font-family="Helvetica-Light" font-size="32.0" fill="#000000" transform="matrix(1.00, 0.00, -0.00, -1.00, 64.0, 27.0)">T</text><text xml:space="preserve" font-family="Helvetica-Light" font-size="32.0" fill="#000000" transform="matrix(1.00, 0.00, -0.00, -1.00, 78.2, 27.0)">a</text><text xml:space="preserve" font-family="Helvetica-Light" font-size="32.0" fill="#000000" transform="matrix(1.00, 0.00, -0.00, -1.00, 96.0, 27.0)">g</text><text xml:space="preserve" font-family="Helvetica-Light" font-size="32.0" fill="#000000" transform="matrix(1.00, 0.00, -0.00, -1.00, 115.6, 27.0)">s</text></g></g></g></svg>