<?xml version="1.0" encoding="UTF-8" standalone="no"?><svg xmlns="http://www.w3.org/2000/svg" xmlns:xlink="http://www.w3.org/1999/xlink" clip-rule="evenodd" stroke-miterlimit="4.00" viewBox="0 0 195 78"><desc>SVG generated by Keynote</desc><defs></defs><g transform="matrix(1.00, 0.00, -0.00, -1.00, 0.0, 78.0)"><image xlink:href="../../63D399A3-35E1-45FF-B287-06BE5905E8D9/assets/748ADB321BC6828EFC4DA7CA3DED09AD.png" width="193.00" height="71.00" transform="matrix(1.00, 0.00, -0.00, -1.00, 1.3, 72.9)" opacity="0.50"></image><path d="M 27.3 71.9 L 168.0 71.9 C 174.6 71.9 177.9 71.9 181.4 70.7 C 185.3 69.3 188.4 66.3 189.8 62.4 C 190.9 58.8 190.9 55.5 190.9 48.8 L 190.9 29.8 C 190.9 23.3 190.9 19.9 189.8 16.4 C 188.4 12.5 185.3 9.4 181.4 8.0 C 177.9 6.9 174.6 6.9 167.9 6.9 L 27.3 6.9 C 20.7 6.9 17.4 6.9 13.8 8.0 C 9.9 9.4 6.9 12.5 5.5 16.4 C 4.3 19.9 4.3 23.3 4.3 29.9 L 4.3 48.9 C 4.3 55.5 4.3 58.8 5.5 62.4 C 6.9 66.3 9.9 69.3 13.8 70.7 C 17.4 71.9 20.7 71.9 27.4 71.9 Z M 27.3 71.9 " fill="#6FBF40"></path><g><clipPath id="clip-104"><path d="M 0.8 6.9 L 194.4 6.9 L 194.4 71.9 L 0.8 71.9 Z M 0.8 6.9 "></path></clipPath><g clip-path="url(#clip-104)"><text xml:space="preserve" font-family="Helvetica-Light" font-size="32.0" fill="#000000" transform="matrix(1.00, 0.00, -0.00, -1.00, 16.0, 27.0)">D</text><text xml:space="preserve" font-family="Helvetica-Light" font-size="32.0" fill="#000000" transform="matrix(1.00, 0.00, -0.00, -1.00, 39.1, 27.0)">e</text><text xml:space="preserve" font-family="Helvetica-Light" font-size="32.0" fill="#000000" transform="matrix(1.00, 0.00, -0.00, -1.00, 56.9, 27.0)">s</text><text xml:space="preserve" font-family="Helvetica-Light" font-size="32.0" fill="#000000" transform="matrix(1.00, 0.00, -0.00, -1.00, 72.9, 27.0)">c</text><text xml:space="preserve" font-family="Helvetica-Light" font-size="32.0" fill="#000000" transform="matrix(1.00, 0.00, -0.00, -1.00, 90.7, 27.0)">r</text><text xml:space="preserve" font-family="Helvetica-Light" font-size="32.0" fill="#000000" transform="matrix(1.00, 0.00, -0.00, -1.00, 101.3, 27.0)">i</text><text xml:space="preserve" font-family="Helvetica-Light" font-size="32.0" fill="#000000" transform="matrix(1.00, 0.00, -0.00, -1.00, 108.4, 27.0)">p</text><text xml:space="preserve" font-family="Helvetica-Light" font-size="32.0" fill="#000000" transform="matrix(1.00, 0.00, -0.00, -1.00, 128.0, 27.0)">t</text><text xml:space="preserve" font-family="Helvetica-Light" font-size="32.0" fill="#000000" transform="matrix(1.00, 0.00, -0.00, -1.00, 136.9, 27.0)">i</text><text xml:space="preserve" font-family="Helvetica-Light" font-size="32.0" fill="#000000" transform="matrix(1.00, 0.00, -0.00, -1.00, 144.0, 27.0)">o</text><text xml:space="preserve" font-family="Helvetica-Light" font-size="32.0" fill="#000000" transform="matrix(1.00, 0.00, -0.00, -1.00, 161.8, 27.0)">n</text></g></g></g></svg>