<?xml version="1.0" encoding="UTF-8" standalone="no"?><svg xmlns="http://www.w3.org/2000/svg" xmlns:xlink="http://www.w3.org/1999/xlink" clip-rule="evenodd" stroke-miterlimit="4.00" viewBox="0 0 216 15"><desc>SVG generated by Keynote</desc><defs></defs><g transform="matrix(1.00, 0.00, -0.00, -1.00, 0.0, 15.0)"><text xml:space="preserve" font-family="Courier" font-size="14.0" fill="#000000" transform="matrix(1.00, 0.00, -0.00, -1.00, -2.0, 4.0)">'</text><text xml:space="preserve" font-family="Courier" font-size="14.0" fill="#000000" transform="matrix(1.00, 0.00, -0.00, -1.00, 6.4, 4.0)">c</text><text xml:space="preserve" font-family="Courier" font-size="14.0" fill="#000000" transform="matrix(1.00, 0.00, -0.00, -1.00, 14.8, 4.0)">i</text><text xml:space="preserve" font-family="Courier" font-size="14.0" fill="#000000" transform="matrix(1.00, 0.00, -0.00, -1.00, 23.2, 4.0)">l</text><text xml:space="preserve" font-family="Courier" font-size="14.0" fill="#000000" transform="matrix(1.00, 0.00, -0.00, -1.00, 31.6, 4.0)">a</text><text xml:space="preserve" font-family="Courier" font-size="14.0" fill="#000000" transform="matrix(1.00, 0.00, -0.00, -1.00, 40.0, 4.0)">n</text><text xml:space="preserve" font-family="Courier" font-size="14.0" fill="#000000" transform="matrix(1.00, 0.00, -0.00, -1.00, 48.4, 4.0)">t</text><text xml:space="preserve" font-family="Courier" font-size="14.0" fill="#000000" transform="matrix(1.00, 0.00, -0.00, -1.00, 56.8, 4.0)">r</text><text xml:space="preserve" font-family="Courier" font-size="14.0" fill="#000000" transform="matrix(1.00, 0.00, -0.00, -1.00, 65.2, 4.0)">o</text><text xml:space="preserve" font-family="Courier" font-size="14.0" fill="#000000" transform="matrix(1.00, 0.00, -0.00, -1.00, 73.6, 4.0)">,</text><text xml:space="preserve" font-family="Courier" font-size="14.0" fill="#000000" transform="matrix(1.00, 0.00, -0.00, -1.00, 82.0, 4.0)"> </text><text xml:space="preserve" font-family="Courier" font-size="14.0" fill="#000000" transform="matrix(1.00, 0.00, -0.00, -1.00, 90.4, 4.0)">b</text><text xml:space="preserve" font-family="Courier" font-size="14.0" fill="#000000" transform="matrix(1.00, 0.00, -0.00, -1.00, 98.8, 4.0)">a</text><text xml:space="preserve" font-family="Courier" font-size="14.0" fill="#000000" transform="matrix(1.00, 0.00, -0.00, -1.00, 107.2, 4.0)">s</text><text xml:space="preserve" font-family="Courier" font-size="14.0" fill="#000000" transform="matrix(1.00, 0.00, -0.00, -1.00, 115.6, 4.0)">i</text><text xml:space="preserve" font-family="Courier" font-size="14.0" fill="#000000" transform="matrix(1.00, 0.00, -0.00, -1.00, 124.0, 4.0)">l</text><text xml:space="preserve" font-family="Courier" font-size="14.0" fill="#000000" transform="matrix(1.00, 0.00, -0.00, -1.00, 132.4, 4.0)"> </text><text xml:space="preserve" font-family="Courier" font-size="14.0" fill="#000000" transform="matrix(1.00, 0.00, -0.00, -1.00, 140.8, 4.0)">o</text><text xml:space="preserve" font-family="Courier" font-size="14.0" fill="#000000" transform="matrix(1.00, 0.00, -0.00, -1.00, 149.2, 4.0)">r</text><text xml:space="preserve" font-family="Courier" font-size="14.0" fill="#000000" transform="matrix(1.00, 0.00, -0.00, -1.00, 157.7, 4.0)"> </text><text xml:space="preserve" font-family="Courier" font-size="14.0" fill="#000000" transform="matrix(1.00, 0.00, -0.00, -1.00, 166.1, 4.0)">m</text><text xml:space="preserve" font-family="Courier" font-size="14.0" fill="#000000" transform="matrix(1.00, 0.00, -0.00, -1.00, 174.5, 4.0)">i</text><text xml:space="preserve" font-family="Courier" font-size="14.0" fill="#000000" transform="matrix(1.00, 0.00, -0.00, -1.00, 182.9, 4.0)">n</text><text xml:space="preserve" font-family="Courier" font-size="14.0" fill="#000000" transform="matrix(1.00, 0.00, -0.00, -1.00, 191.3, 4.0)">t</text><text xml:space="preserve" font-family="Courier" font-size="14.0" fill="#000000" transform="matrix(1.00, 0.00, -0.00, -1.00, 199.7, 4.0)">'</text><text xml:space="preserve" font-family="Courier" font-size="14.0" fill="#000000" transform="matrix(1.00, 0.00, -0.00, -1.00, 208.1, 4.0)">,</text></g></svg>