<?xml version="1.0" encoding="UTF-8" standalone="no"?><svg xmlns="http://www.w3.org/2000/svg" xmlns:xlink="http://www.w3.org/1999/xlink" clip-rule="evenodd" stroke-miterlimit="4.00" viewBox="0 0 496 106"><desc>SVG generated by Keynote</desc><defs></defs><g transform="matrix(1.00, 0.00, -0.00, -1.00, 0.0, 106.0)"><path d="M 25.3 105.0 L 470.7 105.0 C 477.4 105.0 480.9 105.0 484.5 103.8 C 488.5 102.3 491.7 99.2 493.2 95.2 C 494.3 91.5 494.3 88.1 494.3 81.2 L 494.3 25.5 C 494.3 18.7 494.3 15.3 493.2 11.6 C 491.7 7.6 488.5 4.5 484.5 3.0 C 480.9 1.8 477.4 1.8 470.6 1.8 L 25.3 1.8 C 18.6 1.8 15.1 1.8 11.5 3.0 C 7.5 4.5 4.3 7.6 2.8 11.6 C 1.7 15.3 1.7 18.7 1.7 25.6 L 1.7 81.3 C 1.7 88.1 1.7 91.5 2.8 95.2 C 4.3 99.2 7.5 102.3 11.5 103.8 C 15.1 105.0 18.6 105.0 25.4 105.0 Z M 25.3 105.0 " fill="#51A7F9"></path></g></svg>