<?xml version="1.0" encoding="UTF-8" standalone="no"?><svg xmlns="http://www.w3.org/2000/svg" xmlns:xlink="http://www.w3.org/1999/xlink" clip-rule="evenodd" stroke-miterlimit="4.00" viewBox="0 0 363 116"><desc>SVG generated by Keynote</desc><defs></defs><g transform="matrix(1.00, 0.00, -0.00, -1.00, 0.0, 116.0)"><image xlink:href="../../8C4826E3-175F-4018-AC81-64718E56BB80/assets/1CD4832319626600650DB13712BEB617.png" width="360.00" height="109.00" transform="matrix(1.00, 0.00, -0.00, -1.00, 1.5, 110.7)" opacity="0.50"></image><path d="M 28.2 109.7 L 334.4 109.7 C 341.2 109.7 344.7 109.7 348.3 108.5 C 352.3 107.0 355.5 103.9 356.9 99.9 C 358.1 96.2 358.1 92.8 358.1 85.9 L 358.1 30.2 C 358.1 23.4 358.1 20.0 356.9 16.3 C 355.5 12.3 352.3 9.1 348.3 7.7 C 344.7 6.5 341.2 6.5 334.3 6.5 L 28.2 6.5 C 21.4 6.5 17.9 6.5 14.3 7.7 C 10.3 9.1 7.1 12.3 5.7 16.3 C 4.5 20.0 4.5 23.4 4.5 30.3 L 4.5 86.0 C 4.5 92.8 4.5 96.2 5.7 99.9 C 7.1 103.9 10.3 107.0 14.3 108.5 C 17.9 109.7 21.4 109.7 28.3 109.7 Z M 28.2 109.7 " fill="#51A7F9"></path><g><clipPath id="clip-51"><path d="M -4.0 6.5 L 366.6 6.5 L 366.6 109.7 L -4.0 109.7 Z M -4.0 6.5 "></path></clipPath><g clip-path="url(#clip-51)"><text xml:space="preserve" font-family="Helvetica-Bold" font-weight="bold" font-size="50.0" fill="#000000" transform="matrix(1.00, 0.00, -0.00, -1.00, 32.0, 39.0)">S</text><text xml:space="preserve" font-family="Helvetica-Bold" font-weight="bold" font-size="50.0" fill="#000000" transform="matrix(1.00, 0.00, -0.00, -1.00, 65.3, 39.0)">e</text><text xml:space="preserve" font-family="Helvetica-Bold" font-weight="bold" font-size="50.0" fill="#000000" transform="matrix(1.00, 0.00, -0.00, -1.00, 93.2, 39.0)">a</text><text xml:space="preserve" font-family="Helvetica-Bold" font-weight="bold" font-size="50.0" fill="#000000" transform="matrix(1.00, 0.00, -0.00, -1.00, 121.0, 39.0)">r</text><text xml:space="preserve" font-family="Helvetica-Bold" font-weight="bold" font-size="50.0" fill="#000000" transform="matrix(1.00, 0.00, -0.00, -1.00, 140.5, 39.0)">c</text><text xml:space="preserve" font-family="Helvetica-Bold" font-weight="bold" font-size="50.0" fill="#000000" transform="matrix(1.00, 0.00, -0.00, -1.00, 168.3, 39.0)">h</text><text xml:space="preserve" font-family="Helvetica-Bold" font-weight="bold" font-size="50.0" fill="#000000" transform="matrix(1.00, 0.00, -0.00, -1.00, 198.8, 39.0)"> </text><text xml:space="preserve" font-family="Helvetica-Bold" font-weight="bold" font-size="50.0" fill="#000000" transform="matrix(1.00, 0.00, -0.00, -1.00, 212.7, 39.0)">T</text><text xml:space="preserve" font-family="Helvetica-Bold" font-weight="bold" font-size="50.0" fill="#000000" transform="matrix(1.00, 0.00, -0.00, -1.00, 239.5, 39.0)">e</text><text xml:space="preserve" font-family="Helvetica-Bold" font-weight="bold" font-size="50.0" fill="#000000" transform="matrix(1.00, 0.00, -0.00, -1.00, 267.3, 39.0)">r</text><text xml:space="preserve" font-family="Helvetica-Bold" font-weight="bold" font-size="50.0" fill="#000000" transform="matrix(1.00, 0.00, -0.00, -1.00, 286.8, 39.0)">m</text></g></g></g></svg>