<?xml version="1.0" encoding="UTF-8" standalone="no"?><svg xmlns="http://www.w3.org/2000/svg" xmlns:xlink="http://www.w3.org/1999/xlink" clip-rule="evenodd" stroke-miterlimit="4.00" viewBox="0 0 496 107"><desc>SVG generated by Keynote</desc><defs></defs><g transform="matrix(1.00, 0.00, -0.00, -1.00, 0.0, 107.0)"><path d="M 25.6 105.1 L 471.0 105.1 C 477.7 105.1 481.2 105.1 484.8 103.9 C 488.8 102.5 492.0 99.3 493.4 95.3 C 494.6 91.6 494.6 88.2 494.6 81.3 L 494.6 25.6 C 494.6 18.8 494.6 15.4 493.4 11.7 C 492.0 7.7 488.8 4.6 484.8 3.1 C 481.2 1.9 477.7 1.9 470.9 1.9 L 25.6 1.9 C 18.8 1.9 15.4 1.9 11.7 3.1 C 7.7 4.6 4.6 7.7 3.1 11.7 C 2.0 15.4 2.0 18.8 2.0 25.7 L 2.0 81.4 C 2.0 88.2 2.0 91.6 3.1 95.3 C 4.6 99.3 7.7 102.5 11.7 103.9 C 15.4 105.1 18.8 105.1 25.7 105.1 Z M 25.6 105.1 " fill="#51A7F9"></path></g></svg>