<?xml version="1.0" encoding="UTF-8" standalone="no"?><svg xmlns="http://www.w3.org/2000/svg" xmlns:xlink="http://www.w3.org/1999/xlink" clip-rule="evenodd" stroke-miterlimit="4.00" viewBox="0 0 312 78"><desc>SVG generated by Keynote</desc><defs></defs><g transform="matrix(1.00, 0.00, -0.00, -1.00, 0.0, 78.0)"><image xlink:href="730B04A773541707A951EA5173E01ACE.png" width="309.00" height="71.00" transform="matrix(1.00, 0.00, -0.00, -1.00, 1.6, 72.4)" opacity="0.50"></image><path d="M 27.5 71.4 L 285.1 71.4 C 291.6 71.4 295.0 71.4 298.5 70.3 C 302.4 68.9 305.4 65.8 306.9 61.9 C 308.0 58.4 308.0 55.1 308.0 48.4 L 308.0 29.4 C 308.0 22.8 308.0 19.5 306.9 15.9 C 305.4 12.1 302.4 9.0 298.5 7.6 C 295.0 6.5 291.6 6.5 285.0 6.5 L 27.5 6.5 C 21.0 6.5 17.6 6.5 14.1 7.6 C 10.2 9.0 7.1 12.1 5.7 15.9 C 4.6 19.5 4.6 22.8 4.6 29.5 L 4.6 48.5 C 4.6 55.1 4.6 58.4 5.7 61.9 C 7.1 65.8 10.2 68.9 14.1 70.3 C 17.6 71.4 21.0 71.4 27.6 71.4 Z M 27.5 71.4 " fill="#6FBF40"></path><g><clipPath id="clip-52"><path d="M 1.1 6.5 L 311.5 6.5 L 311.5 71.4 L 1.1 71.4 Z M 1.1 6.5 "></path></clipPath><g clip-path="url(#clip-52)"><text xml:space="preserve" font-family="Helvetica-Light" font-size="32.0" fill="#000000" transform="matrix(1.00, 0.00, -0.00, -1.00, 29.0, 27.0)">“</text><text xml:space="preserve" font-family="Helvetica-Light" font-size="32.0" fill="#000000" transform="matrix(1.00, 0.00, -0.00, -1.00, 41.4, 27.0)">Q</text><text xml:space="preserve" font-family="Helvetica-Light" font-size="32.0" fill="#000000" transform="matrix(1.00, 0.00, -0.00, -1.00, 66.3, 27.0)">u</text><text xml:space="preserve" font-family="Helvetica-Light" font-size="32.0" fill="#000000" transform="matrix(1.00, 0.00, -0.00, -1.00, 84.1, 27.0)">i</text><text xml:space="preserve" font-family="Helvetica-Light" font-size="32.0" fill="#000000" transform="matrix(1.00, 0.00, -0.00, -1.00, 91.2, 27.0)">n</text><text xml:space="preserve" font-family="Helvetica-Light" font-size="32.0" fill="#000000" transform="matrix(1.00, 0.00, -0.00, -1.00, 109.0, 27.0)">o</text><text xml:space="preserve" font-family="Helvetica-Light" font-size="32.0" fill="#000000" transform="matrix(1.00, 0.00, -0.00, -1.00, 126.8, 27.0)">a</text><text xml:space="preserve" font-family="Helvetica-Light" font-size="32.0" fill="#000000" transform="matrix(1.00, 0.00, -0.00, -1.00, 144.6, 27.0)">,</text><text xml:space="preserve" font-family="Helvetica-Light" font-size="32.0" fill="#000000" transform="matrix(1.00, 0.00, -0.00, -1.00, 153.5, 27.0)"> </text><text xml:space="preserve" font-family="Helvetica-Light" font-size="32.0" fill="#000000" transform="matrix(1.00, 0.00, -0.00, -1.00, 162.4, 27.0)">C</text><text xml:space="preserve" font-family="Helvetica-Light" font-size="32.0" fill="#000000" transform="matrix(1.00, 0.00, -0.00, -1.00, 185.5, 27.0)">i</text><text xml:space="preserve" font-family="Helvetica-Light" font-size="32.0" fill="#000000" transform="matrix(1.00, 0.00, -0.00, -1.00, 192.6, 27.0)">l</text><text xml:space="preserve" font-family="Helvetica-Light" font-size="32.0" fill="#000000" transform="matrix(1.00, 0.00, -0.00, -1.00, 199.7, 27.0)">a</text><text xml:space="preserve" font-family="Helvetica-Light" font-size="32.0" fill="#000000" transform="matrix(1.00, 0.00, -0.00, -1.00, 217.5, 27.0)">n</text><text xml:space="preserve" font-family="Helvetica-Light" font-size="32.0" fill="#000000" transform="matrix(1.00, 0.00, -0.00, -1.00, 235.3, 27.0)">t</text><text xml:space="preserve" font-family="Helvetica-Light" font-size="32.0" fill="#000000" transform="matrix(1.00, 0.00, -0.00, -1.00, 244.2, 27.0)">r</text><text xml:space="preserve" font-family="Helvetica-Light" font-size="32.0" fill="#000000" transform="matrix(1.00, 0.00, -0.00, -1.00, 254.3, 27.0)">o</text><text xml:space="preserve" font-family="Helvetica-Light" font-size="32.0" fill="#000000" transform="matrix(1.00, 0.00, -0.00, -1.00, 272.1, 27.0)">”</text></g></g></g></svg>