<?xml version="1.0" encoding="UTF-8" standalone="no"?><svg xmlns="http://www.w3.org/2000/svg" xmlns:xlink="http://www.w3.org/1999/xlink" clip-rule="evenodd" stroke-miterlimit="4.00" viewBox="0 0 357 106"><desc>SVG generated by Keynote</desc><defs></defs><g transform="matrix(1.00, 0.00, -0.00, -1.00, 0.0, 106.0)"><path d="M 25.2 104.7 L 331.4 104.7 C 338.2 104.7 341.7 104.7 345.3 103.5 C 349.3 102.0 352.5 98.9 353.9 94.9 C 355.1 91.2 355.1 87.8 355.1 80.9 L 355.1 25.2 C 355.1 18.4 355.1 15.0 353.9 11.3 C 352.5 7.3 349.3 4.1 345.3 2.7 C 341.7 1.5 338.2 1.5 331.3 1.5 L 25.2 1.5 C 18.4 1.5 14.9 1.5 11.3 2.7 C 7.3 4.1 4.1 7.3 2.7 11.3 C 1.5 15.0 1.5 18.4 1.5 25.3 L 1.5 81.0 C 1.5 87.8 1.5 91.2 2.7 94.9 C 4.1 98.9 7.3 102.0 11.3 103.5 C 14.9 104.7 18.4 104.7 25.3 104.7 Z M 25.2 104.7 " fill="#51A7F9"></path><g><clipPath id="clip-169"><path d="M -7.0 1.5 L 363.6 1.5 L 363.6 104.7 L -7.0 104.7 Z M -7.0 1.5 "></path></clipPath><g clip-path="url(#clip-169)"><text xml:space="preserve" font-family="Helvetica-Bold" font-weight="bold" font-size="50.0" fill="#000000" transform="matrix(1.00, 0.00, -0.00, -1.00, 29.0, 34.0)">S</text><text xml:space="preserve" font-family="Helvetica-Bold" font-weight="bold" font-size="50.0" fill="#000000" transform="matrix(1.00, 0.00, -0.00, -1.00, 62.3, 34.0)">e</text><text xml:space="preserve" font-family="Helvetica-Bold" font-weight="bold" font-size="50.0" fill="#000000" transform="matrix(1.00, 0.00, -0.00, -1.00, 90.2, 34.0)">a</text><text xml:space="preserve" font-family="Helvetica-Bold" font-weight="bold" font-size="50.0" fill="#000000" transform="matrix(1.00, 0.00, -0.00, -1.00, 118.0, 34.0)">r</text><text xml:space="preserve" font-family="Helvetica-Bold" font-weight="bold" font-size="50.0" fill="#000000" transform="matrix(1.00, 0.00, -0.00, -1.00, 137.5, 34.0)">c</text><text xml:space="preserve" font-family="Helvetica-Bold" font-weight="bold" font-size="50.0" fill="#000000" transform="matrix(1.00, 0.00, -0.00, -1.00, 165.3, 34.0)">h</text><text xml:space="preserve" font-family="Helvetica-Bold" font-weight="bold" font-size="50.0" fill="#000000" transform="matrix(1.00, 0.00, -0.00, -1.00, 195.8, 34.0)"> </text><text xml:space="preserve" font-family="Helvetica-Bold" font-weight="bold" font-size="50.0" fill="#000000" transform="matrix(1.00, 0.00, -0.00, -1.00, 209.7, 34.0)">T</text><text xml:space="preserve" font-family="Helvetica-Bold" font-weight="bold" font-size="50.0" fill="#000000" transform="matrix(1.00, 0.00, -0.00, -1.00, 236.5, 34.0)">e</text><text xml:space="preserve" font-family="Helvetica-Bold" font-weight="bold" font-size="50.0" fill="#000000" transform="matrix(1.00, 0.00, -0.00, -1.00, 264.3, 34.0)">r</text><text xml:space="preserve" font-family="Helvetica-Bold" font-weight="bold" font-size="50.0" fill="#000000" transform="matrix(1.00, 0.00, -0.00, -1.00, 283.8, 34.0)">m</text></g></g></g></svg>