<?xml version="1.0" encoding="UTF-8" standalone="no"?><svg xmlns="http://www.w3.org/2000/svg" xmlns:xlink="http://www.w3.org/1999/xlink" clip-rule="evenodd" stroke-miterlimit="4.00" viewBox="0 0 331 68"><desc>SVG generated by Keynote</desc><defs></defs><g transform="matrix(1.00, 0.00, -0.00, -1.00, 0.0, 68.0)"><path d="M 24.3 66.4 L 306.3 66.4 C 312.9 66.4 316.2 66.4 319.8 65.3 C 323.6 63.8 326.7 60.8 328.1 56.9 C 329.2 53.4 329.2 50.0 329.2 43.3 L 329.2 24.4 C 329.2 17.8 329.2 14.4 328.1 10.9 C 326.7 7.0 323.6 4.0 319.8 2.5 C 316.2 1.4 312.9 1.4 306.2 1.4 L 24.3 1.4 C 17.7 1.4 14.4 1.4 10.8 2.5 C 6.9 4.0 3.9 7.0 2.5 10.9 C 1.4 14.4 1.4 17.8 1.4 24.5 L 1.4 43.4 C 1.4 50.0 1.4 53.4 2.5 56.9 C 3.9 60.8 6.9 63.8 10.8 65.3 C 14.4 66.4 17.7 66.4 24.4 66.4 Z M 24.3 66.4 " fill="#EB5C56"></path></g></svg>