<?xml version="1.0" encoding="UTF-8" standalone="no"?><svg xmlns="http://www.w3.org/2000/svg" xmlns:xlink="http://www.w3.org/1999/xlink" clip-rule="evenodd" stroke-miterlimit="4.00" viewBox="0 0 74 199"><desc>SVG generated by Keynote</desc><defs></defs><g transform="matrix(1.00, 0.00, -0.00, -1.00, 0.0, 199.0)"><image xlink:href="../../63D399A3-35E1-45FF-B287-06BE5905E8D9/assets/748ADB321BC6828EFC4DA7CA3DED09AD.png" width="193.00" height="71.00" transform="matrix(0.00, 1.00, 1.00, -0.00, 1.4, 1.4)" opacity="0.50"></image><path d="M 4.4 29.4 L 4.4 170.1 C 4.4 176.6 4.4 180.0 5.5 183.5 C 6.9 187.4 9.9 190.5 13.8 191.9 C 17.4 193.0 20.7 193.0 27.4 193.0 L 46.4 193.0 C 53.0 193.0 56.3 193.0 59.8 191.9 C 63.7 190.5 66.8 187.4 68.2 183.5 C 69.3 180.0 69.3 176.6 69.3 170.0 L 69.3 29.4 C 69.3 22.8 69.3 19.4 68.2 15.9 C 66.8 12.0 63.7 9.0 59.8 7.5 C 56.3 6.4 53.0 6.4 46.3 6.4 L 27.3 6.4 C 20.7 6.4 17.4 6.4 13.8 7.5 C 9.9 9.0 6.9 12.0 5.5 15.9 C 4.4 19.4 4.4 22.8 4.4 29.5 Z M 4.4 29.4 " fill="#6FBF40"></path><g><clipPath id="clip-44"><path d="M 4.4 2.9 L 4.4 196.5 L 69.3 196.5 L 69.3 2.9 Z M 4.4 2.9 "></path></clipPath><g clip-path="url(#clip-44)"><text xml:space="preserve" font-family="Helvetica-Light" font-size="32.0" fill="#000000" transform="matrix(0.00, 1.00, 1.00, -0.00, 49.0, 18.0)">D</text><text xml:space="preserve" font-family="Helvetica-Light" font-size="32.0" fill="#000000" transform="matrix(0.00, 1.00, 1.00, -0.00, 49.0, 41.1)">e</text><text xml:space="preserve" font-family="Helvetica-Light" font-size="32.0" fill="#000000" transform="matrix(0.00, 1.00, 1.00, -0.00, 49.0, 58.9)">s</text><text xml:space="preserve" font-family="Helvetica-Light" font-size="32.0" fill="#000000" transform="matrix(0.00, 1.00, 1.00, -0.00, 49.0, 74.9)">c</text><text xml:space="preserve" font-family="Helvetica-Light" font-size="32.0" fill="#000000" transform="matrix(0.00, 1.00, 1.00, -0.00, 49.0, 92.7)">r</text><text xml:space="preserve" font-family="Helvetica-Light" font-size="32.0" fill="#000000" transform="matrix(0.00, 1.00, 1.00, -0.00, 49.0, 103.3)">i</text><text xml:space="preserve" font-family="Helvetica-Light" font-size="32.0" fill="#000000" transform="matrix(0.00, 1.00, 1.00, -0.00, 49.0, 110.4)">p</text><text xml:space="preserve" font-family="Helvetica-Light" font-size="32.0" fill="#000000" transform="matrix(0.00, 1.00, 1.00, -0.00, 49.0, 130.0)">t</text><text xml:space="preserve" font-family="Helvetica-Light" font-size="32.0" fill="#000000" transform="matrix(0.00, 1.00, 1.00, -0.00, 49.0, 138.9)">i</text><text xml:space="preserve" font-family="Helvetica-Light" font-size="32.0" fill="#000000" transform="matrix(0.00, 1.00, 1.00, -0.00, 49.0, 146.0)">o</text><text xml:space="preserve" font-family="Helvetica-Light" font-size="32.0" fill="#000000" transform="matrix(0.00, 1.00, 1.00, -0.00, 49.0, 163.8)">n</text></g></g></g></svg>