<?xml version="1.0" encoding="UTF-8" standalone="no"?><svg xmlns="http://www.w3.org/2000/svg" xmlns:xlink="http://www.w3.org/1999/xlink" clip-rule="evenodd" stroke-miterlimit="4.00" viewBox="0 0 502 117"><desc>SVG generated by Keynote</desc><defs></defs><g transform="matrix(1.00, 0.00, -0.00, -1.00, 0.0, 117.0)"><image xlink:href="../../47A5CE0A-6CF5-4987-A53B-5E7E0B38401C/assets/07872CBE44E0902D66E647B0AB56D26E.png" width="499.00" height="109.00" transform="matrix(1.00, 0.00, -0.00, -1.00, 1.8, 111.1)" opacity="0.50"></image><path d="M 28.4 110.1 L 473.8 110.1 C 480.6 110.1 484.0 110.1 487.7 108.9 C 491.7 107.5 494.8 104.3 496.3 100.3 C 497.4 96.7 497.4 93.2 497.4 86.3 L 497.4 30.6 C 497.4 23.8 497.4 20.4 496.3 16.7 C 494.8 12.7 491.7 9.6 487.7 8.1 C 484.0 7.0 480.6 7.0 473.7 7.0 L 28.4 7.0 C 21.7 7.0 18.2 7.0 14.6 8.1 C 10.6 9.6 7.4 12.7 6.0 16.7 C 4.8 20.4 4.8 23.8 4.8 30.7 L 4.8 86.5 C 4.8 93.2 4.8 96.7 6.0 100.3 C 7.4 104.3 10.6 107.5 14.6 108.9 C 18.2 110.1 21.7 110.1 28.5 110.1 Z M 28.4 110.1 " fill="#51A7F9"></path></g></svg>