<?xml version="1.0" encoding="UTF-8" standalone="no"?><svg xmlns="http://www.w3.org/2000/svg" xmlns:xlink="http://www.w3.org/1999/xlink" clip-rule="evenodd" stroke-miterlimit="4.00" viewBox="0 0 1633 44"><desc>SVG generated by Keynote</desc><defs></defs><g transform="matrix(1.00, 0.00, -0.00, -1.00, 0.0, 44.0)"><text xml:space="preserve" font-family="Courier" font-size="46.0" fill="#000000" transform="matrix(1.00, 0.00, -0.00, -1.00, 0.0, 11.0)">h</text><text xml:space="preserve" font-family="Courier" font-size="46.0" fill="#000000" transform="matrix(1.00, 0.00, -0.00, -1.00, 27.6, 11.0)">o</text><text xml:space="preserve" font-family="Courier" font-size="46.0" fill="#000000" transform="matrix(1.00, 0.00, -0.00, -1.00, 55.2, 11.0)">t</text><text xml:space="preserve" font-family="Courier" font-size="46.0" fill="#000000" transform="matrix(1.00, 0.00, -0.00, -1.00, 91.7, 11.0)"> </text><text xml:space="preserve" font-family="Courier" font-size="46.0" fill="#000000" transform="matrix(1.00, 0.00, -0.00, -1.00, 128.2, 11.0)">r</text><text xml:space="preserve" font-family="Courier" font-size="46.0" fill="#000000" transform="matrix(1.00, 0.00, -0.00, -1.00, 155.8, 11.0)">a</text><text xml:space="preserve" font-family="Courier" font-size="46.0" fill="#000000" transform="matrix(1.00, 0.00, -0.00, -1.00, 183.4, 11.0)">c</text><text xml:space="preserve" font-family="Courier" font-size="46.0" fill="#000000" transform="matrix(1.00, 0.00, -0.00, -1.00, 211.0, 11.0)">k</text><text xml:space="preserve" font-family="Courier" font-size="46.0" fill="#000000" transform="matrix(1.00, 0.00, -0.00, -1.00, 238.6, 11.0)">,</text><text xml:space="preserve" font-family="Courier" font-size="46.0" fill="#000000" transform="matrix(1.00, 0.00, -0.00, -1.00, 275.1, 11.0)"> </text><text xml:space="preserve" font-family="Courier" font-size="46.0" fill="#000000" transform="matrix(1.00, 0.00, -0.00, -1.00, 311.6, 11.0)">h</text><text xml:space="preserve" font-family="Courier" font-size="46.0" fill="#000000" transform="matrix(1.00, 0.00, -0.00, -1.00, 339.2, 11.0)">o</text><text xml:space="preserve" font-family="Courier" font-size="46.0" fill="#000000" transform="matrix(1.00, 0.00, -0.00, -1.00, 366.8, 11.0)">t</text><text xml:space="preserve" font-family="Courier" font-size="46.0" fill="#000000" transform="matrix(1.00, 0.00, -0.00, -1.00, 403.3, 11.0)"> </text><text xml:space="preserve" font-family="Courier" font-size="46.0" fill="#000000" transform="matrix(1.00, 0.00, -0.00, -1.00, 439.8, 11.0)">r</text><text xml:space="preserve" font-family="Courier" font-size="46.0" fill="#000000" transform="matrix(1.00, 0.00, -0.00, -1.00, 467.4, 11.0)">a</text><text xml:space="preserve" font-family="Courier" font-size="46.0" fill="#000000" transform="matrix(1.00, 0.00, -0.00, -1.00, 495.0, 11.0)">c</text><text xml:space="preserve" font-family="Courier" font-size="46.0" fill="#000000" transform="matrix(1.00, 0.00, -0.00, -1.00, 522.6, 11.0)">k</text><text xml:space="preserve" font-family="Courier" font-size="46.0" fill="#000000" transform="matrix(1.00, 0.00, -0.00, -1.00, 559.1, 11.0)"> </text><text xml:space="preserve" font-family="Courier" font-size="46.0" fill="#000000" transform="matrix(1.00, 0.00, -0.00, -1.00, 595.6, 11.0)">i</text><text xml:space="preserve" font-family="Courier" font-size="46.0" fill="#000000" transform="matrix(1.00, 0.00, -0.00, -1.00, 623.2, 11.0)">n</text><text xml:space="preserve" font-family="Courier" font-size="46.0" fill="#000000" transform="matrix(1.00, 0.00, -0.00, -1.00, 650.8, 11.0)">c</text><text xml:space="preserve" font-family="Courier" font-size="46.0" fill="#000000" transform="matrix(1.00, 0.00, -0.00, -1.00, 678.4, 11.0)">h</text><text xml:space="preserve" font-family="Courier" font-size="46.0" fill="#000000" transform="matrix(1.00, 0.00, -0.00, -1.00, 706.0, 11.0)">e</text><text xml:space="preserve" font-family="Courier" font-size="46.0" fill="#000000" transform="matrix(1.00, 0.00, -0.00, -1.00, 733.6, 11.0)">s</text><text xml:space="preserve" font-family="Courier" font-size="46.0" fill="#000000" transform="matrix(1.00, 0.00, -0.00, -1.00, 761.3, 11.0)">,</text><text xml:space="preserve" font-family="Courier" font-size="46.0" fill="#000000" transform="matrix(1.00, 0.00, -0.00, -1.00, 797.7, 11.0)"> </text><text xml:space="preserve" font-family="Courier" font-size="46.0" fill="#000000" transform="matrix(1.00, 0.00, -0.00, -1.00, 834.2, 11.0)">r</text><text xml:space="preserve" font-family="Courier" font-size="46.0" fill="#000000" transform="matrix(1.00, 0.00, -0.00, -1.00, 861.8, 11.0)">a</text><text xml:space="preserve" font-family="Courier" font-size="46.0" fill="#000000" transform="matrix(1.00, 0.00, -0.00, -1.00, 889.4, 11.0)">c</text><text xml:space="preserve" font-family="Courier" font-size="46.0" fill="#000000" transform="matrix(1.00, 0.00, -0.00, -1.00, 917.1, 11.0)">k</text><text xml:space="preserve" font-family="Courier" font-size="46.0" fill="#000000" transform="matrix(1.00, 0.00, -0.00, -1.00, 953.5, 11.0)"> </text><text xml:space="preserve" font-family="Courier" font-size="46.0" fill="#000000" transform="matrix(1.00, 0.00, -0.00, -1.00, 990.0, 11.0)">i</text><text xml:space="preserve" font-family="Courier" font-size="46.0" fill="#000000" transform="matrix(1.00, 0.00, -0.00, -1.00, 1017.6, 11.0)">n</text><text xml:space="preserve" font-family="Courier" font-size="46.0" fill="#000000" transform="matrix(1.00, 0.00, -0.00, -1.00, 1045.2, 11.0)">c</text><text xml:space="preserve" font-family="Courier" font-size="46.0" fill="#000000" transform="matrix(1.00, 0.00, -0.00, -1.00, 1072.9, 11.0)">h</text><text xml:space="preserve" font-family="Courier" font-size="46.0" fill="#000000" transform="matrix(1.00, 0.00, -0.00, -1.00, 1100.5, 11.0)">e</text><text xml:space="preserve" font-family="Courier" font-size="46.0" fill="#000000" transform="matrix(1.00, 0.00, -0.00, -1.00, 1128.1, 11.0)">s</text><text xml:space="preserve" font-family="Courier" font-size="46.0" fill="#000000" transform="matrix(1.00, 0.00, -0.00, -1.00, 1155.7, 11.0)">,</text><text xml:space="preserve" font-family="Courier" font-size="46.0" fill="#000000" transform="matrix(1.00, 0.00, -0.00, -1.00, 1192.2, 11.0)"> </text><text xml:space="preserve" font-family="Courier" font-size="46.0" fill="#000000" transform="matrix(1.00, 0.00, -0.00, -1.00, 1228.7, 11.0)">m</text><text xml:space="preserve" font-family="Courier" font-size="46.0" fill="#000000" transform="matrix(1.00, 0.00, -0.00, -1.00, 1256.3, 11.0)">o</text><text xml:space="preserve" font-family="Courier" font-size="46.0" fill="#000000" transform="matrix(1.00, 0.00, -0.00, -1.00, 1283.9, 11.0)">d</text><text xml:space="preserve" font-family="Courier" font-size="46.0" fill="#000000" transform="matrix(1.00, 0.00, -0.00, -1.00, 1311.5, 11.0)">e</text><text xml:space="preserve" font-family="Courier" font-size="46.0" fill="#000000" transform="matrix(1.00, 0.00, -0.00, -1.00, 1339.1, 11.0)">r</text><text xml:space="preserve" font-family="Courier" font-size="46.0" fill="#000000" transform="matrix(1.00, 0.00, -0.00, -1.00, 1366.7, 11.0)">a</text><text xml:space="preserve" font-family="Courier" font-size="46.0" fill="#000000" transform="matrix(1.00, 0.00, -0.00, -1.00, 1394.3, 11.0)">t</text><text xml:space="preserve" font-family="Courier" font-size="46.0" fill="#000000" transform="matrix(1.00, 0.00, -0.00, -1.00, 1421.9, 11.0)">e</text><text xml:space="preserve" font-family="Courier" font-size="46.0" fill="#000000" transform="matrix(1.00, 0.00, -0.00, -1.00, 1449.5, 11.0)">l</text><text xml:space="preserve" font-family="Courier" font-size="46.0" fill="#000000" transform="matrix(1.00, 0.00, -0.00, -1.00, 1477.1, 11.0)">y</text><text xml:space="preserve" font-family="Courier" font-size="46.0" fill="#000000" transform="matrix(1.00, 0.00, -0.00, -1.00, 1513.6, 11.0)"> </text><text xml:space="preserve" font-family="Courier" font-size="46.0" fill="#000000" transform="matrix(1.00, 0.00, -0.00, -1.00, 1550.1, 11.0)">h</text><text xml:space="preserve" font-family="Courier" font-size="46.0" fill="#000000" transform="matrix(1.00, 0.00, -0.00, -1.00, 1577.7, 11.0)">o</text><text xml:space="preserve" font-family="Courier" font-size="46.0" fill="#000000" transform="matrix(1.00, 0.00, -0.00, -1.00, 1605.3, 11.0)">t</text></g></svg>