<?xml version="1.0" encoding="UTF-8" standalone="no"?><svg xmlns="http://www.w3.org/2000/svg" xmlns:xlink="http://www.w3.org/1999/xlink" clip-rule="evenodd" stroke-miterlimit="4.00" viewBox="0 0 1631 44"><desc>SVG generated by Keynote</desc><defs></defs><g transform="matrix(1.00, 0.00, -0.00, -1.00, 0.0, 44.0)"><text xml:space="preserve" font-family="Courier" font-size="46.0" fill="#000000" transform="matrix(1.00, 0.00, -0.00, -1.00, 0.0, 11.0)">r</text><text xml:space="preserve" font-family="Courier" font-size="46.0" fill="#000000" transform="matrix(1.00, 0.00, -0.00, -1.00, 27.6, 11.0)">a</text><text xml:space="preserve" font-family="Courier" font-size="46.0" fill="#000000" transform="matrix(1.00, 0.00, -0.00, -1.00, 55.2, 11.0)">c</text><text xml:space="preserve" font-family="Courier" font-size="46.0" fill="#000000" transform="matrix(1.00, 0.00, -0.00, -1.00, 82.8, 11.0)">k</text><text xml:space="preserve" font-family="Courier" font-size="46.0" fill="#000000" transform="matrix(1.00, 0.00, -0.00, -1.00, 110.4, 11.0)">,</text><text xml:space="preserve" font-family="Courier" font-size="46.0" fill="#000000" transform="matrix(1.00, 0.00, -0.00, -1.00, 161.4, 11.0)"> </text><text xml:space="preserve" font-family="Courier" font-size="46.0" fill="#000000" transform="matrix(1.00, 0.00, -0.00, -1.00, 212.4, 11.0)">m</text><text xml:space="preserve" font-family="Courier" font-size="46.0" fill="#000000" transform="matrix(1.00, 0.00, -0.00, -1.00, 240.0, 11.0)">o</text><text xml:space="preserve" font-family="Courier" font-size="46.0" fill="#000000" transform="matrix(1.00, 0.00, -0.00, -1.00, 267.6, 11.0)">d</text><text xml:space="preserve" font-family="Courier" font-size="46.0" fill="#000000" transform="matrix(1.00, 0.00, -0.00, -1.00, 295.2, 11.0)">e</text><text xml:space="preserve" font-family="Courier" font-size="46.0" fill="#000000" transform="matrix(1.00, 0.00, -0.00, -1.00, 322.8, 11.0)">r</text><text xml:space="preserve" font-family="Courier" font-size="46.0" fill="#000000" transform="matrix(1.00, 0.00, -0.00, -1.00, 350.4, 11.0)">a</text><text xml:space="preserve" font-family="Courier" font-size="46.0" fill="#000000" transform="matrix(1.00, 0.00, -0.00, -1.00, 378.0, 11.0)">t</text><text xml:space="preserve" font-family="Courier" font-size="46.0" fill="#000000" transform="matrix(1.00, 0.00, -0.00, -1.00, 405.7, 11.0)">e</text><text xml:space="preserve" font-family="Courier" font-size="46.0" fill="#000000" transform="matrix(1.00, 0.00, -0.00, -1.00, 433.3, 11.0)">l</text><text xml:space="preserve" font-family="Courier" font-size="46.0" fill="#000000" transform="matrix(1.00, 0.00, -0.00, -1.00, 460.9, 11.0)">y</text><text xml:space="preserve" font-family="Courier" font-size="46.0" fill="#000000" transform="matrix(1.00, 0.00, -0.00, -1.00, 511.8, 11.0)"> </text><text xml:space="preserve" font-family="Courier" font-size="46.0" fill="#000000" transform="matrix(1.00, 0.00, -0.00, -1.00, 562.8, 11.0)">h</text><text xml:space="preserve" font-family="Courier" font-size="46.0" fill="#000000" transform="matrix(1.00, 0.00, -0.00, -1.00, 590.4, 11.0)">o</text><text xml:space="preserve" font-family="Courier" font-size="46.0" fill="#000000" transform="matrix(1.00, 0.00, -0.00, -1.00, 618.0, 11.0)">t</text><text xml:space="preserve" font-family="Courier" font-size="46.0" fill="#000000" transform="matrix(1.00, 0.00, -0.00, -1.00, 645.7, 11.0)">,</text><text xml:space="preserve" font-family="Courier" font-size="46.0" fill="#000000" transform="matrix(1.00, 0.00, -0.00, -1.00, 696.6, 11.0)"> </text><text xml:space="preserve" font-family="Courier" font-size="46.0" fill="#000000" transform="matrix(1.00, 0.00, -0.00, -1.00, 747.6, 11.0)">g</text><text xml:space="preserve" font-family="Courier" font-size="46.0" fill="#000000" transform="matrix(1.00, 0.00, -0.00, -1.00, 775.2, 11.0)">r</text><text xml:space="preserve" font-family="Courier" font-size="46.0" fill="#000000" transform="matrix(1.00, 0.00, -0.00, -1.00, 802.8, 11.0)">i</text><text xml:space="preserve" font-family="Courier" font-size="46.0" fill="#000000" transform="matrix(1.00, 0.00, -0.00, -1.00, 830.4, 11.0)">l</text><text xml:space="preserve" font-family="Courier" font-size="46.0" fill="#000000" transform="matrix(1.00, 0.00, -0.00, -1.00, 858.0, 11.0)">l</text><text xml:space="preserve" font-family="Courier" font-size="46.0" fill="#000000" transform="matrix(1.00, 0.00, -0.00, -1.00, 909.0, 11.0)"> </text><text xml:space="preserve" font-family="Courier" font-size="46.0" fill="#000000" transform="matrix(1.00, 0.00, -0.00, -1.00, 960.0, 11.0)">m</text><text xml:space="preserve" font-family="Courier" font-size="46.0" fill="#000000" transform="matrix(1.00, 0.00, -0.00, -1.00, 987.6, 11.0)">o</text><text xml:space="preserve" font-family="Courier" font-size="46.0" fill="#000000" transform="matrix(1.00, 0.00, -0.00, -1.00, 1015.2, 11.0)">d</text><text xml:space="preserve" font-family="Courier" font-size="46.0" fill="#000000" transform="matrix(1.00, 0.00, -0.00, -1.00, 1042.8, 11.0)">e</text><text xml:space="preserve" font-family="Courier" font-size="46.0" fill="#000000" transform="matrix(1.00, 0.00, -0.00, -1.00, 1070.4, 11.0)">r</text><text xml:space="preserve" font-family="Courier" font-size="46.0" fill="#000000" transform="matrix(1.00, 0.00, -0.00, -1.00, 1098.0, 11.0)">a</text><text xml:space="preserve" font-family="Courier" font-size="46.0" fill="#000000" transform="matrix(1.00, 0.00, -0.00, -1.00, 1125.7, 11.0)">t</text><text xml:space="preserve" font-family="Courier" font-size="46.0" fill="#000000" transform="matrix(1.00, 0.00, -0.00, -1.00, 1153.3, 11.0)">e</text><text xml:space="preserve" font-family="Courier" font-size="46.0" fill="#000000" transform="matrix(1.00, 0.00, -0.00, -1.00, 1180.9, 11.0)">l</text><text xml:space="preserve" font-family="Courier" font-size="46.0" fill="#000000" transform="matrix(1.00, 0.00, -0.00, -1.00, 1208.5, 11.0)">y</text><text xml:space="preserve" font-family="Courier" font-size="46.0" fill="#000000" transform="matrix(1.00, 0.00, -0.00, -1.00, 1236.1, 11.0)">,</text><text xml:space="preserve" font-family="Courier" font-size="46.0" fill="#000000" transform="matrix(1.00, 0.00, -0.00, -1.00, 1287.1, 11.0)"> </text><text xml:space="preserve" font-family="Courier" font-size="46.0" fill="#000000" transform="matrix(1.00, 0.00, -0.00, -1.00, 1338.0, 11.0)">g</text><text xml:space="preserve" font-family="Courier" font-size="46.0" fill="#000000" transform="matrix(1.00, 0.00, -0.00, -1.00, 1365.7, 11.0)">a</text><text xml:space="preserve" font-family="Courier" font-size="46.0" fill="#000000" transform="matrix(1.00, 0.00, -0.00, -1.00, 1393.3, 11.0)">s</text><text xml:space="preserve" font-family="Courier" font-size="46.0" fill="#000000" transform="matrix(1.00, 0.00, -0.00, -1.00, 1444.2, 11.0)"> </text><text xml:space="preserve" font-family="Courier" font-size="46.0" fill="#000000" transform="matrix(1.00, 0.00, -0.00, -1.00, 1495.2, 11.0)">g</text><text xml:space="preserve" font-family="Courier" font-size="46.0" fill="#000000" transform="matrix(1.00, 0.00, -0.00, -1.00, 1522.8, 11.0)">r</text><text xml:space="preserve" font-family="Courier" font-size="46.0" fill="#000000" transform="matrix(1.00, 0.00, -0.00, -1.00, 1550.4, 11.0)">i</text><text xml:space="preserve" font-family="Courier" font-size="46.0" fill="#000000" transform="matrix(1.00, 0.00, -0.00, -1.00, 1578.0, 11.0)">l</text><text xml:space="preserve" font-family="Courier" font-size="46.0" fill="#000000" transform="matrix(1.00, 0.00, -0.00, -1.00, 1605.7, 11.0)">l</text></g></svg>