<?xml version="1.0" encoding="UTF-8" standalone="no"?><svg xmlns="http://www.w3.org/2000/svg" xmlns:xlink="http://www.w3.org/1999/xlink" clip-rule="evenodd" stroke-miterlimit="4.00" viewBox="0 0 306 78"><desc>SVG generated by Keynote</desc><defs></defs><g transform="matrix(1.00, 0.00, -0.00, -1.00, 0.0, 78.0)"><image xlink:href="../../47A5CE0A-6CF5-4987-A53B-5E7E0B38401C/assets/06F9F7D57A7D3C1BC41A69F02FDCC030.png" width="303.00" height="71.00" transform="matrix(1.00, 0.00, -0.00, -1.00, 1.3, 72.7)" opacity="0.50"></image><path d="M 27.2 71.7 L 278.1 71.7 C 284.7 71.7 288.0 71.7 291.5 70.6 C 295.4 69.2 298.5 66.1 299.9 62.2 C 301.0 58.7 301.0 55.4 301.0 48.7 L 301.0 29.7 C 301.0 23.1 301.0 19.8 299.9 16.2 C 298.5 12.4 295.4 9.3 291.5 7.9 C 288.0 6.8 284.7 6.8 278.0 6.8 L 27.2 6.8 C 20.7 6.8 17.3 6.8 13.8 7.9 C 9.9 9.3 6.8 12.4 5.4 16.2 C 4.3 19.8 4.3 23.1 4.3 29.8 L 4.3 48.8 C 4.3 55.4 4.3 58.7 5.4 62.2 C 6.8 66.1 9.9 69.2 13.8 70.6 C 17.3 71.7 20.7 71.7 27.3 71.7 Z M 27.2 71.7 " fill="#EB5C56"></path><g><clipPath id="clip-47"><path d="M 0.8 6.8 L 304.5 6.8 L 304.5 71.7 L 0.8 71.7 Z M 0.8 6.8 "></path></clipPath><g clip-path="url(#clip-47)"><text xml:space="preserve" font-family="Helvetica-Light" font-size="32.0" fill="#000000" transform="matrix(1.00, 0.00, -0.00, -1.00, 34.0, 27.0)">C</text><text xml:space="preserve" font-family="Helvetica-Light" font-size="32.0" fill="#000000" transform="matrix(1.00, 0.00, -0.00, -1.00, 57.1, 27.0)">o</text><text xml:space="preserve" font-family="Helvetica-Light" font-size="32.0" fill="#000000" transform="matrix(1.00, 0.00, -0.00, -1.00, 74.9, 27.0)">u</text><text xml:space="preserve" font-family="Helvetica-Light" font-size="32.0" fill="#000000" transform="matrix(1.00, 0.00, -0.00, -1.00, 92.7, 27.0)">n</text><text xml:space="preserve" font-family="Helvetica-Light" font-size="32.0" fill="#000000" transform="matrix(1.00, 0.00, -0.00, -1.00, 110.5, 27.0)">t</text><text xml:space="preserve" font-family="Helvetica-Light" font-size="32.0" fill="#000000" transform="matrix(1.00, 0.00, -0.00, -1.00, 119.4, 27.0)"> </text><text xml:space="preserve" font-family="Helvetica-Light" font-size="32.0" fill="#000000" transform="matrix(1.00, 0.00, -0.00, -1.00, 128.3, 27.0)">V</text><text xml:space="preserve" font-family="Helvetica-Light" font-size="32.0" fill="#000000" transform="matrix(1.00, 0.00, -0.00, -1.00, 146.1, 27.0)">e</text><text xml:space="preserve" font-family="Helvetica-Light" font-size="32.0" fill="#000000" transform="matrix(1.00, 0.00, -0.00, -1.00, 163.9, 27.0)">c</text><text xml:space="preserve" font-family="Helvetica-Light" font-size="32.0" fill="#000000" transform="matrix(1.00, 0.00, -0.00, -1.00, 181.6, 27.0)">t</text><text xml:space="preserve" font-family="Helvetica-Light" font-size="32.0" fill="#000000" transform="matrix(1.00, 0.00, -0.00, -1.00, 190.5, 27.0)">o</text><text xml:space="preserve" font-family="Helvetica-Light" font-size="32.0" fill="#000000" transform="matrix(1.00, 0.00, -0.00, -1.00, 208.3, 27.0)">r</text><text xml:space="preserve" font-family="Helvetica-Light" font-size="32.0" fill="#000000" transform="matrix(1.00, 0.00, -0.00, -1.00, 219.0, 27.0)">i</text><text xml:space="preserve" font-family="Helvetica-Light" font-size="32.0" fill="#000000" transform="matrix(1.00, 0.00, -0.00, -1.00, 226.1, 27.0)">z</text><text xml:space="preserve" font-family="Helvetica-Light" font-size="32.0" fill="#000000" transform="matrix(1.00, 0.00, -0.00, -1.00, 242.1, 27.0)">e</text><text xml:space="preserve" font-family="Helvetica-Light" font-size="32.0" fill="#000000" transform="matrix(1.00, 0.00, -0.00, -1.00, 259.9, 27.0)">r</text></g></g></g></svg>