<?xml version="1.0" encoding="UTF-8" standalone="no"?><svg xmlns="http://www.w3.org/2000/svg" xmlns:xlink="http://www.w3.org/1999/xlink" clip-rule="evenodd" stroke-miterlimit="4.00" viewBox="0 0 225 116"><desc>SVG generated by Keynote</desc><defs></defs><g transform="matrix(1.00, 0.00, -0.00, -1.00, 0.0, 116.0)"><image xlink:href="../../232ACC8C-DA5A-443C-9D1D-CCF2A5A78B08/assets/F7C2A6DA6DBD5622FE470D833B3F6C95.png" width="222.00" height="109.00" transform="matrix(1.00, 0.00, -0.00, -1.00, 1.1, 110.7)" opacity="0.50"></image><path d="M 27.7 109.7 L 196.9 109.7 C 203.7 109.7 207.1 109.7 210.8 108.6 C 214.8 107.1 217.9 104.0 219.4 100.0 C 220.6 96.3 220.6 92.9 220.6 86.0 L 220.6 30.3 C 220.6 23.5 220.6 20.0 219.4 16.4 C 217.9 12.4 214.8 9.2 210.8 7.8 C 207.1 6.6 203.7 6.6 196.8 6.6 L 27.7 6.6 C 21.0 6.6 17.5 6.6 13.9 7.8 C 9.9 9.2 6.7 12.4 5.2 16.4 C 4.1 20.0 4.1 23.5 4.1 30.4 L 4.1 86.1 C 4.1 92.9 4.1 96.3 5.2 100.0 C 6.7 104.0 9.9 107.1 13.9 108.6 C 17.5 109.7 21.0 109.7 27.8 109.7 Z M 27.7 109.7 " fill="#51A7F9"></path><g><clipPath id="clip-38"><path d="M -4.4 6.6 L 229.1 6.6 L 229.1 109.7 L -4.4 109.7 Z M -4.4 6.6 "></path></clipPath><g clip-path="url(#clip-38)"><text xml:space="preserve" font-family="Helvetica-Bold" font-weight="bold" font-size="50.0" fill="#000000" transform="matrix(1.00, 0.00, -0.00, -1.00, 30.0, 39.0)">R</text><text xml:space="preserve" font-family="Helvetica-Bold" font-weight="bold" font-size="50.0" fill="#000000" transform="matrix(1.00, 0.00, -0.00, -1.00, 66.1, 39.0)">e</text><text xml:space="preserve" font-family="Helvetica-Bold" font-weight="bold" font-size="50.0" fill="#000000" transform="matrix(1.00, 0.00, -0.00, -1.00, 93.9, 39.0)">c</text><text xml:space="preserve" font-family="Helvetica-Bold" font-weight="bold" font-size="50.0" fill="#000000" transform="matrix(1.00, 0.00, -0.00, -1.00, 121.8, 39.0)">i</text><text xml:space="preserve" font-family="Helvetica-Bold" font-weight="bold" font-size="50.0" fill="#000000" transform="matrix(1.00, 0.00, -0.00, -1.00, 135.7, 39.0)">p</text><text xml:space="preserve" font-family="Helvetica-Bold" font-weight="bold" font-size="50.0" fill="#000000" transform="matrix(1.00, 0.00, -0.00, -1.00, 166.2, 39.0)">e</text></g></g></g></svg>