<?xml version="1.0" encoding="UTF-8" standalone="no"?><svg xmlns="http://www.w3.org/2000/svg" xmlns:xlink="http://www.w3.org/1999/xlink" clip-rule="evenodd" stroke-miterlimit="4.00" viewBox="0 0 362 116"><desc>SVG generated by Keynote</desc><defs></defs><g transform="matrix(1.00, 0.00, -0.00, -1.00, 0.0, 116.0)"><image xlink:href="../../8B8F5646-DEE6-4B72-96FF-8EA7AD0B47C3/assets/5429DA88C4363CC4B41D70FC123B7342.png" width="359.00" height="109.00" transform="matrix(1.00, 0.00, -0.00, -1.00, 1.2, 110.7)" opacity="0.50"></image><path d="M 27.8 109.7 L 333.9 109.7 C 340.7 109.7 344.2 109.7 347.8 108.6 C 351.8 107.1 355.0 104.0 356.4 100.0 C 357.6 96.3 357.6 92.9 357.6 86.0 L 357.6 30.3 C 357.6 23.5 357.6 20.0 356.4 16.4 C 355.0 12.4 351.8 9.2 347.8 7.8 C 344.2 6.6 340.7 6.6 333.8 6.6 L 27.8 6.6 C 21.0 6.6 17.6 6.6 13.9 7.8 C 9.9 9.2 6.8 12.4 5.3 16.4 C 4.2 20.0 4.2 23.5 4.2 30.4 L 4.2 86.1 C 4.2 92.9 4.2 96.3 5.3 100.0 C 6.8 104.0 9.9 107.1 13.9 108.6 C 17.6 109.7 21.0 109.7 27.9 109.7 Z M 27.8 109.7 " fill="#51A7F9"></path><g><clipPath id="clip-37"><path d="M -4.3 6.6 L 366.1 6.6 L 366.1 109.7 L -4.3 109.7 Z M -4.3 6.6 "></path></clipPath><g clip-path="url(#clip-37)"><text xml:space="preserve" font-family="Helvetica-Bold" font-weight="bold" font-size="50.0" fill="#000000" transform="matrix(1.00, 0.00, -0.00, -1.00, 28.0, 39.0)">C</text><text xml:space="preserve" font-family="Helvetica-Bold" font-weight="bold" font-size="50.0" fill="#000000" transform="matrix(1.00, 0.00, -0.00, -1.00, 64.1, 39.0)">o</text><text xml:space="preserve" font-family="Helvetica-Bold" font-weight="bold" font-size="50.0" fill="#000000" transform="matrix(1.00, 0.00, -0.00, -1.00, 94.7, 39.0)">m</text><text xml:space="preserve" font-family="Helvetica-Bold" font-weight="bold" font-size="50.0" fill="#000000" transform="matrix(1.00, 0.00, -0.00, -1.00, 139.1, 39.0)">p</text><text xml:space="preserve" font-family="Helvetica-Bold" font-weight="bold" font-size="50.0" fill="#000000" transform="matrix(1.00, 0.00, -0.00, -1.00, 169.7, 39.0)">o</text><text xml:space="preserve" font-family="Helvetica-Bold" font-weight="bold" font-size="50.0" fill="#000000" transform="matrix(1.00, 0.00, -0.00, -1.00, 200.2, 39.0)">n</text><text xml:space="preserve" font-family="Helvetica-Bold" font-weight="bold" font-size="50.0" fill="#000000" transform="matrix(1.00, 0.00, -0.00, -1.00, 230.7, 39.0)">e</text><text xml:space="preserve" font-family="Helvetica-Bold" font-weight="bold" font-size="50.0" fill="#000000" transform="matrix(1.00, 0.00, -0.00, -1.00, 258.5, 39.0)">n</text><text xml:space="preserve" font-family="Helvetica-Bold" font-weight="bold" font-size="50.0" fill="#000000" transform="matrix(1.00, 0.00, -0.00, -1.00, 289.1, 39.0)">t</text><text xml:space="preserve" font-family="Helvetica-Bold" font-weight="bold" font-size="50.0" fill="#000000" transform="matrix(1.00, 0.00, -0.00, -1.00, 305.7, 39.0)">s</text></g></g></g></svg>