<?xml version="1.0" encoding="UTF-8" standalone="no"?><svg xmlns="http://www.w3.org/2000/svg" xmlns:xlink="http://www.w3.org/1999/xlink" clip-rule="evenodd" stroke-miterlimit="4.00" viewBox="0 0 501 116"><desc>SVG generated by Keynote</desc><defs></defs><g transform="matrix(1.00, 0.00, -0.00, -1.00, 0.0, 116.0)"><image xlink:href="07872CBE44E0902D66E647B0AB56D26E.png" width="499.00" height="109.00" transform="matrix(1.00, 0.00, -0.00, -1.00, 1.4, 111.0)" opacity="0.50"></image><path d="M 28.0 110.0 L 473.3 110.0 C 480.1 110.0 483.6 110.0 487.2 108.8 C 491.2 107.4 494.4 104.2 495.8 100.2 C 497.0 96.6 497.0 93.1 497.0 86.2 L 497.0 30.5 C 497.0 23.7 497.0 20.3 495.8 16.6 C 494.4 12.6 491.2 9.5 487.2 8.0 C 483.6 6.9 480.1 6.9 473.2 6.9 L 28.0 6.9 C 21.2 6.9 17.8 6.9 14.1 8.0 C 10.1 9.5 7.0 12.6 5.5 16.6 C 4.4 20.3 4.4 23.7 4.4 30.6 L 4.4 86.4 C 4.4 93.1 4.4 96.6 5.5 100.2 C 7.0 104.2 10.1 107.4 14.1 108.8 C 17.8 110.0 21.2 110.0 28.1 110.0 Z M 28.0 110.0 " fill="#51A7F9"></path><g><clipPath id="clip-45"><path d="M -4.1 6.9 L 505.5 6.9 L 505.5 110.0 L -4.1 110.0 Z M -4.1 6.9 "></path></clipPath><g clip-path="url(#clip-45)"><text xml:space="preserve" font-family="Helvetica-Bold" font-weight="bold" font-size="50.0" fill="#000000" transform="matrix(1.00, 0.00, -0.00, -1.00, 31.0, 40.0)">B</text><text xml:space="preserve" font-family="Helvetica-Bold" font-weight="bold" font-size="50.0" fill="#000000" transform="matrix(1.00, 0.00, -0.00, -1.00, 67.1, 40.0)">a</text><text xml:space="preserve" font-family="Helvetica-Bold" font-weight="bold" font-size="50.0" fill="#000000" transform="matrix(1.00, 0.00, -0.00, -1.00, 94.9, 40.0)">g</text><text xml:space="preserve" font-family="Helvetica-Bold" font-weight="bold" font-size="50.0" fill="#000000" transform="matrix(1.00, 0.00, -0.00, -1.00, 125.5, 40.0)"> </text><text xml:space="preserve" font-family="Helvetica-Bold" font-weight="bold" font-size="50.0" fill="#000000" transform="matrix(1.00, 0.00, -0.00, -1.00, 139.3, 40.0)">o</text><text xml:space="preserve" font-family="Helvetica-Bold" font-weight="bold" font-size="50.0" fill="#000000" transform="matrix(1.00, 0.00, -0.00, -1.00, 169.9, 40.0)">f</text><text xml:space="preserve" font-family="Helvetica-Bold" font-weight="bold" font-size="50.0" fill="#000000" transform="matrix(1.00, 0.00, -0.00, -1.00, 186.5, 40.0)"> </text><text xml:space="preserve" font-family="Helvetica-Bold" font-weight="bold" font-size="50.0" fill="#000000" transform="matrix(1.00, 0.00, -0.00, -1.00, 200.4, 40.0)">I</text><text xml:space="preserve" font-family="Helvetica-Bold" font-weight="bold" font-size="50.0" fill="#000000" transform="matrix(1.00, 0.00, -0.00, -1.00, 214.3, 40.0)">n</text><text xml:space="preserve" font-family="Helvetica-Bold" font-weight="bold" font-size="50.0" fill="#000000" transform="matrix(1.00, 0.00, -0.00, -1.00, 244.8, 40.0)">g</text><text xml:space="preserve" font-family="Helvetica-Bold" font-weight="bold" font-size="50.0" fill="#000000" transform="matrix(1.00, 0.00, -0.00, -1.00, 275.4, 40.0)">r</text><text xml:space="preserve" font-family="Helvetica-Bold" font-weight="bold" font-size="50.0" fill="#000000" transform="matrix(1.00, 0.00, -0.00, -1.00, 294.8, 40.0)">e</text><text xml:space="preserve" font-family="Helvetica-Bold" font-weight="bold" font-size="50.0" fill="#000000" transform="matrix(1.00, 0.00, -0.00, -1.00, 322.6, 40.0)">d</text><text xml:space="preserve" font-family="Helvetica-Bold" font-weight="bold" font-size="50.0" fill="#000000" transform="matrix(1.00, 0.00, -0.00, -1.00, 353.2, 40.0)">i</text><text xml:space="preserve" font-family="Helvetica-Bold" font-weight="bold" font-size="50.0" fill="#000000" transform="matrix(1.00, 0.00, -0.00, -1.00, 367.1, 40.0)">e</text><text xml:space="preserve" font-family="Helvetica-Bold" font-weight="bold" font-size="50.0" fill="#000000" transform="matrix(1.00, 0.00, -0.00, -1.00, 394.9, 40.0)">n</text><text xml:space="preserve" font-family="Helvetica-Bold" font-weight="bold" font-size="50.0" fill="#000000" transform="matrix(1.00, 0.00, -0.00, -1.00, 425.4, 40.0)">t</text><text xml:space="preserve" font-family="Helvetica-Bold" font-weight="bold" font-size="50.0" fill="#000000" transform="matrix(1.00, 0.00, -0.00, -1.00, 442.1, 40.0)">s</text></g></g></g></svg>