<?xml version="1.0" encoding="UTF-8" standalone="no"?><svg xmlns="http://www.w3.org/2000/svg" xmlns:xlink="http://www.w3.org/1999/xlink" clip-rule="evenodd" stroke-miterlimit="4.00" viewBox="0 0 74 199"><desc>SVG generated by Keynote</desc><defs></defs><g transform="matrix(1.00, 0.00, -0.00, -1.00, 0.0, 199.0)"><image xlink:href="../../63D399A3-35E1-45FF-B287-06BE5905E8D9/assets/748ADB321BC6828EFC4DA7CA3DED09AD.png" width="193.00" height="71.00" transform="matrix(0.00, 1.00, 1.00, -0.00, 1.4, 1.4)" opacity="0.50"></image><path d="M 4.4 29.4 L 4.4 170.1 C 4.4 176.6 4.4 180.0 5.5 183.5 C 7.0 187.4 10.0 190.5 13.9 191.9 C 17.4 193.0 20.8 193.0 27.4 193.0 L 46.4 193.0 C 53.0 193.0 56.4 193.0 59.9 191.9 C 63.8 190.5 66.8 187.4 68.2 183.5 C 69.4 180.0 69.4 176.6 69.4 170.0 L 69.4 29.4 C 69.4 22.8 69.4 19.4 68.2 15.9 C 66.8 12.0 63.8 9.0 59.9 7.5 C 56.4 6.4 53.0 6.4 46.3 6.4 L 27.3 6.4 C 20.8 6.4 17.4 6.4 13.9 7.5 C 10.0 9.0 7.0 12.0 5.5 15.9 C 4.4 19.4 4.4 22.8 4.4 29.5 Z M 4.4 29.4 " fill="#6FBF40"></path><g><clipPath id="clip-43"><path d="M 4.4 2.9 L 4.4 196.5 L 69.4 196.5 L 69.4 2.9 Z M 4.4 2.9 "></path></clipPath><g clip-path="url(#clip-43)"><text xml:space="preserve" font-family="Helvetica-Light" font-size="32.0" fill="#000000" transform="matrix(0.00, 1.00, 1.00, -0.00, 49.0, 40.0)">N</text><text xml:space="preserve" font-family="Helvetica-Light" font-size="32.0" fill="#000000" transform="matrix(0.00, 1.00, 1.00, -0.00, 49.0, 63.1)">u</text><text xml:space="preserve" font-family="Helvetica-Light" font-size="32.0" fill="#000000" transform="matrix(0.00, 1.00, 1.00, -0.00, 49.0, 80.9)">t</text><text xml:space="preserve" font-family="Helvetica-Light" font-size="32.0" fill="#000000" transform="matrix(0.00, 1.00, 1.00, -0.00, 49.0, 89.8)">r</text><text xml:space="preserve" font-family="Helvetica-Light" font-size="32.0" fill="#000000" transform="matrix(0.00, 1.00, 1.00, -0.00, 49.0, 100.4)">i</text><text xml:space="preserve" font-family="Helvetica-Light" font-size="32.0" fill="#000000" transform="matrix(0.00, 1.00, 1.00, -0.00, 49.0, 107.6)">t</text><text xml:space="preserve" font-family="Helvetica-Light" font-size="32.0" fill="#000000" transform="matrix(0.00, 1.00, 1.00, -0.00, 49.0, 116.4)">i</text><text xml:space="preserve" font-family="Helvetica-Light" font-size="32.0" fill="#000000" transform="matrix(0.00, 1.00, 1.00, -0.00, 49.0, 123.6)">o</text><text xml:space="preserve" font-family="Helvetica-Light" font-size="32.0" fill="#000000" transform="matrix(0.00, 1.00, 1.00, -0.00, 49.0, 141.3)">n</text></g></g></g></svg>