<?xml version="1.0" encoding="UTF-8" standalone="no"?><svg xmlns="http://www.w3.org/2000/svg" xmlns:xlink="http://www.w3.org/1999/xlink" clip-rule="evenodd" stroke-miterlimit="4.00" viewBox="0 0 195 78"><desc>SVG generated by Keynote</desc><defs></defs><g transform="matrix(1.00, 0.00, -0.00, -1.00, 0.0, 78.0)"><image xlink:href="../../8B8F5646-DEE6-4B72-96FF-8EA7AD0B47C3/assets/748ADB321BC6828EFC4DA7CA3DED09AD.png" width="193.00" height="71.00" transform="matrix(1.00, 0.00, -0.00, -1.00, 1.3, 72.3)" opacity="0.50"></image><path d="M 27.3 71.3 L 168.0 71.3 C 174.6 71.3 177.9 71.3 181.4 70.2 C 185.3 68.8 188.4 65.7 189.8 61.8 C 190.9 58.3 190.9 54.9 190.9 48.3 L 190.9 29.3 C 190.9 22.7 190.9 19.4 189.8 15.8 C 188.4 11.9 185.3 8.9 181.4 7.5 C 177.9 6.3 174.6 6.3 167.9 6.3 L 27.3 6.3 C 20.7 6.3 17.4 6.3 13.8 7.5 C 9.9 8.9 6.9 11.9 5.5 15.8 C 4.3 19.4 4.3 22.7 4.3 29.4 L 4.3 48.4 C 4.3 54.9 4.3 58.3 5.5 61.8 C 6.9 65.7 9.9 68.8 13.8 70.2 C 17.4 71.3 20.7 71.3 27.4 71.3 Z M 27.3 71.3 " fill="#6FBF40"></path><g><clipPath id="clip-5"><path d="M 0.8 6.3 L 194.4 6.3 L 194.4 71.3 L 0.8 71.3 Z M 0.8 6.3 "></path></clipPath><g clip-path="url(#clip-5)"><text xml:space="preserve" font-family="Helvetica-Light" font-size="32.0" fill="#000000" transform="matrix(1.00, 0.00, -0.00, -1.00, 38.0, 27.0)">N</text><text xml:space="preserve" font-family="Helvetica-Light" font-size="32.0" fill="#000000" transform="matrix(1.00, 0.00, -0.00, -1.00, 61.1, 27.0)">u</text><text xml:space="preserve" font-family="Helvetica-Light" font-size="32.0" fill="#000000" transform="matrix(1.00, 0.00, -0.00, -1.00, 78.9, 27.0)">t</text><text xml:space="preserve" font-family="Helvetica-Light" font-size="32.0" fill="#000000" transform="matrix(1.00, 0.00, -0.00, -1.00, 87.8, 27.0)">r</text><text xml:space="preserve" font-family="Helvetica-Light" font-size="32.0" fill="#000000" transform="matrix(1.00, 0.00, -0.00, -1.00, 98.4, 27.0)">i</text><text xml:space="preserve" font-family="Helvetica-Light" font-size="32.0" fill="#000000" transform="matrix(1.00, 0.00, -0.00, -1.00, 105.6, 27.0)">t</text><text xml:space="preserve" font-family="Helvetica-Light" font-size="32.0" fill="#000000" transform="matrix(1.00, 0.00, -0.00, -1.00, 114.4, 27.0)">i</text><text xml:space="preserve" font-family="Helvetica-Light" font-size="32.0" fill="#000000" transform="matrix(1.00, 0.00, -0.00, -1.00, 121.6, 27.0)">o</text><text xml:space="preserve" font-family="Helvetica-Light" font-size="32.0" fill="#000000" transform="matrix(1.00, 0.00, -0.00, -1.00, 139.3, 27.0)">n</text></g></g></g></svg>