<?xml version="1.0" encoding="UTF-8" standalone="no"?><svg xmlns="http://www.w3.org/2000/svg" xmlns:xlink="http://www.w3.org/1999/xlink" clip-rule="evenodd" stroke-miterlimit="4.00" viewBox="0 0 195 78"><desc>SVG generated by Keynote</desc><defs></defs><g transform="matrix(1.00, 0.00, -0.00, -1.00, 0.0, 78.0)"><image xlink:href="../../8B8F5646-DEE6-4B72-96FF-8EA7AD0B47C3/assets/748ADB321BC6828EFC4DA7CA3DED09AD.png" width="193.00" height="71.00" transform="matrix(1.00, 0.00, -0.00, -1.00, 1.3, 72.5)" opacity="0.50"></image><path d="M 27.3 71.5 L 168.0 71.5 C 174.6 71.5 177.9 71.5 181.4 70.4 C 185.3 68.9 188.4 65.9 189.8 62.0 C 190.9 58.5 190.9 55.1 190.9 48.4 L 190.9 29.5 C 190.9 22.9 190.9 19.5 189.8 16.0 C 188.4 12.1 185.3 9.1 181.4 7.6 C 177.9 6.5 174.6 6.5 167.9 6.5 L 27.3 6.5 C 20.7 6.5 17.4 6.5 13.8 7.6 C 9.9 9.1 6.9 12.1 5.5 16.0 C 4.3 19.5 4.3 22.9 4.3 29.6 L 4.3 48.5 C 4.3 55.1 4.3 58.5 5.5 62.0 C 6.9 65.9 9.9 68.9 13.8 70.4 C 17.4 71.5 20.7 71.5 27.4 71.5 Z M 27.3 71.5 " fill="#6FBF40"></path><g><clipPath id="clip-4"><path d="M 0.8 6.5 L 194.4 6.5 L 194.4 71.5 L 0.8 71.5 Z M 0.8 6.5 "></path></clipPath><g clip-path="url(#clip-4)"><text xml:space="preserve" font-family="Helvetica-Light" font-size="32.0" fill="#000000" transform="matrix(1.00, 0.00, -0.00, -1.00, 26.0, 27.0)">D</text><text xml:space="preserve" font-family="Helvetica-Light" font-size="32.0" fill="#000000" transform="matrix(1.00, 0.00, -0.00, -1.00, 49.1, 27.0)">i</text><text xml:space="preserve" font-family="Helvetica-Light" font-size="32.0" fill="#000000" transform="matrix(1.00, 0.00, -0.00, -1.00, 56.2, 27.0)">r</text><text xml:space="preserve" font-family="Helvetica-Light" font-size="32.0" fill="#000000" transform="matrix(1.00, 0.00, -0.00, -1.00, 66.3, 27.0)">e</text><text xml:space="preserve" font-family="Helvetica-Light" font-size="32.0" fill="#000000" transform="matrix(1.00, 0.00, -0.00, -1.00, 84.1, 27.0)">c</text><text xml:space="preserve" font-family="Helvetica-Light" font-size="32.0" fill="#000000" transform="matrix(1.00, 0.00, -0.00, -1.00, 101.9, 27.0)">t</text><text xml:space="preserve" font-family="Helvetica-Light" font-size="32.0" fill="#000000" transform="matrix(1.00, 0.00, -0.00, -1.00, 110.8, 27.0)">i</text><text xml:space="preserve" font-family="Helvetica-Light" font-size="32.0" fill="#000000" transform="matrix(1.00, 0.00, -0.00, -1.00, 117.9, 27.0)">o</text><text xml:space="preserve" font-family="Helvetica-Light" font-size="32.0" fill="#000000" transform="matrix(1.00, 0.00, -0.00, -1.00, 135.7, 27.0)">n</text><text xml:space="preserve" font-family="Helvetica-Light" font-size="32.0" fill="#000000" transform="matrix(1.00, 0.00, -0.00, -1.00, 153.5, 27.0)">s</text></g></g></g></svg>