<?xml version="1.0" encoding="UTF-8" standalone="no"?><svg xmlns="http://www.w3.org/2000/svg" xmlns:xlink="http://www.w3.org/1999/xlink" clip-rule="evenodd" stroke-miterlimit="4.00" viewBox="0 0 165 78"><desc>SVG generated by Keynote</desc><defs></defs><g transform="matrix(1.00, 0.00, -0.00, -1.00, 0.0, 78.0)"><image xlink:href="../../8B8F5646-DEE6-4B72-96FF-8EA7AD0B47C3/assets/012DA33ECD4E2772276F3DCCEB1B19FE.png" width="163.00" height="71.00" transform="matrix(1.00, 0.00, -0.00, -1.00, 1.0, 72.5)" opacity="0.50"></image><path d="M 26.9 71.5 L 137.8 71.5 C 144.4 71.5 147.7 71.5 151.2 70.4 C 155.1 68.9 158.2 65.9 159.6 62.0 C 160.7 58.5 160.7 55.1 160.7 48.4 L 160.7 29.5 C 160.7 22.9 160.7 19.5 159.6 16.0 C 158.2 12.1 155.1 9.1 151.2 7.6 C 147.7 6.5 144.4 6.5 137.7 6.5 L 26.9 6.5 C 20.4 6.5 17.0 6.5 13.5 7.6 C 9.6 9.1 6.5 12.1 5.1 16.0 C 4.0 19.5 4.0 22.9 4.0 29.6 L 4.0 48.5 C 4.0 55.1 4.0 58.5 5.1 62.0 C 6.5 65.9 9.6 68.9 13.5 70.4 C 17.0 71.5 20.4 71.5 27.0 71.5 Z M 26.9 71.5 " fill="#EB5C56"></path></g></svg>