<?xml version="1.0" encoding="UTF-8" standalone="no"?><svg xmlns="http://www.w3.org/2000/svg" xmlns:xlink="http://www.w3.org/1999/xlink" clip-rule="evenodd" stroke-miterlimit="4.00" viewBox="0 0 181 59"><desc>SVG generated by Keynote</desc><defs></defs><g transform="matrix(1.00, 0.00, -0.00, -1.00, 0.0, 59.0)"><image xlink:href="4D5DA89C76568CD5258E8106FC7559E4.png" width="179.00" height="52.00" transform="matrix(1.00, 0.00, -0.00, -1.00, 1.0, 53.6)" opacity="0.50"></image><g><clipPath id="clip-16"><path d="M 4.0 52.6 L 176.6 52.6 L 176.6 6.6 L 4.0 6.6 Z M 4.0 52.6 "></path></clipPath><g clip-path="url(#clip-16)"><image xlink:href="../../4F5A48CE-48E1-4AFC-A0E5-9B5DA62F06D1/assets/A3B0B5B6FA27390CB5A3D2DDF69F2476.jpeg" width="550.00" height="550.00" transform="matrix(0.55, 0.00, -0.00, -0.55, 4.0, 52.6)"></image><path d="M 4.0 52.6 L 176.6 52.6 L 176.6 6.6 L 4.0 6.6 Z M 4.0 52.6 " fill="#009BFC" fill-opacity="0.50"></path></g></g><g><clipPath id="clip-17"><path d="M 0.0 2.6 L 180.6 2.6 L 180.6 56.6 L 0.0 56.6 Z M 0.0 2.6 "></path></clipPath><g clip-path="url(#clip-17)"><text xml:space="preserve" font-family="Helvetica-Light" font-size="32.0" fill="#FEFFFE" transform="matrix(1.00, 0.00, -0.00, -1.00, 9.0, 18.0)">D</text><text xml:space="preserve" font-family="Helvetica-Light" font-size="32.0" fill="#FEFFFE" transform="matrix(1.00, 0.00, -0.00, -1.00, 32.1, 18.0)">e</text><text xml:space="preserve" font-family="Helvetica-Light" font-size="32.0" fill="#FEFFFE" transform="matrix(1.00, 0.00, -0.00, -1.00, 49.9, 18.0)">s</text><text xml:space="preserve" font-family="Helvetica-Light" font-size="32.0" fill="#FEFFFE" transform="matrix(1.00, 0.00, -0.00, -1.00, 65.9, 18.0)">c</text><text xml:space="preserve" font-family="Helvetica-Light" font-size="32.0" fill="#FEFFFE" transform="matrix(1.00, 0.00, -0.00, -1.00, 83.7, 18.0)">r</text><text xml:space="preserve" font-family="Helvetica-Light" font-size="32.0" fill="#FEFFFE" transform="matrix(1.00, 0.00, -0.00, -1.00, 94.3, 18.0)">i</text><text xml:space="preserve" font-family="Helvetica-Light" font-size="32.0" fill="#FEFFFE" transform="matrix(1.00, 0.00, -0.00, -1.00, 101.4, 18.0)">p</text><text xml:space="preserve" font-family="Helvetica-Light" font-size="32.0" fill="#FEFFFE" transform="matrix(1.00, 0.00, -0.00, -1.00, 121.0, 18.0)">t</text><text xml:space="preserve" font-family="Helvetica-Light" font-size="32.0" fill="#FEFFFE" transform="matrix(1.00, 0.00, -0.00, -1.00, 129.9, 18.0)">i</text><text xml:space="preserve" font-family="Helvetica-Light" font-size="32.0" fill="#FEFFFE" transform="matrix(1.00, 0.00, -0.00, -1.00, 137.0, 18.0)">o</text><text xml:space="preserve" font-family="Helvetica-Light" font-size="32.0" fill="#FEFFFE" transform="matrix(1.00, 0.00, -0.00, -1.00, 154.8, 18.0)">n</text></g></g></g></svg>