<?xml version="1.0" encoding="UTF-8" standalone="no"?><svg xmlns="http://www.w3.org/2000/svg" xmlns:xlink="http://www.w3.org/1999/xlink" clip-rule="evenodd" stroke-miterlimit="4.00" viewBox="0 0 178 6"><desc>SVG generated by Keynote</desc><defs></defs><g transform="matrix(1.00, 0.00, -0.00, -1.00, 0.0, 6.0)"><text xml:space="preserve" font-family="Courier" font-size="14.0" fill="#000000" transform="matrix(1.00, 0.00, -0.00, -1.00, 0.0, 0.0)">-</text><text xml:space="preserve" font-family="Courier" font-size="14.0" fill="#000000" transform="matrix(1.00, 0.00, -0.00, -1.00, 8.4, 0.0)">-</text><text xml:space="preserve" font-family="Courier" font-size="14.0" fill="#000000" transform="matrix(1.00, 0.00, -0.00, -1.00, 16.8, 0.0)">-</text><text xml:space="preserve" font-family="Courier" font-size="14.0" fill="#000000" transform="matrix(1.00, 0.00, -0.00, -1.00, 25.2, 0.0)">-</text><text xml:space="preserve" font-family="Courier" font-size="14.0" fill="#000000" transform="matrix(1.00, 0.00, -0.00, -1.00, 33.6, 0.0)">-</text><text xml:space="preserve" font-family="Courier" font-size="14.0" fill="#000000" transform="matrix(1.00, 0.00, -0.00, -1.00, 42.0, 0.0)">-</text><text xml:space="preserve" font-family="Courier" font-size="14.0" fill="#000000" transform="matrix(1.00, 0.00, -0.00, -1.00, 50.4, 0.0)">-</text><text xml:space="preserve" font-family="Courier" font-size="14.0" fill="#000000" transform="matrix(1.00, 0.00, -0.00, -1.00, 58.8, 0.0)">-</text><text xml:space="preserve" font-family="Courier" font-size="14.0" fill="#000000" transform="matrix(1.00, 0.00, -0.00, -1.00, 67.2, 0.0)">-</text><text xml:space="preserve" font-family="Courier" font-size="14.0" fill="#000000" transform="matrix(1.00, 0.00, -0.00, -1.00, 75.6, 0.0)">-</text><text xml:space="preserve" font-family="Courier" font-size="14.0" fill="#000000" transform="matrix(1.00, 0.00, -0.00, -1.00, 84.0, 0.0)">-</text><text xml:space="preserve" font-family="Courier" font-size="14.0" fill="#000000" transform="matrix(1.00, 0.00, -0.00, -1.00, 92.4, 0.0)">-</text><text xml:space="preserve" font-family="Courier" font-size="14.0" fill="#000000" transform="matrix(1.00, 0.00, -0.00, -1.00, 100.8, 0.0)">-</text><text xml:space="preserve" font-family="Courier" font-size="14.0" fill="#000000" transform="matrix(1.00, 0.00, -0.00, -1.00, 109.2, 0.0)">-</text><text xml:space="preserve" font-family="Courier" font-size="14.0" fill="#000000" transform="matrix(1.00, 0.00, -0.00, -1.00, 117.6, 0.0)">-</text><text xml:space="preserve" font-family="Courier" font-size="14.0" fill="#000000" transform="matrix(1.00, 0.00, -0.00, -1.00, 126.0, 0.0)">-</text><text xml:space="preserve" font-family="Courier" font-size="14.0" fill="#000000" transform="matrix(1.00, 0.00, -0.00, -1.00, 134.4, 0.0)">-</text><text xml:space="preserve" font-family="Courier" font-size="14.0" fill="#000000" transform="matrix(1.00, 0.00, -0.00, -1.00, 142.8, 0.0)">-</text><text xml:space="preserve" font-family="Courier" font-size="14.0" fill="#000000" transform="matrix(1.00, 0.00, -0.00, -1.00, 151.2, 0.0)">-</text><text xml:space="preserve" font-family="Courier" font-size="14.0" fill="#000000" transform="matrix(1.00, 0.00, -0.00, -1.00, 159.7, 0.0)">-</text><text xml:space="preserve" font-family="Courier" font-size="14.0" fill="#000000" transform="matrix(1.00, 0.00, -0.00, -1.00, 168.1, 0.0)">-</text></g></svg>