<?xml version="1.0" encoding="UTF-8" standalone="no"?><svg xmlns="http://www.w3.org/2000/svg" xmlns:xlink="http://www.w3.org/1999/xlink" clip-rule="evenodd" stroke-miterlimit="4.00" viewBox="0 0 591 88"><desc>SVG generated by Keynote</desc><defs></defs><g transform="matrix(1.00, 0.00, -0.00, -1.00, 0.0, 88.0)"><text xml:space="preserve" font-family="Helvetica-Light" font-size="112.0" fill="#000000" transform="matrix(1.00, 0.00, -0.00, -1.00, -3.0, 4.0)">S</text><text xml:space="preserve" font-family="Helvetica-Light" font-size="89.6" fill="#000000" transform="matrix(1.00, 0.00, -0.00, -1.00, 65.4, 4.0)">T</text><text xml:space="preserve" font-family="Helvetica-Light" font-size="89.6" fill="#000000" transform="matrix(1.00, 0.00, -0.00, -1.00, 115.2, 4.0)">O</text><text xml:space="preserve" font-family="Helvetica-Light" font-size="89.6" fill="#000000" transform="matrix(1.00, 0.00, -0.00, -1.00, 185.0, 4.0)">N</text><text xml:space="preserve" font-family="Helvetica-Light" font-size="89.6" fill="#000000" transform="matrix(1.00, 0.00, -0.00, -1.00, 249.6, 4.0)">E</text><text xml:space="preserve" font-family="Helvetica-Light" font-size="112.0" fill="#000000" transform="matrix(1.00, 0.00, -0.00, -1.00, 304.4, 4.0)"> </text><text xml:space="preserve" font-family="Helvetica-Light" font-size="112.0" fill="#000000" transform="matrix(1.00, 0.00, -0.00, -1.00, 335.5, 4.0)">S</text><text xml:space="preserve" font-family="Helvetica-Light" font-size="89.6" fill="#000000" transform="matrix(1.00, 0.00, -0.00, -1.00, 404.0, 4.0)">O</text><text xml:space="preserve" font-family="Helvetica-Light" font-size="89.6" fill="#000000" transform="matrix(1.00, 0.00, -0.00, -1.00, 473.7, 4.0)">U</text><text xml:space="preserve" font-family="Helvetica-Light" font-size="89.6" fill="#000000" transform="matrix(1.00, 0.00, -0.00, -1.00, 538.4, 4.0)">P</text></g></svg>