<?xml version="1.0" encoding="UTF-8" standalone="no"?><svg xmlns="http://www.w3.org/2000/svg" xmlns:xlink="http://www.w3.org/1999/xlink" clip-rule="evenodd" stroke-miterlimit="4.00" viewBox="0 0 338 44"><desc>SVG generated by Keynote</desc><defs></defs><g transform="matrix(1.00, 0.00, -0.00, -1.00, 0.0, 44.0)"><text xml:space="preserve" font-family="Helvetica-Light" font-size="44.0" fill="#000000" transform="matrix(1.00, 0.00, -0.00, -1.00, 0.0, 10.0)">J</text><text xml:space="preserve" font-family="Helvetica-Light" font-size="44.0" fill="#000000" transform="matrix(1.00, 0.00, -0.00, -1.00, 22.0, 10.0)">a</text><text xml:space="preserve" font-family="Helvetica-Light" font-size="44.0" fill="#000000" transform="matrix(1.00, 0.00, -0.00, -1.00, 46.5, 10.0)">y</text><text xml:space="preserve" font-family="Helvetica-Light" font-size="44.0" fill="#000000" transform="matrix(1.00, 0.00, -0.00, -1.00, 68.5, 10.0)">s</text><text xml:space="preserve" font-family="Helvetica-Light" font-size="44.0" fill="#000000" transform="matrix(1.00, 0.00, -0.00, -1.00, 90.5, 10.0)">o</text><text xml:space="preserve" font-family="Helvetica-Light" font-size="44.0" fill="#000000" transform="matrix(1.00, 0.00, -0.00, -1.00, 114.9, 10.0)">n</text><text xml:space="preserve" font-family="Helvetica-Light" font-size="44.0" fill="#000000" transform="matrix(1.00, 0.00, -0.00, -1.00, 139.4, 10.0)"> </text><text xml:space="preserve" font-family="Helvetica-Light" font-size="44.0" fill="#000000" transform="matrix(1.00, 0.00, -0.00, -1.00, 151.6, 10.0)">S</text><text xml:space="preserve" font-family="Helvetica-Light" font-size="44.0" fill="#000000" transform="matrix(1.00, 0.00, -0.00, -1.00, 178.5, 10.0)">t</text><text xml:space="preserve" font-family="Helvetica-Light" font-size="44.0" fill="#000000" transform="matrix(1.00, 0.00, -0.00, -1.00, 190.7, 10.0)">e</text><text xml:space="preserve" font-family="Helvetica-Light" font-size="44.0" fill="#000000" transform="matrix(1.00, 0.00, -0.00, -1.00, 215.2, 10.0)">m</text><text xml:space="preserve" font-family="Helvetica-Light" font-size="44.0" fill="#000000" transform="matrix(1.00, 0.00, -0.00, -1.00, 251.9, 10.0)">m</text><text xml:space="preserve" font-family="Helvetica-Light" font-size="44.0" fill="#000000" transform="matrix(1.00, 0.00, -0.00, -1.00, 288.5, 10.0)">l</text><text xml:space="preserve" font-family="Helvetica-Light" font-size="44.0" fill="#000000" transform="matrix(1.00, 0.00, -0.00, -1.00, 298.3, 10.0)">e</text><text xml:space="preserve" font-family="Helvetica-Light" font-size="44.0" fill="#000000" transform="matrix(1.00, 0.00, -0.00, -1.00, 322.7, 10.0)">r</text></g></svg>