<?xml version="1.0" encoding="UTF-8" standalone="no"?><svg xmlns="http://www.w3.org/2000/svg" xmlns:xlink="http://www.w3.org/1999/xlink" clip-rule="evenodd" stroke-miterlimit="4.00" viewBox="0 0 589 60"><desc>SVG generated by Keynote</desc><defs></defs><g transform="matrix(1.00, 0.00, -0.00, -1.00, 0.0, 60.0)"><text xml:space="preserve" font-family="Helvetica-Light" font-size="76.0" fill="#3A5360" transform="matrix(1.00, 0.00, -0.00, -1.00, 0.0, 2.0)">J</text><text xml:space="preserve" font-family="Helvetica-Light" font-size="60.8" fill="#3A5360" transform="matrix(1.00, 0.00, -0.00, -1.00, 38.0, 2.0)">A</text><text xml:space="preserve" font-family="Helvetica-Light" font-size="60.8" fill="#3A5360" transform="matrix(1.00, 0.00, -0.00, -1.00, 74.1, 2.0)">Y</text><text xml:space="preserve" font-family="Helvetica-Light" font-size="60.8" fill="#3A5360" transform="matrix(1.00, 0.00, -0.00, -1.00, 111.2, 2.0)">S</text><text xml:space="preserve" font-family="Helvetica-Light" font-size="60.8" fill="#3A5360" transform="matrix(1.00, 0.00, -0.00, -1.00, 148.4, 2.0)">O</text><text xml:space="preserve" font-family="Helvetica-Light" font-size="60.8" fill="#3A5360" transform="matrix(1.00, 0.00, -0.00, -1.00, 195.7, 2.0)">N</text><text xml:space="preserve" font-family="Helvetica-Light" font-size="76.0" fill="#3A5360" transform="matrix(1.00, 0.00, -0.00, -1.00, 239.6, 2.0)"> </text><text xml:space="preserve" font-family="Helvetica-Light" font-size="76.0" fill="#3A5360" transform="matrix(1.00, 0.00, -0.00, -1.00, 260.7, 2.0)">S</text><text xml:space="preserve" font-family="Helvetica-Light" font-size="60.8" fill="#3A5360" transform="matrix(1.00, 0.00, -0.00, -1.00, 307.1, 2.0)">T</text><text xml:space="preserve" font-family="Helvetica-Light" font-size="60.8" fill="#3A5360" transform="matrix(1.00, 0.00, -0.00, -1.00, 340.9, 2.0)">E</text><text xml:space="preserve" font-family="Helvetica-Light" font-size="60.8" fill="#3A5360" transform="matrix(1.00, 0.00, -0.00, -1.00, 378.1, 2.0)">M</text><text xml:space="preserve" font-family="Helvetica-Light" font-size="60.8" fill="#3A5360" transform="matrix(1.00, 0.00, -0.00, -1.00, 428.7, 2.0)">M</text><text xml:space="preserve" font-family="Helvetica-Light" font-size="60.8" fill="#3A5360" transform="matrix(1.00, 0.00, -0.00, -1.00, 479.4, 2.0)">L</text><text xml:space="preserve" font-family="Helvetica-Light" font-size="60.8" fill="#3A5360" transform="matrix(1.00, 0.00, -0.00, -1.00, 513.2, 2.0)">E</text><text xml:space="preserve" font-family="Helvetica-Light" font-size="60.8" fill="#3A5360" transform="matrix(1.00, 0.00, -0.00, -1.00, 550.3, 2.0)">R</text></g></svg>