<?xml version="1.0" encoding="UTF-8" standalone="no"?><svg xmlns="http://www.w3.org/2000/svg" xmlns:xlink="http://www.w3.org/1999/xlink" clip-rule="evenodd" stroke-miterlimit="4.00" viewBox="0 0 118 24"><desc>SVG generated by Keynote</desc><defs></defs><g transform="matrix(1.00, 0.00, -0.00, -1.00, 0.0, 24.0)"><text xml:space="preserve" font-family="Courier" font-size="23.0" fill="#000000" transform="matrix(1.00, 0.00, -0.00, -1.00, -4.2, 7.0)">'</text><text xml:space="preserve" font-family="Courier" font-size="23.0" fill="#000000" transform="matrix(1.00, 0.00, -0.00, -1.00, 9.6, 7.0)">q</text><text xml:space="preserve" font-family="Courier" font-size="23.0" fill="#000000" transform="matrix(1.00, 0.00, -0.00, -1.00, 23.4, 7.0)">u</text><text xml:space="preserve" font-family="Courier" font-size="23.0" fill="#000000" transform="matrix(1.00, 0.00, -0.00, -1.00, 37.2, 7.0)">i</text><text xml:space="preserve" font-family="Courier" font-size="23.0" fill="#000000" transform="matrix(1.00, 0.00, -0.00, -1.00, 51.0, 7.0)">n</text><text xml:space="preserve" font-family="Courier" font-size="23.0" fill="#000000" transform="matrix(1.00, 0.00, -0.00, -1.00, 64.8, 7.0)">o</text><text xml:space="preserve" font-family="Courier" font-size="23.0" fill="#000000" transform="matrix(1.00, 0.00, -0.00, -1.00, 78.7, 7.0)">a</text><text xml:space="preserve" font-family="Courier" font-size="23.0" fill="#000000" transform="matrix(1.00, 0.00, -0.00, -1.00, 92.5, 7.0)">'</text><text xml:space="preserve" font-family="Courier" font-size="23.0" fill="#000000" transform="matrix(1.00, 0.00, -0.00, -1.00, 106.3, 7.0)">,</text></g></svg>